<svg width="28" height="28" viewBox="0 0 28 28" fill="none" xmlns="http://www.w3.org/2000/svg">
<g clip-path="url(#clip0_10296_1398)">
<rect width="28" height="28" rx="6" fill="url(#paint0_linear_10296_1398)"/>
<g filter="url(#filter0_f_10296_1398)">
<circle cx="14" cy="14" r="6" fill="#04030D"/>
</g>
<path d="M13.9801 7.14519L15.1149 7.14514C15.165 7.44269 15.1185 7.95511 15.144 8.27643L15.1617 8.33549C15.1498 8.67446 15.1691 9.12098 15.1442 9.4422C15.7977 9.44291 16.8617 9.47086 17.4924 9.42349C17.4838 9.80516 17.4848 10.187 17.4956 10.5686C18.2607 10.5718 19.0259 10.5685 19.791 10.5589C19.7668 10.9298 19.7891 11.3208 19.7803 11.6977C20.1563 11.6865 20.6237 11.701 20.9816 11.6733C20.9661 12.3656 20.9536 13.3238 20.9807 14.0117L20.9733 16.2494C20.9731 16.5418 20.9577 17.2006 20.9994 17.4688C20.7177 17.4141 20.0937 17.4341 19.7885 17.4368C19.7781 17.9146 19.7742 18.3926 19.7768 18.8706C19.7771 19.1077 19.7676 19.4949 19.8031 19.7188C19.532 19.665 18.9378 19.6839 18.6412 19.686C18.6413 19.9717 18.6274 20.6171 18.6712 20.8769C18.3113 20.8467 17.8644 20.858 17.4961 20.8589C17.4904 21.1564 17.466 21.7276 17.4958 22C16.8056 21.9527 15.8434 21.9675 15.1396 21.9773C14.0748 21.9424 12.7228 21.9658 11.6459 21.9817C11.293 21.9646 10.8465 21.9768 10.4949 21.9995L10.4963 20.8701C10.1211 20.8501 9.71197 20.838 9.34029 20.877C9.33568 20.5679 9.32068 19.9756 9.35791 19.6819C9.03648 19.711 8.59061 19.6665 8.20089 19.7012L8.20308 17.4496C7.80404 17.4237 7.4037 17.4245 7.00476 17.4518L7 15.1197C7.01927 14.7826 7.00481 14.2776 7.00426 13.9326L7.0014 11.6689C7.40141 11.692 7.80232 11.6951 8.20263 11.678L8.19825 10.5692L9.35993 10.569C9.51488 10.569 10.252 10.5589 10.3552 10.5768C10.4168 10.5659 10.428 10.564 10.4833 10.5359C10.4987 10.4659 10.4908 9.54872 10.4917 9.41899C11.1051 9.45734 11.8353 9.44168 12.46 9.44252C12.8145 9.41153 13.6033 9.43931 13.9897 9.44257L13.9801 8.33079C13.9905 7.9514 13.981 7.52867 13.9801 7.14519Z" fill="#D8A013"/>
<path d="M17.4798 12.8729L18.6252 12.8713C18.6246 13.2306 18.6348 13.6456 18.6226 14C19.0047 13.9956 19.3867 13.9961 19.7687 14.0014L19.7734 14.0138C19.8772 13.9708 20.8196 14.0001 20.9812 14.0117L20.9738 16.2493C20.9736 16.5418 20.9582 17.2005 20.9999 17.4688C20.7182 17.414 20.0942 17.434 19.789 17.4368C19.7786 17.9146 19.7747 18.3926 19.7773 18.8705C19.7776 19.1076 19.7681 19.4948 19.8036 19.7188C19.5325 19.6649 18.9383 19.6839 18.6417 19.6859C18.6418 19.9717 18.6279 20.6171 18.6717 20.8769C18.3118 20.8467 17.8649 20.8579 17.4966 20.8589C17.491 21.1564 17.4665 21.7275 17.4963 22C16.8061 21.9526 15.8439 21.9674 15.1401 21.9773C15.1224 21.6424 15.132 21.2052 15.1298 20.8633C15.3572 20.8544 15.5543 20.864 15.7913 20.8476C15.5976 20.8359 15.3343 20.8443 15.1354 20.8451C15.1349 20.4537 15.1365 20.0623 15.1404 19.6709C15.5161 19.6702 15.9588 19.6582 16.329 19.672C16.3255 19.3006 16.3323 18.9173 16.334 18.5449L17.4795 18.5432C17.4677 18.19 17.4788 17.78 17.4798 17.4225C17.4638 16.6727 17.4778 15.8726 17.4772 15.1186L17.4798 12.8729Z" fill="#551808"/>
<path d="M17.4793 12.8729L18.6248 12.8713C18.6242 13.2306 18.6344 13.6456 18.6222 14L18.6252 16.2934C18.6245 16.6509 18.6122 17.0729 18.6246 17.4249C18.3033 17.4065 17.8135 17.4223 17.4794 17.4225C17.4634 16.6727 17.4774 15.8726 17.4768 15.1186L17.4793 12.8729Z" fill="#EEF074"/>
<path d="M18.6223 14C19.0044 13.9957 19.3864 13.9961 19.7684 14.0014L19.7731 14.0139L19.7729 16.2957L18.6253 16.2935L18.6223 14Z" fill="#E9C945"/>
<path d="M15.1399 19.6709C15.5156 19.6702 15.9583 19.6582 16.3285 19.672L16.3317 20.8436L15.7908 20.8476C15.5971 20.8359 15.3338 20.8443 15.1349 20.8451C15.1344 20.4537 15.136 20.0623 15.1399 19.6709Z" fill="#D8A013"/>
<path d="M16.3291 19.672C16.7092 19.6724 17.1012 19.6676 17.4802 19.6734L17.4811 20.8455L16.3323 20.8436L16.3291 19.672Z" fill="#B26411"/>
<path d="M16.3341 18.5449L17.4796 18.5432L17.4803 19.6734C17.1013 19.6676 16.7093 19.6724 16.3292 19.672C16.3256 19.3006 16.3324 18.9173 16.3341 18.5449Z" fill="#D8A013"/>
<path d="M18.6255 16.2935L19.7731 16.2956L19.7729 17.4216C19.4023 17.422 18.9921 17.4137 18.6249 17.4249C18.6125 17.0729 18.6248 16.6509 18.6255 16.2935Z" fill="#D8A013"/>
<path d="M17.4794 17.4225C17.8135 17.4223 18.3033 17.4064 18.6245 17.4249L18.6252 18.5511C18.3499 18.5279 17.7766 18.5439 17.4791 18.5432C17.4672 18.19 17.4784 17.78 17.4794 17.4225Z" fill="#D8A013"/>
<path d="M17.4792 18.5432C17.7768 18.5439 18.3501 18.5279 18.6254 18.5511L18.6258 19.6714C18.2488 19.6717 17.8555 19.6662 17.4799 19.6733L17.4792 18.5432Z" fill="#B26411"/>
<path d="M13.9801 7.14519L15.1149 7.14514C15.1651 7.44269 15.1185 7.95511 15.144 8.27643L15.1617 8.33549C15.1498 8.67446 15.1691 9.12098 15.1443 9.4422C15.7978 9.44291 16.8617 9.47086 17.4924 9.42349C17.4838 9.80516 17.4848 10.187 17.4956 10.5686C18.2608 10.5718 19.0259 10.5685 19.791 10.5589C19.7668 10.9298 19.7891 11.3208 19.7803 11.6977C20.1563 11.6865 20.6237 11.701 20.9816 11.6733C20.9661 12.3656 20.9536 13.3238 20.9807 14.0117C20.8191 14.0002 19.8767 13.9709 19.7729 14.0139L19.7682 14.0014C19.3862 13.9961 19.0042 13.9957 18.6221 14C18.6343 13.6456 18.6241 13.2306 18.6247 12.8713L17.4793 12.8729C17.4761 12.4816 17.4772 12.0903 17.4826 11.699L16.3459 11.6993L16.3307 11.7031C15.9472 11.6903 15.5219 11.701 15.1352 11.7036C14.7982 11.6843 14.331 11.6978 13.9843 11.6978L12.8443 11.6965C12.4504 11.6986 12.0565 11.6979 11.6627 11.6946L11.6533 11.6834C11.6367 11.3355 11.6485 10.9261 11.6508 10.5733C11.2802 10.5728 10.8623 10.559 10.497 10.5794L10.3552 10.5768C10.4168 10.5659 10.428 10.564 10.4834 10.5359C10.4988 10.4659 10.4908 9.54872 10.4917 9.41899C11.1051 9.45734 11.8353 9.44168 12.46 9.44252C12.8145 9.41153 13.6033 9.43931 13.9897 9.44257L13.9802 8.33079C13.9905 7.9514 13.981 7.52867 13.9801 7.14519Z" fill="#762900"/>
<path d="M10.4917 9.41895C11.1051 9.45729 11.8353 9.44164 12.46 9.44247C12.5933 9.44797 12.7063 9.45169 12.8403 9.44819C12.8408 9.74506 12.824 10.2963 12.8476 10.5728L12.8406 10.5886L12.8443 11.6965C12.4504 11.6985 12.0565 11.6979 11.6627 11.6945L11.6533 11.6833C11.6367 11.3355 11.6485 10.926 11.6508 10.5733C11.2802 10.5728 10.8623 10.559 10.497 10.5793L10.3552 10.5767C10.4168 10.5659 10.428 10.564 10.4834 10.5358C10.4988 10.4659 10.4908 9.54867 10.4917 9.41895Z" fill="#B26411"/>
<path d="M11.6512 10.5733C11.8286 10.5717 12.7423 10.551 12.841 10.5886L12.8447 11.6965C12.4508 11.6986 12.0569 11.6979 11.6631 11.6945L11.6537 11.6833C11.6371 11.3355 11.6489 10.926 11.6512 10.5733Z" fill="#D8A013"/>
<path d="M16.3331 10.5722L17.482 10.5722L17.4803 11.697L18.6264 11.6984C18.626 12.0859 18.621 12.4828 18.6264 12.8695L19.7715 12.872C19.7721 13.2263 19.7842 13.6527 19.7688 14.0014C19.3868 13.9961 19.0047 13.9956 18.6227 14C18.6349 13.6456 18.6247 13.2306 18.6253 12.8713L17.4799 12.8729C17.4767 12.4816 17.4778 12.0902 17.4831 11.6989L16.3465 11.6992C16.3147 11.5933 16.3313 10.7437 16.3331 10.5722Z" fill="#D8A013"/>
<path d="M15.0456 10.5754L15.1354 10.574L16.3326 10.5722C16.3308 10.7437 16.3141 11.5932 16.346 11.6992L16.3308 11.703C15.9472 11.6902 15.522 11.701 15.1353 11.7035C14.7983 11.6842 14.331 11.6977 13.9844 11.6977C13.9822 11.3275 13.9849 10.9572 13.9926 10.587L14.003 10.5764C14.3451 10.5739 14.7053 10.5663 15.0456 10.5754Z" fill="#E9C945"/>
<path d="M15.0456 10.5754L15.1354 10.574L15.1353 11.7035C14.7983 11.6842 14.331 11.6977 13.9844 11.6977C13.9822 11.3275 13.9849 10.9572 13.9926 10.587L14.003 10.5764C14.3451 10.5739 14.7053 10.5663 15.0456 10.5754Z" fill="#B26411"/>
<path d="M13.9807 7.14519L15.1155 7.14514C15.1657 7.44269 15.1191 7.95511 15.1446 8.27643C15.1144 8.31201 15.1215 8.31688 15.0864 8.3193C14.7273 8.34417 14.3376 8.3138 13.9807 8.33079C13.9911 7.9514 13.9816 7.52867 13.9807 7.14519Z" fill="#B26411"/>
<path d="M13.9847 9.44058C14.3706 9.44845 14.7566 9.44351 15.1421 9.42578C15.1397 9.59351 15.1617 10.4788 15.1058 10.5561L15.0457 10.5755C14.7053 10.5663 14.3451 10.5739 14.003 10.5765C13.967 10.343 13.9912 9.71189 13.9847 9.44058Z" fill="#551808"/>
<path d="M12.8481 10.5728C13.0159 10.5712 13.9011 10.5539 13.993 10.587C13.9853 10.9572 13.9826 11.3275 13.9848 11.6978L12.8448 11.6965L12.8411 10.5886L12.8481 10.5728Z" fill="#551808"/>
<path d="M10.4972 10.5793C10.8624 10.559 11.2804 10.5728 11.651 10.5733C11.6487 10.926 11.6369 11.3355 11.6535 11.6833L11.6629 11.6945C12.0567 11.6979 12.4506 11.6986 12.8445 11.6965L13.9845 11.6978C14.3312 11.6978 14.7984 11.6842 15.1354 11.7036C15.5221 11.701 15.9474 11.6902 16.3309 11.7031L16.3461 11.6992L17.4827 11.699C17.4774 12.0902 17.4763 12.4816 17.4795 12.8729L16.3317 12.8717C16.3317 13.2288 16.3209 13.6451 16.334 13.9973L13.9832 13.9997C13.9887 14.3735 13.9906 14.7474 13.989 15.1213L12.8456 15.1203C12.823 14.8472 12.8435 14.2881 12.8451 13.9939L11.643 14.0026C11.6501 14.3694 11.6453 14.753 11.6463 15.1212C11.2672 15.1169 10.8791 15.1222 10.4992 15.1232C10.1286 15.1145 9.72721 15.1219 9.35406 15.1216L9.35329 14.0132L9.35254 11.6982L10.4975 11.696L10.5003 11.6829C10.4945 11.3187 10.4981 10.9444 10.4972 10.5793Z" fill="#EEF074"/>
<path d="M12.8442 11.6964L13.9842 11.6977C14.3309 11.6977 14.7981 11.6842 15.1351 11.7035C15.1425 11.9947 15.1534 12.579 15.1349 12.8713L11.6452 12.8708C11.6424 12.6863 11.6302 11.8223 11.6626 11.6945C12.0565 11.6978 12.4503 11.6985 12.8442 11.6964Z" fill="#FBFCE5"/>
<path d="M10.4974 10.5793C10.8626 10.559 11.2805 10.5728 11.6512 10.5733C11.6489 10.926 11.6371 11.3355 11.6537 11.6833L11.6631 11.6945C11.6307 11.8224 11.6428 12.6863 11.6456 12.8709C11.2634 12.8685 10.8812 12.8707 10.499 12.8775C10.5034 12.4837 10.503 12.0898 10.4976 11.696L10.5005 11.6829C10.4946 11.3187 10.4983 10.9444 10.4974 10.5793Z" fill="#EEF074"/>
<path d="M10.4974 10.5793C10.8626 10.559 11.2805 10.5728 11.6512 10.5733C11.6489 10.926 11.6371 11.3355 11.6537 11.6833C11.5176 11.7071 10.6243 11.7084 10.5005 11.6829C10.4946 11.3187 10.4983 10.9444 10.4974 10.5793Z" fill="#FBFCE5"/>
<path d="M15.1355 11.7036C15.5222 11.701 15.9474 11.6902 16.331 11.7031L16.3318 12.867C15.9373 12.8688 15.5285 12.8762 15.1353 12.8714C15.1537 12.5791 15.1429 11.9947 15.1355 11.7036Z" fill="#EEF074"/>
<path d="M9.35303 14.0132C9.73103 13.9927 10.1228 13.9942 10.5025 13.9911L10.499 15.1232C10.1283 15.1145 9.72695 15.1219 9.3538 15.1216L9.35303 14.0132Z" fill="#E9C945"/>
<path d="M9.35993 10.569C9.51488 10.569 10.252 10.5589 10.3552 10.5768L10.497 10.5794C10.4979 10.9444 10.4943 11.3187 10.5001 11.6829L10.4972 11.696L9.35233 11.6982L8.21298 11.696C8.18479 12.8066 8.20732 14.0034 8.2064 15.12C7.81082 15.1277 7.39697 15.1208 7 15.1197C7.01927 14.7826 7.00481 14.2776 7.00426 13.9326L7.0014 11.6689C7.40141 11.692 7.80232 11.6951 8.20263 11.678L8.19825 10.5692L9.35993 10.569Z" fill="#B26411"/>
<path d="M9.36003 10.569C9.51497 10.569 10.252 10.5589 10.3553 10.5768L10.4971 10.5794C10.498 10.9444 10.4943 11.3187 10.5002 11.6829L10.4973 11.696L9.35242 11.6982C9.35183 11.3257 9.34632 10.94 9.36003 10.569Z" fill="#D8A013"/>
<path d="M16.3316 12.8716L17.4794 12.8729L17.4768 15.1186C17.0976 15.1192 16.7104 15.124 16.3318 15.1197C16.3313 15.4942 16.3197 15.9252 16.3325 16.2951L15.1367 16.2952L15.137 15.1206L13.989 15.1213C13.9905 14.7474 13.9886 14.3735 13.9832 13.9997L16.3339 13.9973C16.3209 13.6451 16.3316 13.2288 16.3316 12.8716Z" fill="#E9C945"/>
<path d="M7 15.1197C7.39697 15.1207 7.81082 15.1276 8.2064 15.1199L8.20627 17.4217L9.35507 17.4204C9.35445 17.7938 9.34947 18.1753 9.3539 18.5479C9.35213 18.7287 9.33339 19.5614 9.37115 19.6733L9.35791 19.6819C9.03648 19.7109 8.59061 19.6664 8.20089 19.7011L8.20308 17.4496C7.80404 17.4237 7.4037 17.4244 7.00476 17.4518L7 15.1197Z" fill="#762900"/>
<path d="M11.6428 14.0026L12.8449 13.994C12.8433 14.2881 12.8228 14.8472 12.8454 15.1203C12.8387 15.512 12.838 15.9038 12.8433 16.2955C12.083 16.2798 11.2647 16.2957 10.4996 16.2963L10.499 15.1232C10.8789 15.1222 11.267 15.117 11.6461 15.1212C11.6451 14.753 11.6499 14.3694 11.6428 14.0026Z" fill="#E9C945"/>
<path d="M15.1353 20.8451C15.3342 20.8443 15.5975 20.8359 15.7912 20.8476C15.5542 20.8641 15.3571 20.8545 15.1298 20.8633C15.1319 21.2052 15.1224 21.6424 15.14 21.9773C14.0752 21.9424 12.7232 21.9658 11.6463 21.9817C11.6481 21.8104 11.6672 20.9569 11.6328 20.8456L11.6509 20.8405C12.0481 20.846 12.4453 20.8472 12.8425 20.844L15.1353 20.8451Z" fill="#762900"/>
<path d="M9.37125 19.6733C9.74425 19.6716 10.1293 19.6654 10.5012 19.6734L10.4994 20.8453L11.6325 20.8455C11.6668 20.9568 11.6477 21.8104 11.646 21.9816C11.2931 21.9645 10.8466 21.9767 10.495 21.9994L10.4964 20.87C10.1212 20.85 9.71207 20.8379 9.34039 20.8769C9.33578 20.5679 9.32078 19.9755 9.35801 19.6819L9.37125 19.6733Z" fill="#551808"/>
<path d="M13.9895 19.6726L15.1405 19.6709C15.1367 20.0623 15.135 20.4537 15.1355 20.8451L12.8427 20.8439L12.8406 19.6739L13.9895 19.6726Z" fill="#B26411"/>
<path d="M16.3335 18.5449C16.3318 18.9173 16.325 19.3006 16.3286 19.672C15.9583 19.6582 15.5156 19.6702 15.1399 19.6709L13.9888 19.6727L13.988 18.5457C14.7649 18.5534 15.5555 18.5454 16.3335 18.5449Z" fill="#E9C945"/>
<path d="M10.5014 19.6734L11.6484 19.6694C11.6471 20.0497 11.638 20.4627 11.6507 20.8404L11.6326 20.8456L10.4995 20.8453L10.5014 19.6734Z" fill="#B26411"/>
<path d="M15.1363 16.2952C15.1341 16.67 15.1338 17.0448 15.1355 17.4196C14.7657 17.4119 14.3615 17.4218 13.989 17.4236L13.988 16.2959L15.1363 16.2952Z" fill="#E9C945"/>
<path d="M16.3306 17.4221L17.4794 17.4225C17.4784 17.78 17.4672 18.19 17.4791 18.5432L16.3336 18.5449L16.3306 17.4221Z" fill="#E9C945"/>
<path d="M9.35411 18.5479L10.502 18.5428C10.5015 18.9087 10.492 19.3108 10.5013 19.6735C10.1294 19.6655 9.74435 19.6717 9.37135 19.6734C9.33359 19.5615 9.35234 18.7288 9.35411 18.5479Z" fill="#B26411"/>
<path d="M11.645 17.4224C12.042 17.427 12.4444 17.4235 12.8419 17.4232C12.839 17.7973 12.8398 18.1713 12.8441 18.5454C12.4598 18.5357 12.0348 18.545 11.6472 18.5453L11.645 17.4224Z" fill="#E9C945"/>
<path d="M15.1138 6.01558C15.4743 6.03076 16.0023 6.01489 16.3641 6L16.3478 6.78835C16.3515 7.15975 16.3247 8.04624 16.3779 8.35663C16.0035 8.32491 15.5442 8.33533 15.1616 8.33542L15.144 8.27637C15.1184 7.95505 15.165 7.44263 15.1148 7.14508L15.1264 7.13823L15.1138 6.01558Z" fill="#551808"/>
<path d="M15.1138 6.01558C15.4743 6.03076 16.0023 6.01489 16.3641 6L16.3478 6.78835C16.3127 6.86717 16.3326 7.07111 16.335 7.1686C16.0243 7.12376 15.3351 7.18262 15.1264 7.13823L15.1138 6.01558Z" fill="#762900"/>
</g>
<rect x="0.25" y="0.25" width="27.5" height="27.5" rx="5.75" stroke="url(#paint1_linear_10296_1398)" stroke-width="0.5"/>
<defs>
<filter id="filter0_f_10296_1398" x="-1.1" y="-1.1" width="30.2" height="30.2" filterUnits="userSpaceOnUse" color-interpolation-filters="sRGB">
<feFlood flood-opacity="0" result="BackgroundImageFix"/>
<feBlend mode="normal" in="SourceGraphic" in2="BackgroundImageFix" result="shape"/>
<feGaussianBlur stdDeviation="4.55" result="effect1_foregroundBlur_10296_1398"/>
</filter>
<linearGradient id="paint0_linear_10296_1398" x1="14" y1="0" x2="14" y2="28" gradientUnits="userSpaceOnUse">
<stop stop-color="#282C3E"/>
<stop offset="1" stop-color="#181822"/>
</linearGradient>
<linearGradient id="paint1_linear_10296_1398" x1="14" y1="0" x2="14" y2="30.9167" gradientUnits="userSpaceOnUse">
<stop stop-color="#E9C945"/>
<stop offset="1" stop-color="#E9C945" stop-opacity="0"/>
</linearGradient>
<clipPath id="clip0_10296_1398">
<rect width="28" height="28" rx="6" fill="white"/>
</clipPath>
</defs>
</svg>
