<svg width="28" height="28" viewBox="0 0 28 28" fill="none" xmlns="http://www.w3.org/2000/svg">
<g clip-path="url(#clip0_10296_1444)">
<rect width="28" height="28" rx="6" fill="url(#paint0_linear_10296_1444)"/>
<g filter="url(#filter0_f_10296_1444)">
<circle cx="14" cy="14" r="6" fill="#04030D"/>
</g>
<path d="M6.52326 6.02106L17.2418 6.01777L20.3587 6.0185C20.799 6.01852 21.592 6.04274 22 6C21.9479 6.34798 21.969 7.36331 21.9714 7.77756C21.9776 8.84431 21.9602 9.93241 21.9756 10.9967C21.9746 11.3295 21.968 11.6782 21.9732 12.0096L21.9726 15.2708C21.9727 15.8237 21.9591 16.4481 21.9769 16.9965C21.9751 17.3126 21.9658 17.6608 21.9729 17.9743C21.9736 18.2996 21.9646 18.6805 21.9771 19.0011C21.9754 19.6454 21.962 20.3271 21.9735 20.9681C21.974 21.2623 21.9608 21.7151 21.9814 21.9967C20.1397 21.9496 18.232 22.0026 16.3798 21.982L14.9971 21.9877C13.2863 21.9564 11.4666 21.9855 9.7489 21.9853L7.45653 21.9856C6.99454 21.9857 6.47804 21.9762 6.02014 22V20.0154L6.01818 19.0035L6.0179 16.9914L6.01968 16.0159L6.01977 15.0051L6.01816 14.0116L6.01968 7.08116C6.02003 6.72302 6.01347 6.36489 6 6.00698C6.1713 6.01539 6.35113 6.01698 6.52326 6.02106Z" fill="#797878"/>
<path d="M13.0068 8.02415L14.0111 8.02319C13.9937 8.34401 13.9989 8.68552 13.9988 9.00863C13.9946 9.35033 13.9929 9.69207 13.9937 10.0338L13.0153 10.035C13.0189 9.69167 13.0177 9.34834 13.0119 9.00508C13.0242 8.71651 13.0132 8.31732 13.0068 8.02415Z" fill="#666565"/>
<path d="M6.52326 6.02106L17.2418 6.01777L20.3587 6.0185C20.799 6.01852 21.592 6.04274 22 6C21.9479 6.34798 21.969 7.36331 21.9714 7.77756C21.9776 8.84431 21.9602 9.93241 21.9756 10.9967C21.9746 11.3295 21.968 11.6782 21.9732 12.0096C21.7129 11.9835 21.2344 12.001 20.9445 11.9944L19.9647 11.9972C19.8194 11.9955 19.0898 11.9804 18.9816 12.0081L18.9847 13.03C18.6649 13.0132 18.2834 13.0229 17.9587 13.0238C17.3075 13.0199 16.6562 13.0195 16.0049 13.0226C15.9942 12.6999 16.0039 12.3229 16.0041 11.996C15.9966 11.678 16.0023 11.3373 16.002 11.0176C15.992 10.6916 16.0099 10.3668 15.994 10.0336C16.0149 9.7518 16.0042 9.30116 15.9975 9.01303C15.3757 8.98828 14.6285 9.00664 13.9987 9.00862C13.9987 8.68551 13.9935 8.344 14.011 8.02318L13.0067 8.02414C13.0131 8.31731 13.0241 8.7165 13.0118 9.00507C13.0176 9.34833 13.0188 9.69166 13.0152 10.035L11.9938 10.0305C11.6771 10.0338 11.3252 10.0456 11.0119 10.0339L10.0299 10.0338L9.00785 10.0334L9.00767 11.0153C8.72599 11.0163 8.3012 11.0298 8.03106 11.0101C8.02749 11.3423 8.0273 11.6746 8.0305 12.0068C8.02747 12.6554 8.01008 13.3645 8.0311 14.0078L8.0273 14.0214C7.79241 13.9595 6.35145 14.0066 6.01816 14.0116L6.01968 7.08116C6.02003 6.72302 6.01347 6.36489 6 6.00698C6.1713 6.01539 6.35113 6.01698 6.52326 6.02106Z" fill="#797878"/>
<path d="M6.02007 7.0812C6.18071 7.02499 7.73595 7.04675 8.02984 7.04416L9.01445 7.04474L9.00729 8.02703L10.0347 8.02574C10.0357 8.16065 10.0485 8.90817 10.0203 9.00417C10.2664 9.02624 10.7539 9.00891 11.0138 9.00282L11.0123 10.0339L10.0303 10.0338L9.00825 10.0334L9.00806 11.0154C8.72638 11.0163 8.30159 11.0299 8.03145 11.0101C8.02789 11.3424 8.0277 11.6746 8.03089 12.0069C8.02786 12.6555 8.01047 13.3646 8.0315 14.0079L8.0277 14.0214C7.79281 13.9595 6.35185 14.0066 6.01855 14.0117L6.02007 7.0812Z" fill="#797878"/>
<path d="M9.00714 8.02694L10.0345 8.02566C10.0356 8.16057 10.0484 8.90809 10.0202 9.00409C10.2662 9.02616 10.7537 9.00883 11.0137 9.00273L11.0121 10.0338L10.0301 10.0337L9.0081 10.0334C8.68094 10.0369 8.35378 10.0377 8.02662 10.0357C8.02268 9.69134 8.02403 9.34695 8.03063 9.00264C8.02603 8.67802 8.02568 8.35334 8.02958 8.02872C8.3448 8.02019 8.68963 8.02697 9.00714 8.02694Z" fill="#908F8F"/>
<path d="M9.0071 8.02694L10.0345 8.02566C10.0355 8.16057 10.0483 8.90809 10.0201 9.00409L9.99415 9.00909C9.34484 8.99776 8.68397 9.01236 8.03058 9.00264C8.02599 8.67802 8.02564 8.35334 8.02953 8.02872C8.34476 8.02019 8.68959 8.02697 9.0071 8.02694Z" fill="#666565"/>
<path d="M10.0199 9.00416C10.2659 9.02623 10.7534 9.0089 11.0134 9.00281L11.0118 10.0339L10.0298 10.0338C10.0324 9.85562 10.0655 9.10465 9.9939 9.00916L10.0199 9.00416Z" fill="#797878"/>
<path d="M8.02947 7.04413L9.01408 7.04471L9.00692 8.027C8.68941 8.02702 8.34458 8.02025 8.02935 8.02877C8.02546 8.3534 8.02581 8.67807 8.0304 9.00269C7.78423 8.98425 7.31377 9.00354 7.05109 9.00657L7.04883 8.02992L8.03043 8.02562C8.03283 7.69845 8.0325 7.37128 8.02947 7.04413Z" fill="#797878"/>
<path d="M7.04565 11.0125C7.22397 11.0123 7.91377 10.9929 8.03129 11.0101C8.02772 11.3424 8.02753 11.6746 8.03073 12.0069C7.8553 11.9852 7.25691 11.9991 7.04882 11.9998L7.04565 11.0125Z" fill="#908F8F"/>
<path d="M10.0286 7.04509L11.0204 7.03717C11.0126 7.36677 11.0105 7.69651 11.014 8.02618L13.007 8.02415C13.0135 8.31732 13.0244 8.71651 13.0121 9.00508C13.018 9.34834 13.0191 9.69167 13.0155 10.035L11.9941 10.0305C11.6774 10.0338 11.3255 10.0456 11.0122 10.0339L11.0138 9.00279C10.7538 9.00888 10.2663 9.02621 10.0203 9.00414C10.0484 8.90814 10.0356 8.16062 10.0346 8.02571C10.0301 7.69885 10.0281 7.37195 10.0286 7.04509Z" fill="#797878"/>
<path d="M11.996 9.00678L13.0121 9.0051C13.018 9.34836 13.0191 9.69169 13.0155 10.035L11.9941 10.0305C11.6775 10.0338 11.3255 10.0457 11.0122 10.0339L11.0138 9.00281C11.3412 9.0071 11.6686 9.00841 11.996 9.00678Z" fill="#666565"/>
<path d="M11.0138 9.00281C11.3412 9.0071 11.6686 9.00841 11.996 9.00678C11.9937 9.34294 11.9861 9.69589 11.9941 10.0305C11.6775 10.0338 11.3255 10.0457 11.0122 10.0339L11.0138 9.00281Z" fill="#403F40"/>
<path d="M16.0019 11.0176C16.3273 11.0148 16.6527 11.0153 16.9781 11.0192C17.3058 11.0156 17.6335 11.0143 17.9613 11.0154C17.9594 11.1547 17.9423 11.8948 17.9728 11.9952C18.2535 11.9952 18.7002 11.9814 18.9677 12.0011L18.9814 12.0081L18.9846 13.03C18.6648 13.0132 18.2833 13.0229 17.9586 13.0238C17.3073 13.0199 16.656 13.0195 16.0048 13.0226C15.9941 12.6999 16.0037 12.3229 16.0039 11.996C15.9964 11.678 16.0022 11.3373 16.0019 11.0176Z" fill="#1D1C1C"/>
<path d="M16.0018 11.0176C16.3272 11.0148 16.6527 11.0153 16.9781 11.0192C17.3058 11.0156 17.6335 11.0143 17.9612 11.0154C17.9594 11.1547 17.9422 11.8948 17.9728 11.9952L17.9599 12.001C17.423 11.9683 16.5655 11.9961 16.0039 11.996C15.9964 11.678 16.0021 11.3373 16.0018 11.0176Z" fill="#403F40"/>
<path d="M17.9732 11.9952C18.2539 11.9952 18.7006 11.9814 18.9681 12.0011L18.9818 12.0081L18.985 13.03C18.6652 13.0132 18.2837 13.0229 17.959 13.0238L17.9604 12.001L17.9732 11.9952Z" fill="#333232"/>
<path d="M6 6.00696C6.1713 6.01536 6.35113 6.01695 6.52326 6.02104C6.72155 6.05607 7.39851 6.04147 7.63268 6.04129L10.0724 6.03886C10.0052 6.24191 10.0296 6.80611 10.0322 7.04358L9.01405 7.04468L8.02945 7.0441C7.73555 7.04669 6.18032 7.02492 6.01968 7.08113C6.02003 6.723 6.01347 6.36486 6 6.00696Z" fill="#908F8F"/>
<path d="M16.9811 10.0336L18.9747 10.0334C18.9766 10.1762 18.9926 10.9011 18.9675 11.0121L18.9831 11.0128C18.9842 11.1559 18.9949 11.8952 18.9681 12.0011C18.7006 11.9814 18.2539 11.9952 17.9732 11.9952C17.9427 11.8948 17.9598 11.1548 17.9617 11.0154C17.6339 11.0143 17.3062 11.0156 16.9785 11.0192L16.9811 10.0336Z" fill="#908F8F"/>
<path d="M18.9676 11.0121L18.9832 11.0128C18.9843 11.1559 18.995 11.8952 18.9682 12.0011C18.7007 11.9814 18.254 11.9952 17.9734 11.9952C17.9428 11.8948 17.9599 11.1547 17.9618 11.0154C18.2913 11.0146 18.6398 11.0196 18.9676 11.0121Z" fill="#797878"/>
<path d="M14.0113 8.02321C14.9317 8.02587 16.0763 7.99299 16.9803 8.02489L16.9796 9.00684L15.9978 9.01306C15.376 8.9883 14.6288 9.00666 13.999 9.00864C13.999 8.68553 13.9938 8.34402 14.0113 8.02321Z" fill="#797878"/>
<path d="M16.979 7.03333L18.9856 7.04374L18.9826 8.02483H16.9802L16.979 7.03333Z" fill="#666565"/>
<path d="M18.9831 11.0129C19.2962 10.9917 19.6792 11.0259 19.9627 10.9954C20.128 11.0334 20.7486 11.0155 20.9445 11.0125L20.9448 11.9944L19.9649 11.9973C19.8196 11.9956 19.09 11.9804 18.9818 12.0082L18.968 12.0011C18.9948 11.8952 18.9841 11.1559 18.9831 11.0129Z" fill="#666565"/>
<path d="M19.9629 10.9954C20.1282 11.0334 20.7488 11.0155 20.9447 11.0125L20.945 11.9944L19.9651 11.9973C19.9684 11.6633 19.9676 11.3293 19.9629 10.9954Z" fill="#797878"/>
<path d="M21.9758 10.9967C21.9748 11.3295 21.9683 11.6782 21.9735 12.0096C21.7132 11.9835 21.2347 12.0009 20.9448 11.9944L20.9446 11.0125C21.2448 11.0189 21.6832 11.0243 21.9758 10.9967Z" fill="#908F8F"/>
<path d="M18.9856 7.04376L19.9662 7.03986L19.9638 8.02597L18.9827 8.02485L18.9856 7.04376Z" fill="#797878"/>
<path d="M15.9944 10.0336L16.9812 10.0336L16.9786 11.0192C16.6532 11.0154 16.3278 11.0148 16.0024 11.0176C15.9924 10.6916 16.0103 10.3668 15.9944 10.0336Z" fill="#515151"/>
<path d="M13.9988 9.00865C14.6287 9.00667 15.3758 8.98831 15.9976 9.01306C16.0044 9.30119 16.015 9.75183 15.9941 10.0336C16.0101 10.3668 15.9922 10.6916 16.0021 11.0176C16.0024 11.3373 15.9967 11.6781 16.0042 11.996C16.004 12.323 15.9944 12.7 16.005 13.0227C16.0049 13.1982 16.0141 13.8766 15.9875 14.0102C15.6744 13.9965 15.3067 14.0042 14.9894 14.0034L14.9785 14.0074C14.9755 14.1642 14.9533 14.8685 14.9939 14.9835L14.9725 14.9886C14.6478 14.9844 14.3232 14.982 13.9985 14.9814C13.9971 15.3121 13.9878 15.6822 13.9988 16.0099C13.6864 16.01 13.3274 16.0018 13.0188 16.0143C13.0164 16.3396 13.0157 16.6649 13.0167 16.9902C12.6745 16.9942 12.3306 17.0016 11.9888 16.9895L11.9906 16.0148L11.0154 16.0138C11.015 16.3288 11.007 16.6808 11.0167 16.9929L10.031 16.9914C9.69039 16.9892 9.34976 16.9911 9.00917 16.9973L9.00479 17.0087C8.91387 16.9725 8.1657 16.9957 8.0282 16.9981C8.02545 16.6704 8.02564 16.3427 8.02876 16.0149L8.03088 14.9824L8.02743 14.0214L8.03123 14.0079C8.01021 13.3646 8.0276 12.6555 8.03063 12.0069C8.02743 11.6746 8.02762 11.3424 8.03119 11.0101C8.30133 11.0299 8.72612 11.0163 9.0078 11.0153L9.00798 10.0334L10.03 10.0338L11.012 10.0339C11.3253 10.0457 11.6773 10.0338 11.9939 10.0305L13.0153 10.035L13.9937 10.0338C13.9929 9.69209 13.9947 9.35035 13.9988 9.00865Z" fill="#333232"/>
<path d="M13.9999 13.022L14.9704 13.0221C14.9721 13.1876 14.9579 13.9147 14.9894 14.0033L14.9785 14.0073C14.9755 14.1641 14.9533 14.8685 14.9939 14.9835L14.9724 14.9885C14.6478 14.9843 14.3231 14.9819 13.9985 14.9813C13.9971 15.3121 13.9878 15.6821 13.9988 16.0098C13.6864 16.0099 13.3274 16.0018 13.0188 16.0142C13.0164 16.3395 13.0157 16.6648 13.0167 16.9901C12.6745 16.9941 12.3306 17.0015 11.9887 16.9894L11.9906 16.0147L11.9896 14.9634L11.9875 14.0057L13.9957 14.0033L13.9999 13.022Z" fill="#1D1C1C"/>
<path d="M11.9894 14.9634C12.125 14.9938 12.8383 14.9832 13.0223 14.9832L13.0185 16.0142C13.0162 16.3395 13.0155 16.6648 13.0165 16.9901C12.6743 16.9941 12.3304 17.0015 11.9885 16.9895L11.9904 16.0147L11.9894 14.9634Z" fill="#1D1C1C"/>
<path d="M11.9904 16.0147C12.3331 16.0117 12.6758 16.0116 13.0185 16.0142C13.0162 16.3395 13.0155 16.6648 13.0165 16.9901C12.6743 16.9941 12.3304 17.0015 11.9885 16.9894L11.9904 16.0147Z" fill="#333232"/>
<path d="M14.0001 13.022L14.9705 13.0221C14.9722 13.1876 14.958 13.9147 14.9895 14.0033L14.9786 14.0073C14.7937 13.987 14.2307 14.0071 13.9958 14.0033L14.0001 13.022Z" fill="#1D1C1C"/>
<path d="M9.00871 14.0085C9.35079 14.0006 9.69301 13.9983 10.0352 14.0015C10.0331 14.3288 10.0328 14.656 10.0343 14.9832L10.0311 16.9914C9.69049 16.9891 9.34986 16.9911 9.00927 16.9972L9.00489 17.0087C8.91397 16.9725 8.16579 16.9956 8.0283 16.9981C8.02555 16.6704 8.02574 16.3426 8.02886 16.0149L8.03098 14.9824L8.02753 14.0213L8.03133 14.0078C8.16831 14.0051 8.9132 13.9821 9.0054 14.0196L9.00871 14.0085Z" fill="#515151"/>
<path d="M9.00893 14.0085C9.35101 14.0006 9.69323 13.9983 10.0354 14.0016C10.0333 14.3288 10.033 14.656 10.0345 14.9832C9.69218 14.9873 9.34979 14.9879 9.00746 14.985L9.00562 14.0196L9.00893 14.0085Z" fill="#403F40"/>
<path d="M8.02886 16.0149L9.00675 16.0125L9.00927 16.9972L9.00489 17.0087C8.91397 16.9725 8.16579 16.9956 8.0283 16.9981C8.02555 16.6703 8.02574 16.3426 8.02886 16.0149Z" fill="#797878"/>
<path d="M8.03163 14.0078C8.16861 14.0051 8.9135 13.9821 9.0057 14.0196L9.00754 14.9849C8.71029 14.9849 8.32086 14.9965 8.03128 14.9824L8.02783 14.0213L8.03163 14.0078Z" fill="#666565"/>
<path d="M9.0078 11.0153C9.10815 11.0165 10.0281 11.0064 10.0328 11.0087C10.0323 11.6686 10.0407 12.3489 10.0306 13.0071L10.0352 13.0183C10.0339 13.3419 10.0281 13.6792 10.0351 14.0016C9.69291 13.9983 9.35069 14.0006 9.00861 14.0085L9.0053 14.0196C8.9131 13.9821 8.16821 14.0052 8.03123 14.0078C8.01021 13.3645 8.0276 12.6554 8.03063 12.0068C8.02743 11.6746 8.02762 11.3423 8.03119 11.0101C8.30133 11.0298 8.72612 11.0162 9.0078 11.0153Z" fill="#666565"/>
<path d="M10.0312 13.0071L10.0357 13.0183C10.0345 13.3419 10.0287 13.6792 10.0357 14.0016C9.69348 13.9983 9.35126 14.0006 9.00918 14.0085C8.9964 13.6936 9.00477 13.3408 9.00631 13.0227C9.19793 13.0254 9.86736 13.0416 10.0312 13.0071Z" fill="#515151"/>
<path d="M14 11.0163C14.2192 11.0252 14.8113 10.989 14.9729 11.0101C15.1896 11.031 15.7643 11.0167 16.002 11.0177C16.0022 11.3374 15.9965 11.6781 16.004 11.996C16.0038 12.323 15.9942 12.7 16.0048 13.0227C16.0047 13.1982 16.0139 13.8766 15.9873 14.0102C15.6742 13.9965 15.3065 14.0043 14.9892 14.0034C14.9577 13.9148 14.9719 13.1877 14.9702 13.0222L13.9998 13.0221C13.9871 12.7027 13.9961 12.3193 13.9951 11.9948L14 11.0163Z" fill="#403F40"/>
<path d="M14.9705 13.0221L16.0051 13.0226C16.005 13.1981 16.0142 13.8765 15.9876 14.0101C15.6745 13.9964 15.3068 14.0041 14.9895 14.0033C14.958 13.9147 14.9722 13.1876 14.9705 13.0221Z" fill="#060606"/>
<path d="M14.9731 11.0101C15.1898 11.0309 15.7645 11.0167 16.0022 11.0176C16.0025 11.3373 15.9967 11.678 16.0042 11.996L14.9743 11.9964L14.9731 11.0101Z" fill="#1D1C1C"/>
<path d="M11.012 10.0339C11.3254 10.0456 11.6773 10.0338 11.9939 10.0305C11.9934 10.3567 11.9893 10.6887 11.9924 11.0142C11.6713 11.0143 11.3337 11.0199 11.0142 11.0141C10.7247 11.0151 10.3123 11.028 10.0328 11.0087C10.0282 11.0064 9.10817 11.0165 9.00781 11.0153L9.008 10.0334L10.03 10.0338L11.012 10.0339Z" fill="#515151"/>
<path d="M11.9895 11.9952L13.995 11.9948C13.996 12.3192 13.987 12.7026 13.9997 13.022C13.3336 13.0296 12.6573 13.024 11.9904 13.0241L11.9895 11.9952Z" fill="#515151"/>
<path d="M13.9987 9.00865C14.6285 9.00667 15.3757 8.98831 15.9975 9.01306C16.0042 9.30119 16.0149 9.75183 15.994 10.0336L13.9936 10.0338C13.9928 9.69209 13.9945 9.35035 13.9987 9.00865Z" fill="#908F8F"/>
<path d="M10.0327 11.0087C10.3122 11.028 10.7246 11.0151 11.0141 11.014C11.007 11.6823 11.006 12.3506 11.0111 13.0189C10.7596 13.0193 10.2669 13.0361 10.0351 13.0182L10.0305 13.007C10.0406 12.3489 10.0322 11.6686 10.0327 11.0087Z" fill="#403F40"/>
<path d="M10.0353 14.0016L11.013 14.0046L11.013 14.9857L10.0344 14.9832C10.0329 14.656 10.0332 14.3288 10.0353 14.0016Z" fill="#515151"/>
<path d="M20.9445 11.9944C21.2344 12.001 21.7129 11.9835 21.9732 12.0096L21.9726 15.2708C21.9727 15.8237 21.9591 16.4481 21.9769 16.9965C21.9751 17.3126 21.9658 17.6608 21.9729 17.9743C21.9736 18.2996 21.9646 18.6805 21.9771 19.0011L20.9425 19.0027C20.9438 18.7872 20.9594 18.1587 20.9321 17.9743L19.9642 17.9777L19.9499 17.973C19.7821 17.9751 19.116 17.9901 18.9855 17.9589L18.9835 17.9713C18.9992 18.3069 18.9783 18.6633 18.9868 19.001C18.6478 19.0011 18.2958 18.9966 17.958 19.0053C17.6446 18.9963 17.2965 19.0035 16.9803 19.0034C16.6716 18.9939 16.3187 19.0021 16.0064 19.002C15.9927 18.7361 16.0272 18.2102 15.9896 17.9744L14.9753 17.9736L14.9748 16.995C14.6493 16.9961 14.3238 16.994 13.9983 16.9885C13.9884 16.6824 13.9983 16.3203 13.9987 16.0098C13.9877 15.6822 13.997 15.3121 13.9984 14.9813C14.323 14.9819 14.6477 14.9844 14.9723 14.9886L14.9938 14.9835C14.9532 14.8685 14.9754 14.1641 14.9784 14.0074L14.9893 14.0034C15.3066 14.0042 15.6742 13.9965 15.9874 14.0101C16.0139 13.8765 16.0048 13.1981 16.0049 13.0226C16.6562 13.0195 17.3075 13.0199 17.9587 13.0238C18.2834 13.0229 18.6649 13.0132 18.9847 13.03L18.9816 12.0081C19.0898 11.9804 19.8194 11.9955 19.9647 11.9972L20.9445 11.9944Z" fill="#060606"/>
<path d="M20.9447 11.9944C21.2345 12.001 21.7131 11.9835 21.9733 12.0096L21.9728 15.2708C21.9728 15.8237 21.9592 16.4481 21.977 16.9965C21.9753 17.3126 21.966 17.6608 21.9731 17.9743C21.9737 18.2996 21.9647 18.6805 21.9772 19.0011L20.9426 19.0027C20.9439 18.7872 20.9595 18.1587 20.9322 17.9743L19.9643 17.9777L19.9501 17.973C19.7822 17.9751 19.1162 17.9901 18.9856 17.9589C18.9834 17.6419 18.9839 17.3249 18.9869 17.0079L18.9977 16.9969C19.3225 16.993 19.6474 16.9916 19.9723 16.9927C19.9565 16.6873 19.9666 16.3234 19.9687 16.0128C19.9524 15.7061 19.9639 15.2918 19.9633 14.9769C19.9671 14.6518 19.9655 14.3266 19.9585 14.0016C19.642 14.0017 19.2962 13.9959 18.9825 14.0105L18.9849 13.03L18.9817 12.0081C19.0899 11.9804 19.8195 11.9955 19.9648 11.9972L20.9447 11.9944Z" fill="#797878"/>
<path d="M20.9324 17.9743L20.9469 17.9699C21.289 17.9733 21.6311 17.9748 21.9732 17.9743C21.9739 18.2996 21.9649 18.6805 21.9774 19.0011L20.9428 19.0027C20.9441 18.7872 20.9596 18.1586 20.9324 17.9743Z" fill="#797878"/>
<path d="M20.9382 16.9966C21.2695 17.0059 21.6426 16.9969 21.9772 16.9965C21.9754 17.3126 21.9661 17.6608 21.9732 17.9742C21.6311 17.9747 21.289 17.9733 20.9469 17.9699C20.9251 17.7253 20.9384 17.2575 20.9382 16.9966Z" fill="#908F8F"/>
<path d="M18.9975 16.9969C19.3224 16.993 19.6473 16.9916 19.9722 16.9927C19.9729 17.134 19.9853 17.8887 19.9499 17.973C19.7821 17.9751 19.116 17.9901 18.9855 17.9589C18.9833 17.6419 18.9838 17.3249 18.9868 17.0079L18.9975 16.9969Z" fill="#908F8F"/>
<path d="M18.985 13.03L19.9639 13.0226C19.9625 13.3474 19.9643 13.6773 19.9587 14.0015C19.6421 14.0017 19.2964 13.9959 18.9827 14.0105L18.985 13.03Z" fill="#797878"/>
<path d="M19.9805 14.9765C20.2855 14.9911 20.6341 14.9825 20.943 14.9808L20.9486 16.0067L19.9922 16.0043C19.9908 15.6617 19.9869 15.3191 19.9805 14.9765Z" fill="#908F8F"/>
<path d="M16.9818 17.9744C17.6276 17.9747 18.3439 17.9906 18.9838 17.9713C18.9996 18.3069 18.9786 18.6633 18.9872 19.001C18.6482 19.0011 18.2962 18.9966 17.9584 19.0053C17.645 18.9963 17.2968 19.0036 16.9807 19.0035C16.672 18.9939 16.319 19.0022 16.0068 19.002C15.9931 18.7362 16.0276 18.2103 15.99 17.9744L16.0061 17.9696C16.3313 17.9763 16.6565 17.9778 16.9818 17.9744Z" fill="#666565"/>
<path d="M16.0061 17.9696C16.3313 17.9763 16.6565 17.9778 16.9818 17.9744L16.9807 19.0035C16.672 18.9939 16.319 19.0022 16.0068 19.002C15.9931 18.7362 16.0276 18.2103 15.99 17.9744L16.0061 17.9696Z" fill="#333232"/>
<path d="M16.0055 13.0226C16.6568 13.0195 17.3081 13.0199 17.9594 13.0238C18.2841 13.0229 18.6656 13.0132 18.9854 13.03L18.983 14.0105C18.3524 13.9908 17.6846 14.0117 17.0508 14.0012C16.877 13.9984 16.1399 13.9922 15.9989 14.0202L15.988 14.0101C16.0146 13.8765 16.0054 13.1981 16.0055 13.0226Z" fill="#1D1C1C"/>
<path d="M16.9807 16.9955C17.2797 16.9939 18.8024 16.9544 18.9867 17.0079C18.9837 17.3249 18.9832 17.6418 18.9854 17.9588L18.9834 17.9712C18.3434 17.9905 17.6271 17.9746 16.9813 17.9743L16.9807 16.9955Z" fill="#403F40"/>
<path d="M16.9808 16.0165C17.0985 16.0155 17.3014 16.0078 17.4127 16.0158C17.8376 16.0521 18.5339 16.0298 18.9869 16.0277C18.985 16.1654 18.9664 16.9032 18.998 16.9968L18.9873 17.0079C18.803 16.9544 17.2802 16.9939 16.9812 16.9955C16.979 16.6691 16.9789 16.3428 16.9808 16.0165Z" fill="#515151"/>
<path d="M14.9894 14.0034C15.3067 14.0042 15.6743 13.9965 15.9875 14.0102L15.9984 14.0202L16.0033 14.9824C15.6744 14.9891 15.3244 14.9833 14.9938 14.9835C14.9533 14.8685 14.9755 14.1642 14.9785 14.0074L14.9894 14.0034Z" fill="#333232"/>
<path d="M17.4126 16.0158C18.2503 15.9979 19.1275 16.0146 19.9689 16.0128C19.9668 16.3234 19.9567 16.6873 19.9725 16.9927C19.6476 16.9916 19.3227 16.993 18.9978 16.9969C18.9663 16.9032 18.9849 16.1655 18.9867 16.0277C18.5337 16.0298 17.8374 16.0522 17.4126 16.0158Z" fill="#403F40"/>
<path d="M6.01832 14.0116C6.35161 14.0066 7.79258 13.9595 8.02747 14.0214L8.03092 14.9824L8.0288 16.0149C8.02567 16.3426 8.02549 16.6704 8.02824 16.9981C8.16573 16.9956 8.91391 16.9725 9.00482 17.0087C9.0076 17.3244 9.00764 17.6402 9.00501 17.9559C8.81143 17.9837 8.46242 17.9749 8.25809 17.9742L7.05279 17.9681C7.04522 18.3124 7.04354 18.6568 7.04778 19.0011C6.7223 19.0131 6.3553 18.9948 6.01835 19.0035L6.01807 16.9914L6.01984 16.0159L6.01993 15.0051L6.01832 14.0116Z" fill="#797878"/>
<path d="M6.01855 14.0116C6.35185 14.0066 7.79281 13.9595 8.0277 14.0214L8.03115 14.9824C7.51498 14.9896 6.99843 14.9806 6.48218 14.9839C6.32774 14.9849 6.17321 14.981 6.02016 15.0051L6.01855 14.0116Z" fill="#908F8F"/>
<path d="M6.01984 16.0159C6.36343 16.0115 6.70708 16.0095 7.05069 16.0097L7.05193 16.9925L6.01807 16.9914L6.01984 16.0159Z" fill="#666565"/>
<path d="M11.0157 16.0137L11.991 16.0147L11.9891 16.9894C12.331 17.0015 12.6749 16.9941 13.0171 16.9901C13.0167 17.3109 13.0196 17.637 13.0154 17.9573L13.0189 17.9705L13.0167 18.9917L12.9879 19.0006L11.9938 19.0022C11.6933 19.0087 11.3143 19.0157 11.0158 19.001L11.0115 19.9822C10.6855 19.9837 10.3594 19.9822 10.0334 19.9777L10.0335 18.9998C9.70768 19.0091 9.33865 19.0005 9.00932 19.0005C9.00774 18.6565 9.00792 18.3125 9.00986 17.9685L9.00531 17.9558C9.00795 17.6401 9.0079 17.3244 9.00513 17.0087L9.00951 16.9972C9.3501 16.9911 9.69073 16.9891 10.0314 16.9914L11.017 16.9928C11.0073 16.6807 11.0154 16.3287 11.0157 16.0137Z" fill="#515151"/>
<path d="M11.9888 16.9894C12.3306 17.0015 12.6746 16.9941 13.0167 16.9901C13.0164 17.3109 13.0193 17.637 13.0151 17.9573L13.0186 17.9705L13.0163 18.9917L12.9876 19.0006L11.9935 19.0022C11.9856 18.6682 11.9927 18.3083 11.9932 17.9724L11.0126 17.9766C11.0113 17.6481 11.0133 17.3196 11.0185 16.9911C11.3419 16.9874 11.6654 16.9868 11.9888 16.9894Z" fill="#403F40"/>
<path d="M13.0148 17.9573L13.0183 17.9706L13.0161 18.9918L12.9873 19.0007L11.9932 19.0022C11.9853 18.6682 11.9924 18.3084 11.9929 17.9725C12.3049 17.9621 12.7155 17.9908 13.0148 17.9573Z" fill="#333232"/>
<path d="M9.00951 16.9973C9.3501 16.9911 9.69073 16.9891 10.0314 16.9914C10.0294 17.3012 10.0194 17.6615 10.0326 17.967C9.71486 17.9687 9.32161 17.9815 9.00986 17.9685L9.00531 17.9558C9.00795 17.6401 9.0079 17.3244 9.00513 17.0087L9.00951 16.9973Z" fill="#666565"/>
<path d="M10.0331 18.9999C10.2952 18.9998 10.7712 18.9837 11.0153 19.0011L11.0111 19.9823C10.685 19.9838 10.359 19.9823 10.033 19.9778L10.0331 18.9999Z" fill="#403F40"/>
<path d="M9.00522 17.9558L9.00976 17.9685C9.00783 18.3125 9.00764 18.6565 9.00923 19.0005C9.33856 19.0005 9.70758 19.0092 10.0334 18.9998L10.0333 19.9777L9.01112 19.9799L9.00783 20.9609C8.36136 20.9723 7.69676 20.9659 7.0489 20.9669C7.05109 20.6388 7.04876 20.3107 7.04193 19.9827C6.82137 19.9825 6.21384 19.968 6.02051 20.0154L6.01855 19.0035C6.35551 18.9947 6.72251 19.013 7.04799 19.0011C7.04375 18.6567 7.04542 18.3123 7.053 17.968L8.2583 17.9741C8.46263 17.9749 8.81164 17.9836 9.00522 17.9558Z" fill="#797878"/>
<path d="M6.01855 19.0036C6.35551 18.9948 6.72251 19.0131 7.04799 19.0011C7.37168 19.0023 7.70583 18.9989 8.02849 19.0049C8.02954 19.3292 8.03437 19.6627 8.02805 19.9861C7.77821 19.9673 7.30817 19.9826 7.04193 19.9828C6.82137 19.9826 6.21384 19.9681 6.02051 20.0155L6.01855 19.0036Z" fill="#908F8F"/>
<path d="M8.02852 19.0049C8.34088 19.0045 8.69396 19.0116 9.00301 18.999C9.00459 19.3258 9.00452 19.6525 9.00282 19.9793C8.70522 19.9817 8.31805 19.9969 8.02808 19.9861C8.03439 19.6626 8.02957 19.3292 8.02852 19.0049Z" fill="#797878"/>
<path d="M18.9856 17.9589C19.1162 17.9901 19.7822 17.975 19.9501 17.973L19.9643 17.9777L20.9322 17.9743C20.9595 18.1586 20.9439 18.7872 20.9427 19.0027L20.9452 19.9815C19.9584 19.9822 18.9396 19.9956 17.9553 19.9827L17.9581 19.0052C18.296 18.9966 18.6479 19.0011 18.9869 19.001C18.9784 18.6632 18.9993 18.3069 18.9836 17.9712L18.9856 17.9589Z" fill="#797878"/>
<path d="M19.9642 17.9777L20.9321 17.9743C20.9594 18.1587 20.9438 18.7872 20.9426 19.0027C20.6163 19.0012 20.2901 19.0027 19.9639 19.0073L19.9642 17.9777Z" fill="#666565"/>
<path d="M20.9427 19.0027L21.9772 19.0011C21.9755 19.6454 21.9621 20.327 21.9737 20.9681C20.6879 20.9294 19.2578 20.9627 17.9599 20.9635L17.9553 19.9827C18.9396 19.9956 19.9584 19.9822 20.9452 19.9815L20.9427 19.0027Z" fill="#908F8F"/>
<path d="M13.9989 16.0098C13.9985 16.3204 13.9886 16.6824 13.9985 16.9885C14.324 16.994 14.6495 16.9961 14.975 16.995L14.9755 17.9737C14.9717 18.316 14.9718 18.6584 14.9759 19.0007L13.9967 19.0025C13.6876 19.003 13.3193 19.0115 13.0164 18.9918L13.0186 17.9706L13.0151 17.9574C13.0193 17.6371 13.0165 17.3109 13.0168 16.9901C13.0158 16.6648 13.0165 16.3395 13.0188 16.0143C13.3275 16.0018 13.6865 16.01 13.9989 16.0098Z" fill="#333232"/>
<path d="M13.9989 16.0098C13.9985 16.3204 13.9886 16.6824 13.9985 16.9885C13.9949 17.3151 13.9944 17.6417 13.997 17.9683C13.674 17.9732 13.3424 17.9699 13.0186 17.9706L13.0151 17.9574C13.0193 17.6371 13.0165 17.3109 13.0168 16.9901C13.0158 16.6648 13.0165 16.3395 13.0188 16.0143C13.3275 16.0018 13.6865 16.01 13.9989 16.0098Z" fill="#1D1C1C"/>
<path d="M13.0168 16.9902C13.3349 16.9917 13.6854 16.9817 13.9985 16.9885C13.9949 17.3151 13.9944 17.6417 13.997 17.9683C13.674 17.9733 13.3424 17.97 13.0186 17.9706L13.0151 17.9574C13.0193 17.6371 13.0165 17.311 13.0168 16.9902Z" fill="#1D1C1C"/>
<path d="M13.0188 17.9706C13.3426 17.9699 13.6742 17.9732 13.9972 17.9683L13.9969 19.0025C13.6878 19.0029 13.3195 19.0115 13.0166 18.9918L13.0188 17.9706Z" fill="#1D1C1C"/>
<path d="M14.9754 20.9625C15.6329 20.963 16.3248 20.9743 16.9795 20.9599L16.9826 21.9568C16.8843 21.9563 16.4303 21.9397 16.3801 21.982L14.9975 21.9877C14.9454 21.9099 14.974 21.1059 14.9754 20.9625Z" fill="#908F8F"/>
<path d="M11.9936 19.0023L12.9876 19.0007C13.0353 19.0961 13.02 19.8462 13.0071 19.9817L11.0112 19.9822L11.0155 19.0011C11.3141 19.0158 11.693 19.0088 11.9936 19.0023Z" fill="#666565"/>
<path d="M13.9969 19.0025L14.976 19.0007C14.976 19.3219 14.9702 19.6615 14.9769 19.9811L13.0073 19.9817C13.0202 19.8462 13.0355 19.096 12.9878 19.0007L13.0166 18.9918C13.3195 19.0115 13.6878 19.0029 13.9969 19.0025Z" fill="#515151"/>
<path d="M14.9755 17.9736L15.9897 17.9744C16.0273 18.2102 15.9929 18.7361 16.0066 19.0019L14.9758 19.0007C14.9717 18.6583 14.9716 18.316 14.9755 17.9736Z" fill="#515151"/>
<path d="M14.976 19.0007L16.0068 19.002C15.9962 19.3273 16.0018 19.6551 16.0044 19.9807C15.6911 19.9797 15.2756 19.9959 14.9769 19.9812C14.9701 19.6615 14.976 19.3219 14.976 19.0007Z" fill="#797878"/>
</g>
<rect x="0.25" y="0.25" width="27.5" height="27.5" rx="5.75" stroke="url(#paint1_linear_10296_1444)" stroke-width="0.5"/>
<defs>
<filter id="filter0_f_10296_1444" x="-1.1" y="-1.1" width="30.2" height="30.2" filterUnits="userSpaceOnUse" color-interpolation-filters="sRGB">
<feFlood flood-opacity="0" result="BackgroundImageFix"/>
<feBlend mode="normal" in="SourceGraphic" in2="BackgroundImageFix" result="shape"/>
<feGaussianBlur stdDeviation="4.55" result="effect1_foregroundBlur_10296_1444"/>
</filter>
<linearGradient id="paint0_linear_10296_1444" x1="14" y1="0" x2="14" y2="28" gradientUnits="userSpaceOnUse">
<stop stop-color="#282C3E"/>
<stop offset="1" stop-color="#181822"/>
</linearGradient>
<linearGradient id="paint1_linear_10296_1444" x1="14" y1="0" x2="14" y2="30.9167" gradientUnits="userSpaceOnUse">
<stop stop-color="#797878"/>
<stop offset="1" stop-color="#797878" stop-opacity="0"/>
</linearGradient>
<clipPath id="clip0_10296_1444">
<rect width="28" height="28" rx="6" fill="white"/>
</clipPath>
</defs>
</svg>
