<svg width="28" height="28" viewBox="0 0 28 28" fill="none" xmlns="http://www.w3.org/2000/svg">
<g clip-path="url(#clip0_10296_1522)">
<rect width="28" height="28" rx="6" fill="url(#paint0_linear_10296_1522)"/>
<g filter="url(#filter0_f_10296_1522)">
<circle cx="14" cy="14" r="6" fill="#04030D"/>
</g>
<path d="M10.3706 6H16.9139C16.9011 6.40143 16.8956 7.06327 16.9121 7.46296L18.2134 7.46573C18.5023 7.46573 18.8154 7.47206 19.1022 7.4574C19.0959 7.6998 19.0951 7.9423 19.0997 8.18472C19.5712 8.184 20.0758 8.17408 20.5446 8.18373C20.5285 8.36505 20.5343 8.59869 20.5343 8.78464L20.5343 9.72531L20.5345 12.7336L20.5342 15.9749L20.5339 17.0143C20.534 17.213 20.5275 17.4485 20.5424 17.6435C20.3353 17.6215 20.0516 17.628 19.8365 17.6296C19.5999 17.6313 19.3299 17.6261 19.0956 17.6373L19.0968 19.0285C19.0966 19.2717 19.0877 19.5905 19.1047 19.8283C18.9105 19.81 18.5872 19.8173 18.3856 19.8249C18.3827 20.0551 18.3732 20.3199 18.3798 20.5474C18.2135 20.5264 17.9724 20.5327 17.7998 20.533L16.9098 20.5355L16.9113 22H10.3738L10.3687 20.5377C9.97522 20.5286 9.28786 20.5178 8.90262 20.5408C8.90119 20.3023 8.90184 20.0637 8.90459 19.8251C8.67489 19.8181 8.41337 19.8119 8.18578 19.8228L8.186 17.6437C7.75806 17.6135 7.14933 17.6266 6.71377 17.636C6.73403 17.0269 6.71454 16.2913 6.71441 15.6756L6.71447 11.7821L6.71491 9.39214C6.71491 9.09547 6.73215 8.44866 6.70654 8.18903C7.19682 8.17864 7.69812 8.19428 8.18656 8.17619L8.18414 7.46172C8.406 7.47518 8.72811 7.46557 8.95595 7.46562L10.3695 7.4633C10.3863 7.00738 10.3721 6.46365 10.3706 6Z" fill="#383734"/>
<path d="M8.90683 11.8123C9.38782 11.8121 9.89619 11.8036 10.375 11.8149L10.376 12.5308L12.5311 12.5314L14.7174 12.5314L16.192 12.5315L16.9067 12.5311L16.908 11.8119L18.3737 11.8118L19.0937 11.8132L19.0944 14.0031L19.0942 16.1991L19.0942 17.6266L18.3782 17.6259L18.3751 19.8151L16.908 19.8131L16.9072 20.5309C16.6681 20.5309 16.4251 20.5332 16.1862 20.5307L14.7189 20.5315L13.2796 20.5316L12.5316 20.5315L11.0955 20.5316L10.374 20.5309L10.3752 19.814L8.90636 19.8151L8.90622 18.3865L8.90538 17.6252L8.18702 17.6283L8.18813 16.1931C8.18646 15.9526 8.18625 15.712 8.18755 15.4715L8.18604 11.8127C8.42341 11.8087 8.6688 11.8121 8.90683 11.8123Z" fill="#A0A1A1"/>
<path d="M8.90683 11.8123C9.38782 11.8121 9.89619 11.8036 10.375 11.8149L10.376 12.5308L12.5311 12.5314L12.5318 17.8459C12.532 18.7295 12.5453 19.6507 12.5316 20.5315L11.0955 20.5316L10.374 20.5309L10.3752 19.814L8.90636 19.8151L8.90622 18.3865L8.90538 17.6252L8.18702 17.6283L8.18813 16.1931C8.18646 15.9526 8.18625 15.712 8.18755 15.4715L8.18604 11.8127C8.42341 11.8087 8.6688 11.8121 8.90683 11.8123Z" fill="#CFD9D9"/>
<path d="M8.90625 18.3865C9.26158 18.3539 9.99802 18.3746 10.3759 18.3737L10.374 19.815L11.0945 19.8122C11.0941 20.0479 11.0898 20.2969 11.0955 20.5315L10.374 20.5309L10.3752 19.8139L8.90639 19.815L8.90625 18.3865Z" fill="#A0A1A1"/>
<path d="M8.90688 11.8123C9.38786 11.8121 9.89624 11.8036 10.375 11.8149L10.3761 12.5308L8.90674 12.532L8.90688 11.8123Z" fill="#A0A1A1"/>
<path d="M8.18812 16.1931C8.42725 16.1874 8.66645 16.1856 8.90562 16.1878L8.90537 17.6252L8.18701 17.6283L8.18812 16.1931Z" fill="#747474"/>
<path d="M8.18737 15.4715C8.42701 15.4679 8.66668 15.4665 8.90634 15.4674L8.90545 16.1877C8.66627 16.1856 8.42707 16.1874 8.18794 16.1931C8.18627 15.9526 8.18607 15.712 8.18737 15.4715Z" fill="#A0A1A1"/>
<path d="M10.3735 14.0006C10.6044 14.0059 10.8602 13.9997 11.0931 13.999L11.094 17.6268C10.854 17.6251 10.614 17.6248 10.374 17.6256L10.3735 14.0006Z" fill="#FBFCFB"/>
<path d="M16.908 11.8119L18.3737 11.8118L19.0937 11.8132L19.0944 14.0031L19.0942 16.1991L19.0942 17.6265L18.3782 17.6259L18.3751 19.8151L16.908 19.8131L16.9073 20.5309C16.6681 20.5309 16.4251 20.5332 16.1863 20.5307L16.1873 19.8124L16.1874 15.0278C16.1873 14.2215 16.1696 13.331 16.192 12.5315L16.9067 12.5311L16.908 11.8119Z" fill="#747474"/>
<path d="M18.3754 16.1916C18.5134 16.1886 18.9779 16.1763 19.094 16.1991L19.094 17.6266L18.378 17.6259L18.3748 19.8151L16.9078 19.8131L16.907 20.5309C16.6678 20.5309 16.4248 20.5332 16.186 20.5307L16.1871 19.8124L16.9064 19.8109C16.8972 19.0902 16.9062 18.3486 16.9062 17.6262C17.3913 17.6322 17.889 17.6256 18.375 17.6246L18.3754 16.1916Z" fill="#A0A1A1"/>
<path d="M18.375 13.999C18.4817 13.9985 19.0074 13.9898 19.0946 14.0031L19.0944 16.1991C18.9783 16.1763 18.5138 16.1886 18.3758 16.1916C18.3678 15.466 18.3751 14.7258 18.375 13.999Z" fill="#A0A1A1"/>
<path d="M18.3735 11.8118L19.0936 11.8132L19.0943 14.0031C19.0071 13.9898 18.4814 13.9985 18.3747 13.999L18.3735 11.8118Z" fill="#A0A1A1"/>
<path d="M12.5312 12.5314L14.7175 12.5314L14.7184 16.6973C14.7184 17.245 14.7063 17.832 14.7194 18.3747L13.2797 18.3754L13.2817 19.8193C13.2819 19.984 13.2925 20.3785 13.2798 20.5316L12.5317 20.5314C12.5455 19.6506 12.5321 18.7295 12.532 17.8459L12.5312 12.5314Z" fill="#A0A1A1"/>
<path d="M14.7178 19.8139L16.1873 19.8124L16.1862 20.5306L14.7189 20.5314L14.7178 19.8139Z" fill="#747474"/>
<path d="M10.3778 7.4682L12.5328 7.46862L16.9082 7.46855L16.9061 8.18585L18.3768 8.18719L19.0946 8.18766L19.0947 9.62354C19.0955 9.86401 19.0894 10.141 19.0987 10.3784L18.3719 10.377L16.9077 10.3757L16.9082 11.8119L16.9069 12.5311L16.1922 12.5315L14.7176 12.5314L12.5313 12.5314L10.3762 12.5308L10.3752 11.8149C10.3652 11.4258 10.3801 11.0327 10.3753 10.6433C10.3742 10.5546 10.3792 10.4643 10.3669 10.3765L8.90924 10.3765L8.18651 10.3793C8.1824 10.1309 8.18604 9.87427 8.18646 9.62515L8.18771 8.18658L8.90149 8.18715C9.38987 8.18721 9.89082 8.18122 10.3781 8.18772C10.3693 7.95774 10.3741 7.69868 10.3778 7.4682Z" fill="#2B58D4"/>
<path d="M10.3781 8.18772L11.095 8.18736C11.0949 8.66299 11.0891 9.15071 11.0961 9.62532L10.3766 9.62474C10.3741 9.87376 10.3747 10.1228 10.3784 10.3718L10.3669 10.3765L8.90924 10.3765L8.18651 10.3793C8.1824 10.1309 8.18604 9.87427 8.18646 9.62515L8.18771 8.18658L8.90149 8.18715C9.38987 8.18721 9.89082 8.18122 10.3781 8.18772Z" fill="#2B58D4"/>
<path d="M8.91257 9.62646L10.3762 9.62476C10.3737 9.87377 10.3743 10.1228 10.378 10.3718L10.3666 10.3765L8.90885 10.3765C8.90099 10.1407 8.90399 9.8619 8.91257 9.62646Z" fill="#4B75ED"/>
<path d="M8.18729 8.18658L8.90107 8.18715C8.91311 8.65813 8.90604 9.15196 8.90575 9.62469L8.18604 9.62515L8.18729 8.18658Z" fill="#747474"/>
<path d="M11.0958 9.62533C11.5719 9.63113 12.0534 9.61869 12.5278 9.62622C12.5274 9.87599 12.5287 10.1257 12.5318 10.3755C12.5371 10.8528 12.5239 11.3385 12.5338 11.8139L10.3749 11.8149C10.365 11.4258 10.3799 11.0327 10.3751 10.6433C10.374 10.5546 10.3789 10.4643 10.3667 10.3765L10.3782 10.3718C10.3745 10.1228 10.3738 9.87377 10.3763 9.62475L11.0958 9.62533Z" fill="#2B58D4"/>
<path d="M11.096 9.62533C11.5721 9.63113 12.0535 9.61869 12.528 9.62622C12.5276 9.87599 12.5289 10.1257 12.532 10.3755C11.8285 10.3757 11.0785 10.3875 10.3783 10.3718C10.3746 10.1228 10.374 9.87377 10.3765 9.62475L11.096 9.62533Z" fill="#4B75ED"/>
<path d="M14.7112 11.8141L16.908 11.8119L16.9067 12.5311L16.192 12.5315L14.7174 12.5314L12.5311 12.5314L10.376 12.5308L10.375 11.8149L12.5339 11.8139C13.2525 11.8139 13.9946 11.804 14.7112 11.8141Z" fill="#383734"/>
<path d="M12.5279 9.62617C12.7715 9.62553 13.0399 9.63072 13.2813 9.62366L13.2792 10.3743L14.7197 10.3736C14.7174 10.6712 14.7167 10.9687 14.7177 11.2663C14.7182 11.4078 14.7263 11.6843 14.7112 11.8141C13.9947 11.804 13.2525 11.8138 12.5339 11.8139C12.524 11.3384 12.5372 10.8527 12.5319 10.3754C12.5288 10.1257 12.5275 9.87594 12.5279 9.62617Z" fill="#4B75ED"/>
<path d="M10.3777 7.4682L12.5328 7.46862C12.5303 7.70813 12.5305 7.94766 12.5334 8.18718C12.525 8.63077 12.5499 9.20216 12.528 9.62621C12.0536 9.61868 11.5721 9.63111 11.096 9.62532C11.0891 9.15071 11.0948 8.66299 11.0949 8.18736L10.378 8.18772C10.3692 7.95774 10.374 7.69868 10.3777 7.4682Z" fill="#4B75ED"/>
<path d="M10.3777 7.4682L12.5328 7.46862C12.5303 7.70813 12.5305 7.94766 12.5334 8.18718L11.0949 8.18736L10.378 8.18772C10.3692 7.95774 10.374 7.69868 10.3777 7.4682Z" fill="#747474"/>
<path d="M12.5325 7.46863L16.9079 7.46857L16.9057 8.18586L12.5331 8.18719C12.5302 7.94767 12.53 7.70814 12.5325 7.46863Z" fill="#A0A1A1"/>
<path d="M18.3792 9.62268L18.3857 9.62674L19.0944 9.62351C19.0951 9.86398 19.0891 10.1409 19.0983 10.3784L18.3715 10.3769L16.9074 10.3757C16.8988 10.1417 16.9064 9.86396 16.9069 9.6267C17.3948 9.62573 17.892 9.63043 18.3792 9.62268Z" fill="#4B75ED"/>
<path d="M18.3858 9.62677L19.0945 9.62354C19.0952 9.864 19.0892 10.141 19.0984 10.3784L18.3716 10.377C18.3844 10.1783 18.3577 9.79497 18.3858 9.62677Z" fill="#2B58D4"/>
<path d="M14.7188 9.62682L16.1889 9.62451L16.188 10.374L14.7199 10.3737L14.7188 9.62682Z" fill="#4B75ED"/>
<path d="M18.3764 8.18719L19.0942 8.18766L19.0944 9.62354L18.3856 9.62677L18.3792 9.62271C18.3659 9.16263 18.3767 8.65129 18.3764 8.18719Z" fill="#747474"/>
</g>
<rect x="0.25" y="0.25" width="27.5" height="27.5" rx="5.75" stroke="url(#paint1_linear_10296_1522)" stroke-width="0.5"/>
<defs>
<filter id="filter0_f_10296_1522" x="-1.1" y="-1.1" width="30.2" height="30.2" filterUnits="userSpaceOnUse" color-interpolation-filters="sRGB">
<feFlood flood-opacity="0" result="BackgroundImageFix"/>
<feBlend mode="normal" in="SourceGraphic" in2="BackgroundImageFix" result="shape"/>
<feGaussianBlur stdDeviation="4.55" result="effect1_foregroundBlur_10296_1522"/>
</filter>
<linearGradient id="paint0_linear_10296_1522" x1="14" y1="0" x2="14" y2="28" gradientUnits="userSpaceOnUse">
<stop stop-color="#282C3E"/>
<stop offset="1" stop-color="#181822"/>
</linearGradient>
<linearGradient id="paint1_linear_10296_1522" x1="14" y1="0" x2="14" y2="30.9167" gradientUnits="userSpaceOnUse">
<stop stop-color="#4B75ED"/>
<stop offset="1" stop-color="#4B75ED" stop-opacity="0"/>
</linearGradient>
<clipPath id="clip0_10296_1522">
<rect width="28" height="28" rx="6" fill="white"/>
</clipPath>
</defs>
</svg>
