<svg width="28" height="28" viewBox="0 0 28 28" fill="none" xmlns="http://www.w3.org/2000/svg">
<g clip-path="url(#clip0_10296_1483)">
<rect width="28" height="28" rx="6" fill="url(#paint0_linear_10296_1483)"/>
<g filter="url(#filter0_f_10296_1483)">
<circle cx="14" cy="14" r="6" fill="#04030D"/>
</g>
<path d="M7.04958 8L10.0406 8.0148C10.0406 8.0148 10.0727 8.73953 10.0406 9.05734C10.3005 9.0562 10.7724 9.06443 11.0238 9.03825L11.0199 12.5852C11.0198 12.7972 11.0071 13.843 11.0319 13.963C11.0954 14.0001 11.1636 13.9938 11.238 13.9952C11.38 13.9903 11.8369 13.9841 11.9649 13.9988C11.9968 13.9181 11.9662 13.177 11.9626 13.0277C12.2907 13.026 12.6941 13.0341 13.016 13.0146C12.9926 12.7343 12.976 12.2947 12.996 12.0162C13.5502 12.0796 14.4465 12.0429 15.0176 12.0234C14.9866 12.3667 15.0117 12.7045 14.9878 13.027C15.3276 13.0259 15.7092 13.0163 16.0456 13.0277C16.0391 13.1496 15.9939 13.9218 16.0132 14.0081L16.0015 14.0141C15.997 14.3547 15.9961 14.6953 15.999 15.036L15.9969 18.31C15.9969 18.8456 15.9835 19.4581 15.9993 19.9878C15.7083 19.9669 15.2751 19.9801 14.9735 19.9806C14.3311 19.9671 13.665 19.9836 13.0174 19.9766L11.9893 19.9799C11.7555 19.9725 11.4989 19.9757 11.2635 19.9798C9.52597 20.0106 7.75543 19.931 6.0213 20C5.98234 19.3172 6.01066 18.3552 6.01082 17.6562L6.01164 13.267L6.01082 10.4074C6.0104 10.0705 6.01816 9.03766 6.01816 9.03766H7.04958V8Z" fill="#FEEC99"/>
<path d="M12.9958 12.0162C13.55 12.0796 14.4463 12.0429 15.0174 12.0234C14.9864 12.3668 15.0115 12.7045 14.9877 13.027C15.3274 13.0259 15.709 13.0163 16.0455 13.0277C16.039 13.1496 15.9937 13.9218 16.013 14.0082L16.0013 14.0141C15.9968 14.3547 15.9959 14.6953 15.9988 15.036L15.9968 18.31C15.9967 18.8457 15.9833 19.4581 15.9991 19.9878C15.7081 19.9669 15.2749 19.9801 14.9733 19.9807C14.3309 19.9672 13.6648 19.9836 13.0172 19.9766L11.9891 19.9799C12.0015 19.3263 11.9915 18.6414 11.9903 17.9863L11.9917 16.9879L11.9923 16.0373L11.9924 15.0343C11.9931 14.699 11.9997 14.3387 11.9841 14.0061L11.9647 13.9989C11.9966 13.9182 11.966 13.177 11.9624 13.0277C12.2905 13.026 12.6939 13.0341 13.0158 13.0147C12.9924 12.7343 12.9759 12.2947 12.9958 12.0162Z" fill="#DDBE75"/>
<path d="M12.9958 12.0162C13.55 12.0796 14.4463 12.0429 15.0174 12.0234C14.9864 12.3668 15.0115 12.7045 14.9877 13.027C15.3274 13.0259 15.709 13.0163 16.0455 13.0277C16.039 13.1496 15.9937 13.9218 16.013 14.0082L16.0013 14.0141C15.9968 14.3547 15.9959 14.6954 15.9988 15.036L14.9728 15.0329C14.6498 15.0347 14.3164 15.0406 13.9943 15.0348C13.6689 15.0375 13.3435 15.0368 13.0181 15.033C12.7232 15.0486 12.2974 15.0347 11.9924 15.0343C11.9931 14.699 11.9997 14.3387 11.9841 14.0061L11.9647 13.9989C11.9966 13.9182 11.966 13.177 11.9624 13.0277C12.2905 13.026 12.6939 13.0341 13.0158 13.0147C12.9924 12.7343 12.9759 12.2947 12.9958 12.0162Z" fill="#DDBE75"/>
<path d="M13.9948 13.0311C14.314 13.032 14.6649 13.0256 14.9813 13.035C14.9757 13.3562 14.9657 13.6883 14.9739 14.0082L14.9727 15.0329C14.6496 15.0347 14.3163 15.0406 13.9941 15.0348C14.0041 14.3728 13.993 13.6954 13.9948 13.0311Z" fill="#FDE891"/>
<path d="M13.0156 13.0257C13.3378 13.0325 13.6719 13.0295 13.995 13.031C13.9933 13.6954 14.0043 14.3727 13.9944 15.0348C13.669 15.0374 13.3436 15.0368 13.0183 15.033L13.0158 14.0106L13.0156 13.0257Z" fill="#FEEC99"/>
<path d="M11.9844 14.0061C12.31 14.0072 12.6955 13.9981 13.0159 14.0106L13.0184 15.033C12.7234 15.0486 12.2977 15.0346 11.9926 15.0343C11.9933 14.699 12 14.3387 11.9844 14.0061Z" fill="#D95E00"/>
<path d="M14.9743 14.0082C15.2834 14.007 15.7017 13.9942 16.0016 14.0141C15.9971 14.3547 15.9962 14.6953 15.9991 15.0359L14.9731 15.0328L14.9743 14.0082Z" fill="#D95E00"/>
<path d="M13.0394 16.9902L14.0116 16.9924L14.9705 16.995C14.9829 17.9831 14.9523 19 14.9733 19.9806C14.3309 19.9671 13.6648 19.9836 13.0171 19.9765C13.0155 19.6785 12.997 17.0834 13.0394 16.9902Z" fill="#383323"/>
<path d="M13.9954 16.0101C14.321 16.0129 14.6467 16.0137 14.9724 16.0126C14.9735 16.2075 14.9905 16.8337 14.9707 16.995L14.0118 16.9924C13.9788 16.8819 13.9941 16.1592 13.9954 16.0101Z" fill="#FDE891"/>
<path d="M13.0169 16.0142C13.3431 16.0147 13.6693 16.0134 13.9955 16.0101C13.9942 16.1592 13.9789 16.8819 14.0119 16.9924L13.0397 16.9903C12.9894 16.9078 13.0153 16.1623 13.0169 16.0142Z" fill="#FEEC99"/>
<path d="M10.0599 8.01477V9.05731C10.0599 9.05731 10.7726 9.0644 11.024 9.03823L11.0202 12.5851C11.0201 12.7971 11.0073 13.843 11.0322 13.9629C11.0956 14.0001 11.1639 13.9937 11.2383 13.9952C11.3802 13.9903 11.8371 13.9841 11.9651 13.9988L11.9846 14.006C12.0002 14.3387 11.9935 14.6989 11.9928 15.0343L11.9928 16.0372L11.9922 16.9878C11.792 16.9862 11.1794 17.0097 11.0149 16.9738L11.0109 16.9869C10.7317 17.0028 10.3245 16.9902 10.0357 16.9903C10.0359 16.7567 10.0563 15.1308 10.0139 15.0366L9.01382 15.0336C9.00699 14.6997 9.01358 14.3442 9.01407 14.0086L10.0346 14.009C10.0431 13.687 10.0383 13.353 10.0373 13.0298L10.0354 11.026C10.0504 10.8852 10.0395 10.5477 10.0394 10.3845L10.0599 9.06351L9.01363 9.06817L9.01095 8.01477H10.0599Z" fill="#DDBE75"/>
<path d="M11.2384 13.9953C11.3803 13.9904 11.8372 13.9842 11.9652 13.9989L11.9847 14.0061C12.0003 14.3387 11.9936 14.699 11.9929 15.0343L11.9929 16.0373L11.9923 16.9879C11.7921 16.9863 11.1795 17.0098 11.0151 16.9738L11.0138 16.0542C11.0132 15.4506 10.9864 14.6302 11.0193 14.0457L11.058 14.0176C11.132 14.0184 11.1677 14.0095 11.2384 13.9953Z" fill="#FEEC99"/>
<path d="M9.01359 14.0086L10.0341 14.0091C10.0358 14.1579 10.06 14.9707 10.0134 15.0366L9.01333 15.0337C9.00651 14.6997 9.0131 14.3442 9.01359 14.0086Z" fill="#D95E00"/>
<path d="M7.05767 11.025L10.0351 11.026L10.0371 13.0298C10.038 13.353 10.0429 13.687 10.0343 14.009L9.01381 14.0086C9.00429 13.696 9.01185 13.3455 9.01174 13.0301L8.03375 13.0321L7.05469 13.0298L7.05767 11.025Z" fill="#D95E00"/>
<path d="M9.01153 13.0301L10.0369 13.0298C10.0378 13.353 10.0427 13.687 10.0341 14.009L9.0136 14.0086C9.00408 13.696 9.01165 13.3455 9.01153 13.0301Z" fill="#FDE891"/>
<path d="M8.03076 12.0518L9.01325 12.0518L9.01168 13.0301L8.0337 13.0321L8.03076 12.0518Z" fill="#FDE891"/>
<path d="M9.0118 13.0301C9.01191 13.3455 9.00435 13.696 9.01387 14.0086C9.01338 14.3442 9.00679 14.6997 9.01361 15.0337L8.03369 15.0343L8.03392 14.0076L8.03381 13.0321L9.0118 13.0301Z" fill="#FEEC99"/>
<path d="M9.01168 13.0301C9.0118 13.3455 9.00423 13.696 9.01375 14.0086C8.6909 14.0133 8.35752 14.0083 8.03381 14.0076L8.03369 13.0321L9.01168 13.0301Z" fill="#D95E00"/>
<path d="M8.03376 15.0343L9.01368 15.0337C9.00108 15.6729 9.01282 16.3517 9.01296 16.994C8.68729 16.9922 8.36159 16.9926 8.03592 16.9951C8.02563 16.3498 8.03394 15.6813 8.03376 15.0343Z" fill="#D95E00"/>
<path d="M7.05895 14.0076L8.03412 14.0076L8.03388 15.0342L7.05713 15.0344L7.05895 14.0076Z" fill="#D95E00"/>
<path d="M11.0148 16.9738C11.1792 17.0097 11.7919 16.9863 11.992 16.9879L11.9907 17.9862C11.6915 18.0341 11.3264 18.0177 11.0177 18.022C11.0185 17.8391 11.0388 17.1098 11.0107 16.9869L11.0148 16.9738Z" fill="#FDE891"/>
<path d="M17.9416 8.00336C18.3577 8.06276 19.481 8.03468 19.9519 8.03004C20.2941 8.03223 20.6363 8.02729 20.9784 8.0152C20.9489 8.3541 20.9731 8.74505 20.939 9.05732C21.2927 9.05625 21.6464 9.05042 22 9.03982C21.9431 9.97739 21.9789 11.2734 21.9789 12.2341L21.9799 17.9684C21.9802 18.6251 22.0074 19.359 21.9978 19.9982C21.6498 19.9905 21.2785 19.9762 20.9323 19.9803C20.7736 19.9727 20.5947 19.9779 20.435 19.9794C18.9586 19.9939 17.4751 19.9584 15.9994 19.9878C15.9836 19.4581 15.997 18.8457 15.9971 18.31L15.9991 15.036C15.9962 14.6954 15.9971 14.3547 16.0017 14.0141L16.0133 14.0082C16.1501 13.9826 16.8057 13.9927 16.9784 13.9953C16.9447 12.4059 16.9514 10.6076 16.9732 9.01355C17.231 9.0758 17.666 9.0362 17.9593 9.06014C17.9151 8.8313 17.915 8.24112 17.9416 8.00336Z" fill="#FEEC99"/>
<path d="M19.9517 8.03004C20.2939 8.03223 20.6361 8.02729 20.9781 8.0152C20.9487 8.3541 20.9729 8.74505 20.9387 9.05732C21.2925 9.05625 21.6462 9.05042 21.9998 9.03982C21.9429 9.97739 21.9787 11.2734 21.9786 12.2341L21.9796 17.9684C21.9799 18.6251 22.0072 19.359 21.9975 19.9982C21.6495 19.9905 21.2783 19.9762 20.9321 19.9803C20.952 19.3547 20.9347 18.6445 20.9334 18.0126L20.9344 16.9866C20.7712 16.9928 20.0641 17.0164 19.9556 16.9598L19.9571 15.0334L19.9562 14.0089L20.9321 14.009C20.9402 13.6868 20.9356 13.3532 20.9348 13.0299C20.9374 12.3617 20.9365 11.6935 20.9321 11.0252C20.9443 10.8999 20.9348 10.5498 20.9348 10.3999L20.9353 9.06741L19.9579 9.07102L19.9517 8.03004Z" fill="#DDBE75"/>
<path d="M19.957 15.0333L20.9332 15.0354L20.9343 16.9865C20.7711 16.9927 20.0641 17.0164 19.9556 16.9597L19.957 15.0333Z" fill="#FEEC99"/>
<path d="M19.9561 14.0089L20.932 14.0089C20.9365 14.351 20.9369 14.6932 20.9331 15.0353L19.9569 15.0333L19.9561 14.0089Z" fill="#D95E00"/>
<path d="M17.9572 11.0245L20.9322 11.0252C20.9367 11.6934 20.9376 12.3617 20.9349 13.0299C20.9357 13.3532 20.9404 13.6868 20.9323 14.009L19.9564 14.0089L18.9807 14.0082L18.9802 13.0291L17.9536 13.0294L17.9572 11.0245Z" fill="#D95E00"/>
<path d="M19.9552 13.0304L20.9347 13.0299C20.9354 13.3532 20.9401 13.6867 20.932 14.009L19.9561 14.0089L18.9804 14.0081L18.98 13.0291C19.305 13.0314 19.6301 13.0318 19.9552 13.0304Z" fill="#FDE891"/>
<path d="M19.9552 13.0304L19.9561 14.0089L18.9804 14.0081L18.98 13.0291C19.305 13.0314 19.6301 13.0318 19.9552 13.0304Z" fill="#D95E00"/>
<path d="M18.9771 12.0511L19.9565 12.0523C19.9563 12.3735 19.9616 12.7107 19.9554 13.0304C19.6303 13.0318 19.3052 13.0313 18.9802 13.0291L18.9771 12.0511Z" fill="#FEEC99"/>
<path d="M18.9808 14.0081L19.9564 14.0088L19.9573 15.0333L18.9806 15.0338L17.9551 15.0346L17.9569 14.0087L18.9808 14.0081Z" fill="#D95E00"/>
<path d="M18.9805 14.0081L19.9562 14.0088L19.9571 15.0333L18.9804 15.0338C18.9772 14.6919 18.9772 14.35 18.9805 14.0081Z" fill="#FEEC99"/>
<path d="M18.9802 15.0338L19.9569 15.0333L19.9554 16.9597L19.9443 16.9936L18.9795 16.9912L18.9802 15.0338Z" fill="#D95E00"/>
<path d="M19.956 16.9597C20.0645 17.0164 20.7715 16.9927 20.9348 16.9865L20.9338 18.0126C20.8993 17.997 20.0597 18.0216 19.9607 18.0238C19.957 17.8319 19.9958 17.1221 19.9448 16.9935L19.956 16.9597Z" fill="#FDE891"/>
</g>
<rect x="0.25" y="0.25" width="27.5" height="27.5" rx="5.75" stroke="url(#paint1_linear_10296_1483)" stroke-width="0.5"/>
<defs>
<filter id="filter0_f_10296_1483" x="-1.1" y="-1.1" width="30.2" height="30.2" filterUnits="userSpaceOnUse" color-interpolation-filters="sRGB">
<feFlood flood-opacity="0" result="BackgroundImageFix"/>
<feBlend mode="normal" in="SourceGraphic" in2="BackgroundImageFix" result="shape"/>
<feGaussianBlur stdDeviation="4.55" result="effect1_foregroundBlur_10296_1483"/>
</filter>
<linearGradient id="paint0_linear_10296_1483" x1="14" y1="0" x2="14" y2="28" gradientUnits="userSpaceOnUse">
<stop stop-color="#282C3E"/>
<stop offset="1" stop-color="#181822"/>
</linearGradient>
<linearGradient id="paint1_linear_10296_1483" x1="14" y1="0" x2="14" y2="30.9167" gradientUnits="userSpaceOnUse">
<stop stop-color="#FEEC99"/>
<stop offset="1" stop-color="#FEEC99" stop-opacity="0"/>
</linearGradient>
<clipPath id="clip0_10296_1483">
<rect width="28" height="28" rx="6" fill="white"/>
</clipPath>
</defs>
</svg>
