<svg width="28" height="28" viewBox="0 0 28 28" fill="none" xmlns="http://www.w3.org/2000/svg">
<g clip-path="url(#clip0_10296_1561)">
<rect width="28" height="28" rx="6" fill="url(#paint0_linear_10296_1561)"/>
<g filter="url(#filter0_f_10296_1561)">
<circle cx="14" cy="14" r="6" fill="#04030D"/>
</g>
<path d="M19 6V9H21V14H22V17H21V20H20V19H18V22H16V21H12V22H10V19H8V20H7V17H6V14H7V9H9V6H19ZM13 16V18H15V16H13ZM9 13V16H13V13H9ZM15 13V16H19V13H15Z" fill="#F3C471"/>
<rect x="9" y="11" width="10" height="2" fill="#EFDA8C"/>
<rect x="12" y="20" width="4" height="1" fill="#C5A66D"/>
<rect x="9" y="6" width="1" height="1" fill="#C5A66D"/>
<rect x="18" y="6" width="1" height="1" fill="#C5A66D"/>
<rect x="17" y="7" width="1" height="1" fill="#C5A66D"/>
</g>
<rect x="0.25" y="0.25" width="27.5" height="27.5" rx="5.75" stroke="url(#paint1_linear_10296_1561)" stroke-width="0.5"/>
<defs>
<filter id="filter0_f_10296_1561" x="-1.1" y="-1.1" width="30.2" height="30.2" filterUnits="userSpaceOnUse" color-interpolation-filters="sRGB">
<feFlood flood-opacity="0" result="BackgroundImageFix"/>
<feBlend mode="normal" in="SourceGraphic" in2="BackgroundImageFix" result="shape"/>
<feGaussianBlur stdDeviation="4.55" result="effect1_foregroundBlur_10296_1561"/>
</filter>
<linearGradient id="paint0_linear_10296_1561" x1="14" y1="0" x2="14" y2="28" gradientUnits="userSpaceOnUse">
<stop stop-color="#282C3E"/>
<stop offset="1" stop-color="#181822"/>
</linearGradient>
<linearGradient id="paint1_linear_10296_1561" x1="14" y1="0" x2="14" y2="30.9167" gradientUnits="userSpaceOnUse">
<stop stop-color="#F3C471"/>
<stop offset="1" stop-color="#F3C471" stop-opacity="0"/>
</linearGradient>
<clipPath id="clip0_10296_1561">
<rect width="28" height="28" rx="6" fill="white"/>
</clipPath>
</defs>
</svg>
