<svg width="28" height="28" viewBox="0 0 28 28" fill="none" xmlns="http://www.w3.org/2000/svg">
<g clip-path="url(#clip0_10296_1814)">
<rect width="28" height="28" rx="6" fill="url(#paint0_linear_10296_1814)"/>
<g filter="url(#filter0_f_10296_1814)">
<circle cx="14" cy="14" r="6" fill="#04030D"/>
</g>
<path d="M12.8717 6.00145L18.5859 6C18.5791 6.38123 18.5962 6.77832 18.5864 7.1521C18.9431 7.14586 19.3926 7.16364 19.7346 7.14278C19.7182 7.51531 19.7372 7.89332 19.7268 8.26307C20.0507 8.26147 20.5344 8.27535 20.8477 8.25582C20.8157 8.99573 20.8763 9.83393 20.8392 10.555C21.119 10.5531 21.7397 10.5691 21.9959 10.544C21.9784 10.9145 21.9894 11.3559 21.9894 11.7303L21.9899 13.8494L21.9897 15.4036C21.9895 15.6697 21.9787 16.0497 22 16.3046C21.6982 16.2557 21.1672 16.3115 20.8376 16.288C20.8433 16.7978 20.8444 17.3075 20.8409 17.8173C20.8407 18.0464 20.8307 18.3721 20.849 18.5949C20.4939 18.5514 20.0752 18.6056 19.7245 18.5794C19.7308 18.9444 19.7141 19.382 19.7311 19.7336C19.4273 19.707 18.9171 19.7216 18.5944 19.7218C18.5849 20.0397 18.5712 20.5322 18.5862 20.847C18.3964 20.8285 18.1687 20.8342 17.9748 20.8342L16.8888 20.8355C16.7105 20.8357 16.4631 20.8432 16.2893 20.8322C16.299 21.1871 16.2741 21.6677 16.3026 22C16.129 21.9732 15.7563 21.983 15.5657 21.983L14.2664 21.984H12.6004C12.3493 21.984 11.9455 21.9727 11.7012 21.993C11.7006 21.6122 11.6948 21.2124 11.7021 20.8328C11.1838 20.8444 10.6581 20.829 10.14 20.8344C9.96293 20.8362 9.57329 20.8225 9.41013 20.8462C9.40944 20.4751 9.40414 20.0905 9.41049 19.7206C9.03847 19.7272 8.62758 19.709 8.26327 19.7286L8.26416 18.5822C7.88898 18.5854 7.52558 18.5786 7.14812 18.5866C7.16159 18.2335 7.14846 17.7958 7.14987 17.4352C6.83942 17.4309 6.30711 17.4173 6.00553 17.4426L6.00433 13.4655C6.00442 12.8961 6.01733 12.263 6 11.6986C6.38472 11.6991 6.76944 11.6975 7.15414 11.6938C7.13666 11.0758 7.15707 10.4515 7.14926 9.8327C7.14748 9.69209 7.15452 9.55149 7.13998 9.41144L8.26735 9.40245C8.2536 9.02515 8.27395 8.63573 8.25622 8.26008L9.40867 8.25988C9.41027 7.8879 9.41 7.51594 9.40782 7.14397C9.63696 7.15692 9.971 7.14784 10.2059 7.14779L11.7008 7.14712C11.7016 6.77183 11.7085 6.37661 11.6975 6.00289C12.0797 6.01001 12.4876 6.00222 12.8717 6.00145Z" fill="#4D4A4D"/>
<path d="M11.6975 6.0029C12.0797 6.01002 12.4876 6.00223 12.8717 6.00146C12.8365 6.09378 12.8483 7.00946 12.8591 7.15538C12.5175 7.15523 12.0649 7.14268 11.7321 7.15896C11.6948 7.32575 11.7026 8.06323 11.7098 8.26893C10.9769 8.26842 10.1661 8.25168 9.43946 8.27179C9.39816 8.46333 9.41581 9.18058 9.41718 9.41325C9.0679 9.41333 8.61946 9.40151 8.27796 9.4177C8.23859 10.0618 8.29099 10.7493 8.27069 11.3967C8.26769 11.4922 8.26863 11.6074 8.27313 11.703C7.92825 11.7043 7.50083 11.694 7.1648 11.7083C7.13112 12.2513 7.15714 13.0481 7.15662 13.6082L7.15108 17.4334C7.52259 17.428 7.89415 17.4264 8.26568 17.4287C8.26499 17.8113 8.26074 18.2001 8.26416 18.5822C7.88898 18.5855 7.52558 18.5786 7.14812 18.5866C7.16159 18.2335 7.14846 17.7958 7.14987 17.4352C6.83942 17.4309 6.30711 17.4173 6.00553 17.4426L6.00433 13.4655C6.00442 12.8961 6.01733 12.263 6 11.6986C6.38472 11.6991 6.76944 11.6975 7.15414 11.6939C7.13666 11.0758 7.15707 10.4515 7.14926 9.83271C7.14748 9.6921 7.15452 9.5515 7.13998 9.41145L8.26735 9.40246C8.2536 9.02516 8.27395 8.63574 8.25622 8.26009L9.40867 8.25989C9.41027 7.88791 9.41 7.51595 9.40782 7.14398C9.63696 7.15693 9.971 7.14785 10.2059 7.1478L11.7008 7.14713C11.7016 6.77184 11.7085 6.37662 11.6975 6.0029Z" fill="#3C383B"/>
<path d="M17.433 9.40876C17.8127 9.40866 18.2018 9.40439 18.5808 9.40946L18.5806 10.5548L19.7257 10.5556C19.7254 10.9022 19.7128 11.3537 19.7289 11.6919L19.7353 11.6979L20.8382 11.701L20.8391 15.1384L19.7263 15.1374L19.7259 17.4298L18.5807 17.4291L18.5808 19.7215C17.4465 19.7212 16.273 19.7373 15.1423 19.72C15.1507 20.0785 15.1424 20.4728 15.1421 20.834L12.8491 20.8332L12.8495 19.7208L11.7226 19.7213L10.5572 19.7201L10.5571 18.5758L9.41116 18.5765C9.40271 17.8181 9.41034 17.0444 9.41029 16.2848L8.26575 16.2848L8.26465 13.9921C8.64376 13.9891 9.0229 13.9895 9.40199 13.9934C9.43938 13.8452 9.41119 13.0523 9.41129 12.8335L9.41014 11.7008C9.79005 11.6966 10.1765 11.6999 10.5569 11.7001L10.5567 10.5557L11.7033 10.5564L12.8505 10.556C12.8495 10.8879 12.8329 11.3783 12.8526 11.7002C13.2252 11.702 13.6233 11.6916 13.9921 11.6997L13.9968 11.7144C14.0644 11.6844 16.0575 11.7018 16.2897 11.7038C16.2792 11.3283 16.2908 10.9342 16.2859 10.5548C16.3125 10.2567 16.2518 9.75455 16.298 9.43894C16.3 9.4256 16.3241 9.41835 16.3408 9.40977L17.433 9.40876Z" fill="#9865C6"/>
<path d="M17.4332 9.40876C17.813 9.40866 18.202 9.40439 18.581 9.40946L18.5808 10.5548L19.726 10.5556C19.7257 10.9022 19.713 11.3537 19.7291 11.6919L19.7356 11.6979L20.8384 11.701L20.8393 15.1384L19.7265 15.1374L19.7261 17.4298L18.5809 17.4291C18.1971 17.4314 17.8134 17.4306 17.4296 17.4268C17.1526 17.4017 16.6197 17.4443 16.2878 17.4265L16.2862 16.2805L16.2884 13.995C16.286 13.6114 16.2859 13.2277 16.288 12.844L16.2899 11.7038C16.2794 11.3283 16.291 10.9342 16.2861 10.5548C16.3127 10.2567 16.252 9.75455 16.2982 9.43894C16.3002 9.4256 16.3243 9.41835 16.3411 9.40977L17.4332 9.40876Z" fill="#8C5BB9"/>
<path d="M16.2881 13.995C16.6574 13.9939 17.0346 13.9969 17.4032 13.9916L17.4353 13.9899C17.8132 13.9947 18.1912 13.9957 18.5691 13.9928L18.5785 13.9973C18.8505 13.9837 19.131 13.997 19.4034 13.9939C19.473 13.9931 19.6675 14.001 19.7244 13.9932C19.7245 14.3492 19.7125 14.7881 19.7262 15.1373L19.7258 17.4297L18.5806 17.4291C18.1968 17.4313 17.813 17.4306 17.4293 17.4268C17.1523 17.4017 16.6194 17.4443 16.2874 17.4264L16.2859 16.2805L16.2881 13.995Z" fill="#8C5BB9"/>
<path d="M18.5788 13.9974C18.8508 13.9837 19.1313 13.997 19.4037 13.9939C19.4733 13.9931 19.6678 14.001 19.7247 13.9933C19.7248 14.3492 19.7128 14.7881 19.7264 15.1374L19.7261 17.4297L18.5809 17.4291C18.5564 16.7228 18.5793 15.8552 18.5802 15.1377L18.5788 13.9974Z" fill="#D3D2D2"/>
<path d="M18.5786 13.9974C18.8506 13.9837 19.1311 13.997 19.4035 13.9939C19.4731 13.9931 19.6677 14.001 19.7246 13.9933C19.7246 14.3492 19.7127 14.7881 19.7263 15.1374L18.58 15.1377L18.5786 13.9974Z" fill="#8C5BB9"/>
<path d="M16.2881 13.995C16.6574 13.9939 17.0346 13.9969 17.4032 13.9916L17.4353 13.9899C17.8132 13.9947 18.1912 13.9957 18.5691 13.9928L18.5785 13.9973L18.5799 15.1377L17.4329 15.1379C17.4332 15.4384 17.452 16.0046 17.4325 16.284C17.0503 16.2865 16.6681 16.2853 16.2859 16.2805L16.2881 13.995Z" fill="#582A84"/>
<path d="M17.4352 13.9899C17.8131 13.9947 18.1911 13.9957 18.569 13.9928L18.5784 13.9973L18.5798 15.1377L17.4328 15.1379C17.4258 14.8239 17.4475 14.3464 17.429 14.018C17.4189 14.0077 17.4102 13.9989 17.4031 13.9916L17.4352 13.9899Z" fill="#693698"/>
<path d="M16.2859 16.2805C16.6681 16.2854 17.0503 16.2866 17.4325 16.2841C17.451 16.3673 17.4284 17.2587 17.4293 17.4268C17.1523 17.4017 16.6194 17.4444 16.2874 17.4265L16.2859 16.2805Z" fill="#9865C6"/>
<path d="M19.7351 11.6978L20.8379 11.7009L20.8388 15.1383L19.726 15.1373C19.7124 14.788 19.7243 14.3491 19.7243 13.9932L19.7239 12.8461C19.7268 12.6374 19.7077 11.847 19.7351 11.6978Z" fill="#D3D2D2"/>
<path d="M18.5805 12.8455L19.724 12.8462L19.7244 13.9932C19.6675 14.001 19.4729 13.9931 19.4034 13.9939C19.1309 13.997 18.8505 13.9837 18.5784 13.9973L18.5691 13.9928C18.1911 13.9957 17.8132 13.9947 17.4353 13.9898C17.4339 13.7924 17.4177 13.0013 17.4446 12.8475L18.5805 12.8455Z" fill="#9865C6"/>
<path d="M18.5805 12.8455C18.5801 13.0362 18.6023 13.8788 18.5691 13.9928C18.1911 13.9957 17.8132 13.9947 17.4353 13.9898C17.4339 13.7924 17.4177 13.0013 17.4446 12.8475L18.5805 12.8455Z" fill="#AF86D6"/>
<path d="M17.436 12.8433L17.4449 12.8476C17.4179 13.0014 17.4342 13.7925 17.4355 13.9899L17.4034 13.9917C17.0348 13.997 16.6576 13.994 16.2883 13.9951C16.2859 13.6114 16.2857 13.2277 16.2878 12.844C16.632 12.851 17.0958 12.8583 17.436 12.8433Z" fill="#9865C6"/>
<path d="M17.4332 9.40876C17.813 9.40866 18.202 9.40439 18.5811 9.40946L18.5809 10.5548L17.4329 10.5544L17.4332 9.40876Z" fill="#D3D2D2"/>
<path d="M19.7288 11.6919L19.7352 11.6979C19.7078 11.8471 19.7269 12.6375 19.724 12.8463L18.5805 12.8456C18.5747 12.4701 18.5795 12.0813 18.5799 11.7048C18.8992 11.6948 19.4366 11.7255 19.7288 11.6919Z" fill="#AF86D6"/>
<path d="M18.5804 10.5548L19.7255 10.5556C19.7253 10.9023 19.7126 11.3537 19.7287 11.6919C19.4365 11.7255 18.8991 11.6948 18.5798 11.7048C18.5761 11.323 18.5796 10.937 18.5804 10.5548Z" fill="#D3D2D2"/>
<path d="M16.2898 11.7037L17.4349 11.7002C17.4345 12.0506 17.4214 12.5006 17.436 12.8431C17.0957 12.8581 16.632 12.8509 16.2878 12.8439L16.2898 11.7037Z" fill="#693698"/>
<path d="M10.5567 10.5557L11.7033 10.5563L12.8505 10.5559C12.8495 10.8879 12.8329 11.3783 12.8526 11.7002C13.2252 11.702 13.6233 11.6916 13.9921 11.6996L13.9968 11.7143L13.9955 13.2171C13.9953 13.4471 14.005 13.7686 13.9923 13.9895C13.631 14.002 13.2245 13.9931 12.8593 13.9924L12.8495 13.9974C12.707 13.9923 11.7813 13.9738 11.7049 14.0057C11.7029 14.3835 11.7032 14.7612 11.7058 15.139L10.5564 15.1391C10.5569 15.4974 10.569 15.933 10.556 16.2852C10.1814 16.2765 9.7866 16.2835 9.41029 16.2848L8.26575 16.2848L8.26465 13.9921C8.64376 13.9891 9.0229 13.9895 9.40199 13.9933C9.43938 13.8451 9.41119 13.0522 9.41129 12.8335L9.41014 11.7008C9.79005 11.6965 10.1765 11.6999 10.5569 11.7L10.5567 10.5557Z" fill="#8C5BB9"/>
<path d="M9.41014 11.7009C9.79005 11.6966 10.1765 11.7 10.5569 11.7001C10.5575 11.9847 10.564 12.2942 10.5552 12.5767C10.5588 13.0451 10.5593 13.5135 10.5566 13.9819L10.5604 13.9972C10.55 14.1961 10.5833 15.0203 10.5462 15.1367L10.5564 15.1392C10.5569 15.4976 10.569 15.9332 10.556 16.2853C10.1814 16.2766 9.7866 16.2837 9.41029 16.2849L8.26575 16.2849L8.26465 13.9922C8.64376 13.9892 9.0229 13.9896 9.40199 13.9934C9.43938 13.8452 9.41119 13.0523 9.41129 12.8336L9.41014 11.7009Z" fill="#D3D2D2"/>
<path d="M10.5461 15.1366L10.5563 15.1391C10.5567 15.4974 10.5688 15.933 10.5558 16.2852C10.1812 16.2765 9.78647 16.2835 9.41016 16.2848C9.41769 15.9096 9.41222 15.5141 9.41266 15.1374C9.79048 15.1397 10.1683 15.1394 10.5461 15.1366Z" fill="#8C5BB9"/>
<path d="M10.5564 13.9818L10.5602 13.9971C10.5498 14.196 10.5831 15.0201 10.546 15.1366C10.1682 15.1394 9.79038 15.1397 9.41257 15.1374C9.40731 14.7616 9.41224 14.3733 9.4125 13.9965C9.62149 13.9894 10.421 14.0109 10.5564 13.9818Z" fill="#AF86D6"/>
<path d="M12.8524 11.7002C13.225 11.702 13.6231 11.6916 13.9919 11.6996L13.9966 11.7143L13.9953 13.2172C13.9951 13.4471 14.0048 13.7686 13.9921 13.9895C13.6308 14.002 13.2243 13.9932 12.8591 13.9924C12.8377 13.9138 12.8497 12.9827 12.8504 12.845C12.8516 12.4647 12.8556 12.0802 12.8524 11.7002Z" fill="#9865C6"/>
<path d="M10.5606 13.9971C10.9271 13.9944 11.3394 13.9814 11.7004 13.9911L11.7051 14.0057C11.703 14.3835 11.7033 14.7612 11.706 15.139L10.5566 15.1391L10.5464 15.1366C10.5835 15.0201 10.5501 14.196 10.5606 13.9971Z" fill="#9865C6"/>
<path d="M11.7051 12.844C12.087 12.8474 12.4689 12.8478 12.8507 12.845C12.85 12.9827 12.8381 13.9137 12.8595 13.9923L12.8496 13.9974C12.7071 13.9923 11.7814 13.9737 11.7051 14.0057L11.7004 13.9911C11.7217 13.7511 11.7042 13.114 11.7051 12.844Z" fill="#693698"/>
<path d="M10.5566 10.5557L11.7033 10.5563L11.7047 11.7021L10.5569 11.7L10.5566 10.5557Z" fill="#D3D2D2"/>
<path d="M11.7031 10.5563L12.8503 10.5559C12.8493 10.8879 12.8327 11.3783 12.8524 11.7002L11.7046 11.7021L11.7031 10.5563Z" fill="#AF86D6"/>
<path d="M13.9969 11.7143C14.0644 11.6843 16.0576 11.7017 16.2898 11.7038L16.2878 12.8439C16.2857 13.2276 16.2859 13.6113 16.2883 13.995L16.2861 16.2804C15.9151 16.2737 15.5151 16.2828 15.1417 16.2837L13.9968 16.2841L13.0841 16.2812C12.7099 16.3041 12.0992 16.2835 11.7068 16.2831C11.6986 15.907 11.7049 15.5161 11.7059 15.139C11.7033 14.7612 11.703 14.3834 11.705 14.0057C11.7814 13.9738 12.7071 13.9923 12.8496 13.9974L12.8594 13.9923C13.2246 13.9931 13.6311 14.002 13.9923 13.9895C14.0051 13.7686 13.9954 13.447 13.9956 13.2171L13.9969 11.7143Z" fill="#441B69"/>
<path d="M13.997 11.7143C14.0645 11.6843 16.0576 11.7017 16.2899 11.7038L16.2879 12.8439L14.008 12.845C14.0054 13.2175 14.0188 13.629 14.006 13.9956L13.9924 13.9895C14.0052 13.7686 13.9955 13.447 13.9957 13.2171L13.997 11.7143Z" fill="#582A84"/>
<path d="M11.705 14.0057C11.7814 13.9738 12.7071 13.9923 12.8496 13.9974L12.8499 16.2727C12.918 16.2733 13.0194 16.271 13.0841 16.2812C12.7099 16.3042 12.0992 16.2835 11.7068 16.2831C11.6986 15.907 11.7049 15.5161 11.7059 15.139C11.7033 14.7612 11.703 14.3835 11.705 14.0057Z" fill="#582A84"/>
<path d="M16.2876 17.4265C16.6196 17.4444 17.1525 17.4017 17.4295 17.4268C17.8132 17.4306 18.197 17.4314 18.5807 17.4291L18.5808 19.7215C17.4466 19.7212 16.273 19.7373 15.1424 19.7201C15.1301 19.3645 15.1415 18.9354 15.1417 18.5743L15.1417 17.4294C15.5092 17.4301 15.9244 17.4392 16.2876 17.4265Z" fill="#D3D2D2"/>
<path d="M16.2873 17.4265C16.6193 17.4444 17.1521 17.4017 17.4291 17.4268C17.4402 17.8003 17.4334 18.1981 17.4331 18.5735L15.1414 18.5743L15.1414 17.4294C15.5089 17.4301 15.9241 17.4392 16.2873 17.4265Z" fill="#8C5BB9"/>
<path d="M10.5565 15.1391L11.7059 15.139C11.7048 15.5162 11.6986 15.907 11.7068 16.2831C11.7031 16.6557 11.7164 17.0667 11.7051 17.4319C11.7046 17.8099 11.7005 18.1956 11.7052 18.573C11.3422 18.5844 10.9244 18.5752 10.5571 18.5758L9.41121 18.5765C9.40276 17.8181 9.41039 17.0444 9.41034 16.2848C9.78665 16.2836 10.1814 16.2766 10.556 16.2852C10.569 15.9331 10.5569 15.4975 10.5565 15.1391Z" fill="#8C5BB9"/>
<path d="M9.41034 16.2849C9.78665 16.2836 10.1814 16.2766 10.556 16.2853L10.5571 18.5758L9.41121 18.5765C9.40276 17.8182 9.41039 17.0444 9.41034 16.2849Z" fill="#D3D2D2"/>
<path d="M10.5566 15.1391L11.706 15.139C11.705 15.5162 11.6987 15.907 11.7069 16.2831L10.5562 16.2852C10.5692 15.9331 10.557 15.4975 10.5566 15.1391Z" fill="#693698"/>
<path d="M15.1418 16.2836C15.5152 16.2828 15.9152 16.2737 16.2862 16.2804L16.2877 17.4264C15.9246 17.4391 15.5094 17.43 15.1418 17.4293L15.1419 18.5742C14.7732 18.5743 14.3901 18.5692 14.0226 18.5797L14.0142 18.5742C13.9792 18.5245 13.9958 17.5756 13.9963 17.4347L13.9969 16.2841L15.1418 16.2836Z" fill="#693698"/>
<path d="M15.1417 16.2836C15.515 16.2828 15.9151 16.2737 16.2861 16.2804L16.2876 17.4264C15.9245 17.4391 15.5093 17.43 15.1417 17.4293C15.1296 17.0726 15.1412 16.6454 15.1417 16.2836Z" fill="#582A84"/>
<path d="M14.0225 18.5798C14.3899 18.5693 14.7731 18.5744 15.1417 18.5743C15.1415 18.9354 15.1301 19.3644 15.1424 19.7201C15.1507 20.0785 15.1424 20.4728 15.1422 20.834L12.8491 20.8332L12.8495 19.7208L13.8747 19.7196C13.9026 19.7151 13.9773 19.7058 13.9848 19.6836C14.0375 19.5266 13.9473 18.6628 14.0225 18.5798Z" fill="#D3D2D2"/>
<path d="M14.0225 18.5798C14.39 18.5693 14.7732 18.5744 15.1418 18.5743C15.1416 18.9354 15.1302 19.3644 15.1424 19.7201L13.8748 19.7196C13.9026 19.7151 13.9774 19.7058 13.9848 19.6836C14.0375 19.5266 13.9473 18.6628 14.0225 18.5798Z" fill="#9865C6"/>
<path d="M11.7053 18.5729L11.7148 18.576C12.0612 18.5753 12.5107 18.5876 12.8485 18.5724L12.8496 19.7208L11.7227 19.7212L10.5573 19.72L10.5571 18.5757C10.9244 18.5751 11.3422 18.5844 11.7053 18.5729Z" fill="#D3D2D2"/>
<path d="M13.9961 17.4348C13.9956 17.5757 13.9789 18.5246 14.0139 18.5743L14.0224 18.5797C13.9472 18.6628 14.0374 19.5266 13.9847 19.6836C13.9773 19.7058 13.9025 19.7151 13.8746 19.7196L12.8495 19.7208L12.8484 18.5724C12.8602 18.2143 12.8495 17.7899 12.8495 17.4266C13.2317 17.4274 13.6139 17.4301 13.9961 17.4348Z" fill="#8C5BB9"/>
<path d="M11.7052 17.4319C12.0727 17.4266 12.4915 17.4425 12.8498 17.4266C12.8498 17.7899 12.8605 18.2143 12.8486 18.5724C12.5108 18.5877 12.0613 18.5753 11.7149 18.5761L11.7054 18.573C11.7007 18.1956 11.7047 17.8099 11.7052 17.4319Z" fill="#AF86D6"/>
<path d="M12.8485 8.2643L17.4338 8.26428L17.4328 9.40874L16.3407 9.40975C16.3239 9.41833 16.2998 9.42558 16.2979 9.43892C16.2517 9.75453 16.3123 10.2567 16.2858 10.5547C16.2906 10.9342 16.279 11.3283 16.2896 11.7038C16.0573 11.7018 14.0642 11.6844 13.9967 11.7143L13.992 11.6996C13.6232 11.6916 13.225 11.702 12.8524 11.7002C12.8327 11.3783 12.8493 10.8879 12.8503 10.5559L11.7031 10.5563C11.7004 10.1738 11.6997 9.79134 11.7012 9.40885L12.8492 9.40615L12.8485 8.2643Z" fill="#D3D2D2"/>
<path d="M12.8503 10.5559C13.2215 10.556 13.6275 10.5644 13.9958 10.5552L15.1425 10.5554L16.2857 10.5547C16.2906 10.9341 16.279 11.3282 16.2895 11.7038C16.0572 11.7017 14.0641 11.6843 13.9966 11.7143L13.9919 11.6996C13.6231 11.6915 13.225 11.7019 12.8523 11.7002C12.8327 11.3782 12.8493 10.8878 12.8503 10.5559Z" fill="#693698"/>
<path d="M12.8503 10.5559C13.2215 10.556 13.6275 10.5643 13.9958 10.5552C13.9959 10.8878 14.0107 11.3795 13.9919 11.6996C13.6231 11.6915 13.225 11.7019 12.8523 11.7001C12.8327 11.3782 12.8493 10.8878 12.8503 10.5559Z" fill="#8C5BB9"/>
<path d="M16.2886 9.40735L16.3407 9.40974C16.3239 9.41831 16.2998 9.42556 16.2979 9.4389C16.2517 9.75452 16.3124 10.2567 16.2858 10.5547L15.1426 10.5554C15.1344 10.298 15.1338 9.67241 15.1497 9.42728C15.0557 9.42525 14.9673 9.41889 14.8738 9.41216C15.3402 9.40671 15.8271 9.42072 16.2886 9.40735Z" fill="#9865C6"/>
<path d="M14.0097 9.40918C14.2499 9.4096 14.6468 9.39699 14.8737 9.41217C14.9673 9.4189 15.0557 9.42527 15.1496 9.4273C15.1337 9.67242 15.1343 10.2981 15.1425 10.5554L13.9959 10.5553C13.9985 10.3985 13.9797 9.48265 14.0097 9.40918Z" fill="#8C5BB9"/>
</g>
<rect x="0.25" y="0.25" width="27.5" height="27.5" rx="5.75" stroke="url(#paint1_linear_10296_1814)" stroke-width="0.5"/>
<defs>
<filter id="filter0_f_10296_1814" x="-1.1" y="-1.1" width="30.2" height="30.2" filterUnits="userSpaceOnUse" color-interpolation-filters="sRGB">
<feFlood flood-opacity="0" result="BackgroundImageFix"/>
<feBlend mode="normal" in="SourceGraphic" in2="BackgroundImageFix" result="shape"/>
<feGaussianBlur stdDeviation="4.55" result="effect1_foregroundBlur_10296_1814"/>
</filter>
<linearGradient id="paint0_linear_10296_1814" x1="14" y1="0" x2="14" y2="28" gradientUnits="userSpaceOnUse">
<stop stop-color="#282C3E"/>
<stop offset="1" stop-color="#181822"/>
</linearGradient>
<linearGradient id="paint1_linear_10296_1814" x1="14" y1="0" x2="14" y2="30.9167" gradientUnits="userSpaceOnUse">
<stop stop-color="#7E30C6"/>
<stop offset="1" stop-color="#7E30C6" stop-opacity="0"/>
</linearGradient>
<clipPath id="clip0_10296_1814">
<rect width="28" height="28" rx="6" fill="white"/>
</clipPath>
</defs>
</svg>
