<svg width="28" height="28" viewBox="0 0 28 28" fill="none" xmlns="http://www.w3.org/2000/svg">
<g clip-path="url(#clip0_10296_1875)">
<rect width="28" height="28" rx="6" fill="url(#paint0_linear_10296_1875)"/>
<g filter="url(#filter0_f_10296_1875)">
<circle cx="14" cy="14" r="6" fill="#04030D"/>
</g>
<path d="M14.3225 8.01687C14.9307 7.9699 15.6545 8.0395 16.284 8.00639C16.2772 8.40864 16.2894 8.81536 16.2818 9.21308L17.7718 9.21243C17.9902 9.21244 18.3617 9.2221 18.5673 9.20335C18.5602 9.60738 18.5701 10.0089 18.5653 10.4104C18.9143 10.4099 19.3671 10.4211 19.7087 10.4007C19.7043 10.8029 19.7037 11.2052 19.7071 11.6075C20.0315 11.6072 20.5381 11.6196 20.8502 11.5976C20.8455 12.3989 20.845 13.2003 20.8487 14.0016C21.1633 14.0013 21.69 14.014 21.9918 13.9918C21.9776 15.0071 21.9902 16.0475 21.9893 17.0647C21.9888 17.5272 21.9644 18.3755 22 18.7992C21.6656 18.7929 21.1814 18.7838 20.8505 18.8007C20.8492 19.0534 20.8306 19.775 20.8583 19.9964C19.7168 19.9763 18.5612 20.009 17.4199 19.9935C17.0633 19.9836 16.6255 19.9864 16.2698 19.9972C15.8916 19.9953 15.5103 19.9883 15.1326 20C14.4263 19.9758 13.5687 19.9896 12.8562 19.9997C12.5079 19.9823 12.0727 19.9948 11.7187 19.9977C11.3806 19.9792 10.9179 19.9944 10.5712 19.9931C10.1489 19.9811 9.67701 19.9915 9.25147 19.9914C8.54817 19.9888 7.84485 19.9903 7.14156 19.9962L7.14224 18.7978C6.7615 18.7929 6.38072 18.7934 6 18.7992L6.0006 13.9981C6.30985 13.975 6.80253 14.0027 7.14165 13.994L7.14218 11.604C7.45096 11.5809 7.94459 11.6085 8.28323 11.5999L8.28371 10.407C8.58964 10.384 9.08913 10.4111 9.42481 10.4028L9.42553 9.20906C9.59421 9.19557 9.95235 9.21033 10.1373 9.21089C10.6609 9.21392 11.1845 9.2122 11.708 9.20573L11.7087 8.01202C11.9096 7.9959 12.3472 8.01357 12.5732 8.01372L14.3225 8.01687Z" fill="#FBFEFE"/>
<path d="M14.3228 8.01687C14.9309 7.9699 15.6548 8.0395 16.2842 8.00639C16.2774 8.40864 16.2897 8.81536 16.2821 9.21308L17.772 9.21243C17.9904 9.21244 18.3619 9.2221 18.5675 9.20335C18.5605 9.60738 18.5704 10.0089 18.5655 10.4104C18.9146 10.4099 19.3673 10.4211 19.7089 10.4007C19.7045 10.8029 19.704 11.2052 19.7073 11.6075C20.0317 11.6072 20.5383 11.6196 20.8505 11.5976C20.8457 12.3989 20.8452 13.2003 20.849 14.0016C21.1635 14.0013 21.6903 14.014 21.992 13.9918C21.9779 15.0071 21.9904 16.0475 21.9895 17.0647C21.9891 17.5272 21.9646 18.3755 22.0002 18.7992C21.6658 18.7929 21.1817 18.7838 20.8508 18.8007C20.8494 19.0534 20.8308 19.775 20.8586 19.9964C19.717 19.9763 18.5615 20.0089 17.4202 19.9935C17.4179 19.5939 17.4178 19.1944 17.4197 18.7948C17.4068 18.4223 17.4173 17.976 17.4179 17.5979L17.4181 16.4024L17.4189 15.2055L17.4043 15.2005C17.4352 15.1085 17.4179 14.1505 17.417 14.0065C17.4167 13.6304 17.4096 13.2264 17.4222 12.8525L17.4333 12.8459C17.436 12.8421 17.4384 12.8379 17.4415 12.8343C17.4926 12.7759 18.4217 12.8055 18.5594 12.806C18.5554 12.4079 18.5561 12.0098 18.5615 11.6117C18.56 11.2111 18.5607 10.8105 18.5637 10.4099C18.1905 10.4189 17.7991 10.4125 17.4246 10.4122L16.2777 10.4113L16.2802 9.2125C15.9153 9.22249 15.5142 9.2151 15.1465 9.21529C15.1194 9.13983 15.1345 8.1815 15.135 8.02489C14.8961 8.02611 14.5534 8.03572 14.3228 8.01687Z" fill="#569596"/>
<path d="M17.4328 12.846C17.4355 12.8421 17.4379 12.8379 17.441 12.8344C17.4921 12.7759 18.4212 12.8055 18.5589 12.8061C18.5824 13.1874 18.5502 13.605 18.5761 14.0067C18.9472 14.0041 19.3322 14.0111 19.7011 14.0046C19.7015 14.3674 19.6886 14.8493 19.7035 15.203C19.9613 15.2017 20.6109 15.1818 20.8433 15.2092L20.8439 17.6069L20.8446 18.796L19.7125 18.7947L18.5577 18.794L17.4192 18.7948C17.4063 18.4223 17.4169 17.976 17.4174 17.5979L17.4177 16.4025L17.4184 15.2055L17.4038 15.2005C17.4347 15.1086 17.4174 14.1506 17.4166 14.0066C17.4162 13.6305 17.4091 13.2264 17.4217 12.8525L17.4328 12.846Z" fill="#98D0D1"/>
<path d="M17.4328 12.846C17.4355 12.8421 17.4379 12.8379 17.441 12.8344C17.4921 12.7759 18.4212 12.8055 18.5589 12.8061C18.5824 13.1874 18.5502 13.605 18.5761 14.0067C18.9472 14.0041 19.3322 14.0111 19.7011 14.0046C19.7015 14.3674 19.6886 14.8493 19.7035 15.203C19.6793 15.4494 19.6992 16.1244 19.7002 16.3987C19.3557 16.3859 18.9216 16.3989 18.5705 16.4003C18.5586 16.2277 18.5789 15.2675 18.5448 15.1982C18.1752 15.1989 17.7865 15.1935 17.4184 15.2055L17.4038 15.2005C17.4347 15.1086 17.4174 14.1506 17.4166 14.0066C17.4162 13.6305 17.4091 13.2264 17.4217 12.8525L17.4328 12.846Z" fill="#ADDBDC"/>
<path d="M17.4217 12.8525L17.4328 12.8459C17.4389 13.1852 17.4464 13.6768 17.4278 14.0127C17.7777 13.995 18.2046 14.006 18.5603 14.0074C18.5595 14.1278 18.568 15.1464 18.5448 15.1981C18.1752 15.1989 17.7865 15.1935 17.4184 15.2055L17.4038 15.2005C17.4347 15.1086 17.4174 14.1505 17.4166 14.0065C17.4162 13.6304 17.4091 13.2264 17.4217 12.8525Z" fill="#BFE1E2"/>
<path d="M17.4174 16.4024C17.7924 16.3953 18.1965 16.4119 18.5632 16.3984C18.5503 16.8304 18.5583 17.2591 18.5602 17.6906C18.5606 17.7828 18.57 18.2251 18.5568 18.3005L18.5574 18.7939L17.419 18.7948C17.4061 18.4223 17.4166 17.976 17.4172 17.5979L17.4174 16.4024Z" fill="#ADDBDC"/>
<path d="M17.4172 17.598C17.7177 17.5964 18.2725 17.6155 18.5499 17.5917C18.5472 17.6808 18.5359 18.2377 18.5568 18.3006L18.5574 18.794L17.419 18.7949C17.4061 18.4224 17.4166 17.976 17.4172 17.598Z" fill="#BFE1E2"/>
<path d="M19.7013 17.6002C19.9639 17.5995 20.614 17.575 20.8441 17.6069L20.8449 18.796L19.7128 18.7947C19.6904 18.6737 19.7015 17.7744 19.7013 17.6002Z" fill="#ADDBDC"/>
<path d="M18.5608 11.6118C18.9145 11.6109 19.3571 11.6216 19.7045 11.6071L19.7012 14.005C20.0573 14.0046 20.4962 14.0152 20.8461 14.0012C20.843 14.4038 20.842 14.8065 20.8431 15.2092C20.6107 15.1818 19.9611 15.2017 19.7033 15.203C19.6884 14.8493 19.7013 14.3674 19.7009 14.0046C19.332 14.0111 18.9471 14.0042 18.5759 14.0067C18.55 13.605 18.5822 13.1874 18.5587 12.8061C18.5547 12.408 18.5554 12.0098 18.5608 11.6118Z" fill="#BFE1E2"/>
<path d="M17.4023 12.8072L17.4218 12.8526C17.4092 13.2264 17.4163 13.6305 17.4166 14.0066C17.4175 14.1506 17.4348 15.1086 17.4039 15.2006L17.4185 15.2056L17.4177 16.4025L17.4175 17.598C17.4169 17.976 17.4064 18.4224 17.4193 18.7949C17.4174 19.1944 17.4175 19.594 17.4198 19.9936C17.0632 19.9836 16.6253 19.9864 16.2696 19.9973C15.8915 19.9953 15.5102 19.9883 15.1325 20.0001C14.4262 19.9758 13.5686 19.9896 12.856 19.9998C12.8408 19.642 12.8513 19.1663 12.8502 18.8L12.8517 15.2066L12.852 14.0079C13.2319 14.0052 13.6118 14.0049 13.9917 14.0068L13.9945 12.8104L15.1377 12.8104L16.2755 12.8084C16.6482 12.8077 17.0304 12.8029 17.4023 12.8072Z" fill="#98D0D1"/>
<path d="M12.8517 15.2066C13.5597 15.1983 14.4359 15.1807 15.1352 15.2065L15.135 16.4007L15.1338 18.7824C15.1336 19.1757 15.1424 19.6094 15.1325 20C14.4262 19.9758 13.5686 19.9895 12.856 19.9997C12.8408 19.6419 12.8513 19.1662 12.8502 18.7999L12.8517 15.2066Z" fill="#305354"/>
<path d="M15.1356 15.2064C15.5159 15.202 15.8962 15.2013 16.2765 15.2043L16.2748 18.3915C16.2749 18.8455 16.2959 19.5604 16.2699 19.9971C15.8918 19.9952 15.5105 19.9882 15.1328 19.9999C15.1427 19.6094 15.134 19.1757 15.1341 18.7823L15.1353 16.4007L15.1356 15.2064Z" fill="#466B6C"/>
<path d="M13.9916 14.0068C14.3664 14.0066 14.7613 14.0006 15.1346 14.0074C15.1338 14.3979 15.1253 14.8183 15.1351 15.2065C14.4358 15.1808 13.5596 15.1983 12.8516 15.2066L12.8519 14.0079C13.2318 14.0052 13.6117 14.0048 13.9916 14.0068Z" fill="#466B6C"/>
<path d="M17.4024 12.8072L17.4219 12.8526C17.4093 13.2264 17.4164 13.6305 17.4167 14.0066L16.2775 14.0067C16.2742 13.6072 16.2735 13.2078 16.2756 12.8084C16.6483 12.8077 17.0305 12.8029 17.4024 12.8072Z" fill="#FBFEFE"/>
<path d="M16.2771 14.0066L17.4164 14.0066C17.4172 14.1506 17.4345 15.1086 17.4036 15.2006L16.2744 15.2037L16.2771 14.0066Z" fill="#D9EFF0"/>
<path d="M16.2756 12.8083C16.2736 13.2078 16.2742 13.6072 16.2775 14.0066C15.8961 14.0036 15.5147 14.0036 15.1333 14.0069C15.1311 13.6081 15.1326 13.2092 15.1378 12.8104L16.2756 12.8083Z" fill="#D9EFF0"/>
<path d="M11.7087 8.01203C11.9096 7.99591 12.3472 8.01358 12.5732 8.01373L14.3225 8.01687C14.5532 8.03573 14.8959 8.02611 15.1347 8.0249C15.1342 8.18151 15.1191 9.13984 15.1462 9.21529L15.1384 9.21872C14.3561 9.20482 13.5669 9.22352 12.7851 9.216C12.5246 9.2135 11.9378 9.234 11.7098 9.20321C11.7073 9.60677 11.7074 10.0103 11.7099 10.4139L10.2463 10.4131C10.0388 10.4132 9.62222 10.4244 9.42674 10.4003C9.42415 10.8038 9.42417 11.2073 9.42679 11.6108C9.15444 11.6108 8.53302 11.6281 8.28516 11.5975C8.2795 12.3916 8.27857 13.2105 8.28712 14.0045C8.01244 14.0047 7.39408 14.0222 7.14356 13.9915L7.14158 18.7973L9.2293 18.7924C9.65427 18.792 10.1509 18.7792 10.5692 18.7962L10.5712 19.9931C10.1489 19.9811 9.67701 19.9915 9.25147 19.9914C8.54817 19.9888 7.84485 19.9903 7.14156 19.9962L7.14224 18.7978C6.7615 18.7929 6.38072 18.7934 6 18.7992L6.0006 13.9981C6.30985 13.975 6.80253 14.0027 7.14165 13.994L7.14218 11.604C7.45096 11.5809 7.94459 11.6085 8.28323 11.5999L8.28371 10.407C8.58964 10.384 9.08913 10.4111 9.42481 10.4028L9.42553 9.20907C9.59421 9.19558 9.95235 9.21034 10.1373 9.2109C10.6609 9.21393 11.1845 9.21221 11.708 9.20574L11.7087 8.01203Z" fill="#ADDBDC"/>
<path d="M11.7105 15.206C12.082 15.2037 12.4824 15.1938 12.8517 15.2066L12.8502 18.7999C12.8513 19.1663 12.8408 19.6419 12.856 19.9997C12.5077 19.9823 12.0726 19.9948 11.7185 19.9977C11.3805 19.9792 10.9178 19.9944 10.571 19.9931L10.5691 18.7962L10.5706 16.3934L10.5684 15.2074C10.9491 15.2024 11.3298 15.2019 11.7105 15.206Z" fill="#466B6C"/>
<path d="M10.5684 15.2074C10.9491 15.2024 11.3298 15.2019 11.7105 15.206L11.7092 18.47L11.71 19.471C11.7102 19.5936 11.7056 19.8838 11.7185 19.9977C11.3805 19.9792 10.9178 19.9944 10.571 19.9931L10.5691 18.7962L10.5706 16.3935L10.5684 15.2074Z" fill="#569596"/>
<path d="M17.4242 10.4121C17.7987 10.4124 18.1901 10.4188 18.5633 10.4098C18.5603 10.8104 18.5596 11.211 18.5611 11.6117C18.5557 12.0097 18.555 12.4079 18.559 12.806C18.4213 12.8054 17.4922 12.7758 17.4411 12.8343C17.438 12.8378 17.4356 12.842 17.4329 12.8459L17.4218 12.8524L17.4023 12.8071C17.4373 12.7454 17.4187 11.7574 17.4175 11.6116C17.4242 11.2164 17.4069 10.8058 17.4242 10.4121Z" fill="#D9EFF0"/>
<path d="M15.146 9.21531C15.5137 9.21512 15.9148 9.22251 16.2797 9.21252L16.2772 10.4113C15.9163 10.3979 15.5067 10.4091 15.1423 10.4136C15.1403 10.2804 15.1559 9.25319 15.1382 9.21873L15.146 9.21531Z" fill="#D9EFF0"/>
<path d="M12.8516 12.8098L13.9946 12.8103L13.9918 14.0067C13.6119 14.0047 13.232 14.0051 12.8521 14.0078C12.8559 13.6112 12.852 13.207 12.8516 12.8098Z" fill="#569596"/>
<path d="M17.4174 11.6117C17.4186 11.7575 17.4372 12.7455 17.4022 12.8072C17.0303 12.8029 16.6481 12.8076 16.2754 12.8083C16.2845 12.4249 16.2762 11.999 16.2757 11.6123L17.4174 11.6117Z" fill="#ADDBDC"/>
<path d="M11.7111 14.0052L12.8519 14.0079L12.8516 15.2066C12.4824 15.1939 12.0819 15.2038 11.7104 15.206C11.7164 14.8111 11.7114 14.4013 11.7111 14.0052Z" fill="#569596"/>
<path d="M9.42822 15.2031L10.251 15.2063C10.3208 15.2066 10.5172 15.2185 10.5686 15.2074L10.5708 16.3934C10.5256 16.3735 9.56214 16.3964 9.42883 16.3983C9.43728 16.0065 9.43206 15.595 9.42822 15.2031Z" fill="#D9EFF0"/>
</g>
<rect x="0.25" y="0.25" width="27.5" height="27.5" rx="5.75" stroke="url(#paint1_linear_10296_1875)" stroke-width="0.5"/>
<defs>
<filter id="filter0_f_10296_1875" x="-1.1" y="-1.1" width="30.2" height="30.2" filterUnits="userSpaceOnUse" color-interpolation-filters="sRGB">
<feFlood flood-opacity="0" result="BackgroundImageFix"/>
<feBlend mode="normal" in="SourceGraphic" in2="BackgroundImageFix" result="shape"/>
<feGaussianBlur stdDeviation="4.55" result="effect1_foregroundBlur_10296_1875"/>
</filter>
<linearGradient id="paint0_linear_10296_1875" x1="14" y1="0" x2="14" y2="28" gradientUnits="userSpaceOnUse">
<stop stop-color="#282C3E"/>
<stop offset="1" stop-color="#181822"/>
</linearGradient>
<linearGradient id="paint1_linear_10296_1875" x1="14" y1="0" x2="14" y2="30.9167" gradientUnits="userSpaceOnUse">
<stop stop-color="#6FB6B7"/>
<stop offset="1" stop-color="#6FB6B7" stop-opacity="0"/>
</linearGradient>
<clipPath id="clip0_10296_1875">
<rect width="28" height="28" rx="6" fill="white"/>
</clipPath>
</defs>
</svg>
