<svg width="28" height="28" viewBox="0 0 28 28" fill="none" xmlns="http://www.w3.org/2000/svg">
<g clip-path="url(#clip0_10296_1957)">
<rect width="28" height="28" rx="6" fill="url(#paint0_linear_10296_1957)"/>
<g filter="url(#filter0_f_10296_1957)">
<circle cx="14" cy="14" r="6" fill="#04030D"/>
</g>
<path d="M10.0391 10.0273C10.46 10.0269 10.9276 10.037 11.3445 10.0242C11.7962 10.0266 12.2481 10.0267 12.6998 10.0245C12.698 10.1866 12.6693 11.2391 12.7234 11.3406C13.1192 11.3194 13.5983 11.3323 14.0004 11.3333L15.3058 11.3334L15.3077 12.6853C15.3073 13.0901 15.2929 13.5918 15.3118 13.9888L15.2966 13.9934C15.3278 14.1836 15.3103 15.0731 15.3095 15.2997L15.3078 16.6511L15.308 17.9553L15.306 19.3086C15.3062 19.6996 15.293 20.195 15.3164 20.5777C15.3045 20.5874 15.2901 20.5992 15.2732 20.6129C14.9173 20.6255 14.3381 20.6171 14.0011 20.6139L14.0036 21.9722L12.6906 21.9722C11.9804 21.9541 11.2293 21.969 10.5118 21.9623L10.0456 21.9718C10.0211 21.6426 10.0394 20.9533 10.0442 20.6178L10.0374 20.6015L10.039 19.3085C9.68841 19.3107 9.06584 19.3312 8.73434 19.2987L8.70616 19.2708C8.66319 19.1594 8.67947 18.1043 8.71972 17.9552L8.69853 17.945C8.67068 17.8329 8.68758 16.8699 8.67893 16.6538C8.66809 16.2525 8.69364 15.8433 8.68501 15.4411C8.68338 15.3658 8.69271 15.3502 8.64235 15.2996C8.28419 15.3163 7.84329 15.3009 7.46883 15.3081C7.44058 15.3136 7.43175 15.3216 7.40615 15.3355C7.37645 15.4604 7.38932 16.4721 7.3896 16.6757C7.15941 16.6391 6.25074 16.6509 6.01435 16.6706C5.99356 15.8017 6.01178 14.8491 6.01183 13.9756C6.01943 13.5476 6.02304 13.1194 6.02267 12.6913C6.02787 12.2587 6.03717 11.7571 6.00647 11.3285C6.41284 11.3337 6.98901 11.3526 7.38303 11.3232L7.42063 11.3321C7.78739 11.3346 8.33689 11.3535 8.69026 11.3299L8.70385 11.3345L10.0279 11.3334L10.0436 11.3295C10.0216 10.9583 10.039 10.4117 10.0391 10.0273Z" fill="#222122"/>
<path d="M11.3428 17.9566C11.5234 17.9566 12.5934 17.9436 12.6981 17.9602L12.7146 17.9629C12.7863 17.9615 12.921 17.9551 12.987 17.9617C13.7349 17.9517 14.5761 17.9821 15.3079 17.9553L15.3059 19.3086C15.3061 19.6996 15.2929 20.195 15.3163 20.5777C15.3044 20.5874 15.29 20.5992 15.2731 20.613C14.9172 20.6255 14.338 20.6171 14.001 20.6139L14.0035 21.9722L12.6905 21.9723C11.9803 21.9541 11.2292 21.9691 10.5117 21.9623L10.0455 21.9719C10.021 21.6426 10.0393 20.9534 10.0442 20.6179L10.0373 20.6015L10.0389 19.3085C9.68833 19.3107 9.06575 19.3312 8.73425 19.2987L8.70607 19.2708C8.66311 19.1594 8.67938 18.1044 8.71963 17.9553L10.04 17.9581C10.4743 17.954 10.9086 17.9536 11.3428 17.9566Z" fill="#848384"/>
<path d="M11.3428 17.9566C11.5234 17.9566 12.5934 17.9436 12.6981 17.9602C12.6969 18.221 12.678 19.0269 12.7092 19.2456L12.6858 19.2979C12.5703 19.3312 11.5393 19.3117 11.3385 19.3099L11.3229 19.314L10.0389 19.3085C9.68833 19.3107 9.06575 19.3312 8.73425 19.2987L8.70607 19.2708C8.66311 19.1594 8.67938 18.1044 8.71963 17.9553L10.04 17.9581C10.4743 17.954 10.9086 17.9536 11.3428 17.9566Z" fill="#526928"/>
<path d="M8.71963 17.9553L10.04 17.9581L10.0389 19.3086C9.68833 19.3107 9.06575 19.3313 8.73425 19.2988L8.70607 19.2709C8.66311 19.1595 8.67938 18.1044 8.71963 17.9553Z" fill="#848384"/>
<path d="M10.0402 17.958C10.4744 17.954 10.9087 17.9535 11.3429 17.9566C11.3431 18.3969 11.3522 18.8723 11.3386 19.3099L11.3231 19.3139L10.0391 19.3085L10.0402 17.958Z" fill="#688239"/>
<path d="M11.3418 20.6147C11.6971 20.6115 12.3705 20.5847 12.7008 20.6111C13.1274 20.6247 13.573 20.6162 14.0012 20.6139L14.0037 21.9722L12.6907 21.9722C11.9805 21.9541 11.2294 21.969 10.5119 21.9623L10.0457 21.9718C10.0212 21.6426 10.0394 20.9533 10.0443 20.6178C10.437 20.6193 10.9395 20.6306 11.3256 20.6106L11.3418 20.6147Z" fill="#6E6C6E"/>
<path d="M12.7008 20.6112C13.1273 20.6248 13.573 20.6163 14.0011 20.614L14.0037 21.9723L12.6907 21.9723C12.7052 21.5331 12.6934 21.0566 12.7008 20.6112Z" fill="#526928"/>
<path d="M10.0443 20.6178C10.437 20.6193 10.9395 20.6306 11.3256 20.6106L11.3418 20.6147C11.3431 21.0529 11.3499 21.5027 11.3449 21.94C11.2195 21.9389 10.5806 21.9172 10.5119 21.9623L10.0457 21.9718C10.0212 21.6426 10.0394 20.9533 10.0443 20.6178Z" fill="#848384"/>
<path d="M12.715 17.9629C12.7866 17.9615 12.9214 17.9551 12.9873 17.9616C13.2012 18.0015 13.7792 17.9853 14.0173 17.9825C13.9771 18.4002 14.0142 18.8806 13.9939 19.3048C13.7962 19.3043 12.8353 19.3512 12.7338 19.305L12.7095 19.2456C12.6783 19.0269 12.6972 18.2209 12.6985 17.9602L12.715 17.9629Z" fill="#848384"/>
<path d="M14.0038 19.3099L15.3061 19.3086C15.3064 19.6995 15.2931 20.195 15.3165 20.5776C15.3046 20.5874 15.2902 20.5991 15.2733 20.6129C14.9174 20.6254 14.3382 20.6171 14.0012 20.6139L14.0038 19.3099Z" fill="#526928"/>
<path d="M10.0392 19.3086L11.3232 19.314C11.3469 19.4419 11.3475 20.4907 11.3257 20.6107C10.9396 20.6307 10.4371 20.6193 10.0444 20.6179L10.0376 20.6015L10.0392 19.3086Z" fill="#848384"/>
<path d="M7.38303 11.3232L7.42063 11.3322C7.78739 11.3347 8.33689 11.3536 8.69026 11.3299L8.70385 11.3346L10.0279 11.3334C10.0685 11.6684 10.0335 12.322 10.0384 12.6858C10.0389 13.099 10.028 13.5874 10.044 13.9934L8.68947 13.9931C8.6896 14.3957 8.70327 14.8899 8.68457 15.2852L8.64235 15.2997C8.28419 15.3163 7.84329 15.301 7.46883 15.3082C7.44058 15.3137 7.43175 15.3217 7.40615 15.3356C7.37645 15.4604 7.38932 16.4721 7.3896 16.6757C7.15941 16.6391 6.25074 16.6509 6.01435 16.6706C5.99356 15.8017 6.01178 14.8491 6.01183 13.9757C6.01943 13.5476 6.02304 13.1195 6.02267 12.6913C6.02787 12.2587 6.03717 11.7572 6.00647 11.3285C6.41284 11.3337 6.98901 11.3526 7.38303 11.3232Z" fill="#848384"/>
<path d="M6.02267 12.6913C6.47713 12.6853 6.93162 12.6829 7.38613 12.6842C7.3738 13.1144 7.3807 13.5601 7.38209 13.9917C7.38091 14.1723 7.35435 15.1941 7.41067 15.2878L7.46883 15.3082C7.44058 15.3137 7.43175 15.3217 7.40615 15.3356C7.37645 15.4604 7.38932 16.4721 7.3896 16.6757C7.15941 16.6391 6.25074 16.6509 6.01435 16.6706C5.99356 15.8017 6.01178 14.8491 6.01183 13.9757C6.01943 13.5476 6.02304 13.1195 6.02267 12.6913Z" fill="#247531"/>
<path d="M6.02256 12.6913C6.47702 12.6853 6.93151 12.6829 7.38601 12.6842C7.37368 13.1144 7.38058 13.5601 7.38198 13.9917C7.08797 13.9904 6.25643 14.0095 6.01172 13.9757C6.01932 13.5476 6.02293 13.1195 6.02256 12.6913Z" fill="#526928"/>
<path d="M8.70376 11.3345L10.0278 11.3334C10.0684 11.6684 10.0334 12.322 10.0383 12.6857C10.0388 13.099 10.028 13.5874 10.0439 13.9934L8.68937 13.9931C8.66203 13.5304 8.70296 12.9157 8.68686 12.4378C8.68073 12.2559 8.68005 11.4599 8.70376 11.3345Z" fill="#AEADAE"/>
<path d="M7.3829 11.3232L7.4205 11.3322C7.3537 11.5917 7.40328 12.3612 7.386 12.6841C6.9315 12.6829 6.47701 12.6853 6.02255 12.6913C6.02775 12.2587 6.03705 11.7572 6.00635 11.3285C6.41272 11.3337 6.98889 11.3526 7.3829 11.3232Z" fill="#848384"/>
<path d="M8.68944 13.9932L10.044 13.9935C10.0489 14.2624 10.0196 15.0898 10.0512 15.2993C10.4708 15.2979 10.9298 15.2874 11.3464 15.3015C11.3459 15.7403 11.3537 16.2058 11.3439 16.6423L11.3429 17.9567C10.9086 17.9536 10.4744 17.9541 10.0401 17.9581L8.7197 17.9553L8.69851 17.9451C8.67066 17.833 8.68756 16.87 8.67891 16.6539C8.66807 16.2526 8.69362 15.8434 8.68499 15.4412C8.68336 15.3659 8.69268 15.3503 8.64233 15.2997L8.68455 15.2853C8.70324 14.89 8.68958 14.3958 8.68944 13.9932Z" fill="#3D5514"/>
<path d="M10.0512 15.2992C10.4708 15.2979 10.9298 15.2874 11.3463 15.3014C11.3458 15.7402 11.3536 16.2057 11.3438 16.6423L11.3428 17.9566C10.9086 17.9536 10.4743 17.954 10.04 17.9581L10.0434 16.6592C10.0764 16.5311 10.0623 15.4967 10.0512 15.2992Z" fill="#526928"/>
<path d="M8.68947 13.9932L10.044 13.9935C10.0489 14.2624 10.0197 15.0898 10.0512 15.2993C9.76676 15.2974 8.93371 15.3225 8.68457 15.2853C8.70327 14.89 8.68961 14.3958 8.68947 13.9932Z" fill="#6E6C6E"/>
<path d="M8.67871 16.6539C9.08795 16.638 9.63489 16.6532 10.0433 16.6593L10.0399 17.9581L8.7195 17.9553L8.69832 17.9451C8.67046 17.833 8.68736 16.8699 8.67871 16.6539Z" fill="#6E6C6E"/>
<path d="M10.039 10.0273C10.4599 10.0269 10.9275 10.037 11.3444 10.0242C11.7961 10.0266 12.248 10.0267 12.6997 10.0245C12.6979 10.1866 12.6692 11.2391 12.7233 11.3406L12.704 11.3456C12.6939 11.775 12.7136 12.2558 12.6967 12.67L12.6923 12.6824C12.2626 12.6964 11.7797 12.686 11.346 12.6863L10.0383 12.6857C10.0334 12.322 10.0684 11.6684 10.0278 11.3334L10.0434 11.3295C10.0215 10.9583 10.0389 10.4117 10.039 10.0273Z" fill="#AEADAE"/>
<path d="M10.0394 10.0273C10.4602 10.0269 10.9278 10.037 11.3447 10.0242C11.7965 10.0266 12.2483 10.0267 12.7001 10.0245C12.6983 10.1866 12.6696 11.2391 12.7237 11.3406L12.7043 11.3456C12.6029 11.3179 11.4916 11.3319 11.3462 11.3325C10.9121 11.3379 10.4779 11.3369 10.0438 11.3295C10.0219 10.9583 10.0392 10.4117 10.0394 10.0273Z" fill="#848384"/>
<path d="M10.0394 10.0273C10.4602 10.0269 10.9278 10.037 11.3447 10.0242C11.3451 10.453 11.3377 10.9058 11.3462 11.3325C10.9121 11.3379 10.4779 11.3369 10.0438 11.3295C10.0219 10.9583 10.0392 10.4117 10.0394 10.0273Z" fill="#688239"/>
<path d="M10.0434 11.3296C10.4775 11.3369 10.9117 11.3379 11.3459 11.3325C11.3457 11.779 11.3391 12.2413 11.346 12.6863L10.0383 12.6858C10.0334 12.3221 10.0684 11.6685 10.0278 11.3334L10.0434 11.3296Z" fill="#848384"/>
<path d="M14.0006 11.3334L15.306 11.3335L15.3079 12.6854C15.3075 13.0902 15.2931 13.5919 15.312 13.9889L15.2968 13.9936L12.7092 13.9924L12.6934 13.9866C12.7007 13.5639 12.7057 13.104 12.6926 12.6825L12.6971 12.6701C12.7139 12.2559 12.6943 11.7751 12.7043 11.3457L12.7237 11.3407C13.1195 11.3195 13.5985 11.3324 14.0006 11.3334Z" fill="#2E2D2D"/>
<path d="M12.6971 12.67C12.8613 12.6996 13.3943 12.6883 13.5874 12.6881L15.3079 12.6853C15.3075 13.0901 15.2931 13.5918 15.312 13.9888L15.2968 13.9935L12.7092 13.9923L12.6934 13.9866C12.7007 13.5638 12.7057 13.1039 12.6926 12.6824L12.6971 12.67Z" fill="#848384"/>
<path d="M11.346 12.6863C11.7797 12.6859 12.2626 12.6963 12.6923 12.6824C12.7054 13.1038 12.7003 13.5638 12.6931 13.9865L12.7089 13.9923C12.6748 14.2944 12.6933 14.981 12.6939 15.3001C12.3514 15.2785 11.7014 15.2967 11.3463 15.3014C10.9298 15.2873 10.4708 15.2978 10.0512 15.2992C10.0196 15.0897 10.0488 14.2623 10.0439 13.9934C10.028 13.5874 10.0388 13.099 10.0383 12.6857L11.346 12.6863Z" fill="#90AB5D"/>
<path d="M10.0383 12.6858L11.346 12.6864L11.3437 13.9934L11.3463 15.3014C10.9298 15.2874 10.4708 15.2979 10.0512 15.2993C10.0196 15.0897 10.0488 14.2624 10.0439 13.9935C10.028 13.5875 10.0388 13.099 10.0383 12.6858Z" fill="#688239"/>
<path d="M12.6933 13.9866L12.7092 13.9923C12.6751 14.2945 12.6936 14.981 12.6942 15.3002C12.3517 15.2785 11.7016 15.2968 11.3466 15.3014L11.344 13.9933C11.781 13.9935 12.2596 14.0031 12.6933 13.9866Z" fill="#6E6C6E"/>
<path d="M11.3465 15.3014C11.7016 15.2968 12.3516 15.2785 12.6941 15.3002C12.6976 15.8126 12.7264 16.6581 12.6945 17.1437C12.6959 17.2676 12.6922 17.8434 12.7111 17.935L12.7148 17.9629L12.6983 17.9602C12.5936 17.9436 11.5236 17.9566 11.343 17.9566L11.344 16.6422C11.3538 16.2057 11.346 15.7402 11.3465 15.3014Z" fill="#6E6C6E"/>
<path d="M11.344 16.6422C11.7522 16.6522 12.2682 16.6643 12.6788 16.6487C12.68 16.7793 12.6761 17.0243 12.6945 17.1436C12.6959 17.2676 12.6922 17.8433 12.7111 17.935L12.7148 17.9629L12.6983 17.9602C12.5936 17.9436 11.5236 17.9566 11.343 17.9566L11.344 16.6422Z" fill="#6E6C6E"/>
<path d="M12.7092 13.9923L15.2969 13.9935C15.3281 14.1836 15.3105 15.0731 15.3098 15.2997L12.6943 15.3001C12.6936 14.981 12.6752 14.2944 12.7092 13.9923Z" fill="#688239"/>
<path d="M14.0077 16.6514L15.3077 16.6511L15.3079 17.9553C14.5761 17.982 13.7349 17.9517 12.987 17.9616C12.921 17.9551 12.7863 17.9615 12.7146 17.9629L12.7109 17.935C13.0936 17.9212 13.5993 17.9379 13.9964 17.9375C14.0102 17.5225 14.0053 17.0688 14.0077 16.6514Z" fill="#2E2D2D"/>
<path d="M17.9672 10.0209C18.2921 10.024 19.0376 10.051 19.3308 9.98389C19.3439 9.99464 19.3597 10.0076 19.3782 10.0227C19.7162 10.031 20.3256 10.0415 20.6403 10.0181C20.6194 10.4231 20.6291 10.8834 20.631 11.293L20.6429 11.3189C20.9392 11.3376 21.6985 11.3366 21.9903 11.3025C21.9918 11.7122 22.0134 12.5142 21.9804 12.8968C21.9784 13.2126 21.9603 13.7091 21.9818 14.0107C21.6043 13.9871 21.0146 13.9899 20.6316 14.0031C20.6303 14.3809 20.6119 14.9588 20.6443 15.3209C20.3402 15.2832 19.6478 15.3033 19.3205 15.3041C19.3235 16.0946 19.3531 17.0831 19.3221 17.8548L19.3206 17.9322C19.1594 17.9622 18.1041 17.9753 17.9645 17.9557L17.8139 17.9577C17.4375 17.9569 17.0479 17.9513 16.6728 17.9622C16.6497 17.8688 16.6586 16.8454 16.6567 16.6708C16.5834 16.6344 15.4661 16.6517 15.3078 16.6512L15.3095 15.2997C15.3103 15.0732 15.3279 14.1837 15.2966 13.9935L15.3118 13.9889C15.2929 13.5919 15.3073 13.0902 15.3077 12.6854L15.3058 11.3335C15.7083 11.3336 16.2542 11.3512 16.6445 11.3317L16.654 11.3186C16.674 10.9211 16.6567 10.4398 16.6617 10.0289L16.6725 10.0263L17.8339 10.0278L17.9672 10.0209Z" fill="#AEADAE"/>
<path d="M15.2966 13.9935L15.3118 13.9889C15.7017 13.9953 16.2641 14.0075 16.6554 13.9874L16.6719 13.9936C17.0947 13.9924 17.5453 13.9838 17.9658 13.9969L17.9796 13.9913C18.3867 13.9914 18.9238 13.9765 19.3183 13.996C19.6412 13.9956 20.2817 13.9745 20.5802 14.0002L20.6316 14.0031C20.6303 14.3809 20.6119 14.9588 20.6443 15.3209C20.3402 15.2832 19.6478 15.3032 19.3205 15.3041C19.3235 16.0946 19.3531 17.0831 19.3221 17.8547L19.3206 17.9322C19.1594 17.9622 18.1041 17.9752 17.9645 17.9557L17.8139 17.9576C17.4375 17.9569 17.0479 17.9513 16.6728 17.9621C16.6497 17.8688 16.6586 16.8454 16.6567 16.6708C16.5834 16.6344 15.4661 16.6517 15.3078 16.6512L15.3095 15.2997C15.3103 15.0731 15.3279 14.1836 15.2966 13.9935Z" fill="#3D5514"/>
<path d="M17.9797 13.9913C18.3868 13.9914 18.9239 13.9765 19.3183 13.996C19.6412 13.9956 20.2818 13.9745 20.5803 14.0002L20.6316 14.0031C20.6304 14.3809 20.612 14.9588 20.6443 15.3209C20.3403 15.2832 19.6478 15.3032 19.3206 15.3041C19.3235 16.0946 19.3532 17.0831 19.3221 17.8547L19.3206 17.9322C19.1595 17.9622 18.1042 17.9752 17.9646 17.9557L17.9657 16.6514L17.9665 15.2994L17.9659 13.9969L17.9797 13.9913Z" fill="#6E6C6E"/>
<path d="M15.2966 13.9935L15.3118 13.9888C15.7017 13.9953 16.2641 14.0075 16.6554 13.9874L16.6719 13.9936C16.6412 14.346 16.6579 14.9338 16.6576 15.2985L16.662 16.6562L16.6567 16.6708C16.5834 16.6344 15.4661 16.6517 15.3078 16.6512L15.3095 15.2997C15.3103 15.0731 15.3279 14.1836 15.2966 13.9935Z" fill="#6E6C6E"/>
<path d="M15.2966 13.9935L15.3118 13.9888C15.7017 13.9953 16.2641 14.0075 16.6554 13.9874L16.6719 13.9936C16.6412 14.346 16.6579 14.9338 16.6576 15.2985C16.2466 15.284 15.7241 15.2956 15.3095 15.2997C15.3103 15.0731 15.3279 14.1836 15.2966 13.9935Z" fill="#6E6C6E"/>
<path d="M16.6719 13.9936C17.0947 13.9924 17.5453 13.9838 17.9658 13.9969L17.9665 15.2994L16.6576 15.2985C16.6579 14.9338 16.6412 14.346 16.6719 13.9936Z" fill="#688239"/>
<path d="M17.9653 16.6514L17.9642 17.9557L17.8136 17.9576C17.4372 17.9569 17.0476 17.9513 16.6725 17.9621C16.6494 17.8688 16.6583 16.8454 16.6564 16.6708L16.6617 16.6562C17.0844 16.6444 17.5402 16.6516 17.9653 16.6514Z" fill="#526928"/>
<path d="M20.6311 11.293L20.643 11.3189C20.9393 11.3376 21.6986 11.3366 21.9905 11.3025C21.9919 11.7123 22.0135 12.5142 21.9805 12.8968C21.9785 13.2126 21.9604 13.7091 21.982 14.0107C21.6044 13.9871 21.0147 13.9899 20.6317 14.0031L20.5803 14.0002C20.2818 13.9745 19.6413 13.9957 19.3184 13.996L19.3181 12.6828C19.3231 12.2365 19.3179 11.7766 19.3176 11.3294C19.5043 11.3313 20.5503 11.3626 20.6311 11.293Z" fill="#526928"/>
<path d="M19.3181 12.6827C19.7462 12.6877 20.1744 12.6899 20.6025 12.6894L20.6201 12.6848C20.7735 12.6847 21.9125 12.6709 21.9606 12.7072C21.9723 12.7807 21.9774 12.8221 21.9805 12.8967C21.9785 13.2126 21.9604 13.7091 21.9819 14.0106C21.6044 13.987 21.0147 13.9899 20.6317 14.0031L20.5803 14.0002C20.2818 13.9745 19.6413 13.9956 19.3184 13.996L19.3181 12.6827Z" fill="#848384"/>
<path d="M19.3181 12.6827C19.7462 12.6877 20.1744 12.6899 20.6025 12.6894C20.6215 12.7314 20.6287 12.7893 20.6236 12.8338C20.6055 12.9932 20.6723 13.9327 20.5803 14.0002C20.2818 13.9745 19.6413 13.9956 19.3184 13.996L19.3181 12.6827Z" fill="#848384"/>
<path d="M20.6311 11.293L20.643 11.3189C20.5916 11.5388 20.6354 12.4041 20.6201 12.6848L20.6025 12.6894C20.1744 12.6899 19.7462 12.6877 19.3181 12.6828C19.3231 12.2365 19.3179 11.7766 19.3176 11.3294C19.5043 11.3313 20.5503 11.3626 20.6311 11.293Z" fill="#688239"/>
<path d="M17.967 10.0209C18.292 10.024 19.0374 10.051 19.3306 9.98389C19.3438 9.99464 19.3596 10.0076 19.378 10.0227C19.716 10.031 20.3254 10.0415 20.6401 10.0181C20.6192 10.4231 20.6289 10.8834 20.6309 11.293C20.55 11.3626 19.5041 11.3313 19.3174 11.3294C18.9263 11.3498 18.369 11.3316 17.9651 11.3313C17.7788 11.3314 16.7892 11.3552 16.6538 11.3186C16.6738 10.9211 16.6566 10.4398 16.6616 10.0289L16.6723 10.0263L17.8338 10.0278L17.967 10.0209Z" fill="#848384"/>
<path d="M16.6723 10.0262L17.8338 10.0278C17.9133 10.0477 17.9259 10.0365 17.9735 10.0892C17.9989 10.4101 17.9647 10.9834 17.9651 11.3313C17.7788 11.3314 16.7892 11.3552 16.6538 11.3185C16.6738 10.9211 16.6566 10.4397 16.6616 10.0289L16.6723 10.0262Z" fill="#848384"/>
<path d="M15.3055 11.3334C15.708 11.3336 16.2539 11.3511 16.6442 11.3317C16.6803 11.478 16.6602 12.4697 16.658 12.6935C16.6591 13.1199 16.6662 13.5625 16.655 13.9874C16.2638 14.0075 15.7013 13.9953 15.3115 13.9888C15.2926 13.5919 15.307 13.0901 15.3074 12.6854L15.3055 11.3334Z" fill="#AEADAE"/>
<path d="M16.6542 11.3185C16.7896 11.3551 17.7792 11.3314 17.9655 11.3312L17.9643 12.6859C17.5475 12.686 17.0705 12.675 16.6585 12.6935C16.6608 12.4696 16.6809 11.478 16.6448 11.3316L16.6542 11.3185Z" fill="#848384"/>
<path d="M17.9639 12.6859C17.9635 12.8361 17.9507 13.8941 17.9795 13.9912L17.9657 13.9968C17.5452 13.9838 17.0946 13.9924 16.6718 13.9935L16.6553 13.9874C16.6664 13.5625 16.6594 13.1198 16.6582 12.6935C17.0702 12.675 17.5472 12.686 17.9639 12.6859Z" fill="#848384"/>
<path d="M19.3222 17.8547C19.331 17.8775 19.3446 17.9288 19.36 17.9309C19.697 17.9776 20.2846 17.9539 20.6185 17.9507C21.0035 17.9512 21.6313 17.9685 21.996 17.9268L21.9879 18.9449C21.9875 19.0771 21.9952 19.3777 21.9811 19.4998C21.9799 19.8633 21.9712 20.2581 21.9828 20.6192C21.9945 21.0361 21.9682 21.6016 21.9999 22C21.6685 21.9557 20.9792 21.972 20.6166 21.9723C20.1847 21.9665 19.7528 21.9667 19.3209 21.9727C18.8703 21.9672 18.4129 21.9719 17.9617 21.9725C16.725 21.9356 15.249 21.9591 14.0037 21.9722L14.0012 20.614C14.3382 20.6172 14.9174 20.6255 15.2733 20.613C15.2902 20.5992 15.3046 20.5875 15.3165 20.5777C15.2931 20.1951 15.3064 19.6996 15.3061 19.3087L16.6617 19.3118C16.659 18.8694 16.6506 18.413 16.6637 17.9719L16.6729 17.9621C17.048 17.9513 17.4376 17.9569 17.814 17.9576L17.9646 17.9557C18.1042 17.9752 19.1595 17.9622 19.3206 17.9322L19.3222 17.8547Z" fill="#848384"/>
<path d="M17.8814 19.3095L17.97 19.3137C17.9652 19.7485 17.9642 20.1834 17.9669 20.6182C17.9663 21.0501 17.9779 21.5458 17.9617 21.9724C16.725 21.9355 15.249 21.959 14.0037 21.9722L14.0012 20.6139C14.3382 20.6171 14.9174 20.6254 15.2733 20.6129C15.2902 20.5991 15.3046 20.5874 15.3165 20.5776C15.2931 20.195 15.3064 19.6995 15.3061 19.3086L16.6617 19.3117L17.8814 19.3095Z" fill="#6E6C6E"/>
<path d="M15.3058 19.3086L16.6613 19.3117L16.657 20.6097C16.4487 20.612 15.3997 20.6474 15.3162 20.5776C15.2927 20.195 15.306 19.6995 15.3058 19.3086Z" fill="#848384"/>
<path d="M17.8812 19.3096L17.9699 19.3138C17.9651 19.7486 17.9641 20.1834 17.9668 20.6182C17.5351 20.6112 17.0849 20.6278 16.6572 20.6098L16.6616 19.3118L17.8812 19.3096Z" fill="#688239"/>
<path d="M20.6137 20.6053L20.6321 20.6154L21.9828 20.6192C21.9945 21.0361 21.9682 21.6017 21.9998 22.0001C21.6685 21.9558 20.9792 21.9721 20.6166 21.9723C20.1847 21.9666 19.7528 21.9667 19.3209 21.9728C18.8703 21.9672 18.4128 21.9719 17.9617 21.9725C17.9778 21.5459 17.9663 21.0502 17.9668 20.6183C18.4096 20.6169 18.8769 20.6081 19.3178 20.6201L19.334 20.6157C19.6635 20.6167 20.3068 20.6358 20.6137 20.6053Z" fill="#526928"/>
<path d="M17.9668 20.6182C18.4096 20.6168 18.8769 20.608 19.3178 20.62C19.3181 21.054 19.3069 21.5433 19.3209 21.9727C18.8703 21.9671 18.4128 21.9718 17.9617 21.9725C17.9778 21.5458 17.9663 21.0501 17.9668 20.6182Z" fill="#526928"/>
<path d="M20.6135 20.6053L20.632 20.6154C20.5979 21.0072 20.6288 21.5605 20.6165 21.9723C20.1846 21.9666 19.7526 21.9667 19.3207 21.9728C19.3068 21.5434 19.318 21.0541 19.3177 20.6201L19.3339 20.6157C19.6634 20.6167 20.3067 20.6358 20.6135 20.6053Z" fill="#6E6C6E"/>
<path d="M20.6186 17.9506C21.0035 17.9512 21.6313 17.9684 21.996 17.9268L21.988 18.9448C21.9875 19.077 21.9952 19.3777 21.9812 19.4997C21.9799 19.8633 21.9713 20.258 21.9829 20.6191L20.6322 20.6153L20.6137 20.6052C20.3069 20.6356 19.6636 20.6165 19.3341 20.6155C19.2882 20.4751 19.3214 19.5357 19.3151 19.3088L20.3941 19.3147L20.6165 19.3113C20.6437 18.9814 20.6262 18.2992 20.6186 17.9506Z" fill="#848384"/>
<path d="M20.6183 17.9506C21.0032 17.9512 21.631 17.9684 21.9957 17.9268L21.9877 18.9448C21.9872 19.077 21.9949 19.3777 21.9809 19.4997C21.9773 19.4188 21.9749 19.3991 21.9554 19.3207C21.6708 19.2897 20.9337 19.3108 20.6162 19.3113C20.6434 18.9814 20.6259 18.2992 20.6183 17.9506Z" fill="#526928"/>
<path d="M19.3151 19.3088L20.3941 19.3147C20.4725 19.334 20.5415 19.3298 20.622 19.3294C20.6219 19.7414 20.6069 20.2018 20.6137 20.6053C20.3069 20.6357 19.6636 20.6166 19.3341 20.6156C19.2882 20.4752 19.3214 19.5357 19.3151 19.3088Z" fill="#848384"/>
<path d="M19.3221 17.8547C19.331 17.8775 19.3446 17.9288 19.36 17.9309C19.697 17.9776 20.2846 17.9539 20.6185 17.9507C20.6261 18.2993 20.6436 18.9815 20.6165 19.3114L20.394 19.3148L19.315 19.3089L19.3103 19.1699C19.337 18.8951 19.3196 18.2355 19.3206 17.9322L19.3221 17.8547Z" fill="#688239"/>
<path d="M17.9697 19.3138C18.2787 19.2816 18.944 19.3549 19.2767 19.2945C19.2938 19.2914 19.3045 19.1993 19.31 19.1699L19.3147 19.3089C19.321 19.5357 19.2878 20.4752 19.3337 20.6156L19.3175 20.62C18.8766 20.6081 18.4093 20.6168 17.9666 20.6183C17.9638 20.1834 17.9649 19.7486 17.9697 19.3138Z" fill="#848384"/>
<path d="M16.6725 17.9622C17.0476 17.9513 17.4372 17.9569 17.8136 17.9577C17.9007 17.9799 17.9287 17.9685 17.9641 18.0276C17.9717 18.2607 17.9784 19.043 17.9499 19.2608C17.9198 19.2892 17.9203 19.2906 17.881 19.3096L16.6614 19.3118C16.6587 18.8694 16.6503 18.413 16.6634 17.972L16.6725 17.9622Z" fill="#848384"/>
<path d="M15.3 6.01265C15.6828 6.02324 16.3029 6.02583 16.6772 6.00122C16.6456 6.36949 16.6629 6.98816 16.6674 7.37029C16.6835 7.78332 16.6478 8.26771 16.6771 8.67027L16.6624 8.6771C16.6613 8.83446 16.6434 9.92469 16.6722 10.0263L16.6615 10.0289C16.6564 10.4398 16.6737 10.9211 16.6537 11.3186L16.6443 11.3317C16.254 11.3511 15.7081 11.3336 15.3056 11.3335L14.0001 11.3334C13.5981 11.3324 13.119 11.3195 12.7232 11.3407C12.6691 11.2392 12.6978 10.1867 12.6996 10.0246C12.2478 10.0268 11.796 10.0266 11.3443 10.0242L11.3441 8.6691L11.3415 8.65634C11.3524 8.01702 11.336 7.37325 11.34 6.73358C11.3414 6.49475 11.339 6.25022 11.3225 6.01202C11.7758 6.01356 12.2655 6.02392 12.7158 6.00645C12.6866 6.38631 12.7031 6.9727 12.7022 7.36768C13.5384 7.34626 14.4622 7.36248 15.3047 7.35965C15.3068 6.91065 15.3053 6.46163 15.3 6.01265Z" fill="#6E6C6E"/>
<path d="M14.0026 8.66724C14.4385 8.67258 14.8744 8.67395 15.3103 8.67137L16.6627 8.67703C16.6616 8.83439 16.6437 9.92462 16.6725 10.0262L16.6617 10.0288C16.6567 10.4397 16.674 10.9211 16.654 11.3185L16.6445 11.3316C16.2542 11.3511 15.7084 11.3336 15.3058 11.3334L14.0004 11.3333C13.5984 11.3323 13.1193 11.3194 12.7235 11.3406C12.6694 11.2392 12.6981 10.1866 12.6999 10.0245L13.9861 10.0273L13.9988 10.0213C14.022 9.65866 14.0023 9.04915 14.0026 8.66724Z" fill="#848384"/>
<path d="M13.9861 10.0273L13.9988 10.0212C14.4265 10.0348 14.8767 10.0261 15.3062 10.024C15.3095 10.4604 15.3094 10.8969 15.3058 11.3334L14.0004 11.3333C13.5984 11.3323 13.1193 11.3194 12.7235 11.3406C12.6694 11.2391 12.6981 10.1866 12.6999 10.0245L13.9861 10.0273Z" fill="#AEADAE"/>
<path d="M13.9863 10.0273L13.999 10.0212C14.4267 10.0348 14.8769 10.0261 15.3064 10.024C15.3097 10.4604 15.3096 10.8969 15.306 11.3334L14.0006 11.3333C14.003 11.1237 14.0262 10.1552 13.9863 10.0273Z" fill="#90AB5D"/>
<path d="M15.306 10.024C15.5597 10.0239 16.4771 10.0054 16.6616 10.0288C16.6566 10.4397 16.6738 10.921 16.6538 11.3185L16.6444 11.3316C16.2541 11.3511 15.7082 11.3335 15.3057 11.3334C15.3093 10.8969 15.3094 10.4604 15.306 10.024Z" fill="#688239"/>
<path d="M11.3445 8.66904C11.5095 8.64429 11.6178 8.66894 11.7752 8.66481C12.0674 8.65716 12.4095 8.67575 12.6971 8.65686C13.0009 8.68905 13.6757 8.66859 14.0027 8.66724C14.0023 9.04916 14.0221 9.65866 13.9989 10.0213L13.9862 10.0273L12.7 10.0245C12.2482 10.0267 11.7964 10.0266 11.3446 10.0242L11.3445 8.66904Z" fill="#6E6C6E"/>
<path d="M12.6972 8.65686C13.001 8.68905 13.6758 8.66859 14.0028 8.66724C14.0025 9.04916 14.0222 9.65866 13.999 10.0213L13.9863 10.0273L12.7001 10.0245C12.6841 9.59671 12.6971 9.09063 12.6972 8.65686Z" fill="#526928"/>
<path d="M15.312 7.36609L16.6675 7.37022C16.6836 7.78325 16.648 8.26764 16.6772 8.67019L16.6625 8.67703L15.3101 8.67136C15.3056 8.23629 15.3062 7.80116 15.312 7.36609Z" fill="#3D5514"/>
<path d="M6.00704 17.9414C6.32574 17.9716 7.03634 17.9521 7.38397 17.9531C7.62628 17.9558 8.50819 17.9769 8.69866 17.945L8.71985 17.9553C8.67959 18.1044 8.66332 19.1594 8.70628 19.2708L8.73446 19.2988C8.63854 19.3993 8.6897 20.4023 8.6866 20.5882L8.69176 20.6224C8.68346 21.0726 8.69131 21.5231 8.68315 21.9711C8.25063 21.9627 7.81796 21.9631 7.38543 21.9722C7.03249 21.97 6.34667 21.9559 6.01394 21.9915C6.00648 21.5414 6.01741 21.0732 6.022 20.6218C6.02692 20.2066 6.02673 19.7914 6.02144 19.3761C5.98282 19.2086 6.00846 18.1883 6.00704 17.9414Z" fill="#688239"/>
<path d="M8.68643 20.5881L8.69159 20.6224C8.68329 21.0726 8.69114 21.5231 8.68298 21.9711C8.25046 21.9627 7.81779 21.9631 7.38526 21.9722C7.03232 21.97 6.3465 21.9559 6.01377 21.9915C6.00631 21.5414 6.01724 21.0732 6.02183 20.6218L6.46771 20.614C6.77248 20.6184 7.07729 20.6191 7.38205 20.616C7.59012 20.5913 8.5893 20.6642 8.68643 20.5881Z" fill="#688239"/>
<path d="M8.68643 20.5881L8.69158 20.6224C8.68329 21.0726 8.69114 21.5231 8.68298 21.9711C8.25046 21.9627 7.81779 21.9631 7.38526 21.9722C7.37895 21.5235 7.38289 21.0655 7.38205 20.616C7.59012 20.5913 8.5893 20.6642 8.68643 20.5881Z" fill="#848384"/>
<path d="M8.70632 19.2709L8.7345 19.2988C8.63858 19.3994 8.68975 20.4023 8.68665 20.5882C8.58951 20.6642 7.59033 20.5913 7.38226 20.616C7.0775 20.6192 6.77269 20.6185 6.46793 20.6141L6.02204 20.6219C6.02696 20.2067 6.02678 19.7914 6.02148 19.3762L6.03908 19.3268C6.14226 19.2927 7.08869 19.3103 7.27163 19.3117L7.38813 19.313C7.65042 19.3222 8.4951 19.3287 8.70632 19.2709Z" fill="#848384"/>
<path d="M8.70617 19.2709L8.73435 19.2988C8.63843 19.3994 8.68959 20.4023 8.68649 20.5882C8.58936 20.6642 7.59018 20.5913 7.38211 20.616C7.07734 20.6192 6.77254 20.6185 6.46777 20.6141C6.66542 20.5783 7.1577 20.595 7.38176 20.5995C7.38364 20.4182 7.41337 19.4559 7.37894 19.3479L7.27147 19.3117L7.38798 19.313C7.65027 19.3222 8.49495 19.3287 8.70617 19.2709Z" fill="#848384"/>
<path d="M8.69861 17.9451L8.7198 17.9553C8.67954 18.1044 8.66327 19.1595 8.70623 19.2709C8.49501 19.3287 7.65033 19.3222 7.38804 19.313C7.37599 18.8765 7.37783 18.3885 7.38392 17.9532C7.62623 17.9558 8.50814 17.977 8.69861 17.9451Z" fill="#848384"/>
<path d="M8.68169 6.01386C9.05331 6.01623 9.70533 6.03487 10.0644 6C10.0277 6.33848 10.0407 7.01666 10.0476 7.37005C10.0617 7.73704 10.0581 8.30192 10.0483 8.67119C10.2159 8.66984 11.2489 8.67558 11.3418 8.65631L11.3445 8.66907L11.3446 10.0242C10.9277 10.037 10.4601 10.027 10.0392 10.0273C10.0391 10.4118 10.0217 10.9583 10.0437 11.3296L10.028 11.3334L8.70396 11.3346L8.69037 11.3299C8.68587 10.8943 8.68566 10.4586 8.68971 10.0229L8.67983 10.0088C8.70356 9.67355 8.68673 9.01135 8.67871 8.67035C8.68372 8.23551 8.68386 7.80062 8.67915 7.36578C8.6875 6.91519 8.68834 6.46447 8.68169 6.01386Z" fill="#526928"/>
<path d="M8.67871 8.67041L10.046 8.67771C10.0397 9.12757 10.0375 9.57749 10.0392 10.0274C10.0391 10.4118 10.0217 10.9584 10.0437 11.3296L10.028 11.3335L8.70396 11.3346L8.69037 11.33C8.68587 10.8943 8.68566 10.4586 8.68971 10.023L8.67983 10.0088C8.70356 9.67361 8.68673 9.01141 8.67871 8.67041Z" fill="#6E6C6E"/>
<path d="M8.68941 10.0229L10.0389 10.0274C10.0388 10.4118 10.0214 10.9583 10.0434 11.3296L10.0277 11.3334L8.70366 11.3346L8.69007 11.3299C8.68557 10.8943 8.68536 10.4586 8.68941 10.0229Z" fill="#848384"/>
<path d="M8.68174 6.01386C9.05336 6.01623 9.70538 6.03487 10.0645 6C10.0277 6.33848 10.0407 7.01666 10.0476 7.37005C9.59554 7.36165 9.13422 7.3718 8.6792 7.36578C8.68754 6.91519 8.68838 6.46447 8.68174 6.01386Z" fill="#848384"/>
<path d="M17.946 6.0104C18.3265 6.01458 18.9714 6.03525 19.3361 6.00732C19.3263 6.19358 19.3242 6.37746 19.325 6.56386C19.33 7.70314 19.3154 8.84483 19.3309 9.98388C19.0376 10.051 18.2922 10.024 17.9672 10.0209L17.834 10.0278L16.6725 10.0263C16.6437 9.9247 16.6617 8.83447 16.6627 8.67712L16.6774 8.67028C17.0646 8.6565 17.577 8.66244 17.9649 8.67042C17.9628 7.80533 17.9773 6.87167 17.946 6.0104Z" fill="#848384"/>
<path d="M17.9649 8.67037C17.9616 9.12054 17.9624 9.57073 17.9672 10.0209L17.834 10.0278L16.6725 10.0262C16.6437 9.92465 16.6617 8.83442 16.6627 8.67707L16.6774 8.67023C17.0646 8.65645 17.577 8.6624 17.9649 8.67037Z" fill="#526928"/>
<path d="M8.73453 19.2987C9.06603 19.3312 9.68861 19.3106 10.0392 19.3085L10.0376 20.6014L10.0444 20.6178C10.0395 20.9533 10.0213 21.6426 10.0458 21.9718L8.68322 21.971C8.69138 21.5231 8.68353 21.0726 8.69182 20.6223L8.68667 20.5881C8.68977 20.4022 8.63861 19.3993 8.73453 19.2987Z" fill="#688239"/>
<path d="M8.73453 19.2987C9.06603 19.3312 9.68861 19.3106 10.0392 19.3085L10.0376 20.6014C9.81425 20.6466 8.96892 20.6088 8.69182 20.6223L8.68667 20.5881C8.68977 20.4022 8.63861 19.3993 8.73453 19.2987Z" fill="#526928"/>
<path d="M15.3079 16.6511C15.4662 16.6516 16.5835 16.6343 16.6568 16.6707C16.6587 16.8453 16.6498 17.8688 16.6729 17.9621L16.6637 17.9719C16.6506 18.4129 16.659 18.8693 16.6617 19.3117L15.3062 19.3086L15.3082 17.9553L15.3079 16.6511Z" fill="#688239"/>
<path d="M15.3076 16.6511C15.4659 16.6516 16.5832 16.6343 16.6565 16.6707C16.6584 16.8453 16.6495 17.8688 16.6726 17.9621L16.6634 17.9719C16.553 17.9311 15.5117 17.9574 15.3079 17.9553L15.3076 16.6511Z" fill="#6E6C6E"/>
<path d="M7.37055 10.0098C7.5672 10.027 8.49135 10.0375 8.67946 10.0088L8.68935 10.0229C8.68529 10.4586 8.6855 10.8943 8.69 11.3299C8.33664 11.3536 7.78714 11.3347 7.42037 11.3322L7.38277 11.3233C7.3568 11.1738 7.37487 10.2392 7.37055 10.0098Z" fill="#688239"/>
</g>
<rect x="0.25" y="0.25" width="27.5" height="27.5" rx="5.75" stroke="url(#paint1_linear_10296_1957)" stroke-width="0.5"/>
<defs>
<filter id="filter0_f_10296_1957" x="-1.1" y="-1.1" width="30.2" height="30.2" filterUnits="userSpaceOnUse" color-interpolation-filters="sRGB">
<feFlood flood-opacity="0" result="BackgroundImageFix"/>
<feBlend mode="normal" in="SourceGraphic" in2="BackgroundImageFix" result="shape"/>
<feGaussianBlur stdDeviation="4.55" result="effect1_foregroundBlur_10296_1957"/>
</filter>
<linearGradient id="paint0_linear_10296_1957" x1="14" y1="0" x2="14" y2="28" gradientUnits="userSpaceOnUse">
<stop stop-color="#282C3E"/>
<stop offset="1" stop-color="#181822"/>
</linearGradient>
<linearGradient id="paint1_linear_10296_1957" x1="14" y1="0" x2="14" y2="30.9167" gradientUnits="userSpaceOnUse">
<stop stop-color="#3D5514"/>
<stop offset="1" stop-color="#3D5514" stop-opacity="0"/>
</linearGradient>
<clipPath id="clip0_10296_1957">
<rect width="28" height="28" rx="6" fill="white"/>
</clipPath>
</defs>
</svg>
