<svg width="28" height="28" viewBox="0 0 28 28" fill="none" xmlns="http://www.w3.org/2000/svg">
<g clip-path="url(#clip0_10296_2079)">
<rect width="28" height="28" rx="6" fill="url(#paint0_linear_10296_2079)"/>
<g filter="url(#filter0_f_10296_2079)">
<circle cx="14" cy="14" r="6" fill="#04030D"/>
</g>
<path d="M6.0057 13.9736C6.03247 13.4181 6.00624 12.5973 6.00617 12.0281L6.00556 8.05158L6.00417 6.8034C6.0031 6.58631 5.99073 6.22407 6.01449 6.02337C6.09934 5.98103 20.3853 6.07705 22 6C21.9427 6.76134 21.9807 7.94601 21.9806 8.74626L21.9808 13.9214L21.9843 14.0274C21.9658 14.4345 21.9595 14.9035 21.9694 15.3099C22.0234 17.5187 21.8934 19.798 21.9796 22C21.7654 21.9632 21.3595 21.9719 21.1289 21.9718L19.8454 21.9725L15.2006 21.9726L9.05449 21.9721L7.1568 21.9714C6.83265 21.9714 6.3262 21.9582 6.01591 21.9897C6.00042 19.3283 6.04765 16.6307 6.0057 13.9736Z" fill="#7FAAFE"/>
<path d="M19.9609 14.0014C20.3567 14.0139 20.7936 13.9947 21.1932 14.0007C21.3421 14.003 21.8291 14.0086 21.95 13.9839L21.9804 13.9214L21.9839 14.0274C21.9654 14.4345 21.9592 14.9034 21.9691 15.3099C22.023 17.5187 21.8931 19.798 21.9793 21.9999C21.765 21.9632 21.3592 21.9718 21.1286 21.9718L19.8451 21.9725L15.2003 21.9726L9.05415 21.972L7.15647 21.9714C6.83231 21.9713 6.32587 21.9582 6.01557 21.9896C6.00008 19.3282 6.04732 16.6307 6.00537 13.9736L6.03379 14.01C6.54885 13.9613 7.46521 14.0098 8.02629 14.0012L10.8029 14.0009C11.278 14.0009 11.8139 13.9889 12.285 14.0046C13.1748 13.9981 14.0647 13.9968 14.9545 14.0006C14.9945 14.0729 14.988 14.8463 14.9751 14.9844C15.1122 14.9867 15.9249 14.9695 15.9916 14.9998L15.999 14.986C15.9925 14.6654 15.9927 14.3447 15.9994 14.024C16.1834 14.0228 16.4121 14.0274 16.5905 14.0046C17.0752 13.9948 17.7431 13.9846 18.2218 14.0046C18.4753 14 18.7289 13.9991 18.9824 14.0019L19.9609 14.0014Z" fill="#576937"/>
<path d="M8.02637 14.0012L10.803 14.0009C11.2781 14.0009 11.814 13.989 12.2851 14.0047C12.7534 14.0319 13.2998 14.01 13.778 14.0216C14.0818 14.0289 14.6624 14.0742 14.9366 14.0462V14.9442C14.2876 14.9392 13.673 14.9863 13.0142 14.9798L13.0193 15.9994C12.3486 16.0025 11.6822 15.9826 11.0141 15.9927C11.0145 16.1516 11.0311 16.8792 11.0157 16.9849C10.6942 16.979 10.3584 16.9833 10.0357 16.9826C10.0378 16.6559 10.0372 16.3292 10.0339 16.0025C10.0103 15.7219 10.024 15.2731 10.026 14.9874C9.83172 14.9868 9.16973 15.0101 9.01694 14.9818C8.69504 14.9739 8.35188 14.98 8.02835 14.9805C8.03061 14.6541 8.02995 14.3276 8.02637 14.0012Z" fill="#D4560E"/>
<path d="M12.2849 14.0046C13.1747 13.9982 14.0646 13.9968 14.9544 14.0007C14.9944 14.073 14.9879 14.8463 14.975 14.9844C15.1121 14.9868 15.9248 14.9696 15.9915 14.9999L15.9989 14.9861C16.2953 14.9883 16.6668 14.9927 16.9591 14.9773C16.959 15.0728 16.9539 15.2241 16.9706 15.3135L16.9725 15.9981C16.9719 16.3293 16.973 16.6604 16.9757 16.9916C16.6603 16.9758 16.3036 16.983 15.9843 16.9834C15.6762 16.9842 15.2587 16.9719 14.9601 16.9871C14.3375 16.9863 13.6349 16.9695 13.021 16.9937L13.0191 15.9994L13.014 14.9798C13.6728 14.9863 14.2874 14.9391 14.9364 14.9442V14.0461C14.6622 14.0742 14.0816 14.0289 13.7778 14.0215C13.2996 14.01 12.7533 14.0319 12.2849 14.0046Z" fill="#DD741E"/>
<path d="M14.9753 14.9845C15.1124 14.9868 15.9251 14.9696 15.9918 14.9999L15.9952 15.9983C15.657 16.0045 15.3044 15.9983 14.9651 15.9969C14.9661 15.6671 14.9613 15.3117 14.9753 14.9845Z" fill="#DD741E"/>
<path d="M15.9855 16.0017C16.3146 16.0046 16.6437 16.0034 16.9728 15.9982C16.9722 16.3293 16.9733 16.6605 16.976 16.9916C16.6606 16.9758 16.3039 16.983 15.9846 16.9834C15.9998 16.6847 15.9877 16.3064 15.9855 16.0017Z" fill="#D4560E"/>
<path d="M11.0142 15.9926C11.6824 15.9825 12.3487 16.0024 13.0194 15.9994L13.0213 16.9937C13.6352 16.9695 14.3378 16.9862 14.9604 16.9871C14.9755 17.2527 14.9799 17.6799 14.967 17.948L14.9576 17.9562C14.634 17.9815 13.9802 17.9627 13.6316 17.9625L11.0103 17.9627L11.0158 16.9849C11.0312 16.8792 11.0146 16.1516 11.0142 15.9926Z" fill="#D4560E"/>
<path d="M16.5907 14.0046C17.0754 13.9948 17.7432 13.9847 18.2219 14.0047C18.4754 14.0001 18.729 13.9992 18.9826 14.002C18.9692 14.3159 18.9754 14.6574 18.9761 14.9738C18.9765 15.3039 18.9836 15.6628 18.973 15.9904L18.9641 16.0007C18.3565 16.0157 17.5789 16.0154 16.9727 15.9981L16.9708 15.3135C16.9542 15.2241 16.9593 15.0728 16.9593 14.9773C16.6671 14.9927 16.2956 14.9883 15.9992 14.9861C15.9927 14.6655 15.9928 14.3447 15.9996 14.0241C16.1835 14.0229 16.4122 14.0274 16.5907 14.0046Z" fill="#D4560E"/>
<path d="M16.5907 14.0046C17.0754 13.9948 17.7432 13.9847 18.2219 14.0047C18.0226 14.046 17.2621 14.0273 17.0138 14.0326C16.9382 14.3614 16.9921 14.9553 16.9708 15.3135C16.9542 15.2241 16.9593 15.0728 16.9593 14.9773C16.6671 14.9927 16.2956 14.9883 15.9992 14.9861C15.9927 14.6655 15.9928 14.3447 15.9996 14.0241C16.1835 14.0229 16.4122 14.0274 16.5907 14.0046Z" fill="#DD741E"/>
<path d="M11.0103 17.9627L13.6316 17.9625C13.9802 17.9627 14.634 17.9815 14.9576 17.9562C14.9918 18.0486 14.9744 18.8306 14.974 18.9853C13.6601 19.0008 12.3276 18.9849 11.0107 18.9895L11.0103 17.9627Z" fill="#747374"/>
<path d="M8.02832 14.9805C8.35185 14.98 8.69501 14.9739 9.01691 14.9818C9.16971 15.0102 9.83169 14.9868 10.0259 14.9874C10.0239 15.2731 10.0103 15.722 10.0338 16.0025C10.0372 16.3292 10.0378 16.6559 10.0357 16.9826C10.3584 16.9833 10.6942 16.979 11.0157 16.9849L11.0101 17.9628C10.7262 17.9494 10.3232 17.9641 10.0301 17.9655C10.0357 17.644 10.0307 17.3081 10.0307 16.9854C9.68942 16.9821 9.3481 16.9833 9.0068 16.9889L9.00682 16.0058C8.68549 16.0008 8.35197 16.0066 8.02967 16.0082L8.02832 14.9805Z" fill="#747374"/>
<path d="M9.01712 14.9818C9.16992 15.0101 9.8319 14.9868 10.0261 14.9874C10.0242 15.2731 10.0105 15.7219 10.034 16.0025L9.0126 16.005C9.00943 15.6639 9.01092 15.3228 9.01712 14.9818Z" fill="#DD741E"/>
<path d="M16.9728 15.9982C17.579 16.0154 18.3565 16.0157 18.9642 16.0008C19.0026 16.121 18.9783 16.8023 18.9819 16.983C18.3416 16.9828 17.6089 16.9662 16.976 16.9916C16.9733 16.6605 16.9722 16.3293 16.9728 15.9982Z" fill="#747374"/>
<path d="M15.9844 16.9834C16.3037 16.983 16.6604 16.9758 16.9758 16.9916C16.9756 17.3101 16.9698 17.6474 16.9768 17.9643C16.7111 17.9636 15.0999 17.9918 14.9668 17.948C14.9797 17.68 14.9753 17.2528 14.9602 16.9871C15.2588 16.972 15.6763 16.9842 15.9844 16.9834Z" fill="#747374"/>
<path d="M19.9611 14.0014C20.3569 14.0139 20.7938 13.9947 21.1934 14.0007C21.3423 14.003 21.8293 14.0086 21.9502 13.9839L21.9806 13.9214L21.9841 14.0274C21.6675 14.0023 21.2619 14.0166 20.937 14.0205C20.9366 14.3311 20.9299 14.6721 20.9405 14.9801L19.9591 14.9808C19.6314 14.9804 19.3038 14.978 18.9761 14.9738C18.9755 14.6573 18.9693 14.3158 18.9826 14.0019L19.9611 14.0014Z" fill="#747374"/>
<path d="M18.9826 14.002L19.9611 14.0015C19.9601 14.3245 19.9545 14.6589 19.9591 14.9809C19.6314 14.9804 19.3038 14.9781 18.9761 14.9739C18.9755 14.6574 18.9693 14.3159 18.9826 14.002Z" fill="#DD741E"/>
<path d="M18.9762 14.9739C19.3039 14.9781 19.6315 14.9804 19.9592 14.9809C19.9589 15.3183 19.9533 15.6702 19.9595 16.0064C19.7908 16.0071 19.0953 16.0204 18.9731 15.9904C18.9838 15.6628 18.9767 15.3039 18.9762 14.9739Z" fill="#747374"/>
<path d="M6.03394 14.0101C6.549 13.9613 7.46536 14.0099 8.02644 14.0013C8.03003 14.3277 8.03068 14.6541 8.02842 14.9805C7.70946 14.9742 7.37109 14.9817 7.05064 14.9838L7.05092 14.0154C6.82054 14.015 6.22782 14.0361 6.03394 14.0101Z" fill="#747374"/>
<path d="M14.9548 14.0007C15.469 14.0009 16.0849 13.9854 16.5909 14.0047C16.4124 14.0275 16.1837 14.0229 15.9998 14.0242C15.993 14.3448 15.9929 14.6655 15.9994 14.9861L15.992 14.9999C15.9252 14.9696 15.1126 14.9868 14.9754 14.9845C14.9883 14.8464 14.9949 14.073 14.9548 14.0007Z" fill="#D4560E"/>
</g>
<rect x="0.25" y="0.25" width="27.5" height="27.5" rx="5.75" stroke="url(#paint1_linear_10296_2079)" stroke-width="0.5"/>
<defs>
<filter id="filter0_f_10296_2079" x="-1.1" y="-1.1" width="30.2" height="30.2" filterUnits="userSpaceOnUse" color-interpolation-filters="sRGB">
<feFlood flood-opacity="0" result="BackgroundImageFix"/>
<feBlend mode="normal" in="SourceGraphic" in2="BackgroundImageFix" result="shape"/>
<feGaussianBlur stdDeviation="4.55" result="effect1_foregroundBlur_10296_2079"/>
</filter>
<linearGradient id="paint0_linear_10296_2079" x1="14" y1="0" x2="14" y2="28" gradientUnits="userSpaceOnUse">
<stop stop-color="#282C3E"/>
<stop offset="1" stop-color="#181822"/>
</linearGradient>
<linearGradient id="paint1_linear_10296_2079" x1="14" y1="0" x2="14" y2="30.9167" gradientUnits="userSpaceOnUse">
<stop stop-color="#D4560E"/>
<stop offset="1" stop-color="#D4560E" stop-opacity="0"/>
</linearGradient>
<clipPath id="clip0_10296_2079">
<rect width="28" height="28" rx="6" fill="white"/>
</clipPath>
</defs>
</svg>
