<svg width="28" height="28" viewBox="0 0 28 28" fill="none" xmlns="http://www.w3.org/2000/svg">
<g clip-path="url(#clip0_10296_2195)">
<rect width="28" height="28" rx="6" fill="url(#paint0_linear_10296_2195)"/>
<g filter="url(#filter0_f_10296_2195)">
<circle cx="14" cy="14" r="6" fill="#04030D"/>
</g>
<rect x="6" y="5" width="16" height="14" fill="#959B9B"/>
<rect width="8" height="2" transform="matrix(1 0 0 -1 10 21)" fill="#959B9B"/>
<rect x="10" y="21" width="2" height="2" transform="rotate(180 10 21)" fill="#43292C"/>
<rect x="12" y="23" width="2" height="2" transform="rotate(180 12 23)" fill="#43292C"/>
<rect x="16" y="23" width="4" height="1" transform="rotate(180 16 23)" fill="#43292C"/>
<rect x="18" y="23" width="2" height="2" transform="rotate(180 18 23)" fill="#43292C"/>
<rect x="20" y="21" width="2" height="2" transform="rotate(180 20 21)" fill="#43292C"/>
<rect x="22" y="21" width="2" height="2" transform="rotate(180 22 21)" fill="#312E2B"/>
<rect x="20" y="23" width="2" height="2" transform="rotate(180 20 23)" fill="#312E2B"/>
<rect x="10" y="23" width="2" height="2" transform="rotate(180 10 23)" fill="#312E2B"/>
<rect x="8" y="21" width="2" height="2" transform="rotate(180 8 21)" fill="#312E2B"/>
<rect x="8" y="23" width="2" height="2" transform="rotate(180 8 23)" fill="#3B3734"/>
<rect x="22" y="23" width="2" height="2" transform="rotate(180 22 23)" fill="#3B3734"/>
<rect width="4" height="1" transform="matrix(1 0 0 -1 12 22)" fill="#959B9B"/>
<rect x="6" y="14" width="2" height="5" fill="#686E6E"/>
<rect x="20" y="14" width="2" height="5" fill="#686E6E"/>
<rect x="12" y="14" width="4" height="7" fill="#686E6E"/>
<rect width="2" height="4" transform="matrix(-1 0 0 1 12 15)" fill="#525858"/>
<rect width="2" height="2" transform="matrix(-1 0 0 1 12 12)" fill="#325566"/>
<rect width="2" height="2" transform="matrix(-1 0 0 1 12 6)" fill="#8E9393"/>
<rect width="2" height="2" transform="matrix(-1 0 0 1 12 8)" fill="#848989"/>
<rect width="2" height="2" transform="matrix(-1 0 0 1 18 8)" fill="#848989"/>
<rect width="2" height="2" transform="matrix(-1 0 0 1 22 5)" fill="#8E9393"/>
<rect width="2" height="2" transform="matrix(-1 0 0 1 18 12)" fill="#325566"/>
<rect width="2" height="2" transform="matrix(-1 0 0 1 20 12)" fill="white"/>
<rect width="2" height="2" transform="matrix(-1 0 0 1 10 12)" fill="white"/>
<rect width="4" height="2" transform="matrix(-1 0 0 1 12 10)" fill="#393939"/>
<rect width="4" height="2" transform="matrix(-1 0 0 1 20 10)" fill="#393939"/>
<rect width="4" height="2" transform="matrix(-1 0 0 1 10 8)" fill="#393939"/>
<rect width="4" height="2" transform="matrix(-1 0 0 1 22 8)" fill="#393939"/>
<rect width="2" height="2" transform="matrix(-1 0 0 1 8 10)" fill="#252525"/>
<rect width="2" height="2" transform="matrix(-1 0 0 1 22 10)" fill="#252525"/>
<rect width="2" height="4" transform="matrix(-1 0 0 1 18 15)" fill="#525858"/>
</g>
<rect x="0.25" y="0.25" width="27.5" height="27.5" rx="5.75" stroke="url(#paint1_linear_10296_2195)" stroke-width="0.5"/>
<defs>
<filter id="filter0_f_10296_2195" x="-1.1" y="-1.1" width="30.2" height="30.2" filterUnits="userSpaceOnUse" color-interpolation-filters="sRGB">
<feFlood flood-opacity="0" result="BackgroundImageFix"/>
<feBlend mode="normal" in="SourceGraphic" in2="BackgroundImageFix" result="shape"/>
<feGaussianBlur stdDeviation="4.55" result="effect1_foregroundBlur_10296_2195"/>
</filter>
<linearGradient id="paint0_linear_10296_2195" x1="14" y1="0" x2="14" y2="28" gradientUnits="userSpaceOnUse">
<stop stop-color="#282C3E"/>
<stop offset="1" stop-color="#181822"/>
</linearGradient>
<linearGradient id="paint1_linear_10296_2195" x1="14" y1="0" x2="14" y2="30.9167" gradientUnits="userSpaceOnUse">
<stop stop-color="#325566"/>
<stop offset="1" stop-color="#325566" stop-opacity="0"/>
</linearGradient>
<clipPath id="clip0_10296_2195">
<rect width="28" height="28" rx="6" fill="white"/>
</clipPath>
</defs>
</svg>
