<svg width="28" height="28" viewBox="0 0 28 28" fill="none" xmlns="http://www.w3.org/2000/svg">
<g clip-path="url(#clip0_10296_2257)">
<rect width="28" height="28" rx="6" fill="url(#paint0_linear_10296_2257)"/>
<g filter="url(#filter0_f_10296_2257)">
<circle cx="14" cy="14" r="6" fill="#04030D"/>
</g>
<path d="M20.7545 6.02935C21.159 6.01995 21.5965 6.02739 21.9946 6C21.9756 6.30723 21.9757 6.63732 21.971 6.94723C21.9712 7.28114 21.9673 7.62252 21.9715 7.95569L21.9383 8.04717C21.6016 8.03752 21.2647 8.03316 20.9278 8.03405C20.9296 8.28394 20.9182 8.788 20.9402 9.01619L20.9331 9.02743L20.9305 10.0216L20.9353 10.0355C21.1216 10.0397 21.815 10.0525 21.9655 10.039C21.9777 10.3843 21.968 10.7276 21.9727 11.0723C21.9748 11.3878 21.9797 11.7032 21.9876 12.0185C21.3898 11.9753 20.5762 11.9981 19.9655 12C19.3401 11.9763 18.5862 11.9934 17.9513 11.9966C17.0263 12.0283 15.9121 11.9981 14.9712 12.0014C14.6656 11.9895 14.3007 12.0001 13.9907 12.0016C13.6695 11.9958 13.3391 11.9989 13.0172 11.9981L10.9978 11.9984C10.6763 12.0006 10.3549 11.9998 10.0335 11.996C9.41908 11.9756 8.70006 11.9942 8.07744 11.9947L8.03533 12.0046C7.84376 11.9863 7.3813 11.9947 7.17777 11.9966C6.84598 11.9997 6.31968 11.9794 6.00771 12.0242L6.00146 6.00263C6.16455 6.0244 6.48698 6.02107 6.65997 6.02261C7.10829 6.02468 7.55662 6.02333 8.00491 6.01853C8.93009 6.02587 9.85529 6.0275 10.7805 6.02338C11.0484 6.02319 11.7864 6.00366 11.9964 6.02858C12.3327 6.02226 12.6692 6.02067 13.0055 6.02382C13.6543 6.02284 14.3243 6.03039 14.9714 6.01818C16.3239 6.02708 17.6765 6.02909 19.0291 6.02422L20.1747 6.02268C20.3064 6.02252 20.6379 6.01541 20.7545 6.02935Z" fill="#A88851"/>
<path d="M20.7545 6.02935C21.1591 6.01995 21.5966 6.02739 21.9947 6C21.9757 6.30723 21.9758 6.63732 21.9711 6.94723C21.9712 7.28114 21.9674 7.62252 21.9716 7.95569L21.9384 8.04717C21.6016 8.03752 21.2648 8.03316 20.9279 8.03405C20.9297 8.28394 20.9182 8.788 20.9402 9.01619L20.9331 9.02743L20.9306 10.0216L20.9354 10.0355C21.1217 10.0397 21.8151 10.0525 21.9656 10.039C21.9778 10.3843 21.9681 10.7276 21.9728 11.0723C21.9749 11.3878 21.9798 11.7032 21.9877 12.0185C21.3899 11.9753 20.5763 11.9981 19.9656 12C19.3401 11.9763 18.5863 11.9934 17.9514 11.9966C17.0263 12.0283 15.9122 11.9981 14.9713 12.0014L14.9716 11.015C14.9615 10.7117 14.9734 10.3444 14.9752 10.0363C14.9616 9.71985 14.971 9.33262 14.97 9.01069L13.9951 9.01269L13.0313 9.00936L13.0214 9.00022C13.0004 8.72966 13.0122 8.31615 13.0125 8.0347L13.0143 7.05104C13.0147 6.71351 13.02 6.35951 13.0056 6.02382C13.6544 6.02284 14.3244 6.03039 14.9715 6.01818C16.324 6.02708 17.6766 6.02909 19.0292 6.02422L20.1747 6.02268C20.3065 6.02252 20.638 6.01541 20.7545 6.02935Z" fill="#BD9960"/>
<path d="M15.9929 9.01804C16.3146 9.00576 16.653 9.01119 16.9764 9.01215C17.2923 9.01257 17.6382 9.00557 17.9515 9.01378C18.6597 9.02487 19.376 9.00741 20.0843 9.01226C20.2147 9.01315 20.8456 9.00156 20.9329 9.02741L20.9303 10.0216L20.9351 10.0355C21.1214 10.0396 21.8148 10.0524 21.9654 10.0389C21.9775 10.3843 21.9679 10.7276 21.9725 11.0723C21.9746 11.3878 21.9796 11.7031 21.9875 12.0185C21.3897 11.9753 20.576 11.9981 19.9654 12C19.3399 11.9763 18.586 11.9934 17.9511 11.9966C17.0261 12.0282 15.9119 11.9981 14.971 12.0013L14.9713 11.015C14.9612 10.7117 14.9731 10.3444 14.975 10.0362C15.3158 10.0383 15.6567 10.0384 15.9975 10.0363C15.9837 9.72459 15.9936 9.33573 15.9929 9.01804Z" fill="#A88851"/>
<path d="M14.975 10.0363C15.3158 10.0384 15.6567 10.0384 15.9975 10.0363C16.0062 10.3546 15.9987 10.6954 15.9967 11.0154C17.3106 11.0307 18.6395 11.0143 19.955 11.0186C19.9542 11.2284 19.9394 11.8089 19.9654 12C19.3399 11.9763 18.586 11.9934 17.9511 11.9966C17.0261 12.0283 15.9119 11.9981 14.971 12.0014L14.9713 11.015C14.9612 10.7117 14.9731 10.3444 14.975 10.0363Z" fill="#AE8E50"/>
<path d="M14.975 10.0363C15.3158 10.0384 15.6567 10.0384 15.9975 10.0363C16.0062 10.3546 15.9987 10.6954 15.9967 11.0154L14.9713 11.015C14.9612 10.7117 14.9731 10.3444 14.975 10.0363Z" fill="#977643"/>
<path d="M17.9515 9.01378C18.6597 9.02487 19.376 9.00741 20.0843 9.01226C20.2148 9.01315 20.8456 9.00156 20.9329 9.02741L20.9303 10.0216C20.8406 10.0457 19.9571 10.0365 19.7876 10.0364L16.9772 10.0364C16.9731 9.69499 16.9728 9.35357 16.9764 9.01215C17.2924 9.01257 17.6382 9.00557 17.9515 9.01378Z" fill="#AE8E50"/>
<path d="M21.9653 10.0389C21.9775 10.3843 21.9678 10.7276 21.9725 11.0723L21.9429 11.0264C21.7222 11.0003 21.1792 11.0154 20.9325 11.0149C20.9287 10.6885 20.9296 10.362 20.9351 10.0355C21.1214 10.0396 21.8148 10.0524 21.9653 10.0389Z" fill="#977643"/>
<path d="M13.0056 6.02383C13.6544 6.02285 14.3244 6.0304 14.9715 6.01819C14.9668 6.36439 14.9672 6.71063 14.9728 7.05683C14.9727 7.24087 14.986 7.89055 14.9667 8.03827L14.9698 8.04991L14.97 9.0107L13.9951 9.0127L13.0313 9.00937L13.0214 9.00023C13.0004 8.72967 13.0122 8.31616 13.0125 8.03471L13.0143 7.05105C13.0147 6.71352 13.02 6.35952 13.0056 6.02383Z" fill="#FED500"/>
<path d="M13.0056 6.02383C13.6544 6.02285 14.3244 6.0304 14.9715 6.01819C14.9668 6.36439 14.9672 6.71063 14.9728 7.05683C14.7062 7.03963 14.2733 7.05347 13.9941 7.05352L13.0143 7.05105C13.0147 6.71352 13.02 6.35952 13.0056 6.02383Z" fill="#AE8E50"/>
<path d="M13.0119 8.03473L13.9928 8.03599C14.3156 8.03396 14.644 8.02839 14.9661 8.0383L14.9692 8.04993L14.9694 9.01072L13.9944 9.01273L13.0307 9.00939L13.0208 9.00026C12.9998 8.72969 13.0116 8.31618 13.0119 8.03473Z" fill="#FDFA95"/>
<path d="M13.9932 8.03599C14.316 8.03396 14.6444 8.02839 14.9665 8.0383L14.9696 8.04993L14.9698 9.01072L13.9948 9.01273C13.9898 8.69739 13.9833 8.35014 13.9932 8.03599Z" fill="#FEFEFE"/>
<path d="M13.9935 7.05353C14.2727 7.05348 14.7057 7.03964 14.9723 7.05684C14.9722 7.24088 14.9854 7.89055 14.9662 8.03828C14.6441 8.02838 14.3157 8.03395 13.9929 8.03598L13.9935 7.05353Z" fill="#FE8C00"/>
<path d="M17.9468 7.05485C18.2843 7.05627 18.6501 7.06408 18.9846 7.04895C18.9789 7.37701 18.9766 7.70513 18.9779 8.03326C19.5565 8.03307 20.3696 8.0062 20.9278 8.03405C20.9296 8.28394 20.9181 8.78801 20.9401 9.0162L20.933 9.02743C20.8457 9.00158 20.2149 9.01317 20.0844 9.01228C19.3761 9.00743 18.6599 9.02489 17.9516 9.0138C17.9552 8.69568 17.9656 8.34811 17.9585 8.03231C17.9338 7.79568 17.9468 7.31038 17.9468 7.05485Z" fill="#A88851"/>
<path d="M20.7544 6.02935C21.159 6.01995 21.5965 6.02739 21.9946 6C21.9756 6.30723 21.9757 6.63732 21.971 6.94723C21.9711 7.28114 21.9673 7.62252 21.9715 7.95569L21.9383 8.04717C21.6015 8.03752 21.2646 8.03316 20.9278 8.03405C20.3696 8.00619 19.5564 8.03307 18.9779 8.03326C18.9766 7.70512 18.9789 7.37701 18.9846 7.04894C19.0618 7.03692 19.4829 7.04426 19.5819 7.04456C20.0256 7.05009 20.4693 7.04829 20.9129 7.03918C20.9246 6.86691 20.9168 6.37713 20.9384 6.25917C20.963 6.50992 20.9572 6.7671 20.9564 7.01939H21.9347C21.9366 6.70669 21.9463 6.37195 21.9021 6.06386C21.6104 6.03485 20.9555 6.10915 20.7544 6.02935Z" fill="#AE8E50"/>
<path d="M20.93 7.05404C21.0725 7.05234 21.8619 7.04027 21.94 7.08206L21.9649 7.0325C21.9542 6.99635 21.9586 7.00087 21.9679 6.96013L21.971 6.94727C21.9711 7.28118 21.9672 7.62255 21.9714 7.95572L21.9382 8.04721C21.6015 8.03756 21.2646 8.0332 20.9277 8.03409C20.9405 7.72998 20.9306 7.36288 20.93 7.05404Z" fill="#A88851"/>
<path d="M14.9956 8.05194C15.1437 8.01726 15.8119 8.03248 15.9901 8.0343C15.9946 8.3622 15.9954 8.69013 15.9926 9.01805C15.9934 9.33574 15.9834 9.7246 15.9973 10.0363C15.6565 10.0384 15.3156 10.0383 14.9747 10.0363C14.9612 9.71984 14.9705 9.33262 14.9695 9.01069L14.9693 8.04989L14.9956 8.05194Z" fill="#BD9960"/>
<path d="M14.996 8.05194C15.1441 8.01726 15.8123 8.03248 15.9905 8.0343C15.995 8.3622 15.9958 8.69013 15.993 9.01805C15.6615 9.01418 15.3299 9.01325 14.9984 9.01521C14.9798 8.76926 14.9952 8.31344 14.996 8.05194Z" fill="#AE8E50"/>
<path d="M15.9902 8.03432C16.6394 8.03306 17.3108 8.02283 17.9582 8.03231C17.9653 8.34812 17.9549 8.69569 17.9513 9.0138C17.6381 9.0056 17.2922 9.01259 16.9762 9.01217C16.6529 9.01122 16.3145 9.00579 15.9927 9.01807C15.9955 8.69014 15.9947 8.36222 15.9902 8.03432Z" fill="#977643"/>
<path d="M14.9724 7.05683C15.3117 7.05573 15.6551 7.05172 15.9939 7.05433C15.9992 7.38098 15.998 7.70771 15.9902 8.03431C15.812 8.03249 15.1438 8.01727 14.9956 8.05195L14.9694 8.0499L14.9663 8.03827C14.9855 7.89054 14.9723 7.24087 14.9724 7.05683Z" fill="#A88851"/>
<path d="M8.00464 6.01848C8.92981 6.02582 9.85501 6.02745 10.7802 6.02333C11.0481 6.02314 11.7861 6.00361 11.9961 6.02852C12.3325 6.02221 12.6689 6.02062 13.0053 6.02377C13.0197 6.35946 13.0144 6.71346 13.0139 7.05099L13.0122 8.03465C13.0118 8.3161 13 8.72961 13.0211 9.00017C12.8245 9.02744 12.2198 9.01276 11.9875 9.01309L11.0151 9.01255C10.6836 9.01134 10.3445 9.00665 10.0138 9.01747C10.0471 8.82897 9.97858 8.19834 10.0268 8.03633C9.99234 7.97855 10.0306 7.25566 10.0126 7.09891L9.862 7.0577C9.26981 7.07407 8.62059 7.06062 8.02418 7.05952C8.02381 6.78777 8.03762 6.26389 8.00464 6.01848Z" fill="#BD9960"/>
<path d="M11.9888 7.05353C12.3305 7.04891 12.6722 7.0481 13.014 7.05106L13.0122 8.03471C13.0119 8.31616 13.0001 8.72967 13.0211 9.00024C12.8245 9.02751 12.2199 9.01282 11.9876 9.01315L11.989 8.03164C11.9784 7.72667 11.9884 7.36306 11.9888 7.05353Z" fill="#AE8E50"/>
<path d="M10.0269 8.03637L11.989 8.03162L11.9876 9.01313L11.0152 9.01259C10.6836 9.01138 10.3446 9.0067 10.0139 9.01751C10.0472 8.82902 9.97864 8.19839 10.0269 8.03637Z" fill="#977643"/>
<path d="M13.031 9.0094L13.9948 9.01273L14.9697 9.01073C14.9706 9.33266 14.9613 9.71988 14.9749 10.0363C14.9731 10.3445 14.9611 10.7117 14.9713 11.0151L14.971 12.0014C14.6654 11.9895 14.3004 12.0001 13.9905 12.0016C13.6693 11.9959 13.3389 11.9989 13.017 11.9981L13.0148 10.9964L13.0155 10.0394C13.0131 9.84612 12.9975 9.17246 13.031 9.0094Z" fill="#5C472C"/>
<path d="M13.9948 9.01275L14.9697 9.01074C14.9707 9.33268 14.9614 9.7199 14.9749 10.0363C14.9731 10.3445 14.9612 10.7117 14.9713 11.0151L14.971 12.0014C14.6654 11.9895 14.3004 12.0001 13.9905 12.0016C14.0064 11.0188 13.9929 9.99899 13.9948 9.01275Z" fill="#82653F"/>
<path d="M8.03519 11.0251L11.0064 11.0232C11.0071 11.2442 11.0221 11.7978 10.9974 11.9984C10.676 12.0006 10.3546 11.9998 10.0332 11.996C9.41871 11.9756 8.69969 11.9941 8.07707 11.9947C7.99823 11.8401 8.03475 11.2299 8.03519 11.0251Z" fill="#AE8E50"/>
<path d="M13.0211 9.00024L13.0309 9.00938C12.9974 9.17245 13.013 9.8461 13.0154 10.0394C12.6831 10.0276 12.2925 10.0389 11.9503 10.0346C11.6379 10.036 11.3254 10.0346 11.013 10.0306C10.9996 9.73185 11.014 9.32017 11.0151 9.01262L11.9875 9.01316C12.2198 9.01283 12.8245 9.02751 13.0211 9.00024Z" fill="#BD9960"/>
<path d="M10.0137 9.01747C10.3444 9.00665 10.6834 9.01134 11.015 9.01255C11.0139 9.3201 10.9995 9.73177 11.0128 10.0305C10.3626 10.0179 9.66911 10.0305 9.01573 10.0338C9.01291 9.69844 9.01801 9.35523 9.01922 9.01917C9.34293 9.02073 9.69236 9.02835 10.0137 9.01747Z" fill="#AE8E50"/>
<path d="M11.9507 10.0347C12.2928 10.0389 12.6834 10.0276 13.0158 10.0394L13.0151 10.9964C12.8731 11.0225 12.163 11.0123 11.9709 11.0121C11.9747 10.8464 11.9931 10.1588 11.9507 10.0347Z" fill="#977643"/>
<path d="M10.0223 17.9569C10.0227 17.8397 10.0076 17.3597 10.0466 17.2922L10.0485 21.1226C10.0508 21.4127 10.0561 21.7028 10.0645 21.9928C9.58264 21.9743 8.48021 21.9479 8.02581 21.9972C8.02411 21.6474 8.02425 21.2976 8.02618 20.9477C7.45458 20.9387 6.87882 20.9513 6.30689 20.9502C6.20704 20.95 6.10672 20.9585 6.00794 20.9734C6.00857 20.6531 6.01721 20.2802 6 19.9649C6.47758 19.9578 7.48788 19.9706 8.00657 19.9582C8.0174 19.9477 8.02823 19.9371 8.03909 19.9265C8.01107 19.7042 8.02476 19.2334 8.02586 18.9894C7.44118 18.9824 6.85351 18.9913 6.26865 18.9927C6.18352 18.9929 6.09268 19.0024 6.00829 19.0151L6.00119 17.9446C6.34314 17.9699 6.75284 17.9496 7.09926 17.9586C7.36903 17.9656 7.66506 17.9589 7.93646 17.956C8.00571 17.9553 8.00007 17.9544 8.03308 17.9155C8.03699 17.9206 8.04032 17.9262 8.04481 17.9307C8.1169 18.0034 9.7842 17.9585 10.0223 17.9569Z" fill="#977643"/>
<path d="M8.02597 20.9478L9.31564 20.9444C9.49923 20.9439 9.82797 20.935 10.0047 20.9513C10.0542 21.0162 10.0242 21.0394 10.0483 21.1227C10.0506 21.4128 10.0559 21.7029 10.0643 21.9929C9.58242 21.9744 8.48 21.948 8.0256 21.9973C8.0239 21.6475 8.02404 21.2976 8.02597 20.9478Z" fill="#A88851"/>
<path d="M10.0239 18.9888L10.025 19.9859C9.88112 19.963 9.75474 19.9696 9.60821 19.9676C9.10194 19.9606 8.59194 19.9814 8.08623 19.9627C8.08623 19.9627 8.04347 19.93 8.03902 19.9266C8.011 19.7042 8.02469 19.2335 8.02579 18.9894C8.68329 18.9905 9.36812 18.9989 10.0239 18.9888Z" fill="#A88851"/>
<path d="M10.025 14.0191C10.0242 13.8976 10.0064 13.4225 10.0464 13.3531C10.0476 14.5703 10.0288 15.8275 10.0499 17.0397L10.0464 17.2923C10.0074 17.3597 10.0225 17.8397 10.0221 17.9569C9.78404 17.9585 8.11674 18.0034 8.04465 17.9307C8.04015 17.9262 8.03682 17.9206 8.03291 17.9156L8.03193 17.8273C8.00561 17.2735 8.02059 16.5634 8.03046 16.004C7.53912 16.0194 6.44454 15.9674 6.00775 16.0332L6.00195 14.9534C6.18917 14.9793 6.57002 14.9737 6.76539 14.9742L8.02848 14.9762L8.02744 14.0049C8.32436 13.9698 9.75583 13.9765 10.025 14.0191Z" fill="#977643"/>
<path d="M6.00195 14.9534C6.18917 14.9793 6.57002 14.9737 6.76539 14.9742L8.02848 14.9762C8.69361 14.9813 9.35875 14.9825 10.0239 14.9798C10.0247 15.3153 10.0304 15.6649 10.0222 15.9992L8.03046 16.004C7.53912 16.0194 6.44454 15.9674 6.00775 16.0332L6.00195 14.9534Z" fill="#A88851"/>
<path d="M8.03931 16.975C8.63451 17.0097 9.46333 16.9402 10.0139 16.992L10.0502 17.0397L10.0467 17.2922C10.0077 17.3597 10.0228 17.8397 10.0224 17.9569C9.78433 17.9585 8.11703 18.0034 8.04494 17.9307C8.04045 17.9262 8.03712 17.9206 8.0332 17.9156L8.03223 17.8272C8.05845 17.6934 8.04443 17.1256 8.03931 16.975Z" fill="#A88851"/>
<path d="M17.9513 11.9966C18.5861 11.9934 19.34 11.9764 19.9655 12C19.9609 12.1577 19.9524 12.8904 19.9808 13.0161C20.5984 13.0169 21.3861 13.0383 21.9946 12.9923C21.9745 13.3372 21.9763 13.6829 21.9999 14.0275C21.3552 13.9826 20.5342 14.0494 19.9672 13.9972C19.9623 14.1985 19.9481 14.7925 19.9808 14.9742C19.3083 14.9822 18.5982 14.9646 17.9345 14.9835C17.9474 14.6489 17.939 14.2806 17.9372 13.9431L17.9347 13.0272C17.9523 12.7376 17.9125 12.2575 17.9513 11.9966Z" fill="#A88851"/>
<path d="M17.9513 11.9966C18.5861 11.9934 19.34 11.9764 19.9655 12C19.9609 12.1577 19.9524 12.8904 19.9808 13.0161C19.3322 13.0242 18.5621 12.997 17.9347 13.0272C17.9523 12.7376 17.9125 12.2575 17.9513 11.9966Z" fill="#977643"/>
<path d="M17.9368 13.9431L17.9706 13.9946C18.0889 14.0094 18.199 14.0029 18.3173 14.0044C18.8643 14.0115 19.4208 13.9834 19.9668 13.9972C19.962 14.1985 19.9477 14.7925 19.9804 14.9742C19.3079 14.9822 18.5978 14.9646 17.9341 14.9835C17.9471 14.6489 17.9386 14.2806 17.9368 13.9431Z" fill="#977643"/>
<path d="M17.9341 18.9933C18.1698 18.9898 19.8966 18.9702 19.9595 19.0065L19.9613 19.9624C20.632 19.977 21.3228 19.9439 21.9901 19.9604C21.9793 20.2808 21.9724 20.6491 21.9859 20.9698C21.3527 20.9165 20.6032 20.9678 19.9584 20.9468C19.9681 21.2517 19.975 21.6855 19.9651 21.9875C19.5114 21.9544 18.3595 21.9364 17.9329 22.0001C17.9243 21.6646 17.9334 21.2894 17.9341 20.9508C17.9477 20.6186 17.9386 20.2457 17.9367 19.9102L17.9341 18.9933Z" fill="#977643"/>
<path d="M17.9341 20.9507C18.6088 20.9453 19.2836 20.9439 19.9584 20.9467C19.9681 21.2516 19.975 21.6854 19.9651 21.9874C19.5114 21.9543 18.3595 21.9363 17.9329 22C17.9243 21.6645 17.9334 21.2893 17.9341 20.9507Z" fill="#A88851"/>
<path d="M17.9346 18.9933C18.1702 18.9898 19.8971 18.9702 19.96 19.0065L19.9617 19.9624C19.4742 19.9743 18.9828 19.9635 18.4948 19.9701C18.3307 19.9723 18.1306 19.9809 17.9706 19.9609L17.9372 19.9102L17.9346 18.9933Z" fill="#A88851"/>
<path d="M19.9804 14.9742C20.5972 14.9749 21.3856 14.9962 21.9932 14.9503C21.9754 15.2778 21.9777 15.698 21.9881 16.0281C21.333 15.9814 20.6196 16.0227 19.9595 16.007C19.9617 16.181 19.9805 16.9228 19.9628 17.0476C19.9544 17.0274 19.9585 17.0305 19.9458 17.0183C19.862 16.938 18.1552 16.9815 17.9347 16.9812C17.9476 16.6303 17.9398 16.2489 17.9355 15.8977L17.9341 14.9835C18.5978 14.9646 19.3079 14.9822 19.9804 14.9742Z" fill="#A88851"/>
<path d="M17.9358 15.8977L17.9713 15.9942C18.1066 16.0134 18.2445 16.0059 18.3809 16.0069C18.907 16.011 19.4338 15.9966 19.9598 16.007C19.962 16.181 19.9808 16.9228 19.9632 17.0476C19.9548 17.0274 19.9588 17.0306 19.9461 17.0183C19.8623 16.938 18.1555 16.9815 17.9351 16.9812C17.948 16.6304 17.9401 16.2489 17.9358 15.8977Z" fill="#977643"/>
<path d="M17.9351 16.9811C18.1556 16.9814 19.8624 16.9379 19.9462 17.0183C19.9589 17.0305 19.9548 17.0274 19.9632 17.0475C19.9628 17.1693 19.9708 17.553 19.9582 17.6541C19.9641 17.7541 19.9723 17.8591 19.9703 17.9588C20.484 17.9581 21.5129 17.9843 21.9893 17.9328C21.9781 18.2664 21.9721 18.6775 21.9865 19.0106C21.7995 18.9958 20.0251 18.9682 19.96 19.0064C19.8971 18.9701 18.1702 18.9897 17.9346 18.9932C17.9522 18.6432 17.9399 18.2077 17.9359 17.8556L17.9351 16.9811Z" fill="#977643"/>
<path d="M17.9351 16.9811C18.1555 16.9814 19.8623 16.9379 19.9461 17.0183C19.9588 17.0305 19.9548 17.0274 19.9632 17.0475C19.9628 17.1693 19.9707 17.553 19.9582 17.6541C19.9481 17.7659 19.9427 17.8379 19.9457 17.9496C19.3678 17.9646 18.5574 17.9862 17.9885 17.958C17.9439 17.9149 17.9568 17.923 17.9359 17.8556L17.9351 16.9811Z" fill="#A88851"/>
<path d="M8.07712 11.9947C8.69973 11.9942 9.41875 11.9756 10.0332 11.996C10.0519 12.3558 10.0552 12.8319 10.0474 13.1977L10.0464 13.3531C10.0065 13.4225 10.0242 13.8976 10.025 14.0191C9.75588 13.9765 8.32441 13.9698 8.02748 14.0049C7.36034 14.0225 6.69058 13.9861 6.01171 14.0208C6.00242 13.6792 5.99916 13.3374 6.00193 12.9956C6.4231 13.046 7.56989 13.0182 8.02846 13.0179C8.02471 12.716 8.01144 12.298 8.03501 12.0046L8.07712 11.9947Z" fill="#A88851"/>
<path d="M8.07726 11.9947C8.69988 11.9942 9.41889 11.9756 10.0334 11.996C10.0521 12.3558 10.0553 12.8319 10.0476 13.1977L10.0137 13.0284C9.80086 13.0094 9.474 13.0199 9.25306 13.0206C8.84491 13.0225 8.43675 13.0216 8.0286 13.0179C8.02485 12.716 8.01158 12.298 8.03515 12.0046L8.07726 11.9947Z" fill="#977643"/>
<path d="M20.9277 8.03405C21.2646 8.03317 21.6014 8.03752 21.9382 8.04717L21.9714 7.95569L21.9712 9.18875C21.9703 9.42488 21.9813 9.81492 21.9654 10.039C21.8148 10.0525 21.1215 10.0397 20.9352 10.0355L20.9303 10.0216L20.9329 9.02743L20.94 9.01619C20.918 8.78801 20.9295 8.28394 20.9277 8.03405Z" fill="#A88851"/>
<path d="M20.9277 8.03405C21.2646 8.03317 21.6014 8.03752 21.9382 8.04717L21.9714 7.95569L21.9712 9.18875C21.9525 9.12546 21.9508 9.06722 21.9454 9.00151C21.6474 9.02647 21.2566 9.00496 20.94 9.01619C20.918 8.78801 20.9295 8.28394 20.9277 8.03405Z" fill="#977643"/>
</g>
<rect x="0.25" y="0.25" width="27.5" height="27.5" rx="5.75" stroke="url(#paint1_linear_10296_2257)" stroke-width="0.5"/>
<defs>
<filter id="filter0_f_10296_2257" x="-1.1" y="-1.1" width="30.2" height="30.2" filterUnits="userSpaceOnUse" color-interpolation-filters="sRGB">
<feFlood flood-opacity="0" result="BackgroundImageFix"/>
<feBlend mode="normal" in="SourceGraphic" in2="BackgroundImageFix" result="shape"/>
<feGaussianBlur stdDeviation="4.55" result="effect1_foregroundBlur_10296_2257"/>
</filter>
<linearGradient id="paint0_linear_10296_2257" x1="14" y1="0" x2="14" y2="28" gradientUnits="userSpaceOnUse">
<stop stop-color="#282C3E"/>
<stop offset="1" stop-color="#181822"/>
</linearGradient>
<linearGradient id="paint1_linear_10296_2257" x1="14" y1="0" x2="14" y2="30.9167" gradientUnits="userSpaceOnUse">
<stop stop-color="#AC8C50"/>
<stop offset="1" stop-color="#AC8C50" stop-opacity="0"/>
</linearGradient>
<clipPath id="clip0_10296_2257">
<rect width="28" height="28" rx="6" fill="white"/>
</clipPath>
</defs>
</svg>
