<svg width="28" height="28" viewBox="0 0 28 28" fill="none" xmlns="http://www.w3.org/2000/svg">
<g clip-path="url(#clip0_10296_2349)">
<rect width="28" height="28" rx="6" fill="url(#paint0_linear_10296_2349)"/>
<g filter="url(#filter0_f_10296_2349)">
<circle cx="14" cy="14" r="6" fill="#04030D"/>
</g>
<path d="M10.0161 10.0121C10.3446 10.0362 10.6823 10.0333 11.012 10.0356C11.0115 10.1892 10.9758 10.9513 11.0505 11.0228C11.0518 11.024 11.0536 11.0246 11.0551 11.0255C11.3735 11.0171 11.6921 11.0154 12.0106 11.0204C12.0122 11.2107 12.0236 11.8381 11.9923 11.9977C11.9959 12.339 11.9971 12.6804 11.9961 13.0217C11.9966 13.1563 12.0058 13.9271 11.9855 14.0036L11.995 14.0309C11.9951 14.3363 12.0031 14.6781 11.9945 14.9805L11.9933 15.9871L11.9968 16.0028C12.3324 16.0038 12.6863 16.0101 13.0203 16.0017L13.0194 16.9836L13.0199 17.9639C12.3698 17.9529 11.7095 17.9761 11.0585 17.9598L11.0305 17.9619C10.9898 18.3347 11.0442 18.8906 11.0176 19.2994C11.0268 19.5212 11.0206 19.7282 11.0251 19.9464C11.0258 20.2828 11.0425 20.825 11.0188 21.1449C11.0315 21.4378 11.0201 21.711 11.0251 21.9994C10.7587 21.956 10.3231 21.9693 10.0397 21.9727C9.6942 21.9722 9.34163 21.9678 8.99707 21.9828C8.99579 21.5243 8.97798 20.8888 9.00777 20.4446C8.99611 20.3519 8.99856 20.0748 8.99663 19.9681C9.01005 19.4647 8.99257 18.9435 9.00161 18.4346C8.99222 18.2839 9.00217 18.1086 9.01902 17.9586C8.79973 17.9782 8.25979 17.9676 8.0283 17.9591C8.05317 18.3052 8.03101 18.6422 8.04238 18.9828C8.04271 19.3498 8.05902 19.8772 8.03443 20.2315C8.04588 20.4692 8.03679 20.6937 8.04196 20.9276C8.03986 21.2849 8.03991 21.6422 8.0421 21.9995C7.78198 21.9606 7.32449 21.9705 7.04777 21.9715C6.71424 21.9694 6.34598 21.9649 6.01538 21.9851L6.01491 21.4293L6.01655 19.9121C6.01505 19.7061 6.01235 19.5092 6.02477 19.3031C5.99389 18.9596 6.01279 18.3262 6.01282 17.966L6.01429 15.4768C6.01454 15.0271 6.02771 14.4404 6 13.9982C6.16595 13.994 6.97641 14.0104 7.05504 13.9854C7.02267 13.7034 7.03386 13.2881 7.034 12.9936C7.31178 13.0252 7.75187 13.0199 8.03362 13.0189C8.01281 12.7456 8.02756 12.2655 8.02763 11.9734C8.32103 11.9991 8.70882 11.9865 9.01515 11.9943C8.98022 11.7665 8.99921 11.282 8.98623 11.0149C9.30774 10.998 9.70979 11.0125 10.0341 11.0168C10.017 10.6756 10.0169 10.3537 10.0161 10.0121Z" fill="#399488"/>
<path d="M10.0158 10.0121C10.3443 10.0362 10.682 10.0333 11.0118 10.0356C11.0112 10.1892 10.9755 10.9513 11.0502 11.0228C11.0515 11.024 11.0533 11.0246 11.0548 11.0255C11.3732 11.0171 11.6918 11.0154 12.0103 11.0204C12.012 11.2107 12.0233 11.8381 11.992 11.9977C11.9956 12.339 11.9968 12.6804 11.9958 13.0217C11.9963 13.1563 12.0055 13.9271 11.9852 14.0036L11.9947 14.0309C11.9948 14.3363 12.0028 14.6781 11.9942 14.9805L11.0182 14.9795L10.0406 14.9801C10.0264 14.6888 10.0378 14.2993 10.0375 14.0005C9.69572 14.0024 9.35398 14.0009 9.01227 13.9958L9.01213 13.0243L8.03334 13.0189C8.01253 12.7456 8.02728 12.2655 8.02735 11.9734C8.32076 11.9991 8.70854 11.9865 9.01488 11.9943C8.97995 11.7665 8.99894 11.282 8.98596 11.0149C9.30747 10.998 9.70952 11.0125 10.0339 11.0168C10.0167 10.6756 10.0166 10.3537 10.0158 10.0121Z" fill="#21695F"/>
<path d="M10.0156 10.0121C10.3441 10.0362 10.6818 10.0333 11.0116 10.0356C11.011 10.1892 10.9753 10.9513 11.05 11.0228C11.0513 11.024 11.0531 11.0246 11.0546 11.0255C11.373 11.0171 11.6916 11.0154 12.0101 11.0204C12.0118 11.2107 12.0231 11.8381 11.9918 11.9977L11.0987 11.9938L11.018 11.9983C10.7 11.9877 10.3459 11.9957 10.0252 11.9966C10.0435 11.8495 10.0435 11.1706 10.0337 11.0168C10.0165 10.6756 10.0164 10.3537 10.0156 10.0121Z" fill="#55ACA1"/>
<path d="M12.0101 11.0204C12.0118 11.2107 12.0232 11.8381 11.9919 11.9976L11.0987 11.9938L11.0413 11.9585C10.9848 11.8214 11.0107 11.2713 11.0173 11.0952C11.0193 11.0412 11.0155 11.059 11.0547 11.0254C11.3731 11.0171 11.6917 11.0154 12.0101 11.0204Z" fill="#55ACA1"/>
<path d="M10.0254 11.9965C10.3461 11.9956 10.7002 11.9877 11.0182 11.9982L11.0988 11.9938L11.992 11.9976C11.9956 12.339 11.9968 12.6803 11.9958 13.0217L11.0174 13.0232C10.719 13.0105 10.3341 13.0229 10.0324 13.025C10.0359 12.7518 10.0525 12.2529 10.0254 11.9965Z" fill="#399488"/>
<path d="M11.0988 11.9938L11.992 11.9976C11.9955 12.3389 11.9967 12.6803 11.9957 13.0216L11.0173 13.0232L11.0181 11.9982L11.0988 11.9938Z" fill="#124C44"/>
<path d="M11.0176 13.0233L11.996 13.0217C11.9965 13.1563 12.0057 13.9271 11.9854 14.0036L11.9949 14.0309C11.995 14.3364 12.003 14.6781 11.9944 14.9805L11.0183 14.9795L11.0121 14.8995C10.96 14.6698 11.0138 13.3379 11.0176 13.0233Z" fill="#399488"/>
<path d="M11.0159 14.0019C11.339 13.9969 11.6622 13.9974 11.9852 14.0036L11.9947 14.0308C11.9948 14.3363 12.0028 14.6781 11.9942 14.9805L11.0182 14.9795L11.012 14.8994C11.0229 14.6209 11.015 14.285 11.0159 14.0019Z" fill="#F3FEFE"/>
<path d="M8.98584 11.0148C9.30735 10.9979 9.7094 11.0124 10.0337 11.0167C10.0435 11.1706 10.0436 11.8494 10.0253 11.9965C9.69071 11.9995 9.34988 11.9952 9.01476 11.9942C8.97983 11.7664 8.99882 11.2819 8.98584 11.0148Z" fill="#55ACA1"/>
<path d="M9.01221 13.0242L10.0367 13.0234L10.0375 14.0005C9.6958 14.0024 9.35406 14.0008 9.01235 13.9958L9.01221 13.0242Z" fill="#124C44"/>
<path d="M9.01486 16.9849C9.32301 16.9859 9.75393 17.0005 10.0521 16.9843C10.0375 17.156 10.0187 17.7736 10.0338 17.943C10.1924 17.971 10.8307 17.9608 11.0301 17.9619C10.9894 18.3347 11.0438 18.8906 11.0172 19.2994C11.0264 19.5212 11.0202 19.7282 11.0247 19.9464C11.0254 20.2828 11.0421 20.825 11.0185 21.1449C11.0311 21.4379 11.0197 21.711 11.0247 21.9994C10.7584 21.956 10.3227 21.9693 10.0393 21.9728C9.69381 21.9722 9.34123 21.9678 8.99668 21.9828C8.9954 21.5243 8.97759 20.8888 9.00737 20.4446C8.99572 20.3519 8.99817 20.0748 8.99623 19.9681C9.00966 19.4648 8.99218 18.9435 9.00122 18.4346C8.99183 18.2839 9.00178 18.1086 9.01863 17.9586C9.00525 17.6429 9.01276 17.303 9.01486 16.9849Z" fill="#55ACA1"/>
<path d="M10.04 19.9673C10.2075 19.9664 10.922 19.9926 11.0247 19.9464C11.0254 20.2828 11.0421 20.825 11.0185 21.145C11.0311 21.4379 11.0197 21.7111 11.0247 21.9994C10.7584 21.956 10.3227 21.9694 10.0393 21.9728C9.69381 21.9722 9.34123 21.9679 8.99668 21.9829C8.9954 21.5243 8.97759 20.8889 9.00737 20.4447C8.99572 20.3519 8.99817 20.0748 8.99623 19.9682L10.04 19.9673Z" fill="#399488"/>
<path d="M10.0395 20.9467C10.3465 20.9442 10.6536 20.9458 10.9605 20.9516C11.0031 20.9935 11.0056 21.0754 11.0188 21.1449C11.0315 21.4378 11.0201 21.711 11.0251 21.9993C10.7587 21.9559 10.3231 21.9693 10.0396 21.9727C10.0234 21.687 10.0388 21.2445 10.0395 20.9467Z" fill="#55ACA1"/>
<path d="M10.0404 19.9673C10.0357 20.2904 10.0342 20.6135 10.0361 20.9367L9.02087 20.946C9.02049 20.812 9.02592 20.5677 9.00772 20.4447C8.99607 20.3519 8.99852 20.0748 8.99658 19.9681L10.0404 19.9673Z" fill="#55ACA1"/>
<path d="M10.0342 17.943C10.1927 17.9711 10.8311 17.9609 11.0305 17.9619C10.9898 18.3347 11.0441 18.8906 11.0176 19.2995C11.0268 19.5212 11.0206 19.7282 11.0251 19.9464C10.9224 19.9926 10.2079 19.9664 10.0404 19.9673L10.0376 18.9848L10.0342 17.943Z" fill="#399488"/>
<path d="M10.0376 18.9847C10.3558 18.9906 10.674 18.9918 10.9922 18.9884C10.9972 19.0714 11.0019 19.2233 11.0175 19.2994C11.0268 19.5212 11.0205 19.7282 11.025 19.9463C10.9224 19.9925 10.2078 19.9663 10.0404 19.9672L10.0376 18.9847Z" fill="#55ACA1"/>
<path d="M9.00157 18.4346C9.03531 18.502 9.02061 18.8777 9.02087 18.9891C9.31443 18.9869 9.75614 18.9694 10.0376 18.9848L10.0404 19.9673L8.99658 19.9681C9.01001 19.4647 8.99253 18.9435 9.00157 18.4346Z" fill="#399488"/>
<path d="M7.05564 18.9859C7.37889 18.9875 7.7206 18.9941 8.04211 18.9828C8.04244 19.3498 8.05875 19.8772 8.03417 20.2315C8.04561 20.4692 8.03652 20.6937 8.04169 20.9276C8.0396 21.2849 8.03964 21.6422 8.04183 21.9995C7.78171 21.9606 7.32422 21.9705 7.0475 21.9715C6.71397 21.9694 6.34571 21.9649 6.01511 21.9851L6.01465 21.4293L6.01628 19.9121L6.04755 19.9629C6.20018 19.9856 6.85962 19.9662 7.05372 19.9647C7.04158 19.6711 7.05449 19.2865 7.05564 18.9859Z" fill="#55ACA1"/>
<path d="M7.05566 18.9859C7.37892 18.9875 7.72063 18.9941 8.04214 18.9828C8.04247 19.3498 8.05878 19.8772 8.03419 20.2315C8.04564 20.4692 8.03655 20.6937 8.04172 20.9276C7.89003 20.9646 7.24921 20.9409 7.0565 20.9439L7.05375 19.9647C7.04161 19.6711 7.05452 19.2865 7.05566 18.9859Z" fill="#399488"/>
<path d="M7.05347 19.9647C7.17365 19.965 7.92883 19.9576 7.99737 19.9803C8.0334 20.0985 8.01725 20.1285 8.03391 20.2315C8.04535 20.4692 8.03626 20.6937 8.04144 20.9276C7.88975 20.9646 7.24892 20.9409 7.05622 20.9439L7.05347 19.9647Z" fill="#55ACA1"/>
<path d="M6.01628 19.9121L6.04755 19.963C6.20018 19.9856 6.85962 19.9663 7.05372 19.9647L7.05647 20.9439L6.03728 20.9467C6.038 21.0342 6.05338 21.3797 6.01465 21.4293L6.01628 19.9121Z" fill="#399488"/>
<path d="M8.04204 20.9276C8.03995 21.2849 8.03999 21.6422 8.04218 21.9995C7.78206 21.9606 7.32457 21.9705 7.04785 21.9715C7.06065 21.6444 7.05473 21.2743 7.05682 20.9439C7.24953 20.9409 7.89035 20.9646 8.04204 20.9276Z" fill="#399488"/>
<path d="M11.9965 16.0027C12.3321 16.0037 12.686 16.01 13.02 16.0016L13.0191 16.9836L13.0196 17.9638C12.3695 17.9529 11.7092 17.976 11.0582 17.9597L11.0302 17.9618C10.8308 17.9608 10.1924 17.971 10.0339 17.9429C10.0188 17.7735 10.0375 17.1559 10.0522 16.9842C10.2346 16.9805 10.8653 16.964 11.0174 16.9832C11.3383 16.9846 11.674 16.9907 11.9936 16.9832L11.9965 16.0027Z" fill="#55ACA1"/>
<path d="M11.9965 16.0027C12.3321 16.0037 12.6861 16.01 13.0201 16.0016L13.0191 16.9836L11.9937 16.9832L11.9965 16.0027Z" fill="#21695F"/>
<path d="M10.0522 16.9842C10.2346 16.9805 10.8653 16.964 11.0174 16.9833C11.0153 17.1202 10.9782 17.8973 11.0582 17.9598L11.0302 17.9618C10.8308 17.9608 10.1924 17.971 10.0339 17.9429C10.0188 17.7736 10.0375 17.1559 10.0522 16.9842Z" fill="#55ACA1"/>
<path d="M11.0181 14.9795L11.9941 14.9804L11.9929 15.9871C11.4692 16.0264 10.5847 16.0111 10.04 16.0042C10.034 15.6628 10.0342 15.3214 10.0405 14.9801L11.0181 14.9795Z" fill="#55ACA1"/>
<path d="M7.05768 16.9851C7.37835 16.9853 7.72074 16.992 8.03947 16.9853C8.0311 17.3098 8.02733 17.6345 8.02814 17.9591C8.05301 18.3051 8.03085 18.6422 8.04222 18.9827C7.72071 18.9941 7.379 18.9874 7.05574 18.9858C7.05113 18.6445 7.05078 18.3031 7.05472 17.9618C7.06774 17.6642 7.05765 17.2864 7.05768 16.9851Z" fill="#55ACA1"/>
<path d="M7.03372 12.9937C7.31151 13.0253 7.75159 13.0199 8.03334 13.0189L9.01213 13.0243L9.01227 13.9959C8.80896 13.9971 7.12742 14.025 7.05476 13.9854C7.02239 13.7035 7.03358 13.2882 7.03372 12.9937Z" fill="#55ACA1"/>
<path d="M8.9882 14.9825C9.23828 14.976 9.79409 14.9629 10.0406 14.98C10.0343 15.3214 10.0342 15.6628 10.0402 16.0042C9.70845 15.9991 9.29524 15.9902 8.96802 16.0082C9.03798 15.948 9.0322 15.0731 8.9882 14.9825Z" fill="#55ACA1"/>
<path d="M6.03491 14.9838C6.36246 14.9778 6.70363 14.9824 7.03227 14.9822C7.08098 15.0893 7.06441 15.8027 7.03644 15.959C7.03157 15.9862 6.99802 15.9941 6.96623 16.0102C6.66413 16 6.34141 16.0066 6.03741 16.0082L6.03491 14.9838Z" fill="#55ACA1"/>
<path d="M6.02469 19.303C6.0359 19.2168 6.03544 19.0753 6.03791 18.9845L7.05582 18.9858C7.05468 19.2864 7.04177 19.671 7.05391 19.9646C6.85981 19.9662 6.20036 19.9855 6.04774 19.9629L6.01647 19.912C6.01497 19.706 6.01227 19.5092 6.02469 19.303Z" fill="#55ACA1"/>
<path d="M7.03211 14.9823C7.2731 14.9769 7.82029 14.9607 8.04033 14.9797C8.03311 15.3039 8.02353 15.6771 8.03968 16.0011C7.68834 16.0011 7.31517 15.9953 6.96606 16.0102C6.99785 15.9942 7.03141 15.9863 7.03628 15.959C7.06425 15.8028 7.08082 15.0893 7.03211 14.9823Z" fill="#55ACA1"/>
<path d="M8.04049 14.9797L8.98835 14.9826C9.03235 15.0731 9.03813 15.9481 8.96817 16.0082C8.65871 16.0095 8.34925 16.0072 8.03983 16.0011C8.02368 15.6771 8.03326 15.3039 8.04049 14.9797Z" fill="#55ACA1"/>
<path d="M6.03884 16.9692C6.35571 16.9859 6.73676 16.9812 7.0575 16.9851C7.05748 17.2864 7.06757 17.6642 7.05454 17.9618C6.77727 17.9602 6.30032 17.9536 6.03882 17.9812L6.03884 16.9692Z" fill="#55ACA1"/>
<path d="M8.03951 16.9853C8.34247 16.9778 8.71282 16.9735 9.01513 16.9849C9.01303 17.3029 9.00553 17.6428 9.0189 17.9585C8.79961 17.9781 8.25967 17.9675 8.02818 17.9591C8.02737 17.6345 8.03114 17.3098 8.03951 16.9853Z" fill="#55ACA1"/>
<path d="M16.9928 9.97583L17.0248 10.0382C17.3316 10.0298 17.6854 10.0325 17.9863 10.0092C17.9838 10.1322 17.9564 10.9784 17.9818 11.0184C18.3179 11.0121 18.6797 10.9991 19.0131 11.0153C19.0097 11.3022 19.016 11.7208 18.9817 11.9938C19.266 11.9908 19.7004 11.998 19.9763 11.9659C19.9711 12.3183 19.9713 12.6706 19.9771 13.0229C20.3076 13.0169 20.6419 13.0148 20.9714 12.9917C20.965 13.2309 20.9739 13.7838 20.9487 13.9833C21.0332 14.0166 21.8172 13.9846 21.9918 13.9974C21.9873 14.6552 22.0057 15.3951 21.9843 16.0404L21.9856 16.9691C21.8914 16.9927 21.1021 16.9865 20.9523 16.987L20.0085 16.9818L19.9698 16.9671C19.8506 16.9967 19.1544 16.9875 18.9942 16.9872C18.6543 16.9848 18.3145 16.9845 17.9747 16.9862L17.9556 16.9804L17.9567 16.0021C17.6353 16.0085 17.3139 16.009 16.9925 16.0037C16.8096 16.0049 16.1528 16.0177 16.0047 15.9898L16 16.0044L14.9783 16.0046C14.3256 16.007 13.6729 16.006 13.0202 16.0017C12.6861 16.0101 12.3322 16.0038 11.9966 16.0028L11.9931 15.9871L11.9943 14.9805C12.0029 14.6782 11.9949 14.3364 11.9948 14.0309L11.9854 14.0037C12.0056 13.9271 11.9964 13.1563 11.9959 13.0217C11.9969 12.6804 11.9957 12.339 11.9922 11.9977C12.0234 11.8381 12.0121 11.2107 12.0104 11.0204C11.9744 10.8725 11.9942 10.3494 11.9944 10.17C11.9946 10.078 11.9983 10.0814 12.0502 10.0364C13.3519 10.0142 14.685 10.042 15.9925 10.0316L15.9984 10.0097C16.0979 10.0684 16.7026 10.0294 16.8445 10.0322C16.9269 10.0339 16.9426 10.0308 16.9928 9.97583Z" fill="#55ACA1"/>
<path d="M20.9484 13.9833C21.0329 14.0165 21.8169 13.9845 21.9915 13.9973C21.987 14.6552 22.0054 15.395 21.984 16.0403L21.9853 16.969C21.8911 16.9926 21.1018 16.9865 20.952 16.9869L20.0082 16.9818L19.9695 16.9671C19.8503 16.9967 19.1541 16.9875 18.9939 16.9871C18.654 16.9848 18.3142 16.9844 17.9744 16.9861L17.9553 16.9804L17.9564 16.002C17.635 16.0084 17.3136 16.0089 16.9922 16.0036C16.8093 16.0048 16.1525 16.0176 16.0044 15.9897L16.005 14.9802C16.3174 14.9796 16.6739 14.9877 16.9825 14.9776C17.1515 14.9785 17.8575 14.9687 17.9703 14.9993C18.0715 15.016 18.8534 14.9952 18.9819 14.9853C18.9797 14.8086 18.9653 14.1725 19.0076 14.0268L19.0584 14.0055C19.3408 13.9989 20.8064 14.0293 20.9484 13.9833Z" fill="#55ACA1"/>
<path d="M20.9489 13.9833C21.0334 14.0165 21.8174 13.9845 21.992 13.9973C21.9875 14.6552 22.0059 15.395 21.9845 16.0403L21.9621 16.0031C21.967 15.6625 21.9696 15.322 21.9699 14.9814C21.0404 14.9793 19.8973 14.9478 18.9824 14.9853C18.9802 14.8086 18.9658 14.1725 19.0081 14.0268L19.0589 14.0055C19.3413 13.9989 20.8069 14.0293 20.9489 13.9833Z" fill="#399488"/>
<path d="M20.9422 16.0035C21.2821 16.0068 21.622 16.0067 21.9619 16.0031L21.9842 16.0403L21.9855 16.969C21.8914 16.9926 21.1021 16.9865 20.9523 16.9869C20.9311 16.7818 20.9448 16.2423 20.9422 16.0035Z" fill="#399488"/>
<path d="M17.9567 16.0021C18.2868 16.0013 18.6609 15.9919 18.9875 16.0032C18.9877 16.2339 18.9729 16.7812 18.9941 16.9871C18.6543 16.9848 18.3145 16.9845 17.9747 16.9861L17.9556 16.9804L17.9567 16.0021Z" fill="#399488"/>
<path d="M19.9653 16.0017C20.2519 16.0011 20.6662 15.9875 20.9425 16.0036C20.9451 16.2423 20.9314 16.7819 20.9525 16.9869L20.0088 16.9818L19.97 16.9671C19.9454 16.7366 19.9629 16.2486 19.9653 16.0017Z" fill="#399488"/>
<path d="M18.9873 16.0031C19.2945 16.0097 19.6585 16.0148 19.9648 16.0016C19.9624 16.2485 19.9449 16.7365 19.9695 16.967C19.8504 16.9966 19.1542 16.9874 18.9939 16.9871C18.9726 16.7811 18.9875 16.2339 18.9873 16.0031Z" fill="#399488"/>
<path d="M13.0234 13.0229L14.9769 13.0224C15.3185 13.0261 15.6602 13.0267 16.0019 13.0242L16.0018 14.0017C16.0025 14.3196 15.9964 14.6647 16.0053 14.9803L16.0047 15.9898L16 16.0044L14.9783 16.0046C14.3256 16.007 13.6729 16.006 13.0202 16.0017C12.6861 16.0101 12.3322 16.0038 11.9966 16.0028L11.9931 15.9871L11.9943 14.9805C12.0029 14.6781 11.9949 14.3364 11.9948 14.0309L11.9854 14.0036C12.0056 13.9271 11.9964 13.1563 11.9959 13.0217C12.3202 13.0228 12.704 13.0341 13.0234 13.0229Z" fill="#399488"/>
<path d="M13.0234 13.0229L14.9769 13.0224C15.3185 13.0261 15.6602 13.0267 16.0019 13.0242L16.0018 14.0017C15.6325 14.0017 12.0732 13.9808 11.9948 14.0309L11.9854 14.0036C12.0056 13.9271 11.9964 13.1563 11.9959 13.0217C12.3202 13.0228 12.704 13.0341 13.0234 13.0229Z" fill="#55ACA1"/>
<path d="M13.0186 14.9775L14.9786 14.9776L14.9782 16.0045C14.3255 16.0069 13.6728 16.0059 13.0201 16.0016L13.0186 14.9775Z" fill="#21695F"/>
<path d="M17.9817 11.0184C18.3178 11.012 18.6796 10.9991 19.013 11.0153C19.0096 11.3022 19.016 11.7208 18.9817 11.9938C19.2659 11.9908 19.7003 11.998 19.9762 11.9659C19.971 12.3182 19.9713 12.6706 19.9771 13.0229C20.3076 13.0169 20.6418 13.0148 20.9713 12.9917C20.9649 13.2309 20.9739 13.7837 20.9486 13.9833C20.8066 14.0293 19.341 13.9989 19.0586 14.0055L19.0078 14.0268C18.9655 14.1726 18.98 14.8087 18.9821 14.9853C18.8536 14.9953 18.0717 15.0161 17.9705 14.9993C17.8577 14.9687 17.1517 14.9785 16.9827 14.9777C16.9821 14.6521 16.9835 14.3265 16.9869 14.001C17.0108 13.8535 17.0104 13.1522 16.9673 13.0189L16.9798 13.0093C16.9878 12.6821 16.9819 12.3285 16.9828 11.9992C17.3099 11.9958 17.6371 11.9951 17.9642 11.9969C17.9601 11.84 17.9302 11.1107 17.9817 11.0184Z" fill="#21695F"/>
<path d="M19.977 13.023C20.3075 13.017 20.6418 13.0149 20.9713 12.9917C20.9649 13.231 20.9738 13.7838 20.9486 13.9834C20.8066 14.0294 19.341 13.9989 19.0586 14.0055L18.9877 13.9806C18.9823 13.6659 18.9863 13.3394 18.9858 13.0236L19.977 13.023Z" fill="#55ACA1"/>
<path d="M17.9817 11.0184C18.3179 11.012 18.6797 10.9991 19.0131 11.0153C19.0097 11.3022 19.016 11.7208 18.9817 11.9938C18.6443 11.9952 18.3011 12 17.9642 11.9969C17.9602 11.84 17.9302 11.1107 17.9817 11.0184Z" fill="#55ACA1"/>
<path d="M18.9877 13.9806L19.0587 14.0055L19.0079 14.0268C18.9656 14.1726 18.98 14.8087 18.9822 14.9853C18.8537 14.9953 18.0717 15.0161 17.9706 14.9993C17.9483 14.7305 17.9611 14.2846 17.9619 14.0009C18.1137 14.0023 18.8907 14.0186 18.9877 13.9806Z" fill="#399488"/>
<path d="M16.9828 11.9992C17.3099 11.9959 17.637 11.9951 17.9642 11.997C17.9613 12.3345 17.9547 12.6812 17.9633 13.0179C17.8178 13.0208 17.084 13.0437 16.9797 13.0093C16.9878 12.6822 16.9819 12.3286 16.9828 11.9992Z" fill="#399488"/>
<path d="M17.9604 13.0231L18.986 13.0235C18.9865 13.3393 18.9825 13.6658 18.9879 13.9806C18.8908 14.0186 18.1138 14.0023 17.962 14.0009L17.9604 13.0231Z" fill="#124C44"/>
<path d="M16.9509 11.9969L16.9829 11.9991C16.9821 12.3285 16.988 12.6821 16.9799 13.0092L16.9674 13.0188C17.0105 13.1521 17.011 13.8535 16.9871 14.0009C16.9836 14.3265 16.9822 14.652 16.9828 14.9776C16.6743 14.9877 16.3178 14.9796 16.0054 14.9802C15.9965 14.6646 16.0026 14.3195 16.0019 14.0016L16.002 13.0241C15.6603 13.0266 15.3186 13.026 14.9769 13.0223C14.9794 12.6806 14.9791 12.339 14.9761 11.9974C15.2521 11.9974 15.7612 11.9809 16.0179 12.0003L16.0428 11.9949L16.9509 11.9969Z" fill="#399488"/>
<path d="M16.9505 11.997L16.9826 11.9992C16.9817 12.3286 16.9876 12.6822 16.9796 13.0093L16.9671 13.0189C16.6858 13.0337 16.295 13.0223 16.0053 13.0228C16.0024 12.8249 15.9849 12.1681 16.0175 12.0004L16.0425 11.995L16.9505 11.997Z" fill="#124C44"/>
<path d="M16.0019 14.0017C16.3285 14.001 16.6609 13.9971 16.987 14.001C16.9836 14.3265 16.9822 14.6521 16.9828 14.9776C16.6743 14.9878 16.3178 14.9796 16.0054 14.9802C15.9965 14.6646 16.0026 14.3196 16.0019 14.0017Z" fill="#F3FEFE"/>
<path d="M13.0566 11.9952L14.976 11.9975C14.979 12.3391 14.9792 12.6807 14.9768 13.0224L13.0233 13.023C13.0194 12.7986 13.0017 12.2023 13.0323 12.0023L13.0566 11.9952Z" fill="#124C44"/>
<path d="M17.0247 10.0382C17.3314 10.0298 17.6853 10.0325 17.9862 10.0092C17.9837 10.1322 17.9563 10.9784 17.9816 11.0184C17.9301 11.1107 17.9601 11.84 17.9641 11.9969C17.637 11.9951 17.3099 11.9958 16.9827 11.9992L16.9507 11.997C17.0019 11.917 16.9867 11.1799 16.992 11.0186C16.9771 10.868 16.9592 10.1231 17.0247 10.0382Z" fill="#55ACA1"/>
<path d="M13.0085 11.0247L15.0086 11.0237C14.9578 11.3563 15.0083 11.6869 14.9759 11.9973L13.0566 11.9951C12.9629 11.8858 13.0168 11.2011 13.0085 11.0247Z" fill="#55ACA1"/>
<path d="M11.9922 11.9977C12.2122 11.9976 12.8453 11.9814 13.0324 12.0022C13.0017 12.2022 13.0194 12.7985 13.0234 13.0229C12.7041 13.0341 12.3202 13.0227 11.9959 13.0217C11.997 12.6804 11.9957 12.339 11.9922 11.9977Z" fill="#399488"/>
<path d="M16.9925 9.97583L17.0245 10.0382C16.959 10.1231 16.9769 10.8681 16.9918 11.0186L15.9966 11.0196C16.0088 10.8413 16.0138 10.1896 15.9922 10.0316L15.9981 10.0097C16.0975 10.0684 16.7023 10.0294 16.8442 10.0322C16.9266 10.0339 16.9423 10.0308 16.9925 9.97583Z" fill="#399488"/>
<path d="M15.9968 11.0196L16.992 11.0186C16.9867 11.1798 17.002 11.917 16.9508 11.997L16.0427 11.995C15.9497 11.9276 15.9948 11.1634 15.9968 11.0196Z" fill="#55ACA1"/>
<path d="M20.9522 16.9869C21.102 16.9864 21.8913 16.9926 21.9855 16.969L21.9849 17.9094C21.9856 19.0779 21.9973 20.2629 21.9857 21.4294C21.9892 21.6188 21.9909 21.8109 21.9965 21.9999C21.6994 21.9587 21.2529 21.9697 20.9446 21.9725C20.6847 21.9706 20.2028 21.9597 19.9629 21.9923C19.9532 20.9149 19.9462 19.7707 19.9653 18.6955C19.9498 18.5256 19.962 18.1282 19.9677 17.9585C19.6726 17.9742 19.2967 17.9646 18.9955 17.9648C18.9774 17.6589 18.9862 17.2934 18.9941 16.9871C19.1543 16.9874 19.8505 16.9966 19.9697 16.967L20.0084 16.9817L20.9522 16.9869Z" fill="#399488"/>
<path d="M19.9697 16.967L20.0084 16.9817L20.9522 16.9869C20.9473 17.2068 20.9225 17.7504 20.9403 17.9405L20.9438 18.9852C20.6937 18.97 20.2618 18.9866 19.998 18.9882C19.9921 18.8735 19.9854 18.8085 19.9653 18.6955C19.9498 18.5256 19.962 18.1282 19.9677 17.9585C19.6726 17.9742 19.2967 17.9646 18.9955 17.9648C18.9774 17.6589 18.9862 17.2934 18.9941 16.9871C19.1543 16.9874 19.8505 16.9966 19.9697 16.967Z" fill="#55ACA1"/>
<path d="M19.9697 16.967L20.0084 16.9817C19.9251 17.0715 19.9653 17.7976 19.9677 17.9585C19.6726 17.9742 19.2967 17.9646 18.9955 17.9648C18.9774 17.6589 18.9862 17.2934 18.9941 16.9871C19.1543 16.9874 19.8505 16.9966 19.9697 16.967Z" fill="#55ACA1"/>
<path d="M21.962 20.947C21.964 21.0528 21.9479 21.3634 21.9858 21.4295C21.9892 21.6189 21.991 21.811 21.9966 22.0001C21.6995 21.9588 21.2529 21.9698 20.9446 21.9726C20.93 21.6791 20.945 21.2505 20.9458 20.9464L21.962 20.947Z" fill="#55ACA1"/>
<path d="M20.9521 16.9869C21.1019 16.9864 21.8912 16.9926 21.9853 16.969L21.9848 17.9094L21.9496 17.9531C21.7889 17.9591 21.0506 17.9731 20.9402 17.9405C20.9224 17.7504 20.9471 17.2068 20.9521 16.9869Z" fill="#55ACA1"/>
<path d="M21.9629 18.9903L21.9609 19.9694L20.9467 19.9674C20.9415 19.6433 20.9446 19.3101 20.9438 18.9852C21.2835 18.9896 21.6232 18.9913 21.9629 18.9903Z" fill="#55ACA1"/>
<path d="M19.9744 19.9664L20.9466 19.9675C20.9363 20.2791 20.9427 20.6229 20.9425 20.937L19.9931 20.9471C19.9752 20.624 19.9909 20.2968 19.9744 19.9664Z" fill="#55ACA1"/>
<path d="M16.0045 15.9897C16.1526 16.0176 16.8094 16.0048 16.9923 16.0037C17.3137 16.0089 17.6351 16.0084 17.9565 16.0021L17.9554 16.9804L17.9745 16.9862C17.9351 17.2138 17.9732 17.7041 17.9612 17.9568C17.6348 17.9557 17.3085 17.9579 16.9821 17.9633L16.9183 17.9627C16.272 17.9603 15.6256 17.9616 14.9793 17.9666L13.0196 17.9639L13.019 16.9836L13.02 16.0017C13.6727 16.006 14.3254 16.0069 14.9781 16.0045L15.9998 16.0044L16.0045 15.9897Z" fill="#55ACA1"/>
<path d="M13.02 16.0016C13.6727 16.0059 14.3254 16.0069 14.9781 16.0045C14.9756 16.3246 14.9672 16.6654 14.9735 16.9838C14.9776 17.3068 14.9707 17.648 14.9793 17.9666L13.0196 17.9638L13.019 16.9836L13.02 16.0016Z" fill="#124C44"/>
<path d="M16.0047 15.9897C16.1528 16.0176 16.8096 16.0048 16.9924 16.0037C17.3138 16.0089 17.6353 16.0084 17.9567 16.0021L17.9556 16.9804C17.8363 16.9971 17.1743 16.9855 16.9934 16.9883C16.7092 16.9717 16.3037 16.9871 16.0024 16.9831C16.0033 16.6568 16.0025 16.3306 16 16.0044L16.0047 15.9897Z" fill="#399488"/>
<path d="M16.9922 16.0037C17.3136 16.0089 17.6351 16.0084 17.9565 16.0021L17.9554 16.9804C17.8361 16.9971 17.1741 16.9855 16.9932 16.9883C16.9666 16.7683 16.9867 16.2338 16.9922 16.0037Z" fill="#399488"/>
<path d="M14.9781 16.0046L15.9998 16.0044C16.0023 16.3306 16.0031 16.6568 16.0023 16.9831L14.9735 16.9839C14.9672 16.6655 14.9756 16.3247 14.9781 16.0046Z" fill="#21695F"/>
<path d="M17.9558 16.9803L17.9749 16.9861C17.9355 17.2138 17.9736 17.7041 17.9616 17.9568C17.6352 17.9557 17.3088 17.9579 16.9825 17.9633L16.9187 17.9626L16.957 17.9392C17.0095 17.8507 16.9799 17.173 16.9936 16.9883C17.1745 16.9855 17.8365 16.997 17.9558 16.9803Z" fill="#55ACA1"/>
<path d="M17.9746 16.9862C18.3144 16.9845 18.6543 16.9848 18.9941 16.9871C18.9862 17.2935 18.9774 17.659 18.9955 17.9649C18.9935 18.0051 18.9892 18.0571 18.9903 18.0961C19.0157 18.4918 18.9989 18.9315 19.0032 19.3315C19.0128 20.2145 18.9863 21.1165 19.0111 21.9984C18.733 21.9604 18.248 21.9706 17.954 21.9715C17.7118 21.9694 17.204 21.9583 16.981 21.9933C16.9776 21.7657 16.9747 21.5496 16.9819 21.3216C16.9626 20.966 16.9772 20.4743 16.9771 20.1106C16.9745 19.3948 16.9762 18.6791 16.9823 17.9633C17.3086 17.9579 17.635 17.9557 17.9613 17.9568C17.9733 17.7041 17.9352 17.2138 17.9746 16.9862Z" fill="#399488"/>
<path d="M16.9823 17.9633C17.3086 17.9579 17.635 17.9557 17.9613 17.9568L17.9629 18.9869C17.9609 19.3101 17.955 19.6427 17.9597 19.965L17.9627 20.944C17.9606 21.2752 17.9664 21.6433 17.954 21.9715C17.7118 21.9694 17.204 21.9583 16.981 21.9933C16.9776 21.7657 16.9747 21.5496 16.9819 21.3216C16.9626 20.966 16.9772 20.4743 16.9771 20.1106C16.9745 19.3948 16.9762 18.6791 16.9823 17.9633Z" fill="#399488"/>
<path d="M17.9625 20.944C17.9605 21.2752 17.9662 21.6433 17.9538 21.9714C17.7117 21.9694 17.2038 21.9582 16.9809 21.9932C16.9774 21.7656 16.9746 21.5496 16.9817 21.3215C17.0062 21.2259 17.0039 21.0529 17.0064 20.9486L17.9625 20.944Z" fill="#55ACA1"/>
<path d="M17.9629 18.9868C17.9608 19.31 17.9549 19.6426 17.9596 19.965C17.6433 19.9635 17.3269 19.9671 17.0107 19.9757C16.9918 19.6655 17.0025 19.3047 17.0056 18.9896L17.9629 18.9868Z" fill="#55ACA1"/>
<path d="M17.9745 16.9862C18.3143 16.9845 18.6541 16.9848 18.9939 16.9871C18.986 17.2935 18.9772 17.659 18.9953 17.9649C18.9933 18.0051 18.989 18.0571 18.9901 18.0961C18.968 18.3456 18.9785 18.7226 18.9796 18.9839L17.9628 18.9869L17.9611 17.9568C17.9731 17.7041 17.935 17.2138 17.9745 16.9862Z" fill="#55ACA1"/>
<path d="M18.9797 19.969L18.9791 20.9414L17.9625 20.9441L17.9595 19.9651L18.9797 19.969Z" fill="#55ACA1"/>
<path d="M13.0008 6.00126C13.5015 6.05267 14.4998 6.03659 15.0067 6C14.9973 6.2941 15.0113 6.79454 14.9752 7.05655C15.3144 7.02836 15.6805 7.05026 16.0308 7.02877C16.0209 7.36086 16.0202 7.69314 16.0288 8.02525C16.2887 8.02527 16.7423 8.0383 16.9918 8.01984C16.9838 8.63848 16.9731 9.36164 16.9926 9.97579C16.9424 10.0307 16.9267 10.0339 16.8443 10.0322C16.7024 10.0294 16.0977 10.0684 15.9982 10.0096C15.9629 9.44713 15.9985 8.63555 15.9971 8.04925C15.6562 8.04201 15.3152 8.03795 14.9742 8.03709L13.023 8.03977C13.0141 7.71304 13.022 7.37823 13.015 7.04809C12.9978 6.70808 12.9972 6.34174 13.0008 6.00126Z" fill="#55ACA1"/>
<path d="M13.0151 7.0481C13.6067 7.07937 14.3783 7.05707 14.9811 7.05315C14.9797 7.31244 14.9932 7.79677 14.9743 8.03709L13.0232 8.03977C13.0143 7.71304 13.0221 7.37823 13.0151 7.0481Z" fill="#F3FEFE"/>
<path d="M11.9747 7.02905C12.2777 7.06 12.7094 7.05031 13.015 7.04809C13.022 7.37822 13.0142 7.71304 13.0231 8.03977C12.6797 8.03904 12.3363 8.04065 11.993 8.04461C12.0191 8.36055 12.0293 9.70711 11.9946 10.0302L12.05 10.0363C11.9981 10.0814 11.9944 10.078 11.9943 10.17C11.994 10.3494 11.9742 10.8725 12.0102 11.0204C11.6917 11.0154 11.3732 11.0171 11.0548 11.0254C11.0532 11.0246 11.0515 11.024 11.0501 11.0227C10.9755 10.9513 11.0111 10.1892 11.0117 10.0356C11.0103 9.65642 11.0048 9.26926 11.0164 8.89101C11 8.74375 11.0115 8.20877 11.0091 8.02588C11.3417 8.02539 11.6652 8.02683 11.9975 8.00914C11.9735 7.66641 11.9718 7.37042 11.9747 7.02905Z" fill="#55ACA1"/>
<path d="M11.0164 8.89099C11.0532 9.16827 11.0325 9.73163 11.0386 10.0366C11.3497 10.036 11.6857 10.0411 11.9946 10.0301L12.05 10.0363C11.9981 10.0813 11.9944 10.078 11.9943 10.17C11.994 10.3493 11.9742 10.8725 12.0102 11.0204C11.6917 11.0154 11.3732 11.0171 11.0548 11.0254C11.0532 11.0245 11.0515 11.024 11.0501 11.0227C10.9755 10.9512 11.0111 10.1891 11.0117 10.0356C11.0103 9.6564 11.0048 9.26925 11.0164 8.89099Z" fill="#399488"/>
</g>
<rect x="0.25" y="0.25" width="27.5" height="27.5" rx="5.75" stroke="url(#paint1_linear_10296_2349)" stroke-width="0.5"/>
<defs>
<filter id="filter0_f_10296_2349" x="-1.1" y="-1.1" width="30.2" height="30.2" filterUnits="userSpaceOnUse" color-interpolation-filters="sRGB">
<feFlood flood-opacity="0" result="BackgroundImageFix"/>
<feBlend mode="normal" in="SourceGraphic" in2="BackgroundImageFix" result="shape"/>
<feGaussianBlur stdDeviation="4.55" result="effect1_foregroundBlur_10296_2349"/>
</filter>
<linearGradient id="paint0_linear_10296_2349" x1="14" y1="0" x2="14" y2="28" gradientUnits="userSpaceOnUse">
<stop stop-color="#282C3E"/>
<stop offset="1" stop-color="#181822"/>
</linearGradient>
<linearGradient id="paint1_linear_10296_2349" x1="14" y1="0" x2="14" y2="30.9167" gradientUnits="userSpaceOnUse">
<stop stop-color="#21695F"/>
<stop offset="1" stop-color="#21695F" stop-opacity="0"/>
</linearGradient>
<clipPath id="clip0_10296_2349">
<rect width="28" height="28" rx="6" fill="white"/>
</clipPath>
</defs>
</svg>
