<svg width="28" height="28" viewBox="0 0 28 28" fill="none" xmlns="http://www.w3.org/2000/svg">
<g clip-path="url(#clip0_10296_2490)">
<rect width="28" height="28" rx="6" fill="url(#paint0_linear_10296_2490)"/>
<g filter="url(#filter0_f_10296_2490)">
<circle cx="14" cy="14" r="6" fill="#04030D"/>
</g>
<path d="M17.9743 13.0066C18.3072 13.0061 18.6821 13.016 19.0092 12.9821C19.0082 13.3129 19.0128 13.6618 19.0047 13.9911C19.3307 13.9872 19.6567 13.9866 19.9827 13.9891C19.9611 13.6826 19.9781 13.3309 19.9643 13.0119C20.1948 13.0109 20.7316 12.9958 20.9372 13.0206C20.9684 13.0807 20.9643 13.1136 20.9651 13.1798C20.9429 14.0372 20.9385 15.1433 20.9604 16.0002C20.9639 16.3881 20.9728 16.7916 20.9641 17.1782C20.9579 17.4403 20.9569 17.7025 20.9611 17.9646C20.9639 18.1156 20.9854 18.989 20.9658 19.1067C20.9599 19.396 20.9573 19.6853 20.9581 19.9746C21.3053 19.969 21.6526 19.9678 21.9998 19.9711C21.976 20.2453 21.9816 20.6684 21.9884 20.9511C21.9877 21.2593 21.9734 21.7025 21.9925 22C21.4035 21.9617 20.575 21.9853 19.9704 21.9877L18.9957 21.9871C18.338 21.9751 17.6459 21.9868 16.9856 21.9877L16.0068 21.9872C14.6901 21.9655 13.3143 21.9862 11.9939 21.9875C11.6747 21.9821 11.3419 21.9869 11.0216 21.9868C10.3565 21.978 9.67234 21.9868 9.00576 21.9874C8.68488 21.9836 8.35775 21.9868 8.03631 21.9868C7.41744 21.9838 6.62232 21.9629 6.0184 21.9976L6.01378 21.044C5.98231 20.8871 6.0143 20.1864 6.0163 19.9803C6.02085 19.6554 6.02361 19.3128 6.00511 18.9893C6.3446 18.9963 6.69546 18.9925 7.03659 18.9951C7.04979 18.9295 7.0475 18.5276 7.04755 18.4364C7.04809 17.9813 7.04561 17.5262 7.04011 17.0711C7.00978 16.9285 7.04074 16.1999 7.04274 16.0042C7.05077 15.6593 7.04725 15.3142 7.0322 14.9694C7.35501 14.9779 7.70354 14.9718 8.02829 14.972L9.00664 14.9748L9.02664 14.9708C9.00065 14.889 9.00415 14.1385 9.00163 13.9849C9.65155 13.9893 10.3015 13.989 10.9514 13.984C11.1834 13.9666 11.7736 13.9777 12.0206 13.9875C12.0179 14.1548 11.9967 14.8479 12.0128 14.9731L13.0002 14.973C13.0404 14.9144 13.0161 13.3014 13.0125 13.0731L13.0338 13.025C13.1797 12.9935 13.8266 13.0103 14.0012 13.0202C14.0015 13.1244 13.9976 13.272 14.0077 13.3725C14.0186 13.5348 14.0095 13.8202 14.0098 13.9922L14.9803 13.9831C14.9789 13.6612 14.9827 13.3242 14.9633 13.0044C15.879 13.0402 17.0463 13.0092 17.9743 13.0066Z" fill="#5B5A5F"/>
<path d="M10.9515 13.984C11.1835 13.9665 11.7737 13.9777 12.0206 13.9875C12.0179 14.1548 11.9967 14.8479 12.0129 14.9731L13.0002 14.973C13.0406 15.0558 13.0291 15.9082 12.9738 15.9962C13.0135 16.0294 13.0164 16.0211 13.0184 16.0889C13.0267 16.3825 13.0215 16.6888 13.022 16.9826L10.0341 16.9851L10.0364 17.9651L9.0111 17.9648C9.0112 17.3344 9.02702 16.627 9.00663 16.0029C8.6833 16.0057 8.35267 16.001 8.02869 16C7.70212 15.9972 7.36983 16.0022 7.04277 16.0042C7.0508 15.6593 7.04727 15.3141 7.03223 14.9694C7.35504 14.9779 7.70356 14.9717 8.02831 14.972L9.00667 14.9747L9.02667 14.9708C9.00068 14.889 9.00418 14.1384 9.00166 13.9849C9.65158 13.9893 10.3015 13.989 10.9515 13.984Z" fill="#1F4410"/>
<path d="M10.9518 13.984C11.1838 13.9665 11.774 13.9777 12.0209 13.9875C12.0182 14.1548 11.997 14.8479 12.0132 14.9731L11.997 14.9788C11.8029 14.9512 11.232 14.971 11.0183 14.9742L11.0137 14.958C10.816 14.9974 10.2689 14.9595 10.0378 14.9718C9.70087 14.9748 9.36389 14.9744 9.02696 14.9708C9.00097 14.889 9.00447 14.1384 9.00195 13.9849C9.65187 13.9893 10.3018 13.989 10.9518 13.984Z" fill="#906151"/>
<path d="M10.9512 13.984C11.1832 13.9665 11.7734 13.9777 12.0203 13.9875C12.0176 14.1548 11.9964 14.8479 12.0126 14.9731L11.9964 14.9788C11.8023 14.9512 11.2314 14.971 11.0177 14.9742L11.0131 14.958C11.0148 14.8076 11.0313 14.1071 11.0026 14.0044L10.9512 13.984Z" fill="#245D05"/>
<path d="M12.0125 14.9731L12.9999 14.973C13.0402 15.0558 13.0288 15.9082 12.9734 15.9963C12.7273 16.0161 12.2584 16.0028 11.9956 16.0035L11.9964 14.9789L12.0125 14.9731Z" fill="#5B5A5F"/>
<path d="M11.0137 14.958L11.0182 14.9742L11.0166 16.002L10.0361 16.0031L10.0377 14.9718C10.2688 14.9595 10.816 14.9973 11.0137 14.958Z" fill="#5B5A5F"/>
<path d="M7.03223 14.9695C7.35504 14.978 7.70356 14.9718 8.02831 14.9721L8.02869 16.0001C7.70212 15.9973 7.36983 16.0023 7.04277 16.0043C7.0508 15.6593 7.04727 15.3142 7.03223 14.9695Z" fill="#5B5A5F"/>
<path d="M8.02832 14.972L9.00668 14.9748L9.00663 16.0029C8.6833 16.0057 8.35267 16.001 8.02869 16L8.02832 14.972Z" fill="#245D05"/>
<path d="M17.9747 13.0066C18.3076 13.0061 18.6825 13.016 19.0096 12.9821C19.0086 13.3129 19.0132 13.6618 19.0051 13.9911C19.3311 13.9872 19.6571 13.9866 19.9831 13.9891C19.9615 13.6826 19.9785 13.3309 19.9647 13.0119C20.1951 13.0109 20.732 12.9958 20.9376 13.0206C20.9688 13.0807 20.9646 13.1136 20.9655 13.1798C20.9433 14.0372 20.9389 15.1433 20.9608 16.0002L19.9788 16.0011L18.9937 16.0043L18.9762 15.9968C18.6461 15.9901 18.3042 16.0003 17.9698 15.9961C17.9633 15.6638 17.9716 15.3075 17.9736 14.9734C17.9611 14.6556 17.9682 14.3108 17.9697 13.9905C17.9685 13.6625 17.9701 13.3345 17.9747 13.0066Z" fill="#5B5A5F"/>
<path d="M17.9735 14.9734L18.9948 14.9729C18.9939 15.1449 19.0063 15.9109 18.9762 15.9967C18.646 15.9901 18.3041 16.0003 17.9697 15.9961C17.9632 15.6638 17.9715 15.3074 17.9735 14.9734Z" fill="#245D05"/>
<path d="M17.9747 13.0066C18.3076 13.0061 18.6825 13.016 19.0095 12.9821C19.0085 13.3129 19.0131 13.6618 19.005 13.9911L17.9696 13.9905C17.9684 13.6625 17.9701 13.3345 17.9747 13.0066Z" fill="#1F4410"/>
<path d="M18.9942 14.9729C19.313 14.9727 19.6583 14.9792 19.9748 14.9707C19.9744 15.3037 19.9668 15.6709 19.9781 16.0011L18.993 16.0043L18.9756 15.9968C19.0057 15.9109 18.9933 15.1449 18.9942 14.9729Z" fill="#1F4410"/>
<path d="M17.9695 15.9961C18.3039 16.0002 18.6458 15.9901 18.9759 15.9967L18.9934 16.0042C18.9935 16.328 18.9899 16.6596 18.9946 16.9827L17.966 16.985C17.9667 17.3095 17.9638 17.641 17.9688 17.9648L16.9928 17.9649C16.6727 17.9663 16.3259 17.9735 16.0086 17.9577C15.9136 17.9355 15.1128 17.9553 14.9852 17.963C14.7132 17.98 14.2878 17.9666 14.0042 17.9667L14.0039 16.9799C14.3269 16.9848 14.6609 16.9806 14.9848 16.9809C14.9762 16.6644 14.9829 16.3191 14.9831 16.0004C15.8915 16.0036 17.0701 16.034 17.9695 15.9961Z" fill="#1F4410"/>
<path d="M16.0068 16.9833C16.3338 16.9841 16.6649 16.9821 16.9915 16.9864C16.9904 17.3094 16.9854 17.643 16.9929 17.9649C16.6728 17.9663 16.3259 17.9735 16.0086 17.9577L16.0068 16.9833Z" fill="#5B5A5F"/>
<path d="M6.00511 18.9894C6.3446 18.9964 6.69546 18.9925 7.03659 18.9952L7.05152 19.0005C7.05056 19.3206 7.04445 19.6555 7.04956 19.9745L8.01476 19.9776L8.02959 19.9717C8.35243 19.9819 8.70739 19.9553 9.0083 19.9681C9.00804 20.2512 8.99617 20.6698 9.0178 20.9418L9.02433 20.9537C8.99048 21.152 9.01082 21.7529 9.00576 21.9874C8.68488 21.9836 8.35775 21.9869 8.03631 21.9868C7.41744 21.9839 6.62232 21.9629 6.0184 21.9976L6.01378 21.0441C5.98231 20.8872 6.0143 20.1864 6.0163 19.9803C6.02085 19.6554 6.02361 19.3128 6.00511 18.9894Z" fill="#7D7A72"/>
<path d="M6.00511 18.9894C6.3446 18.9964 6.69546 18.9925 7.03659 18.9952L7.05152 19.0005C7.05056 19.3206 7.04445 19.6555 7.04956 19.9745L7.05072 20.958C6.8691 20.9561 6.18241 20.9379 6.03702 20.9754C6.02127 21.0083 6.0178 21.0079 6.01378 21.0441C5.98231 20.8872 6.0143 20.1864 6.0163 19.9803C6.02085 19.6554 6.02361 19.3128 6.00511 18.9894Z" fill="#1F4410"/>
<path d="M6.00537 18.9894C6.34487 18.9964 6.69572 18.9925 7.03685 18.9952L7.05178 19.0005C7.05083 19.3206 7.04471 19.6555 7.04982 19.9745L6.01657 19.9803C6.02112 19.6554 6.02387 19.3128 6.00537 18.9894Z" fill="#5B5A5F"/>
<path d="M9.01795 20.9418L9.02448 20.9537C8.99063 21.1521 9.01097 21.7529 9.00591 21.9874C8.68503 21.9836 8.3579 21.9869 8.03647 21.9868C8.01811 21.6913 8.02949 21.2623 8.02816 20.9568C8.34687 20.9562 8.70272 20.961 9.01795 20.9418Z" fill="#5B5A5F"/>
<path d="M8.02949 19.9716C8.35232 19.9818 8.70729 19.9552 9.00819 19.9681C9.00794 20.2512 8.99606 20.6697 9.01769 20.9417C8.70246 20.961 8.34661 20.9562 8.0279 20.9568C8.02347 20.7608 8.05408 20.1333 8.01465 19.9776L8.02949 19.9716Z" fill="#906151"/>
<path d="M14.0029 19.9739C14.3226 19.9738 14.665 19.9802 14.9826 19.9731L14.9794 20.9616C15.1338 20.9596 15.9092 20.935 16.006 20.9787L16.0066 21.9872C14.6899 21.9655 13.3141 21.9862 11.9937 21.9874L11.9988 20.9549H13.0248C13.0126 20.6565 13.0224 20.2817 13.0214 19.977L14.0029 19.9739Z" fill="#7D7A72"/>
<path d="M13.0219 19.977L14.0033 19.9739L14.0027 20.9588C13.6791 20.9577 13.348 20.9603 13.0252 20.9549C13.013 20.6565 13.0228 20.2817 13.0219 19.977Z" fill="#1F4410"/>
<path d="M20.9582 19.9747C21.3054 19.9691 21.6527 19.9679 21.9999 19.9711C21.9761 20.2454 21.9817 20.6685 21.9885 20.9512C21.9879 21.2594 21.9736 21.7026 21.9926 22.0001C21.4036 21.9617 20.5751 21.9854 19.9706 21.9877L18.9958 21.9872L18.9951 20.9566L19.9763 20.954C19.9741 20.6265 19.9747 20.299 19.978 19.9716L20.9582 19.9747Z" fill="#7D7A72"/>
<path d="M20.9584 19.9747C21.3056 19.9691 21.6529 19.9679 22.0002 19.9711C21.9764 20.2454 21.9819 20.6685 21.9888 20.9512C21.6762 20.9683 21.2734 20.9583 20.9541 20.9591L20.9584 19.9747Z" fill="#5B5A5F"/>
<path d="M18.9951 20.9564L19.9763 20.9539C19.9746 21.2935 19.9785 21.6494 19.9706 21.9876L18.9958 21.9871L18.9951 20.9564Z" fill="#5B5A5F"/>
<path d="M9.02449 20.9536C9.36172 20.9608 9.69907 20.9622 10.0364 20.9578L11.0121 20.9582C11.0139 21.2578 11.0025 21.6989 11.0218 21.9868C10.3567 21.9779 9.67249 21.9868 9.00592 21.9873C9.01098 21.7528 8.99063 21.152 9.02449 20.9536Z" fill="#7D7A72"/>
<path d="M17.9694 20.9564C18.3005 20.9568 18.6671 20.9654 18.9952 20.9565L18.9959 21.9872C18.3383 21.9751 17.6462 21.9869 16.9858 21.9877C16.9924 21.6496 16.9897 21.3009 16.9914 20.9619C17.2742 20.9465 17.6771 20.9576 17.9694 20.9564Z" fill="#7D7A72"/>
<path d="M14.985 17.963C15.1126 17.9553 15.9133 17.9355 16.0083 17.9577C16.0093 18.2971 16.0049 18.6509 16.0116 18.989C15.7376 19.0096 15.2703 18.9942 14.9819 18.9923L14.985 17.963Z" fill="#245D05"/>
<path d="M16.003 19.972C16.0045 20.3043 16.0105 20.6473 16.0061 20.9787C15.9093 20.935 15.1339 20.9596 14.9795 20.9616L14.9827 19.9731C15.3228 19.9697 15.6629 19.9693 16.003 19.972Z" fill="#6F6C6C"/>
<path d="M19.9815 17.9649C20.2997 17.9653 20.6453 17.9726 20.9612 17.9646C20.964 18.1156 20.9855 18.989 20.9659 19.1067C20.9642 19.0562 20.9637 19.0588 20.9388 19.014C20.7812 18.969 20.1762 18.9915 19.9842 18.9948C19.9758 18.6654 19.969 18.2919 19.9815 17.9649Z" fill="#1F4410"/>
<path d="M17.9694 19.9791L18.9957 19.9763L18.9951 20.9565C18.6669 20.9654 18.3004 20.9568 17.9692 20.9564L17.9694 19.9791Z" fill="#1F4410"/>
<path d="M16.0084 17.9578C16.3257 17.9736 16.6725 17.9664 16.9926 17.965C16.9873 18.3063 16.9871 18.6477 16.9922 18.9891C16.6724 18.991 16.3294 18.9987 16.0116 18.9891C16.0049 18.651 16.0093 18.2971 16.0084 17.9578Z" fill="#906151"/>
<path d="M18.9964 17.9644C19.3189 17.9708 19.6575 17.9653 19.9813 17.965C19.9688 18.292 19.9756 18.6654 19.984 18.9949L18.9946 18.9924L18.9964 17.9644Z" fill="#245D05"/>
<path d="M9.00837 19.9681C9.3263 19.9871 9.714 19.9732 10.0377 19.9727L10.0363 20.9579C9.69897 20.9623 9.36162 20.9609 9.02439 20.9537L9.01786 20.9418C8.99623 20.6698 9.00811 20.2513 9.00837 19.9681Z" fill="#245D05"/>
<path d="M19.9788 16.0012L20.9608 16.0002C20.9642 16.3882 20.9732 16.7916 20.9644 17.1782C20.963 17.0969 20.9623 17.0783 20.9426 16.9973C20.8685 16.9677 20.1017 16.9809 19.9782 16.9811C19.9734 16.6586 19.9783 16.3247 19.9788 16.0012Z" fill="#1F4410"/>
<path d="M16.9897 19.9762L17.9695 19.9791L17.9693 20.9564C17.6771 20.9576 17.2742 20.9465 16.9914 20.9619C16.9855 20.6379 16.9899 20.3012 16.9897 19.9762Z" fill="#6F6C6C"/>
<path d="M7.04274 16.0042C7.3698 16.0022 7.70209 15.9972 8.02866 16L8.03097 16.984C7.85322 16.9812 7.20306 16.9604 7.06336 17.0004C7.04785 17.034 7.04412 17.0343 7.0401 17.0711C7.00977 16.9284 7.04073 16.1999 7.04274 16.0042Z" fill="#1F4410"/>
<path d="M11.0179 18.9906C11.3416 18.991 11.6745 18.9957 11.9973 18.9913C11.9977 19.3069 11.9898 19.6645 12.0003 19.9765C11.852 19.9767 11.1021 19.9888 11.0146 19.9594L11.0179 18.9906Z" fill="#906151"/>
<path d="M16.9908 18.9922C17.3169 18.9962 17.643 18.9962 17.9691 18.9922C17.9684 19.3106 17.9601 19.6635 17.9693 19.9791L16.9895 19.9761C16.9816 19.6482 16.9821 19.3201 16.9908 18.9922Z" fill="#245D05"/>
<path d="M18.9957 19.9763C19.3001 19.9642 19.6684 19.9728 19.978 19.9715C19.9747 20.299 19.9741 20.6264 19.9763 20.9539L18.9951 20.9565L18.9957 19.9763Z" fill="#906151"/>
<path d="M7.05134 19.0005C7.37763 18.9923 7.70812 19.0004 8.02953 18.9913C8.0296 19.3044 8.03872 19.6626 8.02941 19.9717L8.01458 19.9776L7.04938 19.9745C7.04427 19.6556 7.05038 19.3207 7.05134 19.0005Z" fill="#245D05"/>
<path d="M10.0375 19.9727C10.3611 19.9757 10.6847 19.9762 11.0083 19.974C11.0082 20.2709 10.9971 20.6663 11.0118 20.9583L10.0361 20.9579L10.0375 19.9727Z" fill="#5B5A5F"/>
<path d="M10.039 18.9931C10.3651 18.9967 10.6913 18.9959 11.0175 18.9906L11.0142 19.9594L11.0084 19.974C10.6848 19.9761 10.3612 19.9757 10.0376 19.9726L10.039 18.9931Z" fill="#1F4410"/>
<path d="M16.9897 13.991C17.3116 13.996 17.6464 13.9909 17.9693 13.9906C17.9678 14.3109 17.9607 14.6556 17.9732 14.9734L16.9908 14.9744L16.9897 13.991Z" fill="#1F4410"/>
<path d="M11.999 17.9643C12.3404 17.9667 12.6818 17.9664 13.0232 17.9631L13.0221 18.9949L11.9997 18.9938C11.9945 18.6507 11.9942 18.3074 11.999 17.9643Z" fill="#245D05"/>
<path d="M14.9839 13.9931L16.0092 13.9911C16.0042 14.3155 16.0084 14.6497 16.0084 14.9749L14.984 14.9754L14.9839 13.9931Z" fill="#1F4410"/>
<path d="M18.9943 7.02263C19.3108 7.01847 19.6644 7.01842 19.9796 7C19.9805 7.16173 19.9935 7.68393 19.9774 7.81728C19.99 7.89304 19.9849 7.94212 20.0276 7.99458C20.3083 8.02686 20.6809 7.99107 20.9767 8.004C20.9735 8.26255 20.9877 8.94895 20.9645 9.16662C20.9496 9.74274 20.9479 10.4217 20.962 10.9982C20.6291 10.9999 20.2962 10.9996 19.9633 10.9974C19.9827 10.7254 19.9719 10.2988 19.9735 10.0151C19.6762 10.0327 19.3087 10.0152 18.9914 10.0268C18.9893 9.67927 18.9859 9.33767 18.997 8.99032L17.9703 8.99395C17.6627 8.98658 17.3243 8.99437 17.0143 8.99509C16.6855 8.98752 16.3336 8.9935 16.0029 8.99317C16.0103 8.66882 16.008 8.33326 16.0101 8.00795C16.0059 7.67757 16.0056 7.34714 16.0092 7.01676C16.6621 7.02431 17.315 7.02627 17.9679 7.02263C18.3061 7.02319 18.6573 7.02866 18.9943 7.02263Z" fill="#5B5A5F"/>
<path d="M16.0092 7.01672C16.6621 7.02427 17.315 7.02624 17.9679 7.02259L17.9653 8.0077C17.9703 8.3274 17.9589 8.68277 17.9703 8.99391C17.6627 8.98655 17.3243 8.99433 17.0143 8.99505C16.6855 8.98748 16.3336 8.99347 16.0029 8.99314C16.0103 8.66879 16.008 8.33322 16.0101 8.00791C16.0059 7.67753 16.0056 7.3471 16.0092 7.01672Z" fill="#906151"/>
<path d="M16.0101 8.0079L16.9977 8.00858L17.9653 8.00769C17.9703 8.32739 17.9589 8.68276 17.9703 8.9939C17.6627 8.98654 17.3243 8.99432 17.0143 8.99504C16.6855 8.98747 16.3336 8.99346 16.0029 8.99313C16.0103 8.66878 16.008 8.33321 16.0101 8.0079Z" fill="#245D05"/>
<path d="M17.9654 8.00769C17.9705 8.32739 17.959 8.68276 17.9705 8.9939C17.6629 8.98654 17.3245 8.99432 17.0145 8.99504C16.9691 8.82941 16.9878 8.19943 16.9979 8.00858L17.9654 8.00769Z" fill="#1F4410"/>
<path d="M19.978 7.81726C19.9905 7.89302 19.9854 7.94211 20.0281 7.99456C20.3089 8.02684 20.6814 7.99105 20.9772 8.00398C20.974 8.26253 20.9883 8.94893 20.9651 9.1666C20.9637 9.10105 20.968 9.05963 20.9368 9.0008C20.7232 8.97581 20.2113 8.99084 19.9754 8.99201C19.9764 8.67692 19.9847 8.32155 19.9709 8.01008C19.9668 7.95816 19.9747 7.87196 19.978 7.81726Z" fill="#1F4410"/>
<path d="M18.9947 7.02263C19.3112 7.01847 19.6648 7.01842 19.98 7C19.9809 7.16173 19.9939 7.68393 19.9778 7.81728C19.9745 7.87198 19.9666 7.95818 19.9707 8.0101L18.9932 8.00453L18.9947 7.02263Z" fill="#245D05"/>
<path d="M14.985 7.02238L16.0098 7.01672C16.0062 7.3471 16.0065 7.67753 16.0107 8.00791C16.0086 8.33322 16.0109 8.66879 16.0036 8.99314C15.6746 8.98316 15.3141 8.98923 14.9827 8.98814C15.0136 9.29285 14.9968 9.72367 15.0007 10.0436C14.8836 10.0298 14.06 10.0028 14.0068 10.0388C14.009 10.2766 14.0154 10.5266 14.0061 10.7632C14.0025 10.8184 14.0014 10.9509 13.9748 10.9895C13.7051 11.0212 13.2987 10.9938 13.015 11.0047C13.0218 10.3538 13.0214 9.70275 13.0137 9.05181C12.995 8.97853 13.0097 8.18086 12.9976 8.00871C13.3262 8.00352 13.6804 7.99204 14.0064 8.0059C13.9933 7.69572 13.9984 7.33612 13.9969 7.02257C14.3137 7.03253 14.6656 7.02402 14.985 7.02238Z" fill="#5B5A5F"/>
<path d="M14.9847 7.02238L16.0095 7.01672C16.0059 7.3471 16.0062 7.67753 16.0105 8.00791C16.0084 8.33322 16.0106 8.66879 16.0033 8.99314C15.6743 8.98316 15.3138 8.98923 14.9824 8.98814L14.0051 8.98963C14.0016 8.66173 14.002 8.3338 14.0061 8.0059C13.9931 7.69572 13.9981 7.33612 13.9966 7.02257C14.3134 7.03253 14.6653 7.02402 14.9847 7.02238Z" fill="#5B5A5F"/>
<path d="M14.9845 7.02238L16.0093 7.01672C16.0057 7.3471 16.006 7.67753 16.0102 8.00791L14.981 8.00529L14.9845 7.02238Z" fill="#1F4410"/>
<path d="M14.0049 8.98966L14.9822 8.98816C15.0131 9.29287 14.9964 9.7237 15.0003 10.0436C14.8831 10.0298 14.0595 10.0029 14.0063 10.0388C13.9843 9.80637 14.0027 9.24795 14.0049 8.98966Z" fill="#1F4410"/>
<path d="M14.0064 8.00599C14.0023 8.33389 14.0019 8.66182 14.0053 8.98972C13.8446 8.98899 13.1537 8.9764 13.0326 9.00704L13.0137 9.0519C12.995 8.97862 13.0097 8.18095 12.9976 8.00879C13.3262 8.0036 13.6804 7.99213 14.0064 8.00599Z" fill="#245D05"/>
<path d="M14.0058 10.7633C14.0186 10.9035 14.0279 11.9185 14.0111 12.045C14.0121 12.3999 14.0352 13.0329 14.0077 13.3725C13.9977 13.2721 14.0016 13.1245 14.0012 13.0203C13.8267 13.0103 13.1797 12.9935 13.0339 13.0251L13.0125 13.0731C12.9979 13.0124 13.0073 12.334 13.0082 12.2337C13.0075 11.8241 13.0097 11.4144 13.0147 11.0048C13.2985 10.9939 13.7048 11.0212 13.9745 10.9896C14.0011 10.9509 14.0023 10.8184 14.0058 10.7633Z" fill="#245D05"/>
<path d="M14.006 10.7633C14.0188 10.9035 14.0281 11.9185 14.0114 12.045L13.985 11.9939C13.8928 11.966 13.1721 11.9834 13.0261 11.985C13.0259 12.0419 13.033 12.1938 13.0084 12.2337C13.0077 11.8241 13.0099 11.4144 13.015 11.0048C13.2987 10.9939 13.705 11.0212 13.9748 10.9896C14.0014 10.9509 14.0025 10.8184 14.006 10.7633Z" fill="#1F4410"/>
<path d="M19.9635 10.9973C20.2963 10.9996 20.6292 10.9998 20.9621 10.9981C20.9659 11.0852 20.9675 11.1596 20.9659 11.2467L20.9698 12.5504C20.97 12.7011 20.9798 13.0521 20.9649 13.1798C20.9641 13.1135 20.9682 13.0807 20.937 13.0205C20.7314 12.9957 20.1946 13.0108 19.9641 13.0118C19.9583 12.6745 19.966 12.3137 19.9639 11.9727C19.9674 11.6476 19.9672 11.3224 19.9635 10.9973Z" fill="#1F4410"/>
<path d="M19.9639 10.9973C20.2967 10.9996 20.6296 10.9998 20.9625 10.9981C20.9663 11.0852 20.9679 11.1596 20.9663 11.2467C20.9232 11.4586 20.9674 11.7659 20.9466 11.9831C20.7889 11.9794 20.0386 11.9902 19.9643 11.9727C19.9678 11.6476 19.9676 11.3224 19.9639 10.9973Z" fill="#245D05"/>
<path d="M8.02278 13.989C8.34389 13.9932 8.67951 13.9865 9.00176 13.9849C9.00428 14.1384 9.00078 14.889 9.02677 14.9708L9.00678 14.9747L8.02842 14.972C8.00981 14.7008 8.03099 14.2883 8.02278 13.989Z" fill="#5B5A5F"/>
</g>
<rect x="0.25" y="0.25" width="27.5" height="27.5" rx="5.75" stroke="url(#paint1_linear_10296_2490)" stroke-width="0.5"/>
<defs>
<filter id="filter0_f_10296_2490" x="-1.1" y="-1.1" width="30.2" height="30.2" filterUnits="userSpaceOnUse" color-interpolation-filters="sRGB">
<feFlood flood-opacity="0" result="BackgroundImageFix"/>
<feBlend mode="normal" in="SourceGraphic" in2="BackgroundImageFix" result="shape"/>
<feGaussianBlur stdDeviation="4.55" result="effect1_foregroundBlur_10296_2490"/>
</filter>
<linearGradient id="paint0_linear_10296_2490" x1="14" y1="0" x2="14" y2="28" gradientUnits="userSpaceOnUse">
<stop stop-color="#282C3E"/>
<stop offset="1" stop-color="#181822"/>
</linearGradient>
<linearGradient id="paint1_linear_10296_2490" x1="14" y1="0" x2="14" y2="30.9167" gradientUnits="userSpaceOnUse">
<stop stop-color="#1F4410"/>
<stop offset="1" stop-color="#1F4410" stop-opacity="0"/>
</linearGradient>
<clipPath id="clip0_10296_2490">
<rect width="28" height="28" rx="6" fill="white"/>
</clipPath>
</defs>
</svg>
