<svg width="28" height="28" viewBox="0 0 28 28" fill="none" xmlns="http://www.w3.org/2000/svg">
<g clip-path="url(#clip0_10296_2719)">
<rect width="28" height="28" rx="6" fill="url(#paint0_linear_10296_2719)"/>
<g filter="url(#filter0_f_10296_2719)">
<circle cx="14" cy="14" r="6" fill="#04030D"/>
</g>
<path d="M8.18047 6.70986C8.46597 6.72687 8.86402 6.71578 9.15817 6.71564L10.9477 6.71453L12.4371 6.71453C12.6822 6.71446 13.0562 6.72438 13.2934 6.7041C13.2858 7.19718 13.2832 7.69033 13.2856 8.18347C14.248 8.18342 15.2358 8.19463 16.1962 8.17877C16.192 8.41988 16.1917 8.66103 16.1952 8.90216L18.0692 8.90234C18.3695 8.90219 18.8148 8.91428 19.1056 8.89203L19.098 9.62095C19.3374 9.62008 19.5819 9.62181 19.8209 9.61759C19.8108 10.1028 19.8215 10.603 19.8202 11.0898L20.7232 11.0899C20.8833 11.0898 21.1395 11.0952 21.2929 11.0769C21.2856 11.705 21.283 12.3332 21.2851 12.9613C21.2849 13.2746 21.2725 13.7048 21.2876 14.0074C21.28 14.7229 21.2781 15.4683 21.2858 16.1837L22 16.1847V19.0997C21.7913 19.0883 21.499 19.0972 21.2837 19.0976C21.2895 19.3324 21.2713 19.5981 21.2946 19.829C20.9029 19.7959 20.2288 19.8179 19.8225 19.822C19.8084 20.2991 19.8174 20.8171 19.8172 21.2965C19.6797 21.2766 19.3886 21.2834 19.2414 21.2834L18.2494 21.2837L16.9476 21.2832C16.726 21.2831 16.3957 21.2734 16.1863 21.2951L16.185 19.8315C15.8356 19.7974 15.0797 19.8134 14.7142 19.8235C14.7212 19.5933 14.7157 19.3332 14.7162 19.1014C14.511 19.0961 14.1965 19.0861 13.9988 19.1066L13.9975 17.6434C13.7496 17.6201 13.4036 17.6286 13.1485 17.6286C12.707 17.6272 12.2655 17.6294 11.824 17.635C11.8064 18.1038 11.8172 18.6373 11.8172 19.109C11.6795 19.0892 11.408 19.0958 11.2592 19.0959L10.3199 19.0961L8.9898 19.096C8.7498 19.096 8.41987 19.0873 8.18611 19.1061L8.18497 17.6438C7.83489 17.6099 7.08028 17.6257 6.71405 17.636C6.72127 17.4062 6.71568 17.1454 6.71613 16.914C6.48369 16.9056 6.23385 16.9094 6 16.9091V11.8132V9.62192C6.23904 9.62333 6.47809 9.62084 6.71705 9.61448C6.71344 9.31067 6.71187 9.00686 6.71233 8.70303C6.7122 8.57234 6.7193 8.31044 6.70406 8.18861C7.15591 8.18128 7.75602 8.20405 8.18462 8.17311C8.18387 7.75312 8.20559 7.10616 8.18047 6.70986Z" fill="#383734"/>
<path d="M16.9054 11.0924L17.6251 11.093C17.6248 11.3076 17.6151 11.6057 17.6263 11.8134C17.6224 12.299 17.6327 12.7987 17.625 13.2812L16.916 13.2807L16.9065 13.2836C16.6996 13.2721 16.4003 13.2811 16.1862 13.2807C16.189 12.792 16.1889 12.3033 16.186 11.8146L16.9068 11.814L16.9054 11.0924Z" fill="#DAAA93"/>
<path d="M16.186 11.8145L16.9068 11.814C16.907 12.0462 16.8756 13.1398 16.916 13.2807L16.9065 13.2835C16.6996 13.2721 16.4003 13.2811 16.1862 13.2807C16.189 12.792 16.1889 12.3032 16.186 11.8145Z" fill="#B4907A"/>
<path d="M8.18047 6.70986C8.46597 6.72687 8.86402 6.71578 9.15817 6.71564L10.9477 6.71453L12.4371 6.71453C12.6822 6.71446 13.0562 6.72438 13.2934 6.7041C13.2858 7.19718 13.2832 7.69033 13.2856 8.18347C14.248 8.18342 15.2358 8.19463 16.1962 8.17877C16.192 8.41988 16.1917 8.66103 16.1952 8.90216L18.0692 8.90234C18.3695 8.90219 18.8148 8.91428 19.1056 8.89203L19.098 9.62095C19.3374 9.62008 19.5819 9.62181 19.8209 9.61759C19.8108 10.1028 19.8215 10.603 19.8202 11.0898L20.7232 11.0899C20.8833 11.0898 21.1395 11.0952 21.2929 11.0769C21.2856 11.705 21.283 12.3332 21.2851 12.9613C21.2849 13.2746 21.2725 13.7048 21.2876 14.0074C21.1677 13.9924 20.8954 13.9991 20.7634 13.9993L19.8132 14.0018L19.0966 14.0007L17.6244 14.0006L17.6252 13.2812C17.6329 12.7987 17.6226 12.299 17.6265 11.8134C17.6153 11.6056 17.625 11.3075 17.6253 11.0929L16.9056 11.0924L16.907 11.814L16.1862 11.8145C15.702 11.8084 15.2057 11.8139 14.7205 11.8137L14.009 11.8141L13.9973 11.811C13.299 11.8308 12.5203 11.8135 11.815 11.8159L11.6328 11.8149C11.4392 11.8038 11.1549 11.813 10.951 11.8133L9.62405 11.816L9.62352 11.0934C9.38686 11.0942 9.14214 11.098 8.90636 11.0902L8.89617 11.0946C8.91783 11.1956 8.90739 11.6888 8.90625 11.8134L8.18666 11.8137C8.18733 12.2957 8.19384 12.79 8.18755 13.2709C8.04745 13.3117 6.94394 13.2805 6.71878 13.2789L6.71816 11.812L6 11.8132V9.62192C6.23904 9.62333 6.47809 9.62084 6.71705 9.61448C6.71344 9.31067 6.71187 9.00686 6.71233 8.70303C6.7122 8.57234 6.7193 8.31044 6.70406 8.18861C7.15591 8.18128 7.75602 8.20405 8.18462 8.17311C8.18387 7.75312 8.20559 7.10616 8.18047 6.70986Z" fill="#5A4D38"/>
<path d="M13.2744 8.90502L13.2851 8.90222C13.5236 8.90633 13.7621 8.90757 14.0006 8.90594L13.9987 9.62553L13.281 9.62457C13.2822 9.43094 13.2924 9.08822 13.2744 8.90502Z" fill="#ECC6A6"/>
<path d="M11.8234 8.90614L13.2743 8.90503C13.2923 9.08823 13.2821 9.43095 13.2809 9.62458L13.9987 9.62554L14.0005 8.90595L14.7194 8.90634L14.7186 9.62328C15.154 9.62523 15.7658 9.64479 16.1891 9.62144C16.428 9.62411 16.667 9.62489 16.9059 9.62378C16.9057 10.1046 16.8964 10.6142 16.9056 11.0924L16.9069 11.814L16.1862 11.8146C15.702 11.8084 15.2057 11.8139 14.7205 11.8138L14.009 11.8142L13.9973 11.811C13.299 11.8309 12.5203 11.8135 11.8149 11.8159C11.8082 11.5822 11.8157 11.3303 11.8124 11.0922L11.812 9.62526C11.8156 9.38867 11.813 9.14558 11.8134 8.90842L11.8234 8.90614Z" fill="#FDDDC8"/>
<path d="M14.7187 9.6233C15.154 9.62526 15.7658 9.64482 16.1892 9.62146C16.4281 9.62413 16.6671 9.62491 16.906 9.6238C16.9058 10.1046 16.8965 10.6142 16.9057 11.0924L16.907 11.814L16.1863 11.8146C15.7021 11.8084 15.2057 11.814 14.7206 11.8138C14.7197 11.5804 14.7141 11.3254 14.7241 11.0941C14.7011 10.6768 14.7191 10.0586 14.7187 9.6233Z" fill="#FDDDC8"/>
<path d="M16.1873 11.089C16.4094 11.0992 16.6797 11.0923 16.9054 11.0924L16.9068 11.814L16.186 11.8146L16.1873 11.089Z" fill="#ECC6A6"/>
<path d="M11.8234 8.90614L13.2743 8.90503C13.2923 9.08823 13.2821 9.43095 13.2809 9.62458C13.282 10.0524 13.2614 10.6864 13.2859 11.094C12.8033 11.0927 12.2928 11.1013 11.8124 11.0922L11.812 9.62526C11.8156 9.38867 11.813 9.14558 11.8134 8.90842L11.8234 8.90614Z" fill="#FBFCFB"/>
<path d="M11.8234 8.90614L13.2743 8.90503C13.2923 9.08823 13.2821 9.43095 13.2809 9.62458L11.812 9.62526C11.8156 9.38867 11.813 9.14558 11.8134 8.90842L11.8234 8.90614Z" fill="#FDDDC8"/>
<path d="M14.0007 8.90601L14.7196 8.9064L14.7188 9.62333C14.7193 10.0586 14.7013 10.6768 14.7243 11.0941L14.0004 11.093C13.9924 10.9634 13.9994 10.7455 13.9993 10.6104L13.9989 9.6256L14.0007 8.90601Z" fill="#FBFCFB"/>
<path d="M14.0004 8.90601L14.7193 8.9064L14.7185 9.62333C14.4806 9.62696 14.2369 9.62488 13.9985 9.6256L14.0004 8.90601Z" fill="#FDDDC8"/>
<path d="M14 11.093L14.7239 11.0942C14.7138 11.3255 14.7194 11.5804 14.7203 11.8138L14.0088 11.8142L13.9971 11.8111C14.0111 11.6524 13.9998 11.2687 14 11.093Z" fill="#ECC6A6"/>
<path d="M16.9058 9.62378L17.6287 9.62408L19.0943 9.62514C19.0944 10.1117 19.0897 10.6059 19.0948 11.0917C19.3334 11.0924 19.5782 11.096 19.8162 11.0931L19.8139 13.2824L19.813 14.0019L19.0964 14.0008L17.6242 14.0006L17.625 13.2812C17.6327 12.7987 17.6224 12.299 17.6263 11.8134C17.6151 11.6057 17.6248 11.3076 17.6251 11.093L16.9054 11.0924C16.8962 10.6142 16.9055 10.1046 16.9058 9.62378Z" fill="#DAAA93"/>
<path d="M17.6266 11.8135C18.1123 11.8137 18.6095 11.8082 19.0942 11.8147L19.095 13.2813L19.8142 13.2824L19.8133 14.0019L19.0967 14.0008L17.6245 14.0007L17.6254 13.2813C17.6331 12.7988 17.6227 12.2991 17.6266 11.8135Z" fill="#B4907A"/>
<path d="M16.9058 9.62378L17.6287 9.62408C17.6107 10.0876 17.6235 10.6233 17.6251 11.093L16.9054 11.0924C16.8962 10.6142 16.9055 10.1046 16.9058 9.62378Z" fill="#ECC6A6"/>
<path d="M17.6253 11.093C18.0852 11.0936 18.6421 11.1084 19.093 11.09L19.0941 11.8147C18.6094 11.8082 18.1122 11.8137 17.6265 11.8134C17.6153 11.6057 17.625 11.3076 17.6253 11.093Z" fill="#ECC6A6"/>
<path d="M8.18631 9.61475L8.18854 9.62509C8.18173 10.0299 8.16786 10.6987 8.18856 11.0932L8.896 11.0946C8.91765 11.1957 8.90721 11.6889 8.90607 11.8135L8.18648 11.8138C8.18715 12.2957 8.19367 12.79 8.18737 13.271C8.04728 13.3118 6.94376 13.2806 6.71861 13.2789L6.71798 11.8121L6.71729 9.62357L7.6804 9.62578C7.79617 9.62593 8.08315 9.63248 8.18631 9.61475Z" fill="#ECC6A6"/>
<path d="M8.18873 11.0933L8.89617 11.0947C8.91782 11.1957 8.90739 11.689 8.90625 11.8135L8.18665 11.8138C8.18018 11.5872 8.18786 11.3229 8.18873 11.0933Z" fill="#DAAA93"/>
<path d="M9.62594 9.61353C9.68807 9.64338 10.2535 9.6229 10.3681 9.62553C10.5976 9.62504 10.8685 9.6171 11.0943 9.62431C11.3329 9.62718 11.5758 9.62095 11.8121 9.62524L11.8125 11.0922C11.8158 11.3303 11.8082 11.5822 11.815 11.8159L11.6328 11.8149C11.4393 11.8039 11.155 11.813 10.9511 11.8133L9.62407 11.816L9.62354 11.0934L9.62455 10.3749L9.62594 9.61353Z" fill="#FBFCFB"/>
<path d="M11.0943 9.62441C11.3329 9.62728 11.5758 9.62105 11.8121 9.62534L11.8125 11.0923C11.5778 11.0967 11.3322 11.093 11.0967 11.093C11.0839 11.01 11.0942 10.4849 11.0951 10.3807C11.0965 10.1286 11.0962 9.8765 11.0943 9.62441Z" fill="#FDDDC8"/>
<path d="M9.6259 9.61353C9.68803 9.64338 10.2534 9.6229 10.3681 9.62553C10.38 9.86063 10.3747 10.1303 10.375 10.3682C10.1244 10.3791 9.86792 10.3645 9.62451 10.3749L9.6259 9.61353Z" fill="#F9E8E2"/>
<path d="M10.3781 10.3776C10.5737 10.3703 10.9049 10.371 11.0951 10.3807C11.0942 10.4849 11.0839 11.0099 11.0966 11.0929C10.8781 11.102 10.6086 11.0928 10.3802 11.0967C10.3725 10.8649 10.3776 10.6111 10.3781 10.3776Z" fill="#F9E8E2"/>
<path d="M8.18574 8.9061L8.90624 8.90577L9.62643 8.90552L9.62584 9.6135L9.62445 10.3749L9.62343 11.0934C9.38677 11.0942 9.14206 11.098 8.90627 11.0902L8.89609 11.0946L8.18865 11.0931C8.16795 10.6987 8.18182 10.0298 8.18863 9.62502L8.1864 9.61467L8.18574 8.9061Z" fill="#FBFCFB"/>
<path d="M8.18604 8.90609L8.90654 8.90576C8.90683 9.13812 8.90154 9.39457 8.90804 9.62482L8.18893 9.62501L8.18669 9.61467L8.18604 8.90609Z" fill="#FDDDC8"/>
<path d="M8.90527 10.3762C9.14499 10.3745 9.38471 10.3741 9.62443 10.375L9.62341 11.0935C9.38676 11.0943 9.14204 11.0981 8.90626 11.0903C8.91959 10.8873 8.90945 10.5823 8.90527 10.3762Z" fill="#F9E8E2"/>
<path d="M8.90737 8.1865L11.0941 8.1864C11.0937 8.4059 11.0845 8.69179 11.0944 8.90575C11.3276 8.90576 11.5818 8.90093 11.8133 8.90846C11.813 9.14562 11.8155 9.38871 11.812 9.62531C11.5757 9.62101 11.3328 9.62725 11.0942 9.62437C10.8684 9.61717 10.5975 9.6251 10.368 9.62559C10.2534 9.62296 9.68797 9.64345 9.62584 9.61359L9.62644 8.9056L8.90625 8.90585L8.90737 8.1865Z" fill="#FDDDC8"/>
<path d="M11.0943 8.90581C11.3275 8.90582 11.5817 8.90099 11.8133 8.90853C11.8129 9.14568 11.8154 9.38878 11.8119 9.62537C11.5757 9.62107 11.3327 9.62731 11.0941 9.62443C11.0916 9.38488 11.0917 9.14534 11.0943 8.90581Z" fill="#FBFCFB"/>
<path d="M14.7196 8.90639L16.1915 8.90564C16.1904 9.13358 16.1825 9.39642 16.1892 9.62148C15.7659 9.64484 15.1541 9.62528 14.7188 9.62333L14.7196 8.90639Z" fill="#DAAA93"/>
<path d="M11.8166 8.18665L13.2819 8.18744C13.2814 8.40232 13.2723 8.69344 13.2848 8.90225L13.2741 8.90505L11.8232 8.90616C11.8024 8.82552 11.8126 8.2918 11.8166 8.18665Z" fill="#DAAA93"/>
<path d="M8.18671 8.1853L8.90766 8.18649L8.90654 8.90585L8.18604 8.90618L8.18671 8.1853Z" fill="#DAAA93"/>
<path d="M11.0941 8.1864L11.8168 8.18667C11.8128 8.29182 11.8026 8.82554 11.8234 8.90618L11.8134 8.90846C11.5818 8.90093 11.3276 8.90576 11.0944 8.90575C11.0845 8.69179 11.0937 8.4059 11.0941 8.1864Z" fill="#ECC6A6"/>
<path d="M13.9971 11.811L14.0088 11.8141L14.7203 11.8138C15.2055 11.8139 15.7019 11.8084 16.1861 11.8146C16.1889 12.3033 16.189 12.792 16.1862 13.2807C16.4003 13.2811 16.6996 13.2721 16.9065 13.2836L16.916 13.2807L17.6251 13.2812L17.6242 14.0006L19.0964 14.0008L19.813 14.0019L19.8134 14.7204L19.8149 16.1889C19.8117 16.428 19.8116 16.6671 19.8145 16.9062L19.0935 16.9077L19.0831 16.9055L17.6276 16.9046L16.9074 16.9057C16.9024 16.7143 16.922 16.355 16.9002 16.1813C16.7515 16.1986 16.3511 16.1893 16.1834 16.1894C15.7928 16.1813 15.3998 16.1932 15.009 16.1899C14.9114 16.1891 14.8161 16.1932 14.7185 16.1844L13.9989 16.1879C13.9981 16.427 13.9986 16.6662 14.0004 16.9053C13.2914 16.906 12.5156 16.8892 11.8131 16.9058L11.0937 16.9063L11.0934 14.7202L11.083 14.718C11.113 14.6315 11.0927 13.4575 11.0922 13.2796L11.0952 11.8257C11.2602 11.8295 11.4704 11.8294 11.6326 11.8149L11.8148 11.8159C12.5201 11.8135 13.2988 11.8309 13.9971 11.811Z" fill="#5A4D38"/>
<path d="M13.9971 11.811L14.0088 11.8141C13.9906 11.9022 13.9988 12.361 13.9989 12.4834L14.0004 14.0022L14.0008 14.7189L13.2829 14.719L11.0934 14.7202L11.083 14.718C11.113 14.6315 11.0927 13.4575 11.0922 13.2796L11.0952 11.8257C11.2602 11.8295 11.4704 11.8294 11.6326 11.8149L11.8148 11.8159C12.5201 11.8135 13.2988 11.8309 13.9971 11.811Z" fill="#B4907A"/>
<path d="M11.6327 11.8149L11.8149 11.8159C11.8109 12.3042 11.8103 12.7925 11.8133 13.2808C11.5804 13.281 11.3232 13.2866 11.0923 13.2796L11.0953 11.8258C11.2603 11.8296 11.4705 11.8294 11.6327 11.8149Z" fill="#DAAA93"/>
<path d="M13.2803 14.0024C13.5204 13.9999 13.7605 13.9998 14.0006 14.0022L14.001 14.7189L13.2831 14.719C13.2761 14.4898 13.281 14.2338 13.2803 14.0024Z" fill="#87725A"/>
<path d="M19.0965 14.0007L19.8131 14.0018L19.8136 14.7204L19.8151 16.1888C19.8119 16.4279 19.8118 16.667 19.8147 16.9061L19.0936 16.9077L19.0832 16.9054L17.6278 16.9046L16.9076 16.9057C16.9026 16.7143 16.9222 16.355 16.9004 16.1812L16.9077 16.1592C16.9072 15.6866 16.8988 15.188 16.9101 14.7175L17.63 14.7191L19.0933 14.7184L19.0965 14.0007Z" fill="#B4907A"/>
<path d="M16.9101 14.7175L17.63 14.7191C17.6135 15.1877 17.6258 15.7169 17.6266 16.19C17.624 16.4282 17.6244 16.6664 17.6278 16.9046L16.9076 16.9056C16.9026 16.7143 16.9222 16.3549 16.9004 16.1812L16.9077 16.1592C16.9072 15.6866 16.8988 15.188 16.9101 14.7175Z" fill="#ECC6A6"/>
<path d="M16.9077 16.1592C16.962 16.213 17.507 16.1888 17.6266 16.19C17.624 16.4282 17.6244 16.6664 17.6278 16.9046L16.9076 16.9057C16.9026 16.7143 16.9222 16.355 16.9004 16.1812L16.9077 16.1592Z" fill="#FDDDC8"/>
<path d="M17.6267 16.1901C18.1157 16.1864 18.6047 16.1856 19.0937 16.1875C19.0945 16.2903 19.1039 16.834 19.0833 16.9055L17.6278 16.9047C17.6245 16.6665 17.6241 16.4283 17.6267 16.1901Z" fill="#DAAA93"/>
<path d="M19.0965 14.0007L19.8132 14.0018L19.8136 14.7204L19.0933 14.7184L19.0965 14.0007Z" fill="#87725A"/>
<path d="M14.7204 11.8138C15.2056 11.8139 15.702 11.8084 16.1862 11.8146C16.189 12.3033 16.1891 12.792 16.1864 13.2807L14.719 13.2805L14.7194 13.9997L14.0005 14.0022L13.999 12.4834C13.9989 12.361 13.9907 11.9022 14.0089 11.8142L14.7204 11.8138Z" fill="#87725A"/>
<path d="M14.7178 14.719L16.1851 14.7179L16.9101 14.7175C16.8987 15.188 16.9071 15.6866 16.9076 16.1592L16.9003 16.1812C16.7516 16.1986 16.3511 16.1893 16.1835 16.1893C15.7929 16.1812 15.3999 16.1932 15.0091 16.1899C14.9115 16.189 14.8162 16.1932 14.7186 16.1844L14.7178 14.719Z" fill="#FDDDC8"/>
<path d="M16.1852 14.7179L16.9102 14.7175C16.8989 15.188 16.9072 15.6866 16.9077 16.1592L16.9005 16.1812C16.7517 16.1986 16.3513 16.1893 16.1836 16.1893C16.2059 15.7674 16.1884 15.1528 16.1852 14.7179Z" fill="#FBFCFB"/>
<path d="M16.9164 13.2808L17.6254 13.2813L17.6246 14.0007L16.9062 14.0009L16.9069 13.2836L16.9164 13.2808Z" fill="#87725A"/>
<path d="M8.90647 11.0903C9.14225 11.0981 9.38697 11.0943 9.62363 11.0935L9.62416 11.8161L10.9511 11.8134C11.155 11.8131 11.4393 11.804 11.6329 11.815C11.4707 11.8295 11.2605 11.8296 11.0955 11.8258L11.0925 13.2797C11.093 13.4576 11.1133 14.6316 11.0833 14.7181L11.0937 14.7203L11.094 16.9064L11.8134 16.9059L11.8135 17.6275L8.90747 17.6255C8.89164 17.1789 8.90613 16.6417 8.90608 16.1878L8.18852 16.188L8.1896 14.7201C8.1825 14.2507 8.186 13.7494 8.19044 13.2802L8.18766 13.271C8.19395 12.7901 8.18744 12.2958 8.18677 11.8138L8.90636 11.8135C8.9075 11.689 8.91794 11.1958 8.89628 11.0947L8.90647 11.0903Z" fill="#87725A"/>
<path d="M8.90618 11.0903C9.14196 11.0981 9.38668 11.0943 9.62334 11.0935L9.62387 11.8161L10.9509 11.8134C11.1548 11.8131 11.4391 11.804 11.6326 11.815C11.4704 11.8295 11.2602 11.8296 11.0952 11.8258L11.0922 13.2797C10.6229 13.285 10.0924 13.291 9.62604 13.2781C9.61848 12.796 9.6245 12.2979 9.62407 11.8146L8.90607 11.8135C8.90721 11.689 8.91765 11.1958 8.896 11.0947L8.90618 11.0903Z" fill="#ECC6A6"/>
<path d="M8.90612 11.8135L9.62412 11.8145C9.62454 12.2979 9.61852 12.796 9.62609 13.2781L9.6253 13.9997L8.90634 14.0012L8.90699 13.2808L8.1902 13.2802L8.18741 13.271C8.19371 12.7901 8.1872 12.2957 8.18652 11.8138L8.90612 11.8135Z" fill="#B4907A"/>
<path d="M9.6263 13.2781C10.0926 13.2909 10.6232 13.2849 11.0924 13.2797C11.093 13.4575 11.1133 14.6315 11.0833 14.718L9.62549 14.7186L9.62552 13.9997L9.6263 13.2781Z" fill="#DAAA93"/>
<path d="M16.9076 16.9057L17.6278 16.9047L19.0833 16.9055L19.0937 16.9077L19.8147 16.9062L21.2822 16.9073L21.2815 19.091C20.8083 19.0931 20.2839 19.1045 19.8131 19.0909C19.8129 19.3233 19.8187 19.5826 19.8118 19.8127L18.3524 19.8132C18.1309 19.8132 17.8432 19.8217 17.6271 19.8128L17.6273 19.0942C17.613 18.6277 17.6254 18.0989 17.6263 17.63C17.4017 17.6197 17.1336 17.6261 16.9058 17.6261L16.9076 16.9057Z" fill="#5A4D38"/>
<path d="M16.9076 16.9057L17.6278 16.9047L19.0833 16.9055L19.0937 16.9077C19.0939 17.6228 19.0808 18.3823 19.0951 19.0935C18.6088 19.0933 18.1129 19.088 17.6273 19.0942C17.613 18.6277 17.6254 18.0989 17.6263 17.63C17.4017 17.6197 17.1336 17.6261 16.9058 17.6261L16.9076 16.9057Z" fill="#87725A"/>
<path d="M16.9076 16.9057L17.6278 16.9047C17.6256 17.1464 17.625 17.3882 17.6263 17.63C17.4017 17.6197 17.1336 17.6261 16.9058 17.6261L16.9076 16.9057Z" fill="#DAAA93"/>
<path d="M14.7185 16.1844C14.8161 16.1932 14.9114 16.1891 15.009 16.1899C15.3998 16.1933 15.7928 16.1813 16.1834 16.1894C16.3511 16.1893 16.7515 16.1986 16.9002 16.1813C16.922 16.355 16.9024 16.7144 16.9074 16.9057L16.9056 17.6261C17.1334 17.6261 17.4015 17.6196 17.6261 17.6299C17.6252 18.0988 17.6128 18.6277 17.6271 19.0941L17.6269 19.8127L16.1866 19.8136L16.1875 19.093L14.718 19.0939L14.7185 17.6259L13.9991 17.6261L14.0004 16.9053C13.9986 16.6662 13.9981 16.427 13.9989 16.1879L14.7185 16.1844Z" fill="#B4907A"/>
<path d="M14.7185 16.1844C14.8161 16.1932 14.9114 16.1891 15.009 16.1899C15.3998 16.1933 15.7928 16.1813 16.1834 16.1894C16.3511 16.1893 16.7515 16.1986 16.9002 16.1813C16.922 16.355 16.9024 16.7144 16.9074 16.9057L16.9056 17.6261C16.2122 17.6128 15.412 17.6208 14.7182 17.6281L14.7192 16.9057L14.0004 16.9053C13.9986 16.6662 13.9981 16.427 13.9989 16.1879L14.7185 16.1844Z" fill="#ECC6A6"/>
<path d="M8.1876 13.271L8.19038 13.2802C8.18594 13.7494 8.18244 14.2506 8.18953 14.7201L8.18846 16.188L8.90602 16.1878C8.90606 16.6417 8.89158 17.1789 8.90741 17.6255L8.18681 17.6262L8.18777 16.9056C7.70106 16.9109 7.20569 16.9063 6.71826 16.9065L6.71918 14.7181L6.71883 13.279C6.94399 13.2807 8.0475 13.3118 8.1876 13.271Z" fill="#B4907A"/>
<path d="M8.18751 13.271L8.19029 13.2802C8.18586 13.7494 8.18236 14.2506 8.18945 14.7201L6.7191 14.7181L6.71875 13.279C6.9439 13.2807 8.04742 13.3118 8.18751 13.271Z" fill="#DAAA93"/>
<path d="M19.815 16.1889L21.2819 16.187L21.2821 16.9074L19.8146 16.9062C19.8117 16.6671 19.8118 16.428 19.815 16.1889Z" fill="#87725A"/>
</g>
<rect x="0.25" y="0.25" width="27.5" height="27.5" rx="5.75" stroke="url(#paint1_linear_10296_2719)" stroke-width="0.5"/>
<defs>
<filter id="filter0_f_10296_2719" x="-1.1" y="-1.1" width="30.2" height="30.2" filterUnits="userSpaceOnUse" color-interpolation-filters="sRGB">
<feFlood flood-opacity="0" result="BackgroundImageFix"/>
<feBlend mode="normal" in="SourceGraphic" in2="BackgroundImageFix" result="shape"/>
<feGaussianBlur stdDeviation="4.55" result="effect1_foregroundBlur_10296_2719"/>
</filter>
<linearGradient id="paint0_linear_10296_2719" x1="14" y1="0" x2="14" y2="28" gradientUnits="userSpaceOnUse">
<stop stop-color="#282C3E"/>
<stop offset="1" stop-color="#181822"/>
</linearGradient>
<linearGradient id="paint1_linear_10296_2719" x1="14" y1="0" x2="14" y2="30.9167" gradientUnits="userSpaceOnUse">
<stop stop-color="#DAAA93"/>
<stop offset="1" stop-color="#DAAA93" stop-opacity="0"/>
</linearGradient>
<clipPath id="clip0_10296_2719">
<rect width="28" height="28" rx="6" fill="white"/>
</clipPath>
</defs>
</svg>
