<svg width="28" height="28" viewBox="0 0 28 28" fill="none" xmlns="http://www.w3.org/2000/svg">
<g clip-path="url(#clip0_10296_2751)">
<rect width="28" height="28" rx="6" fill="url(#paint0_linear_10296_2751)"/>
<g filter="url(#filter0_f_10296_2751)">
<circle cx="14" cy="14" r="6" fill="#04030D"/>
</g>
<path d="M10.5034 12.9886C10.5278 13.3135 10.4929 13.6701 10.5182 13.9952L17.4576 13.9873L17.4575 14.9786C17.297 14.9762 16.5884 14.9606 16.4774 14.9795C16.4782 15.2238 16.4652 15.7108 16.486 15.9357L16.5161 15.9996C16.7176 16.0471 17.2286 15.9789 17.4586 16.0074L17.471 16.0024C17.7808 15.9905 18.1676 16.0017 18.4836 16.0017L18.4903 15.8741C18.5196 15.7123 18.5102 15.1569 18.5109 14.9604C18.6483 14.9765 19.3557 14.9838 19.4719 14.9574L19.475 14.973L19.4729 21.9966C19.1896 21.9643 18.786 21.9727 18.4946 21.9758L17.5126 21.9744C17.2235 21.973 16.7433 21.9622 16.4709 21.9994C16.4708 21.651 16.4726 21.3026 16.4765 20.9542L16.1821 20.9447C15.9833 20.9496 15.6721 20.946 15.4857 20.9694C15.4845 20.643 15.4771 20.2939 15.498 19.9706C15.0571 19.999 14.3684 19.9709 13.9079 19.9738C13.5514 19.976 12.8305 20.0007 12.5061 19.9772C12.521 20.3109 12.5194 20.6395 12.5189 20.9733C12.1727 20.9289 11.7769 20.9851 11.4737 20.9463C11.4902 21.2973 11.4958 21.6487 11.4904 22C11.2046 21.9666 10.8274 21.973 10.5348 21.9759C10.1971 21.9712 9.85017 21.9762 9.51173 21.9771C9.21544 21.9719 8.76081 21.9612 8.47467 21.9947L8.4749 17.2319C8.47479 16.4914 8.46231 15.7138 8.48093 14.978L8.48743 13.9864C8.77235 14.0078 9.20193 13.9915 9.50058 13.9909L9.50815 14.0051C9.67384 13.9811 10.2937 13.9973 10.4935 13.9991C10.4883 13.723 10.4736 13.2512 10.5034 12.9886Z" fill="#51341A"/>
<path d="M8.48743 13.9865C8.77235 14.0079 9.20193 13.9915 9.50058 13.9909L9.50815 14.0051C9.67384 13.9811 10.2937 13.9973 10.4935 13.9991L10.4934 14.9153C10.4932 15.2313 10.4776 15.6972 10.4942 16.0004C10.5185 17.371 10.492 18.816 10.4929 20.1916C10.4918 20.5731 10.495 20.9547 10.5025 21.3362C10.5056 21.5765 10.5058 21.7357 10.5348 21.9759C10.1971 21.9712 9.85017 21.9762 9.51173 21.9771C9.21544 21.9719 8.76081 21.9612 8.47467 21.9947L8.4749 17.2319C8.47479 16.4915 8.46231 15.7138 8.48093 14.978L8.48743 13.9865Z" fill="#271F12"/>
<path d="M9.51836 16.0019L10.4942 16.0004C10.5185 17.371 10.492 18.816 10.4929 20.1916C10.4918 20.5731 10.495 20.9547 10.5024 21.3362C10.5056 21.5765 10.5058 21.7356 10.5348 21.9759C10.1971 21.9712 9.85017 21.9762 9.51172 21.9771C9.5317 20.0277 9.5375 17.9518 9.51836 16.0019Z" fill="#342A18"/>
<path d="M9.50799 14.0051C9.67368 13.9811 10.2936 13.9973 10.4933 13.9991L10.4932 14.9152C10.4931 15.2313 10.4774 15.6972 10.494 16.0003L9.5182 16.0019C9.48118 15.4727 9.50941 14.5606 9.50799 14.0051Z" fill="#8A8989"/>
<path d="M10.5033 12.9886C10.5276 13.3135 10.4928 13.6701 10.5181 13.9952L17.4574 13.9873L17.4573 14.9786C17.2968 14.9762 16.5882 14.9606 16.4773 14.9795C15.4232 14.9503 14.3037 14.991 13.2418 14.9766C12.8788 14.9717 11.7797 14.9497 11.4809 14.987L11.4442 15.0161C11.0579 14.9436 10.6643 15.044 10.5306 15.0189L10.4932 14.9152L10.4933 13.9991C10.4882 13.723 10.4734 13.2512 10.5033 12.9886Z" fill="#342A18"/>
<path d="M19.4718 14.9574L19.4749 14.973L19.4728 21.9966C19.1895 21.9643 18.7859 21.9727 18.4945 21.9758C18.4524 21.4678 18.479 20.559 18.4789 20.0166L18.4835 16.0017L18.4902 15.8741C18.5195 15.7123 18.51 15.1569 18.5108 14.9604C18.6482 14.9765 19.3556 14.9839 19.4718 14.9574Z" fill="#271F12"/>
<path d="M18.4835 16.0018L18.4789 20.0166C18.479 20.559 18.4524 21.4678 18.4945 21.9758L17.5124 21.9744C17.3901 21.7771 17.4777 20.8917 17.4547 20.6006L17.4584 16.0074L17.4708 16.0024C17.7807 15.9905 18.1675 16.0017 18.4835 16.0018Z" fill="#342A18"/>
<path d="M11.4808 14.987C11.7797 14.9497 12.8787 14.9717 13.2417 14.9766C14.3036 14.9909 15.4231 14.9503 16.4772 14.9795C16.478 15.2238 16.465 15.7107 16.4857 15.9357L16.4587 15.9859C16.3249 16.0177 14.7247 16.0014 14.458 16.0008L13.4901 16.0004C12.9178 16.0038 12.3455 16.0032 11.7732 15.9986L11.4747 16.0009C11.4731 15.6766 11.465 15.3199 11.4805 14.9988L11.4808 14.987Z" fill="#8A8989"/>
<path d="M11.4805 14.9988C11.8066 15.0006 12.1637 14.9953 12.4872 15.0065C12.4905 15.1367 12.5204 15.7959 12.4897 15.8848C12.3532 16.0252 11.9942 15.9458 11.7732 15.9985L11.4747 16.0009C11.4731 15.6766 11.465 15.3199 11.4805 14.9988Z" fill="#959495"/>
<path d="M13.4879 16.9801L14.4648 16.9811L14.4672 17.9558C14.467 18.2366 14.4536 18.679 14.4743 18.9467C14.4734 18.9481 14.4727 18.9497 14.4715 18.9509C14.3989 19.0207 13.6421 18.9882 13.4876 18.9874C13.4963 18.6565 13.4882 18.2895 13.4882 17.9557C13.4804 17.6377 13.4868 17.2997 13.4879 16.9801Z" fill="#392311"/>
<path d="M13.4879 16.9801L14.4648 16.9811L14.4672 17.9558C14.172 17.9447 13.794 17.9578 13.4882 17.9557C13.4804 17.6377 13.4868 17.2997 13.4879 16.9801Z" fill="#51341A"/>
<path d="M17.4423 20.9368C17.4412 20.8361 17.4338 20.6957 17.4547 20.6006C17.4776 20.8916 17.39 21.7771 17.5124 21.9744C17.2233 21.9731 16.7431 21.9622 16.4707 21.9994C16.4706 21.651 16.4724 21.3026 16.4762 20.9542L16.1819 20.9447C16.3113 20.9045 17.2501 20.9361 17.4423 20.9368Z" fill="#49301A"/>
<path d="M14.4646 16.9812L15.4948 16.984C15.4951 17.1211 15.5087 17.8951 15.4748 17.9616C15.1389 17.9627 14.8029 17.9608 14.467 17.9559L14.4646 16.9812Z" fill="#392311"/>
<path d="M12.5032 16.9856L13.4877 16.9801C13.4866 17.2997 13.4801 17.6377 13.4879 17.9557C13.1714 17.9636 12.8233 17.9554 12.5045 17.9542L12.5032 16.9856Z" fill="#392311"/>
<path d="M13.4903 16.0004L14.4582 16.0008C14.4665 16.3275 14.4687 16.6543 14.4647 16.9811L13.4878 16.9801L13.4903 16.0004Z" fill="#392311"/>
<path d="M9.49124 6.01317C11.3601 6.0332 13.2603 6.01625 15.1314 6.01595L17.211 6.01541C17.6255 6.01516 18.0972 6.02507 18.5074 6C18.5037 6.34409 18.5042 6.69954 18.4916 7.04244C18.7757 7.04244 19.2091 7.05356 19.4796 7.0273L19.4756 8.02824C19.8083 8.02173 20.1411 8.01833 20.4739 8.01805C20.4693 8.19197 20.4684 8.87108 20.4469 8.99499C20.6462 9.01098 21.3031 9.00769 21.4895 8.98156C21.5077 9.29032 21.4893 9.70637 21.4877 10.0259C21.4852 10.6902 21.4893 11.3546 21.5 12.0188C21.1918 11.9844 20.7689 11.9965 20.4499 11.9985C20.2999 11.9938 19.5721 11.9685 19.4604 12.0064C19.4313 11.8834 19.4672 11.1774 19.4706 11.0196C19.1673 11.0488 18.8374 11.0019 18.4751 11.0433C18.4778 10.7188 18.4629 10.3483 18.4868 10.0311C17.8962 10.0702 17.0293 9.98608 16.4706 10.0606C16.4787 9.71625 16.4721 9.35519 16.4779 9.00569C16.1884 9.02441 15.7418 9.01098 15.4424 9.01082L13.4717 9.00972C13.0686 9.0087 12.6655 9.00998 12.2625 9.01362C12.035 9.01586 11.6887 9.03048 11.474 9.00569C11.5045 9.32576 11.486 9.72323 11.499 10.0601C10.9902 10.0192 10.4795 10.0406 9.96965 10.0438C9.81218 10.0447 9.66822 10.0508 9.5108 10.0319C9.54699 10.3693 9.50017 10.7071 9.54857 11.043C9.1847 10.9975 8.84606 11.0546 8.48543 11.0179C8.50958 11.3005 8.50105 11.7178 8.50292 12.0111C8.44072 11.9703 7.62078 11.992 7.49856 11.9934C7.18718 11.992 6.81405 11.9872 6.509 12.016C6.51286 11.0259 6.52641 9.9861 6.5 8.99879C6.67091 9.00277 7.40149 9.04531 7.5092 8.9595C7.48248 8.65199 7.50195 8.33465 7.49108 8.02099C7.78912 8.03236 8.15701 8.02113 8.46033 8.01996L8.48578 8.00452C8.46122 7.71957 8.4727 7.34027 8.46321 7.04083C8.80439 7.04785 9.16637 7.04192 9.50868 7.04122C9.50117 6.71374 9.50896 6.33376 9.49124 6.01317Z" fill="#51341A"/>
<path d="M18.4912 7.04248C18.7753 7.04248 19.2087 7.0536 19.4792 7.02734L19.4752 8.02828C19.8079 8.02177 20.1407 8.01837 20.4735 8.01809C20.4689 8.19201 20.468 8.87112 20.4465 8.99503C20.2608 8.97453 19.6795 9.00062 19.4723 9.00566C19.4713 8.71811 19.4793 8.32438 19.4524 8.0477C19.1838 8.01193 18.7599 8.02401 18.4856 8.0356C18.4904 7.74292 18.4718 7.31326 18.4912 7.04248Z" fill="#49301A"/>
<path d="M8.46289 7.04077C8.80407 7.04779 9.16606 7.04187 9.50836 7.04117C9.50528 7.33688 9.49104 7.73791 9.50694 8.02718C9.34998 8.02601 8.56062 8.0515 8.48547 8.00447C8.4609 7.71951 8.47238 7.34021 8.46289 7.04077Z" fill="#49301A"/>
<path d="M7.49097 8.02105C7.789 8.03242 8.1569 8.02119 8.46022 8.02002C8.50404 8.11044 8.46683 8.81912 8.48317 9.00407C8.2664 9.00311 7.65708 9.05402 7.50908 8.95956C7.48237 8.65205 7.50184 8.33471 7.49097 8.02105Z" fill="#49301A"/>
<path d="M18.4884 13.9878L19.4697 13.9905C19.4673 14.3109 19.461 14.6376 19.4719 14.9573C19.3557 14.9838 18.6483 14.9764 18.5109 14.9603C18.5101 15.1568 18.5196 15.7123 18.4903 15.8741L18.4836 16.0017C18.1676 16.0016 17.7808 15.9905 17.471 16.0024L17.4586 16.0073C17.2286 15.9788 16.7176 16.0471 16.5161 15.9996L16.486 15.9357C16.4652 15.7107 16.4782 15.2238 16.4774 14.9794C16.5884 14.9606 17.297 14.9762 17.4575 14.9786L17.4575 13.9873C17.7887 13.9952 18.1574 13.9981 18.4884 13.9878Z" fill="#8A8989"/>
<path d="M17.4575 14.9785C17.4565 15.1362 17.4446 15.9046 17.471 16.0023L17.4586 16.0073C17.2286 15.9788 16.7176 16.0471 16.5161 15.9996L16.486 15.9356C16.4652 15.7107 16.4782 15.2238 16.4774 14.9794C16.5884 14.9605 17.297 14.9762 17.4575 14.9785Z" fill="#49301A"/>
<path d="M18.4883 13.9878L19.4696 13.9905C19.4672 14.3109 19.4609 14.6376 19.4718 14.9573C19.3556 14.9838 18.6481 14.9764 18.5107 14.9603C18.51 15.1568 18.5194 15.7122 18.4901 15.8741C18.4712 15.2733 18.4872 14.5943 18.4883 13.9878Z" fill="#342A18"/>
<path d="M7.49841 11.9933C7.62063 11.9919 8.44057 11.9702 8.50277 12.011C8.4962 12.3429 8.48482 12.6889 8.49017 13.0194C8.48858 13.3209 8.49267 13.6422 8.48449 13.942L8.48725 13.9864L8.48075 14.978C8.1538 14.9695 7.82667 14.9695 7.49972 14.978C7.2148 14.9785 6.78077 14.9684 6.51062 14.9989C6.51285 14.7257 6.52858 14.2591 6.50195 14.003C6.82554 13.9871 7.17574 13.9922 7.50189 13.9918C7.48672 13.5804 7.49397 13.0422 7.50248 12.6296C7.48878 12.5077 7.49848 12.1337 7.49841 11.9933Z" fill="#8A8989"/>
<path d="M7.49863 11.9933C7.62085 11.9919 8.44079 11.9702 8.50299 12.011C8.49642 12.3429 8.48503 12.6889 8.49039 13.0194C8.17099 13.0135 7.8515 13.0143 7.53212 13.0218C7.53177 12.8907 7.53979 12.7543 7.5027 12.6296C7.489 12.5077 7.4987 12.1337 7.49863 11.9933Z" fill="#A5A3A5"/>
<path d="M6.50195 14.003C6.82554 13.9871 7.17574 13.9922 7.50189 13.9918C7.501 14.3173 7.49553 14.6535 7.49972 14.978C7.2148 14.9785 6.78077 14.9684 6.51062 14.9989C6.51285 14.7257 6.52858 14.2591 6.50195 14.003Z" fill="#271F12"/>
<path d="M7.53174 13.0218C7.85111 13.0143 8.1706 13.0135 8.49 13.0194C8.48841 13.3209 8.4925 13.6422 8.48432 13.942L8.45737 13.9812C8.34488 14.0044 7.69164 13.9986 7.53637 13.9995C7.53013 13.6774 7.53305 13.3448 7.53174 13.0218Z" fill="#959495"/>
<path d="M19.4603 12.0063C19.572 11.9685 20.2998 11.9938 20.4498 11.9984C20.4763 12.3321 20.4514 12.6863 20.4577 13.0219C20.456 13.3235 20.4596 13.6426 20.4518 13.9426L20.4545 13.9855L20.4488 14.9767C20.1419 14.9644 19.7849 14.9721 19.4749 14.9729L19.4718 14.9573C19.4609 14.6376 19.4672 14.3109 19.4696 13.9905C19.4537 13.5438 19.4594 12.9615 19.4698 12.5132C19.4654 12.3443 19.4622 12.1753 19.4603 12.0063Z" fill="#8A8989"/>
<path d="M19.4602 12.0063C19.5719 11.9685 20.2997 11.9938 20.4497 11.9984C20.4762 12.3321 20.4513 12.6863 20.4576 13.0219C20.1639 13.0063 19.7939 13.0151 19.4988 13.0217C19.4979 12.873 19.5084 12.6485 19.4697 12.5132C19.4653 12.3443 19.4621 12.1753 19.4602 12.0063Z" fill="#A5A3A5"/>
<path d="M19.499 13.0218C19.7941 13.0152 20.1641 13.0064 20.4578 13.022C20.456 13.3236 20.4597 13.6427 20.4519 13.9427C20.403 14.0334 19.6362 13.9953 19.5036 13.9946L19.499 13.0218Z" fill="#959495"/>
<path d="M20.4542 13.9855C20.7165 14.0086 21.2101 13.99 21.4929 13.989C21.485 14.2496 21.4724 14.7538 21.4956 15.0048C21.2347 14.9674 20.7333 14.9789 20.4485 14.9767L20.4542 13.9855Z" fill="#271F12"/>
<path d="M9.48486 12.998C9.72961 13.0066 10.2717 13.0207 10.503 12.9886C10.4732 13.2512 10.4879 13.723 10.4931 13.9991C10.2933 13.9973 9.67342 13.9811 9.50772 14.0051L9.50015 13.9909C9.51438 13.8526 9.48706 13.1823 9.48486 12.998Z" fill="#A67227"/>
</g>
<rect x="0.25" y="0.25" width="27.5" height="27.5" rx="5.75" stroke="url(#paint1_linear_10296_2751)" stroke-width="0.5"/>
<defs>
<filter id="filter0_f_10296_2751" x="-1.1" y="-1.1" width="30.2" height="30.2" filterUnits="userSpaceOnUse" color-interpolation-filters="sRGB">
<feFlood flood-opacity="0" result="BackgroundImageFix"/>
<feBlend mode="normal" in="SourceGraphic" in2="BackgroundImageFix" result="shape"/>
<feGaussianBlur stdDeviation="4.55" result="effect1_foregroundBlur_10296_2751"/>
</filter>
<linearGradient id="paint0_linear_10296_2751" x1="14" y1="0" x2="14" y2="28" gradientUnits="userSpaceOnUse">
<stop stop-color="#282C3E"/>
<stop offset="1" stop-color="#181822"/>
</linearGradient>
<linearGradient id="paint1_linear_10296_2751" x1="14" y1="0" x2="14" y2="30.9167" gradientUnits="userSpaceOnUse">
<stop stop-color="#51341A"/>
<stop offset="1" stop-color="#51341A" stop-opacity="0"/>
</linearGradient>
<clipPath id="clip0_10296_2751">
<rect width="28" height="28" rx="6" fill="white"/>
</clipPath>
</defs>
</svg>
