<svg width="28" height="28" viewBox="0 0 28 28" fill="none" xmlns="http://www.w3.org/2000/svg">
<g clip-path="url(#clip0_10296_2845)">
<rect width="28" height="28" rx="6" fill="url(#paint0_linear_10296_2845)"/>
<g filter="url(#filter0_f_10296_2845)">
<circle cx="14" cy="14" r="6" fill="#04030D"/>
</g>
<path d="M19.9717 14.0005L20.9621 14.0021C21.3056 14.0027 21.6391 14.0096 21.9816 14.0146V14.9677L21.9829 19.651L21.982 21.1644C21.9822 21.4142 21.973 21.7614 21.9919 22C21.5683 21.9513 20.4559 21.9803 19.9885 21.9814L18.9816 21.9816C16.1579 21.9394 13.2979 22.0036 10.4658 21.973C10.5192 21.9288 10.9175 21.9487 11.0147 21.9499C11.0131 21.6448 11.001 21.2561 11.0171 20.9578L12.3227 20.9583C12.4924 20.9584 12.8638 20.9686 13.0237 20.95C13.4573 20.9507 14.5788 20.9801 14.9751 20.9293C14.9763 20.6137 14.9815 20.2912 14.9695 19.9763C15.312 19.9806 15.6643 19.9757 16.0077 19.9752C16.0086 19.7662 16.0077 17.9435 16.0077 17.9435L16.9882 17.9628L16.99 16.9932L16.9905 15.9845C16.9866 15.6507 16.9848 15.3169 16.9853 14.9831L16.9881 14.9671C17.1267 14.9957 17.8009 14.9875 17.964 14.9738L17.9694 14.938C18.0132 14.9864 18.031 14.9824 18.1174 14.9828C18.7308 14.9855 19.3512 14.9794 19.9641 14.9806C19.9796 14.6819 19.9621 14.3173 19.9717 14.0005Z" fill="#616D82"/>
<path d="M19.9715 14.0005L20.9619 14.0021C21.3054 14.0027 21.6389 14.0096 21.9814 14.0146V14.9677L21.9827 19.651L21.9818 21.1644C21.982 21.4142 21.9728 21.7614 21.9917 22C21.5681 21.9513 20.4557 21.9803 19.9883 21.9814L18.9814 21.9816C19.0021 21.6995 18.9881 21.2437 18.988 20.9489C19.031 20.7442 18.9623 20.2174 19.0091 19.9782C18.9679 19.8998 18.9954 19.1304 18.9982 18.9987C19.5507 18.9985 20.4287 18.9689 20.9469 18.9991C20.9394 18.6871 20.9398 18.2729 20.9661 17.9669C21.2311 17.9672 21.4962 17.9643 21.7612 17.9579C21.528 17.9363 21.2117 17.9449 20.9719 17.9448L20.972 17.0118C21.2275 17.0127 21.4831 17.0099 21.7385 17.0034C21.5695 16.9836 21.1434 16.9921 20.9544 16.9916C20.9535 17.2656 20.9606 17.6258 20.9444 17.8928C20.9173 17.7922 20.9253 17.1494 20.9252 17.0116L19.011 17.0125C18.7649 17.0125 18.2646 17.0265 18.0344 16.9992C18.1741 16.9744 18.764 16.9858 18.9455 16.9857L20.9399 16.9852C20.9418 16.662 20.9487 16.3389 20.9606 16.016C20.6754 16.0179 20.238 16.0329 19.9659 16.011C19.9636 15.6727 19.9644 15.3344 19.9683 14.9962L19.9639 14.9806C19.9794 14.6819 19.9619 14.3173 19.9715 14.0005Z" fill="#616D82"/>
<path d="M19.0092 19.9782C19.3171 19.9765 19.6688 19.9671 19.973 19.9784C19.9605 20.4058 19.9707 20.8418 19.9728 21.27C19.9736 21.4246 19.9622 21.8492 19.9884 21.9813L18.9814 21.9816C19.0022 21.6995 18.9882 21.2437 18.9881 20.9488C19.031 20.7442 18.9624 20.2174 19.0092 19.9782Z" fill="#4D6395"/>
<path d="M18.9985 18.9986C19.5509 18.9984 20.4289 18.9688 20.9471 18.9991L20.9447 19.9794C20.6714 19.9802 20.2331 19.9953 19.9732 19.9784C19.669 19.967 19.3172 19.9765 19.0093 19.9782C18.9681 19.8997 18.9956 19.1304 18.9985 18.9986Z" fill="#717B90"/>
<path d="M20.9622 14.002C21.3057 14.0026 21.6392 14.0095 21.9817 14.0145V14.9676C21.6432 14.9778 21.2764 14.9641 20.9525 14.978C20.951 14.6526 20.9542 14.3272 20.9622 14.002Z" fill="#616D82"/>
<path d="M19.9715 14.0005L20.9619 14.0021C20.9539 14.3273 20.9506 14.6527 20.9522 14.9781C20.7711 14.9785 20.0715 14.9596 19.9683 14.9962L19.9639 14.9806C19.9794 14.6819 19.9619 14.3173 19.9715 14.0005Z" fill="#4D6395"/>
<path d="M17.9584 17.9567H19.0024L18.9982 18.9986C18.9954 19.1304 18.9678 19.8997 19.009 19.9782C18.9622 20.2174 19.0309 20.7442 18.988 20.9488C18.8938 20.9345 18.5809 20.952 18.4642 20.9515C17.9697 20.9486 17.4752 20.9483 16.9807 20.9507C16.9936 20.6253 16.9943 20.2995 16.9828 19.9741L17.9603 19.97C17.9635 19.2989 17.9629 18.6278 17.9584 17.9567Z" fill="#616D82"/>
<path d="M17.9695 14.938C18.0133 14.9864 18.0311 14.9824 18.1175 14.9827C18.7309 14.9854 19.3513 14.9794 19.9642 14.9806L19.9686 14.9962C19.9647 15.3344 19.9639 15.6727 19.9662 16.0109C19.8506 15.9953 19.4605 16.0044 19.3231 16.0047L17.9711 16.0091C17.9612 15.721 17.993 15.2354 17.9641 14.9738L17.9695 14.938Z" fill="#717B90"/>
<path d="M13.0229 19.976L14.9695 19.9763C14.9815 20.2911 14.9763 20.6137 14.9751 20.9293C14.5788 20.98 13.4573 20.9507 13.0237 20.95L13.0229 19.976Z" fill="#717B90"/>
<path d="M9.02729 16.0115C9.36481 16.0072 9.70236 16.0067 10.0399 16.0099L10.0397 16.987L10.0415 17.9676L9.02004 17.9683C8.69058 17.9718 8.3611 17.9697 8.03174 17.9621C8.04826 17.8223 8.04808 17.1378 8.04022 16.9918C8.24896 16.966 8.72335 16.9975 9.01218 16.973L9.01622 16.0205L9.02729 16.0115Z" fill="#A4A39A"/>
<path d="M9.02731 16.0115C9.36483 16.0072 9.70238 16.0067 10.0399 16.0099L10.0397 16.987L9.01675 16.9899L9.01221 16.973L9.01624 16.0205L9.02731 16.0115Z" fill="#B1B6B0"/>
<path d="M9.01218 16.9729L9.01673 16.9898C9.01374 17.2304 8.99708 17.7361 9.02004 17.9683C8.69058 17.9717 8.3611 17.9696 8.03174 17.9621C8.04826 17.8222 8.04808 17.1378 8.04022 16.9918C8.24896 16.9659 8.72335 16.9975 9.01218 16.9729Z" fill="#616D82"/>
<path d="M6.02048 8.0381C6.366 8.02938 6.71163 8.02569 7.05726 8.02707C7.37467 8.02735 7.7155 8.02168 8.03093 8.03113C8.34663 8.03187 8.70275 8.04016 9.01517 8.0283C9.01216 8.69906 9.01263 9.36984 9.01657 10.0406L9.01417 10.9988L9.0117 12.0007C9.01431 12.3419 9.01508 12.6831 9.01401 13.0242C9.0141 13.3491 9.01899 13.6865 9.01317 14.0103L9.01627 14.9861L9.01174 14.9978C9.01312 15.1576 9.00242 15.9341 9.02764 16.0115L9.01657 16.0205L9.01254 16.973C8.72371 16.9975 8.24931 16.966 8.04058 16.9919C8.04843 17.1378 8.04862 17.8223 8.03209 17.9621L8.01738 17.9685C7.68681 17.9631 7.34327 17.9677 7.0116 17.9674C6.71834 17.9931 6.34828 17.9581 6.02444 17.983L6.02363 15.5639C6.02102 14.9814 6.00472 14.3305 6.02917 13.7525C6.00004 13.4588 6.02524 12.6332 6.02561 12.301C6.0312 11.198 6.02885 10.0949 6.01859 8.99192C6.03146 8.70559 6.01577 8.33941 6.02048 8.0381Z" fill="#717B90"/>
<path d="M6.02939 13.7524C6.05114 13.8295 6.06911 13.8897 6.09704 13.9649C6.4692 14.0179 6.97296 13.9404 7.3661 13.9972C7.51806 14.0191 7.73849 13.989 7.90327 14.0058C7.99651 14.0673 7.98812 13.9777 8.00481 14.0949C8.04378 14.3683 7.98551 14.6468 8.01585 14.9191L8.03655 14.9848C8.17028 14.9833 8.91947 14.9672 9.01196 14.9977C9.01334 15.1575 9.00264 15.934 9.02786 16.0115L9.01679 16.0205L9.01276 16.9729C8.72393 16.9975 8.24953 16.9659 8.0408 16.9918C8.04865 17.1378 8.04884 17.8222 8.03231 17.9621L8.0176 17.9685C7.68703 17.963 7.34349 17.9676 7.01182 17.9674C6.71856 17.993 6.3485 17.958 6.02466 17.983L6.02385 15.5639C6.02124 14.9814 6.00494 14.3304 6.02939 13.7524Z" fill="#616D82"/>
<path d="M8.01543 14.9192L8.03613 14.9849C8.16985 14.9834 8.91904 14.9672 9.01154 14.9978C9.01291 15.1576 9.00221 15.9341 9.02743 16.0115L9.01636 16.0205L9.01233 16.973C8.7235 16.9976 8.24911 16.966 8.04037 16.9919L8.0165 16.9871L7.04102 16.9846C7.09335 16.7933 7.03424 15.803 7.03261 15.5503C7.03144 15.3698 7.03801 15.1393 7.04568 14.9466C7.17988 14.9505 7.93203 14.9272 7.98853 14.9412L8.01543 14.9192Z" fill="#556077"/>
<path d="M8.03626 14.9849C8.16999 14.9833 8.91918 14.9672 9.01167 14.9978C9.01305 15.1575 9.00235 15.934 9.02757 16.0115L9.0165 16.0205C8.93468 15.9932 8.18405 16.0067 8.03878 16.0064C8.03011 15.675 8.03638 15.3181 8.03626 14.9849Z" fill="#717B90"/>
<path d="M8.03899 16.0063C8.18425 16.0066 8.93489 15.9932 9.01671 16.0205L9.01267 16.9729C8.72385 16.9975 8.24945 16.9659 8.04071 16.9918L8.01685 16.9871C8.05305 16.8833 8.04018 16.154 8.03899 16.0063Z" fill="#616D82"/>
<path d="M7.04114 16.9846L8.01662 16.9871L8.04049 16.9919C8.04834 17.1378 8.04853 17.8223 8.032 17.9621L8.0173 17.9685C7.68672 17.9631 7.34318 17.9677 7.01151 17.9674C7.03436 17.8613 7.0158 17.1565 7.00513 17.0258L7.04114 16.9846Z" fill="#4D6395"/>
<path d="M8.0527 11.0135C8.27302 11.0151 8.81273 11.028 9.01405 10.9988L9.01158 12.0007C9.01419 12.3419 9.01496 12.683 9.01389 13.0242C8.48821 12.991 7.59481 13.0191 7.05016 13.0189L7.04932 11.9967L8.03941 11.9956L8.04233 11.0125L8.0527 11.0135Z" fill="#556077"/>
<path d="M8.05284 11.0135C8.27316 11.0151 8.81287 11.028 9.01419 10.9988L9.01172 12.0007C8.74548 11.9745 8.33929 12.0111 8.03955 11.9956L8.04246 11.0125L8.05284 11.0135Z" fill="#616D82"/>
<path d="M7.03784 10.026C7.35874 10.0396 7.71016 10.0207 8.03796 10.0301C8.36889 10.0439 8.69489 10.0295 9.01635 10.0405L9.01395 10.9987C8.81263 11.0279 8.27292 11.015 8.0526 11.0134L8.04223 11.0124C7.7086 11.0149 7.37373 11.0206 7.04038 11.0085C7.05143 10.7113 7.05572 10.3196 7.03784 10.026Z" fill="#4D6395"/>
<path d="M8.03802 10.0302C8.36895 10.044 8.69495 10.0296 9.01641 10.0406L9.01401 10.9988C8.81269 11.028 8.27298 11.0151 8.05266 11.0135C8.01177 10.7701 8.06278 10.3027 8.03802 10.0302Z" fill="#556077"/>
<path d="M6.02044 8.03805C6.36596 8.02932 6.71159 8.02564 7.05723 8.02701C7.05692 8.34635 7.05002 8.6904 7.0576 9.00768C6.83245 9.00859 6.20685 9.02157 6.01855 8.99187C6.03142 8.70554 6.01573 8.33935 6.02044 8.03805Z" fill="#4D6395"/>
<path d="M7.90308 14.0057C8.17473 14.0034 8.75196 13.9907 9.01319 14.0102L9.01629 14.986L9.01177 14.9977C8.91928 14.9671 8.17009 14.9833 8.03636 14.9848L8.01566 14.9191C7.98531 14.6468 8.04359 14.3683 8.00461 14.0948C7.98792 13.9776 7.99631 14.0673 7.90308 14.0057Z" fill="#616D82"/>
<path d="M20.9491 6.02184C21.2883 6.0223 21.6663 6.03157 22 6C21.9801 6.28882 21.975 6.75432 21.9821 7.05309L21.9859 8.83969L21.9806 11.9184C21.9808 12.1511 22.0043 13.071 21.9785 13.256C21.9881 13.5042 21.9829 13.7652 21.9818 14.0145C21.6392 14.0095 21.3058 14.0026 20.9623 14.002L19.9719 14.0004C19.9623 14.3173 19.9798 14.6818 19.9642 14.9806C19.3513 14.9794 18.7309 14.9854 18.1175 14.9827C18.0312 14.9824 18.0134 14.9864 17.9695 14.938C17.959 14.6433 17.9661 14.3008 17.9649 14.0023L17.9648 13.0249L17.968 11.9963L18.9963 11.9956C18.9797 11.7081 18.9915 11.3142 18.9922 11.0188L18.9917 10.0372C18.9882 9.36804 18.9887 8.69885 18.9934 8.02968L18.9884 8.01092L18.9882 6.0171C19.311 6.01355 19.6488 6.00481 19.9704 6.0081C20.2996 6.02515 20.6195 6.02249 20.9491 6.02184Z" fill="#616D82"/>
<path d="M20.9486 6.02184C21.2878 6.0223 21.6658 6.03157 21.9996 6C21.9796 6.28882 21.9745 6.75432 21.9817 7.05309L21.9855 8.83969C21.9808 8.87247 21.9711 8.99124 21.9538 8.99371C21.675 9.03342 21.2214 8.99196 20.9522 9.01298C20.937 8.7285 20.9487 8.32582 20.9479 8.03205L19.9856 8.02825L19.9747 8.01591C19.7879 8.04491 19.2076 8.03126 18.9929 8.02968L18.988 8.01092L18.9878 6.0171C19.3106 6.01355 19.6483 6.00481 19.9699 6.0081C20.2992 6.02515 20.6191 6.02249 20.9486 6.02184Z" fill="#A4A39A"/>
<path d="M20.9489 7.05357C21.2472 7.03619 21.674 7.05128 21.9817 7.0531L21.9855 8.8397C21.9808 8.87248 21.9711 8.99125 21.9538 8.99373C21.675 9.03343 21.2214 8.99198 20.9522 9.013C20.937 8.72851 20.9487 8.32584 20.9479 8.03207L20.9489 7.05357Z" fill="#556077"/>
<path d="M18.9878 6.01706C19.3106 6.01351 19.6483 6.00476 19.9699 6.00805L19.9697 7.05393C19.9699 7.32698 19.9568 7.75539 19.9747 8.01587C19.7879 8.04486 19.2076 8.03122 18.9929 8.02963L18.988 8.01087L18.9878 6.01706Z" fill="#4D6395"/>
<path d="M20.9487 6.02184C21.2879 6.0223 21.6659 6.03157 21.9997 6C21.9797 6.28882 21.9746 6.75432 21.9818 7.05309C21.6741 7.05127 21.2473 7.03617 20.949 7.05355L20.9487 6.02184Z" fill="#616D82"/>
<path d="M19.9697 7.05394C20.2961 7.04743 20.6226 7.04729 20.949 7.05352L20.9479 8.03202L19.9857 8.02822L19.9748 8.01588C19.9569 7.7554 19.97 7.32699 19.9697 7.05394Z" fill="#B1B6B0"/>
<path d="M19.975 8.01587L19.9859 8.02821L20.9481 8.03201C20.9489 8.32578 20.9373 8.72846 20.9525 9.01294L20.9477 9.02505C20.9492 9.35881 20.9551 9.70528 20.9464 10.0378C20.6373 10.038 20.3157 10.0433 20.0079 10.0278C19.9419 10.1158 19.9694 10.5224 19.9723 10.6602C19.9699 10.7742 19.9635 10.9093 19.969 11.0215C19.9699 11.3436 19.9729 11.6685 19.9698 11.9904C19.6866 12.007 19.288 11.9955 18.9961 11.9956C18.9795 11.7081 18.9914 11.3142 18.992 11.0188L18.9915 10.0372C18.988 9.368 18.9886 8.6988 18.9932 8.02963C19.2079 8.03122 19.7881 8.04487 19.975 8.01587Z" fill="#A4A39A"/>
<path d="M19.9685 9.00972C20.1135 9.00795 20.8407 8.99414 20.9474 9.02507C20.949 9.35883 20.9549 9.7053 20.9461 10.0378C20.6371 10.038 20.3154 10.0433 20.0076 10.0278C19.9355 9.9725 19.9672 9.15918 19.9685 9.00972Z" fill="#B1B6B0"/>
<path d="M19.986 8.0282L20.9482 8.032C20.949 8.32577 20.9374 8.72844 20.9526 9.01293L20.9478 9.02504C20.841 8.9941 20.1138 9.00791 19.9689 9.00969C19.9689 8.78756 19.9565 8.22123 19.986 8.0282Z" fill="#717B90"/>
<path d="M18.992 11.0188L19.969 11.0215C19.9699 11.3436 19.9729 11.6686 19.9698 11.9904C19.6866 12.0071 19.288 11.9955 18.9961 11.9956C18.9795 11.7081 18.9914 11.3142 18.992 11.0188Z" fill="#B1B6B0"/>
<path d="M19.9732 13.0299L21.2089 13.0274C21.4089 13.0268 21.7492 13.0165 21.9369 13.0403C21.9735 13.0855 21.973 13.192 21.9783 13.2559C21.9879 13.5042 21.9827 13.7652 21.9815 14.0145C21.639 14.0095 21.3056 14.0026 20.9621 14.002L19.9717 14.0004L19.9732 13.0299Z" fill="#717B90"/>
<path d="M20.0081 10.0278C20.3159 10.0433 20.6375 10.0381 20.9466 10.0378C20.9555 10.3266 20.9621 10.7327 20.947 11.0197C20.6267 11.0142 20.3063 11.0153 19.986 11.0231C19.9857 10.8916 19.9842 10.7925 19.9725 10.6603C19.9696 10.5225 19.9421 10.1159 20.0081 10.0278Z" fill="#4D6395"/>
<path d="M19.9723 10.6603C19.984 10.7924 19.9855 10.8916 19.9858 11.0231C20.3061 11.0153 20.6265 11.0142 20.9468 11.0197C20.9446 11.3427 20.9445 11.6657 20.9465 11.9887L19.9698 11.9904C19.9728 11.6686 19.9698 11.3437 19.969 11.0215C19.9635 10.9093 19.9699 10.7742 19.9723 10.6603Z" fill="#717B90"/>
<path d="M17.9638 11.0121C18.298 11.0171 18.6655 11.0078 18.9921 11.0188C18.9914 11.3142 18.9796 11.7081 18.9962 11.9956L17.9679 11.9963C17.9541 11.6995 17.9645 11.3156 17.9638 11.0121Z" fill="#A4A39A"/>
<path d="M6.00562 6.00488C6.31965 6.03442 6.73129 6.02079 7.0507 6.01762C7.05418 6.35952 7.06182 6.71199 7.05362 7.05277L7.05742 8.027C6.71178 8.02562 6.36615 8.02931 6.02063 8.03803C6.0242 7.73496 6.02783 7.44221 6.01928 7.13913C5.98191 6.91025 6.01142 6.27504 6.00562 6.00488Z" fill="#4D6395"/>
<path d="M6.01904 7.13918L6.04095 7.07524C6.14792 7.02309 6.88049 7.0502 7.05338 7.05282L7.05718 8.02705C6.71155 8.02567 6.36591 8.02936 6.02039 8.03808C6.02396 7.73501 6.0276 7.44226 6.01904 7.13918Z" fill="#717B90"/>
<path d="M16.9856 14.0029L17.9646 14.0022C17.9658 14.3007 17.9587 14.6432 17.9693 14.9379L17.9639 14.9737C17.8008 14.9873 17.1266 14.9956 16.988 14.967C16.983 14.6483 16.9861 14.3222 16.9856 14.0029Z" fill="#A4A39A"/>
<path d="M7.05322 7.05282C7.3703 7.05005 7.71873 7.05562 8.03229 7.04529C8.03241 7.35784 8.04183 7.72293 8.03068 8.03112C7.71526 8.02167 7.37443 8.02734 7.05702 8.02706L7.05322 7.05282Z" fill="#4D6395"/>
<path d="M9.02037 17.9684L10.0418 17.9677L10.0405 19.074L10.0394 19.9751L11.0195 19.9749C11.0193 20.282 11.0295 20.6564 11.0171 20.9578C11.0009 21.2562 11.0131 21.6448 11.0147 21.9499C10.9175 21.9487 10.5191 21.9288 10.4658 21.973L10.0391 21.9804L7.54073 21.9785C7.07892 21.9785 6.4729 21.963 6.021 21.9941C6.02396 21.63 6.02445 21.2659 6.02246 20.9018C6.03116 20.6152 6.02344 20.2874 6.02351 19.9975C6.02573 19.6528 6.02543 19.3082 6.02258 18.9635L6.02442 17.9831C6.34826 17.9581 6.71832 17.9931 7.01158 17.9675C7.34325 17.9677 7.68679 17.9631 8.01736 17.9686L8.03207 17.9622C8.36144 17.9697 8.69092 17.9718 9.02037 17.9684Z" fill="#616D82"/>
<path d="M9.02001 17.9684L10.0415 17.9677L10.0401 19.074C10.0062 19.0241 10.0079 19.0051 9.94593 19.002C9.65107 18.9871 9.31366 18.996 9.02122 19.0001L9.01598 19.9674C8.36664 19.9732 7.71729 19.9757 7.06793 19.9747C6.85271 19.9743 6.19389 19.9635 6.02315 19.9975C6.02536 19.6528 6.02506 19.3082 6.02222 18.9635L6.02406 17.9831C6.3479 17.9581 6.71796 17.9931 7.01122 17.9675C7.34289 17.9677 7.68642 17.9631 8.017 17.9686L8.03171 17.9622C8.36107 17.9697 8.69055 17.9718 9.02001 17.9684Z" fill="#616D82"/>
<path d="M7.01122 17.9674C7.34289 17.9676 7.68642 17.963 8.017 17.9685C8.05248 18.1773 8.03271 18.7656 8.02777 18.9973C7.51298 18.9883 6.99516 19.0043 6.48002 18.997C6.32303 18.9948 6.17681 18.9986 6.02222 18.9634L6.02406 17.983C6.3479 17.958 6.71796 17.993 7.01122 17.9674Z" fill="#556077"/>
<path d="M8.03204 17.9622C8.36141 17.9697 8.69089 17.9718 9.02034 17.9684C9.01524 18.3111 9.01496 18.654 9.0195 18.9967L8.0281 18.9974C8.03304 18.7656 8.05281 18.1773 8.01733 17.9686L8.03204 17.9622Z" fill="#4D6395"/>
<path d="M9.02145 19C9.31389 18.9959 9.6513 18.9871 9.94616 19.002C10.0081 19.0051 10.0064 19.0241 10.0404 19.0739L10.0393 19.975L11.0194 19.9749C11.0191 20.2819 11.0293 20.6563 11.017 20.9577C11.0008 21.2561 11.0129 21.6448 11.0146 21.9499C10.9174 21.9487 10.519 21.9288 10.4657 21.973L10.039 21.9804C10.043 21.6363 10.0447 21.2922 10.044 20.9481L9.01562 20.9538L9.01621 19.9673L9.02145 19Z" fill="#717B90"/>
<path d="M7.06803 19.9746C7.71739 19.9756 8.36674 19.9731 9.01608 19.9673L9.01549 20.9537C8.43499 20.9869 7.70009 20.9477 7.10125 20.9515C7.02764 20.8464 7.05409 20.1309 7.06803 19.9746Z" fill="#4D6395"/>
<path d="M6.02327 19.9974C6.19401 19.9634 6.85283 19.9742 7.06805 19.9746C7.05411 20.1309 7.02765 20.8464 7.10126 20.9515C6.83929 20.9539 6.24962 20.985 6.02222 20.9017C6.03091 20.6151 6.0232 20.2873 6.02327 19.9974Z" fill="#556077"/>
</g>
<rect x="0.25" y="0.25" width="27.5" height="27.5" rx="5.75" stroke="url(#paint1_linear_10296_2845)" stroke-width="0.5"/>
<defs>
<filter id="filter0_f_10296_2845" x="-1.1" y="-1.1" width="30.2" height="30.2" filterUnits="userSpaceOnUse" color-interpolation-filters="sRGB">
<feFlood flood-opacity="0" result="BackgroundImageFix"/>
<feBlend mode="normal" in="SourceGraphic" in2="BackgroundImageFix" result="shape"/>
<feGaussianBlur stdDeviation="4.55" result="effect1_foregroundBlur_10296_2845"/>
</filter>
<linearGradient id="paint0_linear_10296_2845" x1="14" y1="0" x2="14" y2="28" gradientUnits="userSpaceOnUse">
<stop stop-color="#282C3E"/>
<stop offset="1" stop-color="#181822"/>
</linearGradient>
<linearGradient id="paint1_linear_10296_2845" x1="14" y1="0" x2="14" y2="30.9167" gradientUnits="userSpaceOnUse">
<stop stop-color="#717B90"/>
<stop offset="1" stop-color="#717B90" stop-opacity="0"/>
</linearGradient>
<clipPath id="clip0_10296_2845">
<rect width="28" height="28" rx="6" fill="white"/>
</clipPath>
</defs>
</svg>
