<svg width="28" height="28" viewBox="0 0 28 28" fill="none" xmlns="http://www.w3.org/2000/svg">
<g clip-path="url(#clip0_10296_2871)">
<rect width="28" height="28" rx="6" fill="url(#paint0_linear_10296_2871)"/>
<g filter="url(#filter0_f_10296_2871)">
<circle cx="14" cy="14" r="6" fill="#04030D"/>
</g>
<path d="M11.0039 11.0218C11.1696 11.0207 11.8361 11.0074 11.9826 11.0287L11.9841 13.032L11.9823 14.9804C11.9825 15.6348 11.995 16.3309 11.9809 16.9817C12.6386 16.9856 13.3352 16.9975 13.9916 16.9823C14.6542 16.9865 15.3168 16.9846 15.9793 16.9768C15.9832 16.6577 15.981 16.3349 15.9812 16.0155C15.9807 15.436 16.0059 14.5674 15.9664 14.0111C16.934 13.9745 17.9937 13.9984 18.9713 13.9953C19.2494 14.0018 19.6632 14.0148 19.9327 13.9865C19.9242 13.6595 19.9163 13.3266 19.9377 13.0003C20.0254 12.9849 20.8199 13.0003 20.9117 13.014L20.9255 13.0346C20.9605 13.3395 20.9504 13.6948 20.9404 14.0032C21.2828 14.0012 21.6599 13.9916 21.9996 14.0022C21.9845 14.3409 21.9679 14.6658 21.9732 15.005L21.9698 15.992C21.9669 16.303 21.9521 16.6895 21.9622 16.9942C21.9632 17.1515 21.9755 17.9918 21.9611 18.0759C21.9538 18.3826 21.9517 18.6895 21.9549 18.9962L21.9533 22C21.7003 21.9597 21.1962 21.9735 20.9252 21.9765C20.6199 21.9667 20.2733 21.9749 19.9649 21.9754L18.9719 21.9749C18.6292 21.9729 18.2864 21.9735 17.9437 21.9764C17.6258 21.9682 17.2821 21.9764 16.9622 21.9785C16.3385 21.9536 15.5892 21.9737 14.96 21.976C14.6432 21.9677 14.2991 21.9762 13.9802 21.9787C13.6687 21.9665 13.3177 21.9746 13.0031 21.9758C12.6729 21.9667 12.3082 21.9755 11.9755 21.9768C11.6757 21.9648 11.3175 21.9744 11.0134 21.9752L9.00105 21.9759C8.67339 21.9721 8.3457 21.9734 8.01808 21.9796C7.69794 21.9695 7.36086 21.9751 7.03916 21.9762C6.7347 21.9682 6.3049 21.9656 6.00666 21.9893C6.01535 21.6544 6.00811 21.29 6.0079 20.9529C6.01698 20.3955 5.98989 19.7842 6.0154 19.2354L6.01039 19.0177L6.00955 17.9884C6.01456 17.6577 6.0089 17.3126 6.00832 16.9807L6.00785 16.0105L6.01086 14.9896L6.00946 14.0294C6.00985 13.7061 6.01768 13.3375 6 13.0187C6.64971 13.036 7.35714 13.021 8.01477 13.0247C8.01766 12.6835 8.01712 12.3422 8.01314 12.0011C8.32315 11.9877 8.66817 12.0084 8.99136 11.9958L8.997 12.0111C9.07003 11.991 9.86481 11.999 10.0118 11.9974L10.0228 11.9761C10.0181 11.6574 10.0192 11.3387 10.026 11.0201C10.3233 11.009 10.7049 11.0128 11.0039 11.0218Z" fill="#100D1C"/>
<path d="M19.9378 13.0003C20.0255 12.9849 20.82 13.0003 20.9118 13.014L20.9256 13.0346C20.9607 13.3395 20.9505 13.6948 20.9405 14.0032C21.283 14.0012 21.66 13.9916 21.9997 14.0022C21.9847 14.3409 21.968 14.6658 21.9734 15.005L21.9699 15.992C21.967 16.303 21.9522 16.6895 21.9624 16.9942C21.9633 17.1515 21.9757 17.9918 21.9612 18.0759C21.9539 18.3826 21.9518 18.6895 21.955 18.9962L21.9534 22C21.7004 21.9597 21.1963 21.9735 20.9253 21.9765C20.62 21.9667 20.2734 21.9749 19.965 21.9753L18.9721 21.9749C18.9523 21.6897 18.9662 21.2495 18.9627 20.9467L17.9446 20.9453L16.9756 20.9461L16.9626 20.9376C16.9579 20.615 16.9587 20.2922 16.9649 19.9696L15.9844 19.9665C15.9857 19.645 15.9853 19.3234 15.9832 19.0019L15.9707 18.992C16.0014 18.8888 15.9963 18.0871 15.9728 17.963L15.9851 17.9506C16.2538 17.9927 16.6997 17.9357 16.9636 17.9632L17.1002 17.9495C17.226 17.9753 17.6492 17.9662 17.8146 17.9702L17.9072 17.955C17.9865 17.8513 17.9335 17.1803 17.9466 16.9824C17.9332 16.6773 17.9425 16.3169 17.9436 16.0076C17.6174 16.01 17.2912 16.0088 16.9651 16.0041C16.6931 15.994 16.2495 16.0039 15.9813 16.0155C15.9808 15.436 16.0061 14.5674 15.9666 14.0111C16.9341 13.9745 17.9938 13.9984 18.9714 13.9953C19.2495 14.0018 19.6634 14.0148 19.9328 13.9865C19.9243 13.6595 19.9164 13.3266 19.9378 13.0003Z" fill="#6106AB"/>
<path d="M19.9378 13.0003C20.0255 12.9849 20.82 13.0003 20.9118 13.014L20.9256 13.0346C20.9607 13.3395 20.9505 13.6948 20.9405 14.0032C21.283 14.0012 21.66 13.9916 21.9997 14.0022C21.9847 14.3409 21.968 14.6658 21.9734 15.005L21.9699 15.992C21.967 16.303 21.9522 16.6895 21.9624 16.9942C21.6225 16.98 21.2632 16.9869 20.9215 16.9885L20.9267 17.9604C20.6068 17.9561 20.2736 17.9623 19.9526 17.9638C19.6423 17.9633 19.3224 17.9583 19.0131 17.9723L18.9693 17.9902C18.961 17.6623 18.9672 17.3186 18.9687 16.9893C18.628 16.9847 18.2873 16.9824 17.9466 16.9824C17.9332 16.6773 17.9425 16.3169 17.9436 16.0076C17.6174 16.01 17.2912 16.0088 16.9651 16.0041C16.6931 15.994 16.2495 16.0039 15.9813 16.0155C15.9808 15.436 16.0061 14.5674 15.9666 14.0111C16.9341 13.9745 17.9938 13.9984 18.9714 13.9953C19.2495 14.0018 19.6634 14.0148 19.9328 13.9865C19.9243 13.6595 19.9164 13.3266 19.9378 13.0003Z" fill="#100D1C"/>
<path d="M15.9666 14.0111C16.9341 13.9745 17.9938 13.9984 18.9714 13.9953C18.9664 14.3241 18.9659 14.6528 18.9698 14.9816C18.3023 14.9842 17.6348 14.9829 16.9673 14.9777L16.9651 16.0042C16.6931 15.9941 16.2495 16.0039 15.9813 16.0155C15.9808 15.4361 16.0061 14.5674 15.9666 14.0111Z" fill="#281F3D"/>
<path d="M19.938 13.0003C20.0257 12.9849 20.8202 13.0003 20.912 13.014L20.9258 13.0346C20.9608 13.3395 20.9507 13.6948 20.9407 14.0032C21.2831 14.0012 21.6602 13.9916 21.9999 14.0022C21.9848 14.3409 21.9682 14.6658 21.9735 15.005C21.8604 14.9621 21.1037 14.9826 20.9265 14.9847C20.599 14.9802 20.2715 14.9804 19.944 14.9855L19.9457 14.0062C19.9459 13.6762 19.9511 13.3282 19.938 13.0003Z" fill="#D69221"/>
<path d="M19.9456 14.0061C20.2736 14.0017 20.6017 14.0036 20.9296 14.0116C20.9279 14.3345 20.9234 14.6623 20.9263 14.9847C20.5989 14.9801 20.2713 14.9804 19.9438 14.9855L19.9456 14.0061Z" fill="#F0CE59"/>
<path d="M20.9262 14.9848C21.1034 14.9827 21.8601 14.9622 21.9732 15.005L21.9698 15.992C21.9669 16.303 21.9521 16.6895 21.9623 16.9943C21.6224 16.9801 21.2631 16.9869 20.9214 16.9885L20.9082 16.9833C20.9559 16.801 20.887 16.1668 20.9399 16.0084L20.9204 16.0044C20.9426 15.7917 20.9272 15.2248 20.9262 14.9848Z" fill="#F0CE59"/>
<path d="M21.9698 15.9919C21.9669 16.3029 21.9521 16.6894 21.9623 16.9942C21.6224 16.98 21.2631 16.9868 20.9214 16.9885L20.9082 16.9833C20.9559 16.8009 20.887 16.1667 20.9399 16.0084C21.0917 16.0086 21.8985 16.025 21.9698 15.9919Z" fill="#6E2E2D"/>
<path d="M19.9437 14.9855C20.2712 14.9804 20.5987 14.9801 20.9262 14.9847C20.9272 15.2247 20.9426 15.7916 20.9204 16.0043C20.7107 16.0083 20.135 16.0248 19.947 15.9926C19.9408 15.6616 19.9446 15.3176 19.9437 14.9855Z" fill="#FEFFFE"/>
<path d="M19.947 15.9926C20.1349 16.0248 20.7106 16.0083 20.9204 16.0043L20.9398 16.0083C20.8869 16.1667 20.9559 16.8009 20.9081 16.9832L19.9474 16.9861L19.9458 16.0052L19.947 15.9926Z" fill="#874343"/>
<path d="M18.9672 16.006C19.2901 16.0103 19.6223 16.0057 19.946 16.0052L19.9476 16.9861L19.0133 16.9787C18.9348 16.8873 18.9651 16.1738 18.9672 16.006Z" fill="#281F3D"/>
<path d="M19.9474 16.9861L20.9081 16.9833L20.9213 16.9885L20.9265 17.9604C20.6066 17.956 20.2734 17.9623 19.9524 17.9638C19.9362 17.6861 19.9482 17.2741 19.9474 16.9861Z" fill="#6E2E2D"/>
<path d="M19.0131 16.9788L19.9475 16.9862C19.9483 17.2742 19.9363 17.6862 19.9525 17.9639C19.6422 17.9634 19.3223 17.9584 19.013 17.9723C18.9614 17.8854 18.9758 17.0804 19.0131 16.9788Z" fill="#020105"/>
<path d="M21.9624 16.9942C21.9633 17.1515 21.9757 17.9918 21.9612 18.0758C21.9539 18.3826 21.9518 18.6894 21.955 18.9962L21.9534 22C21.7004 21.9596 21.1963 21.9734 20.9253 21.9764C20.62 21.9667 20.2734 21.9748 19.965 21.9753L18.9721 21.9748C18.9523 21.6896 18.9662 21.2495 18.9627 20.9466L19.9447 20.9456C19.963 20.7162 19.9475 20.2226 19.9476 19.9732L19.9468 18.9886L19.9527 17.9638C20.2736 17.9622 20.6068 17.956 20.9267 17.9603L20.9215 16.9884C21.2632 16.9868 21.6225 16.98 21.9624 16.9942Z" fill="#161112"/>
<path d="M21.9623 16.9942C21.9632 17.1515 21.9756 17.9918 21.9612 18.0758C21.9538 18.3826 21.9518 18.6894 21.955 18.9962C21.6142 18.9834 21.2667 18.987 20.9252 18.9872L20.9236 19.9687C20.5983 19.9653 20.2729 19.9668 19.9476 19.9732L19.9468 18.9886L19.9526 17.9638C20.2736 17.9622 20.6068 17.956 20.9267 17.9603L20.9215 16.9884C21.2632 16.9868 21.6224 16.98 21.9623 16.9942Z" fill="#3D3B47"/>
<path d="M21.9622 16.9942C21.9632 17.1515 21.9755 17.9918 21.9611 18.0758L21.9525 18.0016C21.8755 17.9343 21.0807 17.96 20.9266 17.9603L20.9214 16.9884C21.2631 16.9868 21.6224 16.98 21.9622 16.9942Z" fill="#531615"/>
<path d="M19.9476 19.9733C20.2729 19.9669 20.5983 19.9654 20.9237 19.9688L20.9253 21.9765C20.62 21.9667 20.2734 21.9749 19.965 21.9754L18.9721 21.9749C18.9523 21.6897 18.9662 21.2496 18.9627 20.9467L19.9447 20.9457C19.963 20.7162 19.9475 20.2227 19.9476 19.9733Z" fill="#28231E"/>
<path d="M18.9627 20.9467L19.9447 20.9457C19.9441 21.1505 19.9323 21.8005 19.965 21.9754L18.9721 21.9749C18.9523 21.6897 18.9662 21.2496 18.9627 20.9467Z" fill="#2F2931"/>
<path d="M18.969 18.9907L19.9467 18.9886L19.9475 19.9732C19.9473 20.2226 19.9628 20.7162 19.9446 20.9456L18.9625 20.9466L17.9445 20.9452L16.9755 20.946L16.9625 20.9376C16.9578 20.6149 16.9586 20.2922 16.9648 19.9695C17.2414 19.9691 17.6833 19.9546 17.9466 19.9727C18.2874 19.9688 18.6282 19.9667 18.969 19.9663V18.9907Z" fill="#100D1C"/>
<path d="M18.9696 17.9902L19.0134 17.9722C19.3227 17.9583 19.6427 17.9633 19.953 17.9638L19.9471 18.9887L18.9695 18.9908V19.9663C18.6287 19.9667 18.2878 19.9689 17.947 19.9727C17.9447 19.6452 17.9447 19.3177 17.9473 18.9903L18.9701 18.9878L18.9696 17.9902Z" fill="#281F3D"/>
<path d="M15.9854 17.9506C16.2541 17.9927 16.7 17.9357 16.9639 17.9632C16.9615 18.3 16.9615 18.6367 16.9639 18.9735L16.9711 18.9892C16.9542 19.2919 16.9596 19.6628 16.9652 19.9696L15.9847 19.9665C15.986 19.645 15.9856 19.3234 15.9835 19.0019L15.9709 18.992C16.0017 18.8888 15.9966 18.0871 15.9731 17.963L15.9854 17.9506Z" fill="#281F3D"/>
<path d="M16.9633 18.9735L16.9705 18.9892C16.9536 19.2919 16.9591 19.6628 16.9646 19.9696L15.9841 19.9665C15.9854 19.645 15.985 19.3235 15.9829 19.0019C16.1622 18.9499 16.7584 19.032 16.9633 18.9735Z" fill="#2B0079"/>
<path d="M17.1003 17.9495C17.2261 17.9753 17.6493 17.9662 17.8147 17.9702C17.9067 17.9869 17.8915 17.9692 17.9384 18.0284C17.9802 18.2318 17.9392 18.7424 17.9422 18.9881C17.6184 18.9922 17.2947 18.9926 16.9709 18.9892L16.9637 18.9735C16.9613 18.6367 16.9613 18.2999 16.9637 17.9632L17.1003 17.9495Z" fill="#8407E5"/>
<path d="M8.99136 11.9958L8.997 12.0111L8.99835 13.0067L8.9969 14.016C8.99283 14.3383 8.99315 14.6606 8.99793 14.9829C8.99429 15.6503 8.99413 16.3178 8.99746 16.9852L8.01326 16.9871C7.6893 16.982 7.36529 16.9818 7.04131 16.9863C6.70635 16.9919 6.3453 16.9829 6.00832 16.9807L6.00785 16.0106L6.01086 14.9896L6.00946 14.0294C6.00985 13.7061 6.01768 13.3376 6 13.0187C6.64971 13.0361 7.35714 13.0211 8.01477 13.0247C8.01766 12.6835 8.01712 12.3423 8.01314 12.0011C8.32315 11.9877 8.66817 12.0084 8.99136 11.9958Z" fill="#161112"/>
<path d="M8.99156 11.9958L8.9972 12.0111L8.99855 13.0067L8.9971 14.016C8.99303 14.3383 8.99335 14.6606 8.99813 14.9829C8.99449 15.6503 8.99433 16.3178 8.99766 16.9852L8.01346 16.9871C7.6895 16.982 7.36549 16.9818 7.0415 16.9863L7.04162 16.0074L8.01711 16.007C8.03186 15.7098 8.01891 15.2863 8.01984 14.9791C8.02259 14.6538 8.02194 14.3285 8.01784 14.0033L8.01497 13.0247C8.01786 12.6835 8.01732 12.3423 8.01334 12.0011C8.32335 11.9877 8.66837 12.0084 8.99156 11.9958Z" fill="#281F3D"/>
<path d="M7.04162 16.0073L8.01711 16.007L8.01346 16.987C7.6895 16.9819 7.36549 16.9817 7.0415 16.9863L7.04162 16.0073Z" fill="#2F2931"/>
<path d="M6 13.0187C6.64971 13.036 7.35714 13.021 8.01477 13.0246L8.01764 14.0032C7.68965 14.0064 7.36163 14.0051 7.03369 13.999C6.7826 14 6.24811 13.994 6.00946 14.0294C6.00985 13.706 6.01768 13.3375 6 13.0187Z" fill="#3D3B47"/>
<path d="M6.0083 16.0105L7.04187 16.0073L7.04175 16.9862C6.7068 16.9919 6.34575 16.9828 6.00877 16.9807L6.0083 16.0105Z" fill="#28231E"/>
<path d="M6.00977 14.0294C6.24841 13.994 6.78291 14 7.03399 13.999C7.03977 14.3262 7.04143 14.6534 7.03898 14.9806C6.69841 14.9801 6.35083 14.9761 6.01116 14.9895L6.00977 14.0294Z" fill="#2F2931"/>
<path d="M7.03369 13.999C7.36164 14.0051 7.68965 14.0065 8.01764 14.0032C8.02174 14.3285 8.02239 14.6538 8.01964 14.979C7.71539 14.9908 7.34773 14.9809 7.03868 14.9806C7.04112 14.6534 7.03947 14.3262 7.03369 13.999Z" fill="#28231E"/>
<path d="M11.9782 19.9681C13.3079 19.9746 14.6569 19.9415 15.9843 19.9665L16.9648 19.9696C16.9586 20.2922 16.9578 20.615 16.9626 20.9376L16.9755 20.9461L17.9445 20.9453L18.9626 20.9467C18.9661 21.2496 18.9523 21.6897 18.972 21.9749C18.6292 21.9729 18.2865 21.9735 17.9437 21.9764C17.6258 21.9682 17.2821 21.9764 16.9622 21.9785C16.3385 21.9536 15.5893 21.9737 14.96 21.976C14.6433 21.9677 14.2991 21.9762 13.9802 21.9787C13.6688 21.9665 13.3177 21.9746 13.0031 21.9758L13.0019 20.947L11.9803 20.9431C11.9646 20.666 11.9779 20.2552 11.9782 19.9681Z" fill="#020105"/>
<path d="M16.9627 20.9376L16.9757 20.9461L17.9447 20.9452L18.9628 20.9466C18.9663 21.2495 18.9524 21.6897 18.9722 21.9749C18.6294 21.9729 18.2867 21.9734 17.9439 21.9764C17.626 21.9682 17.2823 21.9763 16.9624 21.9784C16.3387 21.9536 15.5895 21.9737 14.9602 21.976L14.958 20.9488C15.5441 20.9553 16.3845 20.9672 16.9627 20.9376Z" fill="#161112"/>
<path d="M17.9446 20.9452L18.9627 20.9466C18.9662 21.2495 18.9524 21.6896 18.9721 21.9748C18.6293 21.9729 18.2866 21.9734 17.9438 21.9764L17.9446 20.9452Z" fill="#3D3B47"/>
<path d="M16.9755 20.946L17.9445 20.9452L17.9437 21.9764C17.6258 21.9682 17.2821 21.9763 16.9622 21.9784C16.9625 21.6895 16.9488 21.2182 16.9755 20.946Z" fill="#28231E"/>
<path d="M13.002 20.947C13.328 20.9469 13.6593 20.9501 13.9848 20.9465L14.9579 20.9489L14.9601 21.976C14.6434 21.9677 14.2992 21.9762 13.9803 21.9788C13.6689 21.9665 13.3178 21.9746 13.0032 21.9758L13.002 20.947Z" fill="#161112"/>
<path d="M13.9849 20.9465L14.9581 20.9489L14.9603 21.976C14.6435 21.9677 14.2994 21.9762 13.9805 21.9788L13.9849 20.9465Z" fill="#28231E"/>
<path d="M6.00858 16.9807C6.34556 16.9829 6.70661 16.9919 7.04157 16.9863C7.36555 16.9818 7.68956 16.982 8.01352 16.9871C8.02195 17.3122 8.01501 17.6358 8.01939 17.9601L8.01573 18.9814C8.0196 19.6361 8.01948 20.2909 8.01536 20.9456L8.99563 20.9467C8.99637 21.2326 8.98212 21.7056 9.00131 21.9759C8.67365 21.9721 8.34596 21.9734 8.01834 21.9796C7.6982 21.9695 7.36112 21.9751 7.03942 21.9762C6.73496 21.9682 6.30517 21.9656 6.00692 21.9893C6.01561 21.6544 6.00837 21.29 6.00816 20.9529C6.01725 20.3955 5.99015 19.7842 6.01566 19.2354L6.01065 19.0178L6.00981 17.9884C6.01482 17.6577 6.00916 17.3126 6.00858 16.9807Z" fill="#161112"/>
<path d="M6.0083 16.9807C6.34528 16.9829 6.70633 16.9919 7.04129 16.9863C7.36527 16.9818 7.68928 16.982 8.01324 16.9871C8.02167 17.3122 8.01473 17.6358 8.01911 17.9601C7.69077 17.9654 7.36238 17.9664 7.03404 17.9633C7.03579 18.2861 7.02862 18.6644 7.04234 18.9836C6.82631 18.9843 6.17792 18.9742 6.01037 19.0178L6.00954 17.9884C6.01454 17.6577 6.00888 17.3126 6.0083 16.9807Z" fill="#28231E"/>
<path d="M6.0083 16.9807C6.34528 16.9829 6.70633 16.9919 7.04129 16.9863L7.03835 17.9593C6.82692 17.9604 6.18272 17.9508 6.00954 17.9884C6.01454 17.6577 6.00888 17.3126 6.0083 16.9807Z" fill="#2F2931"/>
<path d="M6.00807 20.9528L7.03803 20.9464L7.03934 21.9761C6.73487 21.9681 6.30508 21.9656 6.00684 21.9892C6.01553 21.6543 6.00828 21.2899 6.00807 20.9528Z" fill="#28231E"/>
<path d="M8.01948 17.9601L8.01582 18.9814L7.03269 18.9809C7.03614 19.1604 7.03826 19.2919 7.02267 19.4702C7.02022 19.3241 7.01587 19.1726 7.01696 19.0269C6.87413 19.012 6.13815 18.9938 6.04944 19.0615L6.01575 19.2353L6.01074 19.0177C6.17829 18.9742 6.82668 18.9842 7.04271 18.9835C7.02898 18.6643 7.03616 18.286 7.03441 17.9633C7.36275 17.9664 7.69114 17.9653 8.01948 17.9601Z" fill="#2F2931"/>
<path d="M8.01514 20.9456L8.9954 20.9467C8.99615 21.2325 8.98189 21.7056 9.00109 21.9759C8.67342 21.9721 8.34574 21.9733 8.01812 21.9796C8.02098 21.6349 8.01998 21.2902 8.01514 20.9456Z" fill="#2F2931"/>
<path d="M11.0041 11.0218C11.1697 11.0207 11.8363 11.0074 11.9827 11.0287L11.9843 13.032C11.6585 13.0249 11.3326 13.0231 11.0067 13.0266C11.0003 13.3524 10.9992 13.6782 11.0036 14.004C10.821 14.0032 10.1637 13.9914 10.0249 14.0146L10.0198 13.9995C9.71928 14.0103 9.26542 13.9893 8.99707 14.0159L8.99851 13.0066L8.99716 12.0111C9.0702 11.991 9.86498 11.999 10.012 11.9974L10.023 11.9761C10.0183 11.6574 10.0193 11.3387 10.0261 11.0201C10.3235 11.009 10.7051 11.0128 11.0041 11.0218Z" fill="#6106AB"/>
<path d="M11.0039 11.0217C11.1695 11.0206 11.8361 11.0073 11.9825 11.0287L11.9841 13.0319C11.6583 13.0249 11.3323 13.0231 11.0065 13.0265C11 13.3523 10.999 13.6782 11.0033 14.004C10.8207 14.0031 10.1635 13.9914 10.0246 14.0145L10.0195 13.9994C10.0242 13.6753 10.0262 13.351 10.0256 13.0268L11.0035 13.0274L11.0051 12.003C10.999 11.6815 11.004 11.3445 11.0039 11.0217Z" fill="#281F3D"/>
<path d="M8.99707 12.011C9.0701 11.991 9.86489 11.9989 10.0119 11.9974C10.0488 12.1273 10.0199 12.8389 10.0207 13.0247C9.88562 13.027 9.07626 13.0562 8.99842 13.0066L8.99707 12.011Z" fill="#8407E5"/>
<path d="M10.026 11.0201C10.3234 11.009 10.705 11.0128 11.004 11.0218C11.0042 11.3445 10.9992 11.6816 11.0052 12.0031C10.8535 12.0052 10.1182 12.0269 10.0229 11.9761C10.0182 11.6574 10.0192 11.3387 10.026 11.0201Z" fill="#8407E5"/>
<path d="M15.9814 16.0154C16.2496 16.0038 16.6931 15.994 16.9651 16.0041C17.2913 16.0088 17.6175 16.0099 17.9437 16.0076C17.9426 16.3168 17.9333 16.6773 17.9466 16.9823C17.9335 17.1802 17.9866 17.8512 17.9073 17.9549L17.8147 17.9702C17.6493 17.9661 17.226 17.9753 17.1003 17.9494L16.9637 17.9631C16.6997 17.9357 16.2539 17.9926 15.9852 17.9505L15.9728 17.963C15.3531 17.9833 14.6227 17.9646 13.9939 17.9651L13.9775 17.9606C13.9985 17.8096 13.9838 17.1987 13.9918 16.9822C14.6544 16.9864 15.317 16.9846 15.9795 16.9767C15.9834 16.6576 15.9812 16.3349 15.9814 16.0154Z" fill="#100D1C"/>
<path d="M16.965 16.0042C17.2911 16.0089 17.6173 16.01 17.9435 16.0076C17.9424 16.3169 17.9331 16.6773 17.9465 16.9824C17.9334 17.1803 17.9864 17.8513 17.9071 17.955L17.8145 17.9703C17.6491 17.9662 17.2259 17.9753 17.1001 17.9495L16.9848 17.9253C16.9526 17.853 16.9646 17.1111 16.9646 16.9867C16.978 16.7003 16.965 16.2998 16.965 16.0042Z" fill="#281F3D"/>
<path d="M15.9853 16.9851L16.9645 16.9866C16.9644 17.1111 16.9525 17.853 16.9847 17.9252L17.1 17.9494L16.9634 17.9631C16.6994 17.9357 16.2536 17.9926 15.9849 17.9505L15.9853 16.9851Z" fill="#3D2855"/>
<path d="M11.0036 16.9897C11.3023 16.9812 11.6777 16.9811 11.977 16.9958C11.9742 17.1593 11.9378 17.8617 12.0169 17.9621L13.0011 17.9656C13.0095 18.2768 13.0104 18.675 13.0021 18.9885L11.9829 18.9894L10.0224 18.9895L10.0215 16.9862C10.346 16.991 10.6758 16.9851 11.0036 16.9897Z" fill="#281F3D"/>
<path d="M12.0168 17.9622L13.001 17.9656C13.0094 18.2768 13.0102 18.675 13.002 18.9885L11.9828 18.9894C11.9791 18.8037 11.9587 18.1231 11.9974 17.9686L12.0168 17.9622Z" fill="#3D2855"/>
<path d="M11.0038 16.9897C11.3024 16.9812 11.6779 16.9811 11.9771 16.9958C11.9744 17.1593 11.9379 17.8617 12.0171 17.9621L11.9976 17.9686C11.6871 17.9547 11.3165 17.9645 11.0015 17.9656L11.0038 16.9897Z" fill="#100D1C"/>
<path d="M11.9822 14.9803C11.9823 15.6347 11.9949 16.3309 11.9808 16.9817C12.6385 16.9855 13.335 16.9974 13.9915 16.9822C13.9835 17.1987 13.9982 17.8097 13.9772 17.9606C13.6928 17.9765 13.2939 17.965 13.0008 17.9656L12.0166 17.9622C11.9375 17.8617 11.9739 17.1593 11.9766 16.9958C11.6774 16.9811 11.302 16.9812 11.0033 16.9897L10.9994 16.0083L10.0166 16.0146L10.025 14.9818C10.4448 14.9803 10.8646 14.9825 11.2843 14.9882C11.4297 14.9898 11.8573 15.004 11.9822 14.9803Z" fill="#020105"/>
<path d="M13.9774 17.9606L13.9937 17.9651C14.6226 17.9646 15.353 17.9833 15.9727 17.963C15.9962 18.087 16.0013 18.8887 15.9706 18.9919C15.3076 18.9866 14.6447 18.9852 13.9817 18.9879L13.002 18.9885C13.0102 18.675 13.0093 18.2768 13.001 17.9656C13.294 17.965 13.693 17.9765 13.9774 17.9606Z" fill="#3D2855"/>
<path d="M13.9774 17.9606L13.9937 17.9651C13.9644 18.2209 13.9787 18.717 13.9817 18.9879L13.002 18.9885C13.0102 18.675 13.0093 18.2768 13.001 17.9656C13.294 17.965 13.693 17.9765 13.9774 17.9606Z" fill="#281F3D"/>
<path d="M8.99561 20.9467C9.65648 20.9465 10.3471 20.9569 11.0054 20.9447C11.0033 21.2137 10.9886 21.7132 11.0137 21.9751L9.00129 21.9758C8.9821 21.7056 8.99635 21.2325 8.99561 20.9467Z" fill="#28231E"/>
<path d="M11.9805 20.9431L13.002 20.947L13.0033 21.9758C12.6732 21.9667 12.3084 21.9755 11.9757 21.9768C11.9741 21.6322 11.9757 21.2877 11.9805 20.9431Z" fill="#28231E"/>
<path d="M10.0197 13.9995L10.0248 14.0146L10.0248 14.98L8.99799 14.9829C8.99322 14.6606 8.99289 14.3383 8.99697 14.0159C9.26532 13.9893 9.71918 14.0103 10.0197 13.9995Z" fill="#2B0079"/>
<path d="M10.9949 6C11.3384 6.04957 11.7312 5.99266 11.9957 6.0276C12.5811 6.03347 13.4366 5.99637 13.9811 6.02581C14.3215 6.02187 14.6647 6.0243 15.0045 6.01081C14.9765 6.32871 14.985 6.72012 14.9781 7.04598C14.9724 7.37306 14.9579 7.7249 14.9662 8.04934C14.9665 8.35571 14.958 8.71281 14.9696 9.01496C14.9657 9.3599 14.9645 9.70489 14.9662 10.0499C14.9654 10.3381 14.9532 10.763 14.9769 11.0393C14.004 10.9949 12.9326 11.0721 11.9826 11.0287C11.8362 11.0073 11.1696 11.0206 11.004 11.0218C10.705 11.0128 10.3233 11.009 10.026 11.0201C10.0192 11.3387 10.0181 11.6574 10.0229 11.9761L10.0119 11.9974C9.86486 11.9989 9.07007 11.991 8.99704 12.0111L8.9914 11.9958C8.66821 12.0083 8.32319 11.9877 8.01318 12.001C8.01728 11.677 8.01798 11.353 8.01533 11.029C8.02271 10.6974 8.01868 10.3518 8.01945 10.0191L8.01465 8.05693C8.01735 7.71968 8.017 7.38242 8.0136 7.04517C8.29507 7.07228 8.88759 7.05952 9.18721 7.05819C9.78038 7.05558 10.4081 7.07203 10.9977 7.05612C10.9885 6.70414 10.9876 6.35202 10.9949 6Z" fill="#281F3D"/>
<path d="M13.9843 9.01791C14.3128 9.02203 14.6413 9.02105 14.9698 9.01492C14.9659 9.35987 14.9647 9.70486 14.9663 10.0498C14.9656 10.3381 14.9534 10.763 14.9771 11.0393C14.0041 10.9949 12.9328 11.072 11.9828 11.0287C11.8364 11.0073 11.1698 11.0206 11.0042 11.0218L11.002 10.0426C11.6264 10.0224 12.374 10.0427 13.0054 10.0429C13.0009 9.70122 13.0018 9.35952 13.0084 9.01788C13.3167 9.01758 13.6808 9.00745 13.9843 9.01791Z" fill="#100D1C"/>
<path d="M13.9841 9.018C14.3126 9.02212 14.6411 9.02114 14.9696 9.01501C14.9657 9.35996 14.9645 9.70495 14.9661 10.0499C14.6681 10.0349 14.2863 10.0446 13.9819 10.0439L13.9841 9.018Z" fill="#281F3D"/>
<path d="M10.9951 6C11.3386 6.04957 11.7314 5.99266 11.9959 6.0276C12.5813 6.03347 13.4368 5.99637 13.9813 6.02581C14.3217 6.02187 14.6649 6.0243 15.0047 6.01081C14.9767 6.32871 14.9852 6.72012 14.9783 7.04598C14.9114 7.08079 14.132 7.06271 13.9846 7.06196L11.9989 7.06276C11.6652 7.0653 11.3315 7.06308 10.9979 7.05612C10.9887 6.70414 10.9878 6.35202 10.9951 6Z" fill="#FAC526"/>
<path d="M13.981 6.02587C14.3214 6.02193 14.6646 6.02435 15.0044 6.01086C14.9764 6.32876 14.9849 6.72018 14.978 7.04604C14.911 7.08084 14.1317 7.06277 13.9843 7.06202L13.981 6.02587Z" fill="#D69221"/>
<path d="M10.9951 6C11.3386 6.04957 11.7314 5.99266 11.9959 6.0276C11.9658 6.11647 11.9631 6.9829 11.9989 7.06276C11.6652 7.0653 11.3315 7.06308 10.9979 7.05612C10.9887 6.70414 10.9878 6.35202 10.9951 6Z" fill="#D69221"/>
<path d="M8.01945 10.0192C8.12647 10.0702 8.83366 10.0453 8.99396 10.0427L8.99883 10.0289C9.12473 10.0588 9.84307 10.0428 10.0106 10.041L10.0221 10.0573L10.0215 11.0053L10.026 11.0201C10.0192 11.3387 10.0181 11.6575 10.0229 11.9761L10.0119 11.9975C9.86486 11.999 9.07007 11.9911 8.99704 12.0111L8.9914 11.9959C8.66821 12.0084 8.32319 11.9877 8.01318 12.0011C8.01728 11.6771 8.01798 11.353 8.01533 11.029C8.02271 10.6975 8.01868 10.3518 8.01945 10.0192Z" fill="#2B0079"/>
<path d="M8.01945 10.0192C8.12647 10.0702 8.83366 10.0453 8.99396 10.0427L8.99734 11.0216C8.99657 11.3085 9.00827 11.7192 8.9914 11.9959C8.66821 12.0084 8.32319 11.9877 8.01318 12.0011C8.01728 11.6771 8.01798 11.353 8.01533 11.029C8.02271 10.6975 8.01868 10.3518 8.01945 10.0192Z" fill="#020105"/>
<path d="M8.01533 11.0289C8.32142 11.0147 8.68375 11.025 8.99734 11.0215C8.99657 11.3084 9.00827 11.7191 8.9914 11.9958C8.66821 12.0083 8.32319 11.9876 8.01318 12.001C8.01728 11.677 8.01798 11.3529 8.01533 11.0289Z" fill="#100D1C"/>
<path d="M8.99901 10.0288C9.1249 10.0587 9.84325 10.0428 10.0108 10.0409L10.0223 10.0572L10.0217 11.0052C9.75076 11.0521 9.27889 10.9982 8.99752 11.0216L8.99414 10.0426L8.99901 10.0288Z" fill="#281F3D"/>
<path d="M10.0231 9.01957L11.0134 9.01575C10.9995 9.36355 11.01 9.69904 11.0022 10.0426L11.0044 11.0217C10.7054 11.0128 10.3237 11.009 10.0264 11.02L10.0219 11.0052L10.0225 10.0571L10.011 10.0409C10.035 9.79732 10.0227 9.2745 10.0231 9.01957Z" fill="#2B0079"/>
<path d="M10.0221 10.0572C10.1519 10.0259 10.8252 10.0414 11.0018 10.0426L11.004 11.0218C10.705 11.0128 10.3233 11.009 10.026 11.0201L10.0215 11.0052L10.0221 10.0572Z" fill="#6106AB"/>
<path d="M8.01465 8.05696C8.30616 8.0318 8.69742 8.03921 8.99815 8.03772C8.99762 8.3374 8.98495 8.72618 8.99736 9.01813C8.99769 9.34854 8.99161 9.70033 8.99883 10.0288L8.99396 10.0427C8.83366 10.0453 8.12647 10.0701 8.01945 10.0191L8.01465 8.05696Z" fill="#100D1C"/>
<path d="M10.023 8.0424L11.9811 8.04175C11.9797 8.36253 11.9734 8.69711 11.9786 9.01668L11.0132 9.01575L10.0229 9.01957L10.023 8.0424Z" fill="#3D2855"/>
<path d="M8.99769 9.01813C9.25304 9.00113 9.74877 9.01923 10.0231 9.01965C10.0226 9.27458 10.0349 9.7974 10.0109 10.0409C9.8434 10.0428 9.12505 10.0588 8.99916 10.0289C8.99194 9.70033 8.99802 9.34854 8.99769 9.01813Z" fill="#3D2855"/>
<path d="M13.9849 8.03503C14.2509 8.05707 14.6656 8.03571 14.9665 8.04934C14.9669 8.3557 14.9584 8.71281 14.9699 9.01496C14.6415 9.02108 14.3129 9.02206 13.9845 9.01794C13.9829 8.6903 13.9831 8.36267 13.9849 8.03503Z" fill="#100D1C"/>
<path d="M13.0045 8.04358L13.9847 8.03503C13.9828 8.36267 13.9826 8.6903 13.9842 9.01794C13.6807 9.00748 13.3166 9.01761 13.0083 9.01791C12.989 8.78688 13.0043 8.29414 13.0045 8.04358Z" fill="#3D2855"/>
<path d="M20.8939 11.9791C21.2607 11.9819 21.6258 11.9871 21.9925 11.974C21.9801 12.3286 21.9805 12.6835 21.9936 13.0381C21.8261 13.0422 21.0741 13.0626 20.9255 13.0346L20.9117 13.014C20.9085 12.6864 20.8733 12.2943 20.8939 11.9791Z" fill="#CC7001"/>
<path d="M19.939 10.0155C20.2957 10.023 20.6096 10.0248 20.9676 10.0172C20.9573 10.3555 20.9421 10.7093 20.9772 11.0449C20.6343 11.0425 20.2864 11.0359 19.9443 11.0531C19.9313 10.6933 19.9321 10.3759 19.939 10.0155Z" fill="#CC7001"/>
</g>
<rect x="0.25" y="0.25" width="27.5" height="27.5" rx="5.75" stroke="url(#paint1_linear_10296_2871)" stroke-width="0.5"/>
<defs>
<filter id="filter0_f_10296_2871" x="-1.1" y="-1.1" width="30.2" height="30.2" filterUnits="userSpaceOnUse" color-interpolation-filters="sRGB">
<feFlood flood-opacity="0" result="BackgroundImageFix"/>
<feBlend mode="normal" in="SourceGraphic" in2="BackgroundImageFix" result="shape"/>
<feGaussianBlur stdDeviation="4.55" result="effect1_foregroundBlur_10296_2871"/>
</filter>
<linearGradient id="paint0_linear_10296_2871" x1="14" y1="0" x2="14" y2="28" gradientUnits="userSpaceOnUse">
<stop stop-color="#282C3E"/>
<stop offset="1" stop-color="#181822"/>
</linearGradient>
<linearGradient id="paint1_linear_10296_2871" x1="14" y1="0" x2="14" y2="30.9167" gradientUnits="userSpaceOnUse">
<stop stop-color="#8407E5"/>
<stop offset="1" stop-color="#8407E5" stop-opacity="0"/>
</linearGradient>
<clipPath id="clip0_10296_2871">
<rect width="28" height="28" rx="6" fill="white"/>
</clipPath>
</defs>
</svg>
