<svg width="28" height="28" viewBox="0 0 28 28" fill="none" xmlns="http://www.w3.org/2000/svg">
<g clip-path="url(#clip0_10296_2911)">
<rect width="28" height="28" rx="6" fill="url(#paint0_linear_10296_2911)"/>
<g filter="url(#filter0_f_10296_2911)">
<circle cx="14" cy="14" r="6" fill="#04030D"/>
</g>
<path d="M20.7166 14.4837C21.224 14.4852 22.5596 14.5169 22.9956 14.4658C22.9925 14.8152 22.9808 15.2022 22.9901 15.5486C22.9836 16.218 22.9617 17.1053 22.9994 17.7609C22.8369 17.7417 21.9609 17.7171 21.8221 17.7477C21.847 18.105 21.8228 18.4697 21.8311 18.8267C21.8339 19.167 21.8285 19.5507 21.8443 19.8874C21.541 19.8515 21.0498 19.8668 20.7265 19.8634C20.7306 20.1733 20.7134 20.7169 20.7367 21C20.4507 20.9637 19.9388 20.9748 19.6373 20.9771L17.4177 20.9757L16.2392 20.979C16.276 20.8546 16.2591 20.0289 16.2573 19.8507C15.8787 19.8484 15.5 19.8495 15.1214 19.8538C15.0845 19.233 15.1073 18.3747 15.1047 17.7358L15.1219 17.7304C15.318 17.7331 16.0834 17.7517 16.2382 17.7161L16.2694 17.6649C16.2446 17.4735 16.2563 16.8542 16.2555 16.6364C16.3529 16.6067 17.1973 16.6177 17.3637 16.6172L17.3597 15.5548C17.7276 15.5531 18.0954 15.554 18.4633 15.5574C18.4594 15.2022 18.4613 14.8469 18.469 14.4916L18.4835 14.4866C18.8569 14.4848 19.2458 14.4917 19.6166 14.4845C19.9833 14.4862 20.3499 14.486 20.7166 14.4837Z" fill="#705B3A"/>
<path d="M20.7168 14.4837C21.2243 14.4852 22.5599 14.5169 22.9959 14.4658C22.9927 14.8152 22.9811 15.2022 22.9903 15.5486C22.9838 16.218 22.962 17.1053 22.9996 17.7609C22.8371 17.7417 21.9612 17.7171 21.8224 17.7477L21.8166 17.7351C20.3509 17.7132 18.8336 17.7335 17.3631 17.7323C17.1549 17.7355 16.4787 17.7533 16.3047 17.7199L16.2696 17.6649C16.2449 17.4735 16.2565 16.8542 16.2557 16.6364C16.3531 16.6067 17.1975 16.6177 17.364 16.6172L17.3599 15.5548C17.7278 15.5531 18.0957 15.554 18.4635 15.5574C18.4596 15.2022 18.4615 14.8469 18.4692 14.4916L18.4837 14.4866C18.8572 14.4848 19.246 14.4917 19.6169 14.4845C19.9835 14.4862 20.3502 14.486 20.7168 14.4837Z" fill="#443722"/>
<path d="M20.7172 14.4837C21.2246 14.4852 22.5602 14.5169 22.9962 14.4658C22.9931 14.8152 22.9814 15.2022 22.9907 15.5486C22.9841 16.218 22.9623 17.1053 23 17.7609C22.8374 17.7417 21.9615 17.7171 21.8227 17.7477L21.8169 17.7351C21.8422 17.534 21.8254 16.8598 21.8247 16.6187L19.616 16.6171C19.6177 16.4337 19.6347 15.687 19.6013 15.552L19.6112 15.5388C19.6316 15.2324 19.6181 14.8003 19.6172 14.4845C19.9838 14.4862 20.3505 14.486 20.7172 14.4837Z" fill="#705B3A"/>
<path d="M21.8195 15.5559C22.194 15.5542 22.6202 15.5621 22.9904 15.5486C22.9838 16.218 22.962 17.1053 22.9997 17.7609C22.8372 17.7417 21.9612 17.7171 21.8224 17.7477L21.8167 17.7351C21.8419 17.534 21.8251 16.8598 21.8244 16.6187L21.8195 15.5559Z" fill="#5F4E30"/>
<path d="M20.717 14.4837C21.2244 14.4852 22.56 14.5169 22.996 14.4658C22.9929 14.8152 22.9812 15.2022 22.9904 15.5486C22.6203 15.5621 22.1941 15.5542 21.8195 15.5559C21.4531 15.5573 21.0866 15.5562 20.7202 15.5525C20.7148 15.1985 20.7176 14.8381 20.717 14.4837Z" fill="#443722"/>
<path d="M19.6171 14.4844C19.9838 14.4862 20.3504 14.4859 20.7171 14.4836C20.7178 14.8381 20.7149 15.1985 20.7203 15.5524C20.4786 15.5569 19.8256 15.5749 19.6111 15.5388C19.6315 15.2323 19.618 14.8002 19.6171 14.4844Z" fill="#5F4E30"/>
<path d="M17.364 16.6172L17.3631 17.7323C17.1549 17.7354 16.4787 17.7533 16.3047 17.7198L16.2696 17.6649C16.2449 17.4735 16.2565 16.8542 16.2557 16.6364C16.3531 16.6067 17.1975 16.6177 17.364 16.6172Z" fill="#5F4E30"/>
<path d="M18.4836 14.4865C18.857 14.4847 19.2459 14.4916 19.6167 14.4844C19.6176 14.8002 19.6311 15.2323 19.6107 15.5387L19.6008 15.552C19.2363 15.5642 18.831 15.5568 18.4634 15.5574C18.4595 15.2021 18.4614 14.8468 18.4691 14.4916L18.4836 14.4865Z" fill="#8E7346"/>
<path d="M18.437 18.7988L19.6209 18.7954C19.6179 19.1489 19.6182 19.5024 19.6217 19.8558C19.9874 19.8575 20.3532 19.8569 20.719 19.8538C20.7311 19.5213 20.7204 19.1321 20.7195 18.7953C20.9698 18.7934 21.6152 18.7756 21.831 18.8266C21.8338 19.167 21.8283 19.5507 21.8441 19.8874C21.5409 19.8515 21.0496 19.8668 20.7263 19.8634C20.7305 20.1733 20.7132 20.7169 20.7365 21C20.4505 20.9637 19.9387 20.9748 19.6372 20.9771C19.5996 20.8408 19.6135 20.0309 19.6149 19.8589C19.2319 19.863 18.8405 19.8586 18.4567 19.8581C18.4561 19.579 18.4687 19.057 18.437 18.7988Z" fill="#5F4E30"/>
<path d="M16.2645 19.8369C16.419 19.8814 17.1693 19.8562 17.3642 19.8509C17.3613 20.0532 17.3265 20.8374 17.4185 20.9756L16.24 20.9789C16.2768 20.8545 16.2599 20.0289 16.2581 19.8506L16.2645 19.8369Z" fill="#8E7346"/>
<path d="M16.2634 18.7957L17.3592 18.7948C17.3593 19.1265 17.3489 19.5246 17.3635 19.8509C17.1686 19.8562 16.4182 19.8814 16.2638 19.837L16.2634 18.7957Z" fill="#8E7346"/>
<path d="M8.38695 15.5458C8.68585 15.5493 9.2581 15.5672 9.53995 15.5364L9.54396 15.5644C9.91337 15.5563 10.2956 15.5711 10.659 15.5541L10.7001 15.5552C11.0573 15.5501 11.4145 15.547 11.7717 15.5457C11.7654 15.6955 11.7272 16.5001 11.7626 16.6159L12.8928 16.6094C12.9009 16.9821 12.9037 17.3549 12.9012 17.7276C13.2615 17.7358 13.622 17.7365 13.9824 17.7297L13.9973 17.7178C14.2526 17.7578 14.8206 17.724 15.1052 17.7359C15.1078 18.3747 15.0851 19.2331 15.122 19.8539C15.5006 19.8495 15.8792 19.8485 16.2578 19.8507C16.2596 20.029 16.2765 20.8546 16.2398 20.979C15.5399 20.9557 14.7123 20.9765 14.0023 20.9765L12.8787 20.9779C12.5122 20.9722 12.132 20.977 11.7643 20.9767L10.6206 20.9779C10.2988 20.9726 9.83473 20.9661 9.52402 20.9972C9.53055 20.6921 9.50323 20.141 9.54412 19.8635C9.1813 19.8667 8.72027 19.8479 8.36936 19.8838C8.36968 19.5335 8.3627 19.1447 8.38629 18.7986C8.13211 18.8235 7.58561 18.8012 7.27705 18.8132C7.27839 18.4637 7.28636 18.0877 7.27466 17.7406L7.29432 17.7327C7.2682 17.6236 7.28537 16.7871 7.28736 16.6154C7.27978 16.2615 7.2782 15.9076 7.28264 15.5537C7.62333 15.5522 8.05363 15.5622 8.38695 15.5458Z" fill="#443722"/>
<path d="M12.9007 17.7275C13.2611 17.7357 13.6216 17.7365 13.982 17.7296L13.9969 17.7178C14.2521 17.7577 14.8202 17.7239 15.1048 17.7358C15.1074 18.3747 15.0846 19.233 15.1215 19.8538C15.5001 19.8495 15.8788 19.8484 16.2574 19.8506C16.2592 20.0289 16.2761 20.8546 16.2393 20.979C15.5394 20.9557 14.7118 20.9764 14.0019 20.9764L12.8782 20.9779C12.5117 20.9722 12.1315 20.9769 11.7639 20.9766C11.7252 20.8496 11.7432 20.0495 11.745 19.8596C11.7383 19.5101 11.7455 19.1469 11.748 18.7963C11.7366 18.4559 11.7447 18.0882 11.7465 17.7454L11.7629 17.7368C12.0869 17.7172 12.5649 17.7293 12.9007 17.7275Z" fill="#5F4E30"/>
<path d="M12.9011 17.7276C13.2615 17.7358 13.622 17.7365 13.9823 17.7297C14.0117 17.8663 13.9963 18.5985 13.9963 18.7899L12.8975 18.7908L12.9038 19.8594C12.53 19.8512 12.1221 19.8594 11.7454 19.8597C11.7387 19.5101 11.7459 19.147 11.7484 18.7963C11.737 18.4559 11.7451 18.0882 11.7469 17.7455L11.7633 17.7369C12.0873 17.7172 12.5652 17.7293 12.9011 17.7276Z" fill="#705B3A"/>
<path d="M11.745 19.8596C12.1217 19.8594 12.5296 19.8512 12.9035 19.8593C12.9034 20.0633 12.9137 20.8132 12.8782 20.9778C12.5117 20.9721 12.1315 20.9769 11.7639 20.9766C11.7252 20.8495 11.7432 20.0495 11.745 19.8596Z" fill="#5F4E30"/>
<path d="M12.9039 19.8594C13.2459 19.8599 13.6564 19.8709 13.9929 19.8575C13.9952 20.2024 13.9846 20.6395 14.0023 20.9764L12.8787 20.9779C12.9141 20.8133 12.9038 20.0634 12.9039 19.8594Z" fill="#705B3A"/>
<path d="M10.6426 17.7339C10.8031 17.7329 11.6247 17.72 11.7467 17.7454C11.7449 18.0882 11.7369 18.4558 11.7482 18.7962C11.7458 19.1469 11.7386 19.51 11.7453 19.8596C11.7435 20.0495 11.7254 20.8496 11.7641 20.9766L10.6204 20.9778C10.2986 20.9725 9.83451 20.966 9.52379 20.9971C9.53033 20.6921 9.503 20.1409 9.5439 19.8635C9.18108 19.8666 8.72004 19.8478 8.36914 19.8837C8.36945 19.5334 8.36247 19.1446 8.38607 18.7985C8.53114 18.782 8.97039 18.7921 9.12509 18.7924L10.6429 18.797L10.6426 17.7339Z" fill="#5F4E30"/>
<path d="M11.7452 19.8596C11.7434 20.0496 11.7253 20.8496 11.764 20.9766L10.6204 20.9779C10.6523 20.8738 10.647 20.0397 10.6504 19.8605C11.0109 19.8656 11.3837 19.8603 11.7452 19.8596Z" fill="#705B3A"/>
<path d="M10.6426 17.7339C10.803 17.7329 11.6247 17.72 11.7466 17.7454C11.7449 18.0882 11.7368 18.4558 11.7481 18.7962L10.6428 18.797L10.6426 17.7339Z" fill="#8E7346"/>
<path d="M7.28195 15.5537C7.62264 15.5522 8.05294 15.5622 8.38626 15.5458L8.38783 15.8201C8.38143 16.0849 8.38059 16.3499 8.38532 16.6148C8.38589 16.9824 8.38091 17.3634 8.3876 17.7297L7.29363 17.7326C7.26751 17.6235 7.28468 16.7871 7.28667 16.6154C7.27909 16.2615 7.27751 15.9076 7.28195 15.5537Z" fill="#705B3A"/>
<path d="M7.28273 15.5537C7.62342 15.5522 8.05372 15.5622 8.38704 15.5458L8.38861 15.8201C8.38221 16.0849 8.38137 16.3499 8.38609 16.6148C8.01992 16.6209 7.65366 16.621 7.28745 16.6154C7.27987 16.2615 7.27829 15.9076 7.28273 15.5537Z" fill="#8E7346"/>
<path d="M10.6993 15.5551C11.0565 15.5501 11.4137 15.5469 11.7709 15.5457C11.7646 15.6954 11.7264 16.5 11.7618 16.6158L11.7493 16.6195C11.4456 16.6178 10.9224 16.635 10.6439 16.6085C10.4149 16.5964 9.7367 16.6502 9.54228 16.5956C9.53575 16.2518 9.53606 15.908 9.54315 15.5643C9.91256 15.5562 10.2947 15.571 10.6582 15.554L10.6993 15.5551Z" fill="#5F4E30"/>
<path d="M10.6582 15.5541L10.6993 15.5552C10.6724 15.5732 10.6517 15.5785 10.65 15.6018C10.6267 15.921 10.6394 16.2888 10.6439 16.6085C10.4149 16.5965 9.7367 16.6503 9.54228 16.5956C9.53575 16.2519 9.53606 15.9081 9.54315 15.5643C9.91256 15.5563 10.2947 15.5711 10.6582 15.5541Z" fill="#524029"/>
<path d="M11.7626 16.6159L12.8928 16.6094C12.901 16.982 12.9038 17.3548 12.9012 17.7275C12.5653 17.7293 12.0874 17.7172 11.7634 17.7368C11.7258 17.5795 11.7519 16.8352 11.7501 16.6196L11.7626 16.6159Z" fill="#8E7346"/>
<path d="M10.6444 16.6085C10.923 16.6351 11.4461 16.6179 11.7498 16.6196C11.7516 16.8352 11.7254 17.5796 11.7631 17.7369L11.7466 17.7454C11.6247 17.72 10.803 17.733 10.6426 17.734L10.6444 16.6085Z" fill="#8E7346"/>
<path d="M8.38672 15.5458C8.68563 15.5493 9.25787 15.5672 9.53972 15.5364L9.54373 15.5644C9.53665 15.9081 9.53633 16.2519 9.54287 16.5957C9.45218 16.6443 8.56788 16.6156 8.4164 16.6129C8.3905 16.3538 8.43055 16.0832 8.38829 15.8201L8.38672 15.5458Z" fill="#2C2216"/>
<path d="M14.0135 11.2322L14.0057 15.1512C14.0056 15.3588 13.9903 16.4896 14.0277 16.6098C13.963 16.7245 14.0073 17.5294 13.9971 17.7178L13.9822 17.7297C13.6218 17.7365 13.2613 17.7358 12.901 17.7276C12.9035 17.3548 12.9007 16.9821 12.8925 16.6094C12.8994 15.9394 12.8627 15.15 12.8973 14.4926C12.5189 14.5171 12.134 14.475 11.7348 14.5179C11.7366 14.1401 11.7436 13.7478 11.7317 13.3715C12.1166 13.3789 12.5133 13.3679 12.9028 13.3735C12.8563 12.9017 12.9131 12.2796 12.8956 11.7953C12.8895 11.6254 12.9066 11.4201 12.8807 11.2537L12.8971 11.2451C13.1038 11.2484 13.8511 11.2676 14.0135 11.2322Z" fill="#2C2216"/>
<path d="M13.9284 8.00367L13.9839 8C14.04 8.10475 14.0032 10.8816 14.0131 11.2322C13.8507 11.2676 13.1034 11.2484 12.8967 11.2451L12.8803 11.2537C12.5032 11.2754 12.1356 11.2354 11.7321 11.2763C11.7331 10.8984 11.7395 10.5058 11.7222 10.1296C12.0417 10.143 12.5703 10.1404 12.8855 10.1202L12.8976 10.0938C12.8547 9.43667 12.917 8.67773 12.8758 8.00327C13.1954 8.01615 13.6022 8.0043 13.9284 8.00367Z" fill="#443722"/>
<path d="M12.8767 8.0033C13.1963 8.01618 13.6031 8.00433 13.9293 8.0037C14.0252 8.17792 13.9734 9.85206 13.9704 10.1444C13.7727 10.135 12.9996 10.1623 12.8985 10.0938C12.8556 9.4367 12.9179 8.67776 12.8767 8.0033Z" fill="#524029"/>
<path d="M11.7222 10.1296C12.0417 10.143 12.5703 10.1404 12.8855 10.1201C12.9057 10.456 12.9004 10.9021 12.8967 11.2451L12.8803 11.2537C12.5032 11.2753 12.1356 11.2353 11.7321 11.2762C11.7331 10.8984 11.7395 10.5057 11.7222 10.1296Z" fill="#524029"/>
<path d="M10.6498 12.137C10.6935 13.2459 10.6099 14.4401 10.659 15.554C10.2956 15.571 9.91336 15.5563 9.54396 15.5643L9.53994 15.5363C9.5359 15.3716 9.5528 14.5585 9.49579 14.4873C9.15562 14.5196 8.75643 14.4779 8.37334 14.5165C8.37403 14.1388 8.37991 13.7466 8.36279 13.3706C8.74698 13.3785 9.14796 13.3702 9.53354 13.3669C9.55141 13.1691 9.53243 12.5983 9.53587 12.3564L9.54529 12.3318C9.80039 12.2731 10.3572 12.3925 10.6075 12.2862C10.6385 12.2731 10.6424 12.1819 10.6498 12.137Z" fill="#443722"/>
<path d="M8.36279 13.3706C8.74698 13.3785 9.14796 13.3702 9.53354 13.3669C9.53495 13.5776 9.5534 14.2904 9.52747 14.4612L9.49579 14.4873C9.15562 14.5196 8.75643 14.4779 8.37334 14.5165C8.37403 14.1388 8.37991 13.7466 8.36279 13.3706Z" fill="#524029"/>
<path d="M6.18059 14.4852C6.467 14.4866 7.0246 14.5023 7.29547 14.4674C7.29277 14.8182 7.29773 15.2059 7.2823 15.5537C7.27786 15.9075 7.27944 16.2615 7.28702 16.6153C7.28503 16.7871 7.26786 17.6235 7.29398 17.7326L7.27432 17.7405C6.95239 17.7327 6.47498 17.7257 6.16429 17.757C6.16841 17.5032 6.19418 15.6435 6.14457 15.5647C5.79753 15.5931 5.43159 15.538 5.01478 15.5857C5.02039 15.2362 5.01386 14.8302 5 14.4812C5.3241 14.5019 5.84205 14.4856 6.18059 14.4852Z" fill="#5F4E30"/>
<path d="M5 14.4812C5.3241 14.5019 5.84205 14.4856 6.18059 14.4852L6.17746 15.5589L6.14457 15.5646C5.79753 15.5931 5.43159 15.538 5.01478 15.5856C5.02039 15.2362 5.01386 14.8302 5 14.4812Z" fill="#5F4E30"/>
<path d="M6.18061 14.4852C6.46703 14.4866 7.02463 14.5023 7.2955 14.4674C7.2928 14.8182 7.29776 15.2059 7.28233 15.5537L6.17749 15.5589L6.18061 14.4852Z" fill="#8E7346"/>
<path d="M9.51664 10.1303C9.79347 10.1323 10.3917 10.1475 10.6526 10.1169L10.6493 12.137C10.6419 12.1819 10.638 12.2731 10.6071 12.2862C10.3567 12.3925 9.79995 12.2731 9.54485 12.3319L9.53543 12.3564C9.43369 12.2913 8.57209 12.3279 8.37309 12.3345C8.38621 12.0395 8.38369 11.5412 8.36938 11.2519C8.75638 11.2377 9.15516 11.2626 9.5391 11.2365L9.51664 10.1303Z" fill="#5F4E30"/>
<path d="M8.36938 11.2519C8.75638 11.2377 9.15516 11.2627 9.5391 11.2366C9.53771 11.5759 9.52517 11.9998 9.54485 12.3319L9.53543 12.3564C9.43369 12.2914 8.57209 12.3279 8.37309 12.3345C8.38621 12.0395 8.38369 11.5413 8.36938 11.2519Z" fill="#2C2216"/>
<path d="M18.4758 12.299C18.4741 12.554 18.4333 14.3379 18.484 14.4865L18.4695 14.4916C18.4618 14.8468 18.4599 15.2021 18.4639 15.5574C18.096 15.5539 17.7281 15.553 17.3602 15.5547C17.3551 15.2673 17.3698 14.7572 17.3362 14.4965L17.3191 14.4874C17.3821 14.4236 17.3592 12.5664 17.3613 12.3165C17.4362 12.3027 18.3155 12.3072 18.4758 12.299Z" fill="#443722"/>
<path d="M17.3362 14.4966L18.4695 14.4917C18.4618 14.8469 18.4599 15.2022 18.4638 15.5575C18.096 15.554 17.7281 15.5531 17.3602 15.5548C17.3551 15.2674 17.3698 14.7574 17.3362 14.4966Z" fill="#5F4E30"/>
<path d="M16.2329 14.4781C16.5096 14.5016 17.024 14.4873 17.3183 14.4875L17.3354 14.4966C17.369 14.7573 17.3543 15.2673 17.3595 15.5548L17.3635 16.6172C17.1971 16.6177 16.3527 16.6067 16.2553 16.6364L16.2428 16.6245C15.9295 16.6045 15.4515 16.6164 15.1257 16.6145L15.1136 16.6025C15.0693 16.3857 15.1117 15.8463 15.0813 15.5602C15.4587 15.5439 15.876 15.5488 16.2567 15.5464L16.2329 14.4781Z" fill="#705B3A"/>
<path d="M16.2567 15.5464C16.2583 15.7 16.273 16.515 16.2428 16.6244C15.9295 16.6045 15.4515 16.6164 15.1257 16.6144L15.1136 16.6024C15.0693 16.3857 15.1117 15.8462 15.0813 15.5601C15.4587 15.5439 15.876 15.5488 16.2567 15.5464Z" fill="#524029"/>
<path d="M15.1142 16.6024L15.1263 16.6144C15.4521 16.6164 15.9301 16.6045 16.2433 16.6244L16.2559 16.6364C16.2566 16.8542 16.245 17.4735 16.2697 17.6649L16.2386 17.716C16.0837 17.7516 15.3183 17.7331 15.1222 17.7304L15.105 17.7358C14.8204 17.7239 14.2524 17.7577 13.9972 17.7177C14.0073 17.5293 13.9631 16.7245 14.0277 16.6097C14.381 16.6018 14.7639 16.6293 15.1142 16.6024Z" fill="#AA9969"/>
<path d="M15.1142 16.6024L15.1263 16.6144C15.0963 16.761 15.0859 17.5982 15.1222 17.7304L15.105 17.7358C14.8204 17.7239 14.2524 17.7577 13.9972 17.7177C14.0073 17.5293 13.9631 16.7245 14.0277 16.6097C14.381 16.6018 14.7639 16.6293 15.1142 16.6024Z" fill="#8E7346"/>
<path d="M17.359 11.2457C17.7287 11.2576 18.116 11.2408 18.4735 11.2553C18.4732 11.5939 18.4655 11.9628 18.4756 12.299C18.3153 12.3072 17.436 12.3027 17.3611 12.3165C17.1185 12.3448 16.5452 12.3214 16.2487 12.3308C16.26 11.9932 16.2557 11.5866 16.248 11.2476L17.359 11.2457Z" fill="#2C2216"/>
<path d="M17.3484 10.1252C17.6692 10.1406 18.1723 10.1398 18.4876 10.1122C18.4804 10.479 18.4634 10.8919 18.4733 11.2552C18.1157 11.2408 17.7284 11.2576 17.3587 11.2457C17.3549 10.9098 17.3663 10.451 17.3484 10.1252Z" fill="#705B3A"/>
</g>
<rect x="0.25" y="0.25" width="27.5" height="27.5" rx="5.75" stroke="url(#paint1_linear_10296_2911)" stroke-width="0.5"/>
<defs>
<filter id="filter0_f_10296_2911" x="-1.1" y="-1.1" width="30.2" height="30.2" filterUnits="userSpaceOnUse" color-interpolation-filters="sRGB">
<feFlood flood-opacity="0" result="BackgroundImageFix"/>
<feBlend mode="normal" in="SourceGraphic" in2="BackgroundImageFix" result="shape"/>
<feGaussianBlur stdDeviation="4.55" result="effect1_foregroundBlur_10296_2911"/>
</filter>
<linearGradient id="paint0_linear_10296_2911" x1="14" y1="0" x2="14" y2="28" gradientUnits="userSpaceOnUse">
<stop stop-color="#282C3E"/>
<stop offset="1" stop-color="#181822"/>
</linearGradient>
<linearGradient id="paint1_linear_10296_2911" x1="14" y1="0" x2="14" y2="30.9167" gradientUnits="userSpaceOnUse">
<stop stop-color="#AA9969"/>
<stop offset="1" stop-color="#AA9969" stop-opacity="0"/>
</linearGradient>
<clipPath id="clip0_10296_2911">
<rect width="28" height="28" rx="6" fill="white"/>
</clipPath>
</defs>
</svg>
