<svg width="28" height="28" viewBox="0 0 28 28" fill="none" xmlns="http://www.w3.org/2000/svg">
<g clip-path="url(#clip0_10296_3411)">
<rect width="28" height="28" rx="6" fill="url(#paint0_linear_10296_3411)"/>
<g filter="url(#filter0_f_10296_3411)">
<circle cx="14" cy="14" r="6" fill="#04030D"/>
</g>
<path d="M13.1919 6.01037C13.4481 5.98969 13.8502 6.00613 14.1184 6.00725C14.6953 6.00945 15.2723 6.0074 15.8492 6.00107C15.8481 6.33131 15.835 6.91622 15.8613 7.2359C16.6762 7.23855 17.4912 7.23619 18.3061 7.2288C18.3051 7.52747 18.2909 8.17626 18.3186 8.46058C18.7135 8.47291 19.1388 8.46202 19.5344 8.45647C19.5337 8.75146 19.5196 9.40767 19.547 9.68833C19.9537 9.70101 20.358 9.68348 20.7628 9.68422C20.7621 10.0637 20.7512 10.5521 20.7684 10.9266C20.7664 11.2904 20.7492 11.7963 20.7749 12.1485L21.9915 12.1388L21.9918 14.5367C21.9918 14.8883 21.9721 15.5267 22.0003 15.8605C21.7951 15.8198 21.0203 15.8449 20.768 15.8487L20.7631 17.448C20.7631 17.6926 20.7524 18.0851 20.7716 18.3161C20.5675 18.2755 19.7912 18.3003 19.5397 18.304C19.5373 18.6564 19.517 19.2051 19.5432 19.5437C19.3376 19.5031 18.5616 19.5279 18.3111 19.5316C18.3086 19.9029 18.2905 20.411 18.3148 20.7722C18.1424 20.7372 17.6563 20.7501 17.4575 20.7504C16.9231 20.7493 16.3888 20.7524 15.8544 20.7595C15.852 21.1024 15.8311 21.6725 15.8578 22C15.6985 21.9675 15.3589 21.9785 15.1847 21.9786L14.0421 21.979L12.8349 21.9802C12.6593 21.9805 12.3237 21.9737 12.1552 21.993L12.1546 20.7679C11.7111 20.7373 11.1853 20.7515 10.7336 20.7513C10.4387 20.7511 9.97491 20.7399 9.69832 20.7652L9.69753 19.5401C9.4461 19.5231 8.71952 19.5074 8.46993 19.5371C8.46834 19.1295 8.46882 18.722 8.47135 18.3144L8.21362 18.2947C8.31689 18.2873 8.36791 18.2823 8.47229 18.2942L8.47337 17.0699L8.4717 15.848L8.47456 15.8364C8.46118 15.464 8.47327 14.9936 8.47346 14.6144L8.47277 13.3736L8.47321 12.1513L8.47256 10.9283C8.47099 10.5169 8.47158 10.1055 8.47429 9.69405L8.47089 9.67365C8.45104 9.30128 8.49715 8.82585 8.45816 8.46338C8.82686 8.47123 9.33354 8.47167 9.69728 8.45248C9.69816 8.14814 9.71776 7.51433 9.68663 7.23544C10.2913 7.24633 10.9012 7.22876 11.5063 7.23555C11.7205 7.23795 11.9405 7.23586 12.1542 7.22468C12.1552 6.85976 12.1709 6.36182 12.1462 6.00723C12.478 6.01962 12.851 6.00362 13.1919 6.01037Z" fill="#102C30"/>
<path d="M13.3922 9.69679C13.7922 9.69636 14.219 9.70273 14.617 9.69458L14.6135 10.9251C14.4305 10.9245 13.4862 10.9046 13.3869 10.9379L13.3818 10.9278C13.4059 10.5663 13.3831 10.0783 13.3922 9.69679Z" fill="#8DC860"/>
<path d="M13.1912 6.01037C13.4474 5.98969 13.8496 6.00613 14.1178 6.00725C14.6947 6.00945 15.2716 6.0074 15.8485 6.00107C15.8474 6.33131 15.8344 6.91622 15.8606 7.2359C16.6756 7.23855 17.4905 7.23619 18.3054 7.2288C18.3044 7.52747 18.2902 8.17626 18.3179 8.46058C18.7128 8.47291 19.1382 8.46202 19.5338 8.45647C19.5331 8.75146 19.5189 9.40767 19.5464 9.68833C19.953 9.70101 20.3573 9.68348 20.7622 9.68422C20.7615 10.0637 20.7506 10.5521 20.7678 10.9266C20.5866 10.9316 19.6145 10.898 19.5292 10.949L19.5309 12.1528C19.5248 12.9615 19.5475 13.8056 19.53 14.607C19.5302 14.9426 19.5474 15.5283 19.5253 15.8401C19.2941 15.8599 18.5661 15.8368 18.3093 15.8363C17.8961 15.8385 17.4829 15.8378 17.0696 15.8342L17.073 14.6078C17.0572 13.8085 17.071 12.9572 17.0705 12.1544C16.6788 12.1416 16.2389 12.1525 15.8437 12.1536L15.8422 10.9268C15.4972 10.9092 14.971 10.9246 14.6135 10.9251L14.617 9.69462C14.219 9.70277 13.7922 9.6964 13.3922 9.69683L12.1579 9.69629L10.9279 9.69623L9.70349 9.69913L9.69951 10.9242C9.32243 10.9217 8.84322 10.9127 8.47192 10.9283C8.47034 10.5169 8.47094 10.1055 8.47364 9.69405L8.47025 9.67365C8.4504 9.30128 8.4965 8.82585 8.45752 8.46338C8.82621 8.47123 9.33289 8.47167 9.69663 8.45248C9.69752 8.14814 9.71712 7.51433 9.68598 7.23544C10.2906 7.24633 10.9006 7.22876 11.5057 7.23555C11.7199 7.23795 11.9399 7.23586 12.1536 7.22468C12.1545 6.85976 12.1703 6.36182 12.1456 6.00723C12.4774 6.01962 12.8503 6.00362 13.1912 6.01037Z" fill="#63997C"/>
<path d="M13.1909 6.01037C13.4471 5.98969 13.8493 6.00613 14.1175 6.00725C14.6944 6.00945 15.2713 6.0074 15.8482 6.00107C15.8471 6.33131 15.8341 6.91622 15.8603 7.2359C16.6753 7.23855 17.4902 7.23619 18.3052 7.2288C18.3042 7.52747 18.29 8.17626 18.3177 8.46058C18.7125 8.47291 19.1379 8.46202 19.5335 8.45647C19.5328 8.75146 19.5186 9.40767 19.5461 9.68833C19.9527 9.70101 20.357 9.68348 20.7619 9.68422C20.7612 10.0637 20.7503 10.5521 20.7675 10.9266C20.5863 10.9316 19.6143 10.898 19.5289 10.949L19.5235 10.9282C19.1351 10.9142 18.6933 10.925 18.301 10.9256C18.2993 10.5164 18.2998 10.1071 18.3025 9.6979L17.0726 9.69786L17.0721 8.46998L15.8446 8.46783C15.8404 8.06018 15.8447 7.64813 15.8458 7.24016L13.3895 7.24073C13.3823 6.84411 13.3979 6.4274 13.3834 6.0364C13.3522 6.01686 13.2351 6.01363 13.1909 6.01037Z" fill="#1E4835"/>
<path d="M17.0725 8.46992C17.4122 8.46955 17.9813 8.48475 18.3039 8.46399C18.2997 8.87527 18.2993 9.28656 18.3029 9.69784L17.0729 9.6978L17.0725 8.46992Z" fill="#306264"/>
<path d="M18.3032 9.69785C18.6525 9.69744 19.2058 9.71331 19.5327 9.69165C19.53 10.0195 19.5478 10.6191 19.5243 10.9282C19.1359 10.9141 18.694 10.9249 18.3018 10.9256C18.3001 10.5163 18.3006 10.1071 18.3032 9.69785Z" fill="#306264"/>
<path d="M12.1456 6.0072C12.4774 6.01959 12.8503 6.0036 13.1912 6.01035C13.2354 6.01361 13.3525 6.01683 13.3837 6.03638C13.3982 6.42738 13.3826 6.84409 13.3898 7.24071C12.9806 7.24305 12.5714 7.24194 12.1623 7.23739C12.1568 7.64853 12.1558 8.05973 12.1594 8.47089C11.7591 8.46291 11.3327 8.46953 10.9304 8.46898C10.9267 8.87805 10.9258 9.28714 10.9279 9.69621L9.70349 9.69911L9.69951 10.9242C9.32243 10.9217 8.84322 10.9127 8.47192 10.9283C8.47034 10.5168 8.47094 10.1054 8.47364 9.69402L8.47025 9.67363C8.4504 9.30126 8.4965 8.82583 8.45752 8.46336C8.82621 8.4712 9.33289 8.47164 9.69663 8.45246C9.69752 8.14811 9.71712 7.5143 9.68598 7.23541C10.2906 7.24631 10.9006 7.22874 11.5057 7.23553C11.7199 7.23793 11.9399 7.23584 12.1536 7.22465C12.1545 6.85974 12.1703 6.36179 12.1456 6.0072Z" fill="#306264"/>
<path d="M9.70581 8.46545C10.1141 8.46941 10.5224 8.4706 10.9308 8.46898C10.927 8.87805 10.9262 9.28714 10.9283 9.69622L9.70387 9.69911L9.69989 10.9242C9.32281 10.9217 8.8436 10.9127 8.47229 10.9283C8.47072 10.5169 8.47132 10.1054 8.47402 9.69403C8.88318 9.6979 9.29233 9.69877 9.70149 9.69662C9.69884 9.28622 9.70028 8.87581 9.70581 8.46545Z" fill="#4D8184"/>
<path d="M17.071 12.1544C17.472 12.1509 17.9039 12.1584 18.3017 12.1472L18.3012 14.6144C18.6229 14.5992 19.2085 14.5924 19.5305 14.607C19.5308 14.9426 19.5479 15.5283 19.5259 15.8401C19.2946 15.8599 18.5666 15.8368 18.3098 15.8363C17.8966 15.8385 17.4834 15.8378 17.0701 15.8342L17.0735 14.6078C17.0577 13.8085 17.0715 12.9571 17.071 12.1544Z" fill="#70AB48"/>
<path d="M12.1624 7.23743C12.5716 7.24197 12.9808 7.24309 13.3899 7.24075L15.8463 7.24017C15.8452 7.64815 15.8409 8.06019 15.8451 8.46784C15.5085 8.48716 14.9718 8.47028 14.6228 8.47049L12.1596 8.47093C12.156 8.05977 12.157 7.64857 12.1624 7.23743Z" fill="#4D8184"/>
<path d="M14.6173 9.69463C15.022 9.69463 15.4408 9.70021 15.8444 9.69202L15.8425 10.9268C15.4975 10.9092 14.9713 10.9246 14.6138 10.9251L14.6173 9.69463Z" fill="#70AB48"/>
<path d="M15.8425 10.9269C16.2516 10.9218 16.6654 10.9269 17.0729 10.9198C17.0723 11.3234 17.0791 11.7529 17.0708 12.1544C16.6791 12.1416 16.2392 12.1525 15.844 12.1536L15.8425 10.9269Z" fill="#70AB48"/>
<path d="M14.6136 10.9251C14.971 10.9245 15.4973 10.9091 15.8423 10.9268L15.8438 12.1535C16.239 12.1524 16.6789 12.1416 17.0706 12.1543C17.071 12.9571 17.0573 13.8084 17.0731 14.6078L17.0697 15.8341C17.4829 15.8377 17.8962 15.8384 18.3094 15.8363C18.2839 16.1892 18.3002 16.6983 18.2982 17.0665C18.0653 17.042 17.3417 17.0624 17.0713 17.0636L17.0709 18.294C16.6968 18.2795 16.2202 18.2918 15.8442 18.2954C15.5368 18.273 14.9445 18.2926 14.6142 18.2945L13.3857 18.2916C13.3945 17.8969 13.3896 17.458 13.3843 17.0623L13.3874 17.0506C13.3848 16.6453 13.3858 16.24 13.3905 15.8347C13.3927 15.7879 13.3904 15.7396 13.3904 15.6925C13.3909 14.5147 13.3755 13.3336 13.3902 12.156C13.3726 11.8121 13.3875 11.2942 13.3869 10.9379C13.4863 10.9046 14.4306 10.9245 14.6136 10.9251Z" fill="#1E4835"/>
<path d="M14.6136 10.9251C14.971 10.9245 15.4973 10.9091 15.8423 10.9268L15.8438 12.1535C16.239 12.1524 16.6789 12.1416 17.0706 12.1543C17.071 12.9571 17.0573 13.8084 17.0731 14.6078L15.8421 14.608L15.8446 12.1533L14.616 12.1556C14.2198 12.145 13.7888 12.1535 13.3902 12.156C13.3726 11.8121 13.3875 11.2942 13.3869 10.9379C13.4863 10.9046 14.4306 10.9245 14.6136 10.9251Z" fill="#569043"/>
<path d="M14.6136 10.9251C14.615 11.3154 14.6036 11.7699 14.616 12.1557C14.2198 12.1451 13.7888 12.1535 13.3902 12.156C13.3726 11.8122 13.3875 11.2943 13.3869 10.938C13.4863 10.9046 14.4306 10.9245 14.6136 10.9251Z" fill="#1E4835"/>
<path d="M13.3902 12.1561C13.7887 12.1536 14.2198 12.1451 14.6159 12.1557C14.6138 13.3741 14.6274 14.612 14.6119 15.8275C14.23 15.8472 13.7774 15.8355 13.3904 15.8349C13.3926 15.788 13.3903 15.7397 13.3903 15.6926C13.3909 14.5148 13.3754 13.3337 13.3902 12.1561Z" fill="#1C2B10"/>
<path d="M14.6207 17.0632L15.8425 17.063C16.2521 17.0657 16.6618 17.0659 17.0714 17.0636L17.071 18.294C16.6969 18.2795 16.2203 18.2919 15.8443 18.2954C15.5369 18.2731 14.9446 18.2926 14.6143 18.2946C14.614 17.8882 14.6084 17.4684 14.6207 17.0632Z" fill="#70AB48"/>
<path d="M15.8429 17.063C16.2525 17.0657 16.6622 17.0659 17.0718 17.0636L17.0714 18.294C16.6973 18.2795 16.2207 18.2919 15.8447 18.2954C15.8369 17.8937 15.8434 17.4667 15.8429 17.063Z" fill="#4D8184"/>
<path d="M15.8454 15.8384L17.0699 15.8341C17.4831 15.8377 17.8963 15.8384 18.3096 15.8363C18.284 16.1893 18.3003 16.6983 18.2984 17.0665C18.0654 17.042 17.3419 17.0625 17.0715 17.0636C16.6618 17.0659 16.2522 17.0656 15.8425 17.0629L15.8454 15.8384Z" fill="#4D8184"/>
<path d="M15.8454 15.8384L17.0699 15.8341L17.0715 17.0636C16.6618 17.0659 16.2522 17.0656 15.8425 17.0629L15.8454 15.8384Z" fill="#70AB48"/>
<path d="M15.8422 14.608L17.0732 14.6078L17.0698 15.8341L15.8454 15.8384L15.8311 15.8362C15.8655 15.7241 15.8429 14.7972 15.8422 14.608Z" fill="#8DC860"/>
<path d="M13.3871 17.0507C13.473 17.0728 14.4979 17.0752 14.6143 17.0521L14.6203 17.0632C14.608 17.4684 14.6136 17.8882 14.6139 18.2945L13.3854 18.2917C13.3942 17.897 13.3893 17.4581 13.384 17.0624L13.3871 17.0507Z" fill="#569043"/>
<path d="M14.6145 15.8364C15.0201 15.8331 15.4257 15.833 15.8313 15.8363L15.8456 15.8385L15.8427 17.063L14.6209 17.0632L14.6149 17.0521L14.6145 15.8364Z" fill="#8DC860"/>
<path d="M9.70364 9.69906L10.9281 9.69617L12.1581 9.69622L13.3923 9.69676C13.3832 10.0783 13.4061 10.5663 13.382 10.9278L13.387 10.9379C13.3876 11.2942 13.3727 11.8121 13.3903 12.156C13.3756 13.3336 13.391 14.5147 13.3904 15.6925C13.3904 15.7396 13.3928 15.7879 13.3906 15.8347L12.1707 15.8347C12.1383 15.7389 12.1583 14.7915 12.1589 14.6116C11.77 14.5996 11.3255 14.609 10.9323 14.6092C10.9282 15.018 10.9275 15.4268 10.9301 15.8356C10.5593 15.85 10.08 15.8368 9.70147 15.8358C9.35209 15.8192 8.83521 15.8357 8.47406 15.8363C8.46068 15.4639 8.47278 14.9935 8.47297 14.6143L8.47228 13.3735L8.47272 12.1512L8.47207 10.9282C8.84337 10.9127 9.32259 10.9216 9.69967 10.9241L9.70364 9.69906Z" fill="#8DC860"/>
<path d="M8.47207 10.9282C8.84337 10.9127 9.32259 10.9217 9.69967 10.9241L9.69963 12.1524C10.0082 12.1518 10.6469 12.1329 10.9306 12.1582C10.9308 12.5206 10.9158 13.0335 10.933 13.3842C10.9305 13.7401 10.9111 14.2644 10.9323 14.6092C10.9282 15.018 10.9275 15.4268 10.9301 15.8357C10.5593 15.85 10.08 15.8368 9.70147 15.8359C9.35209 15.8192 8.83521 15.8357 8.47406 15.8363C8.46068 15.464 8.47278 14.9936 8.47297 14.6143L8.47228 13.3736L8.47272 12.1513L8.47207 10.9282Z" fill="#70AB48"/>
<path d="M8.47168 10.9282C8.84298 10.9127 9.3222 10.9217 9.69928 10.9241L9.69924 12.1524L9.69822 13.3815C9.33316 13.3792 8.82264 13.3944 8.47189 13.3736L8.47233 12.1513L8.47168 10.9282Z" fill="#63997C"/>
<path d="M9.69926 12.1524C10.0078 12.1518 10.6465 12.1329 10.9303 12.1582C10.9304 12.5206 10.9154 13.0335 10.9326 13.3842C10.5388 13.3706 10.0956 13.381 9.69824 13.3815L9.69926 12.1524Z" fill="#B3E359"/>
<path d="M8.47297 14.6144C8.8831 14.6085 9.29331 14.6065 9.70349 14.6083C9.70032 14.9837 9.6875 15.4635 9.70147 15.8359C9.35209 15.8192 8.83521 15.8358 8.47406 15.8364C8.46068 15.464 8.47278 14.9936 8.47297 14.6144Z" fill="#63997C"/>
<path d="M9.70372 9.69906L10.9281 9.69617L12.1581 9.69622L13.3924 9.69676C13.3833 10.0783 13.4061 10.5663 13.3821 10.9278C13.0066 10.9129 12.5398 10.9255 12.1595 10.9302L12.1604 12.157C11.7864 12.143 11.3082 12.1479 10.9307 12.1582C10.6469 12.1328 10.0082 12.1517 9.69971 12.1524L9.69975 10.9241L9.70372 9.69906Z" fill="#C8F9D9"/>
<path d="M12.158 9.69629L13.3922 9.69683C13.3831 10.0783 13.406 10.5664 13.3819 10.9278C13.0064 10.9129 12.5396 10.9255 12.1593 10.9303L12.158 9.69629Z" fill="#B3E359"/>
<path d="M9.70368 9.69906L10.9281 9.69617L10.9283 10.9212L9.69971 10.9241L9.70368 9.69906Z" fill="#63997C"/>
<path d="M10.9328 10.9241C11.3395 10.927 11.7538 10.9165 12.1597 10.9302L12.1606 12.157C11.7866 12.143 11.3084 12.1479 10.9309 12.1582L10.9328 10.9241Z" fill="#B3E359"/>
<path d="M12.1612 12.1538C12.5709 12.1513 12.9807 12.152 13.3904 12.1561C13.3757 13.3337 13.3911 14.5148 13.3905 15.6926C13.3905 15.7397 13.3929 15.788 13.3907 15.8349L12.1708 15.8348C12.1384 15.739 12.1584 14.7916 12.1589 14.6117L12.1593 13.3862L12.1612 12.1538Z" fill="#1E4835"/>
<path d="M10.9334 13.3843C11.3017 13.3803 11.7986 13.3646 12.1596 13.3861L12.1592 14.6116C11.7703 14.5997 11.3258 14.6091 10.9326 14.6092C10.9115 14.2645 10.9308 13.7401 10.9334 13.3843Z" fill="#8DC860"/>
<path d="M10.9325 14.6092C11.3257 14.6091 11.7702 14.5997 12.1591 14.6116C12.1585 14.7916 12.1386 15.739 12.171 15.8348L13.3908 15.8348C13.3861 16.2401 13.3851 16.6454 13.3877 17.0507L13.3846 17.0624C13.3899 17.4581 13.3948 17.897 13.386 18.2917L14.6145 18.2946C14.9448 18.2926 15.5371 18.2731 15.8445 18.2954C15.8436 18.6143 15.823 19.2209 15.8479 19.5201L12.1595 19.5184L10.9298 19.5201L10.9314 18.2913L9.7023 18.2937C9.31249 18.2827 8.86602 18.2931 8.47203 18.2942L8.47311 17.07L8.47144 15.848L8.4743 15.8364C8.83544 15.8357 9.35232 15.8192 9.7017 15.8359C10.0802 15.8368 10.5595 15.85 10.9303 15.8357C10.9277 15.4269 10.9284 15.0181 10.9325 14.6092Z" fill="#4D8184"/>
<path d="M10.9321 14.6092C11.3253 14.6091 11.7698 14.5997 12.1587 14.6116C12.1581 14.7916 12.1382 15.739 12.1706 15.8348L13.3904 15.8348C13.3857 16.2401 13.3847 16.6454 13.3873 17.0507L13.3842 17.0624L12.1614 17.0645C11.8735 17.0846 11.2395 17.0648 10.9298 17.0637C10.9159 16.6918 10.9296 16.2153 10.9299 15.8357C10.9273 15.4269 10.928 15.0181 10.9321 14.6092Z" fill="#70AB48"/>
<path d="M12.1706 15.8348L13.3904 15.8349C13.3857 16.2401 13.3847 16.6454 13.3873 17.0507L13.3842 17.0624L12.1614 17.0645C12.1416 16.7256 12.1567 16.1818 12.1596 15.8371L12.1706 15.8348Z" fill="#8DC860"/>
<path d="M10.9324 14.6092C11.3256 14.6091 11.7701 14.5997 12.159 14.6116C12.1584 14.7916 12.1385 15.739 12.1709 15.8348L12.16 15.8371C11.8807 15.8158 11.2345 15.8354 10.9302 15.8357C10.9276 15.4269 10.9284 15.0181 10.9324 14.6092Z" fill="#569043"/>
<path d="M12.1618 17.0645L13.3846 17.0624C13.3898 17.4581 13.3948 17.897 13.3859 18.2917L12.1506 18.2917C12.1718 17.9525 12.1592 17.4171 12.1618 17.0645Z" fill="#70AB48"/>
<path d="M8.47275 17.0699C8.87761 17.0577 9.29682 17.0632 9.70285 17.0634L9.70195 18.2936C9.31214 18.2826 8.86567 18.293 8.47168 18.2941L8.47275 17.0699Z" fill="#306264"/>
<path d="M10.9301 17.0637C11.2398 17.0648 11.8738 17.0846 12.1617 17.0645C12.1592 17.4171 12.1718 17.9525 12.1506 18.2918L10.9297 18.2913L10.9301 17.0637Z" fill="#63997C"/>
<path d="M9.70131 15.8359C10.0798 15.8368 10.5591 15.85 10.9299 15.8357C10.9296 16.2152 10.9159 16.6918 10.9298 17.0637C10.579 17.0468 10.0633 17.063 9.70093 17.0634L9.70131 15.8359Z" fill="#63997C"/>
<path d="M12.1595 19.5184L15.848 19.5201C15.8271 19.8624 15.843 20.3872 15.8425 20.7491C14.6535 20.7259 13.3496 20.7417 12.1572 20.7511L12.1595 19.5184Z" fill="#306264"/>
<path d="M17.0714 17.0636C17.3418 17.0625 18.0654 17.0421 18.2983 17.0666L18.3013 17.0762L18.3019 18.2947L18.2992 19.5211L17.0735 19.5204C16.6735 19.5132 16.2495 19.5201 15.8477 19.5201C15.8228 19.2209 15.8434 18.6143 15.8443 18.2954C16.2203 18.2918 16.6969 18.2795 17.071 18.294L17.0714 17.0636Z" fill="#306264"/>
<path d="M17.0713 17.0636C17.3417 17.0625 18.0652 17.0421 18.2982 17.0666L18.3012 17.0762L18.3017 18.2947C17.8914 18.2913 17.4811 18.2911 17.0708 18.294L17.0713 17.0636Z" fill="#70AB48"/>
<path d="M15.8443 18.2954C16.2203 18.2918 16.6969 18.2795 17.071 18.294L17.0735 19.5204C16.6735 19.5132 16.2495 19.5201 15.8477 19.52C15.8228 19.2208 15.8434 18.6143 15.8443 18.2954Z" fill="#63997C"/>
<path d="M19.5312 12.1527C19.9155 12.1521 20.3811 12.1628 20.7597 12.1492C20.7545 13.3678 20.7754 14.6241 20.7563 15.838C20.5914 15.8369 19.6349 15.8231 19.5298 15.8479L19.5256 15.84C19.5477 15.5283 19.5305 14.9426 19.5303 14.607C19.5478 13.8055 19.5251 12.9614 19.5312 12.1527Z" fill="#306264"/>
<path d="M9.70225 18.2937L10.9313 18.2913L10.9298 19.5201C10.5199 19.5188 10.11 19.5199 9.7002 19.5234L9.70225 18.2937Z" fill="#306264"/>
<path d="M18.3097 15.8363C18.5665 15.8368 19.2945 15.8599 19.5257 15.84L19.5299 15.8479L19.5293 17.065C19.3661 17.0638 18.3911 17.0492 18.3015 17.0761L18.2985 17.0665C18.3005 16.6983 18.2842 16.1893 18.3097 15.8363Z" fill="#63997C"/>
<path d="M18.3018 17.0761C18.3913 17.0492 19.3664 17.0637 19.5295 17.0649L19.5281 18.2934C19.1195 18.2913 18.7109 18.2917 18.3023 18.2946L18.3018 17.0761Z" fill="#306264"/>
<path d="M8.47048 9.67358L8.47387 9.69398C8.47117 10.1054 8.47057 10.5168 8.47215 10.9282L8.4728 12.1512L8.47236 13.3735L8.47305 14.6143C8.47286 14.9935 8.46076 15.4639 8.47414 15.8363L8.47128 15.848L8.47295 17.0699L8.47188 18.2941C8.3675 18.2822 8.31648 18.2873 8.21321 18.2947C8.02888 18.3181 7.49249 18.2916 7.23988 18.3086L7.24159 15.8568C6.91795 15.8303 6.33222 15.8323 6.01142 15.8532L6.01188 13.4295C6.01236 13.1221 6.03204 12.4306 6 12.1473C6.36044 12.1562 6.88492 12.1542 7.24079 12.1346L7.24126 10.5443C7.24146 10.3123 7.25345 9.91179 7.22844 9.69177C7.45166 9.69315 8.2963 9.70735 8.47048 9.67358Z" fill="#1E4835"/>
<path d="M7.24402 12.15C7.65358 12.1532 8.06314 12.1537 8.47271 12.1513L8.47227 13.3737L8.47296 14.6144C8.47277 14.9936 8.46068 15.464 8.47406 15.8364L8.4712 15.8481C8.3682 15.8188 7.40127 15.838 7.24341 15.8427L7.24402 12.15Z" fill="#306264"/>
</g>
<rect x="0.25" y="0.25" width="27.5" height="27.5" rx="5.75" stroke="url(#paint1_linear_10296_3411)" stroke-width="0.5"/>
<defs>
<filter id="filter0_f_10296_3411" x="-1.1" y="-1.1" width="30.2" height="30.2" filterUnits="userSpaceOnUse" color-interpolation-filters="sRGB">
<feFlood flood-opacity="0" result="BackgroundImageFix"/>
<feBlend mode="normal" in="SourceGraphic" in2="BackgroundImageFix" result="shape"/>
<feGaussianBlur stdDeviation="4.55" result="effect1_foregroundBlur_10296_3411"/>
</filter>
<linearGradient id="paint0_linear_10296_3411" x1="14" y1="0" x2="14" y2="28" gradientUnits="userSpaceOnUse">
<stop stop-color="#282C3E"/>
<stop offset="1" stop-color="#181822"/>
</linearGradient>
<linearGradient id="paint1_linear_10296_3411" x1="14" y1="0" x2="14" y2="30.9167" gradientUnits="userSpaceOnUse">
<stop stop-color="#4D8184"/>
<stop offset="1" stop-color="#4D8184" stop-opacity="0"/>
</linearGradient>
<clipPath id="clip0_10296_3411">
<rect width="28" height="28" rx="6" fill="white"/>
</clipPath>
</defs>
</svg>
