<svg width="28" height="28" viewBox="0 0 28 28" fill="none" xmlns="http://www.w3.org/2000/svg">
<g clip-path="url(#clip0_10296_3463)">
<rect width="28" height="28" rx="6" fill="url(#paint0_linear_10296_3463)"/>
<g filter="url(#filter0_f_10296_3463)">
<circle cx="14" cy="14" r="6" fill="#04030D"/>
</g>
<path d="M15.4653 6H18.3791C18.3811 6.44523 18.3984 7.00269 18.3807 7.43541L22.0002 7.43431V9.62919C21.5392 9.6283 20.9858 9.61414 20.5327 9.6333C20.5406 9.86811 20.5371 10.0964 20.5343 10.3314C20.6625 10.3501 20.9511 10.3431 21.0904 10.3429L22.0002 10.3395V12.5354C21.5253 12.5309 21.0091 12.5263 20.534 12.535C20.5392 12.979 20.5168 13.5648 20.5429 13.9869C20.3637 13.9611 20.0166 13.97 19.8246 13.9714C19.8189 14.2815 19.8167 14.5917 19.8181 14.9018C19.8182 15.0581 19.8119 15.3122 19.8318 15.4613C19.6426 15.4296 19.2283 15.4402 19.0194 15.4403C18.5583 15.4391 18.0973 15.441 17.6362 15.446C17.6337 15.6492 17.6206 15.9795 17.6366 16.171C17.4242 16.1467 17.0179 16.1568 16.7881 16.1576C16.3528 16.1592 15.9047 16.1528 15.4705 16.1601C15.4747 16.4634 15.4757 16.7668 15.4734 17.0701C15.4729 17.2532 15.4661 17.4682 15.4838 17.6483C15.1157 17.6073 14.4757 17.6124 14.1007 17.6323C13.5906 17.6345 13.0465 17.6185 12.5388 17.6359C12.5411 17.8546 12.5354 18.1369 12.5479 18.3507C12.323 18.3607 12.054 18.3462 11.8238 18.3482L11.8072 18.344C11.3636 18.3623 10.8506 18.3353 10.3927 18.3464C10.3601 18.2867 10.3747 17.7369 10.3752 17.6255L9.62757 17.6254C9.60724 17.2466 9.61992 16.5416 9.6294 16.1552L9.62454 16.1455C9.62096 15.9086 9.61946 15.6716 9.61999 15.4347C9.87167 15.4355 10.1233 15.4337 10.375 15.4292C10.3637 14.9485 10.3723 14.4467 10.3714 13.9636C10.8441 13.975 11.3382 13.968 11.8125 13.9685L12.5312 13.9691L12.5319 12.5309L12.5319 11.7808L12.5311 10.341L12.5305 9.6177C12.5197 9.13048 12.5239 8.63586 12.5149 8.14556C12.8738 8.17053 13.6273 8.15837 13.9984 8.14987C13.9993 7.91103 13.9982 7.67219 13.9949 7.43337C14.3807 7.44669 15.0898 7.44525 15.4686 7.42516C15.4569 6.9895 15.4534 6.43408 15.4653 6Z" fill="#81694F"/>
<path d="M20.5343 10.3313C20.6625 10.35 20.9511 10.343 21.0904 10.3428L22.0002 10.3394V12.5353C21.5253 12.5308 21.0091 12.5262 20.534 12.5349C20.5392 12.979 20.5168 13.5648 20.5429 13.9869C20.3637 13.961 20.0166 13.9699 19.8246 13.9713C19.8189 14.2814 19.8167 14.5916 19.8181 14.9018C19.8182 15.0581 19.8119 15.3121 19.8318 15.4612C19.6426 15.4295 19.2283 15.4401 19.0194 15.4402C18.5583 15.439 18.0973 15.4409 17.6362 15.4459C17.6337 15.6491 17.6206 15.9794 17.6366 16.1709C17.4242 16.1466 17.0179 16.1567 16.7881 16.1575C16.3528 16.1591 15.9047 16.1527 15.4705 16.16C15.4747 16.4634 15.4757 16.7667 15.4734 17.07C15.4729 17.2531 15.4661 17.4682 15.4838 17.6483C15.1157 17.6072 14.4757 17.6123 14.1007 17.6323C13.5906 17.6345 13.0465 17.6184 12.5388 17.6358C12.5411 17.8546 12.5354 18.1368 12.5479 18.3506C12.323 18.3606 12.054 18.3461 11.8238 18.3481L11.8072 18.344C11.3636 18.3622 10.8506 18.3353 10.3927 18.3464C10.3601 18.2866 10.3747 17.7368 10.3752 17.6255L9.62757 17.6253C9.60724 17.2465 9.61992 16.5415 9.6294 16.1551L9.62454 16.1454C9.62096 15.9085 9.61946 15.6715 9.61999 15.4346C9.87167 15.4355 10.1233 15.4337 10.375 15.4292C10.3637 14.9485 10.3723 14.4466 10.3714 13.9635C10.8441 13.9749 11.3382 13.9679 11.8125 13.9684L12.5312 13.9691L12.5319 12.5308L14.0009 12.5301L15.4691 12.5309C15.4689 12.9509 15.4487 13.5644 15.4718 13.9682L16.1882 13.9691L17.6276 13.9689C17.6118 13.5169 17.6256 12.9891 17.6263 12.5314L18.376 12.5309L18.3763 11.7818L19.8122 11.7812L19.8143 10.3432C20.0499 10.3431 20.2966 10.3467 20.5313 10.3419L20.5343 10.3313Z" fill="#81694F"/>
<path d="M10.3714 13.9636C10.8441 13.975 11.3382 13.968 11.8125 13.9685L12.5312 13.9692C12.5313 14.4517 12.5234 14.9572 12.5321 15.4377L13.9894 15.4383C14.0137 15.5243 13.9997 16.0308 14.0013 16.1545C14.0006 16.4043 13.9669 17.4277 14.0125 17.6098C14.0498 17.6232 14.0615 17.6265 14.1007 17.6324C13.5906 17.6346 13.0465 17.6185 12.5388 17.6359C12.5411 17.8547 12.5354 18.137 12.5479 18.3507C12.323 18.3607 12.054 18.3462 11.8238 18.3482L11.8072 18.3441C11.3636 18.3623 10.8506 18.3354 10.3927 18.3465C10.3601 18.2867 10.3747 17.7369 10.3752 17.6256L9.62757 17.6254C9.60724 17.2466 9.61992 16.5416 9.6294 16.1552L9.62454 16.1455C9.62096 15.9086 9.61946 15.6716 9.61999 15.4347C9.87167 15.4356 10.1233 15.4338 10.375 15.4293C10.3637 14.9486 10.3723 14.4467 10.3714 13.9636Z" fill="#724025"/>
<path d="M10.3712 13.9636C10.8438 13.975 11.3379 13.968 11.8122 13.9685L12.531 13.9692C12.5311 14.4517 12.5231 14.9572 12.5318 15.4377L12.5312 16.1464C12.4238 16.1675 11.9532 16.1567 11.8245 16.1552L11.8136 16.1578C11.354 16.1433 10.8455 16.1606 10.3772 16.1532C10.1268 16.1615 9.87951 16.1578 9.62914 16.1552L9.62428 16.1455C9.6207 15.9086 9.6192 15.6716 9.61973 15.4347C9.8714 15.4356 10.1231 15.4338 10.3747 15.4293C10.3634 14.9486 10.372 14.4467 10.3712 13.9636Z" fill="#A8462F"/>
<path d="M10.3746 15.4353C10.8491 15.4411 11.3338 15.4362 11.8091 15.4365C11.8113 15.5477 11.8066 16.0996 11.8244 16.1551L11.8136 16.1577C11.3539 16.1432 10.8454 16.1606 10.3772 16.1531C10.3688 15.9241 10.3744 15.6664 10.3746 15.4353Z" fill="#DBAB92"/>
<path d="M11.8091 15.4365C12.0471 15.4368 12.2945 15.4335 12.5317 15.4376L12.5311 16.1463C12.4237 16.1674 11.9531 16.1566 11.8243 16.1551C11.8066 16.0996 11.8113 15.5477 11.8091 15.4365Z" fill="#E9C79A"/>
<path d="M9.6294 16.1552C9.87978 16.1578 10.1271 16.1616 10.3775 16.1533C10.8457 16.1607 11.3543 16.1434 11.8139 16.1578L11.8132 17.6222C11.813 17.8506 11.819 18.1191 11.8072 18.3441C11.3636 18.3624 10.8506 18.3354 10.3927 18.3465C10.3601 18.2867 10.3747 17.737 10.3752 17.6256L9.62757 17.6255C9.60724 17.2467 9.61992 16.5417 9.6294 16.1552Z" fill="#724025"/>
<path d="M9.6294 16.1552C9.87978 16.1578 10.1271 16.1615 10.3775 16.1532C10.3741 16.644 10.3733 17.1348 10.3752 17.6256L9.62757 17.6254C9.60724 17.2466 9.61992 16.5416 9.6294 16.1552Z" fill="#81694F"/>
<path d="M10.3748 17.6255L11.8128 17.6221C11.8126 17.8505 11.8186 18.1189 11.8068 18.344C11.3632 18.3622 10.8502 18.3353 10.3923 18.3464C10.3597 18.2866 10.3743 17.7369 10.3748 17.6255Z" fill="#70552A"/>
<path d="M12.5312 16.1464L12.5346 16.1549C12.5203 16.5975 12.5237 17.1798 12.5335 17.6254C12.3172 17.6257 12.0231 17.6346 11.813 17.6221L11.8137 16.1578L11.8245 16.1552C11.9533 16.1567 12.4239 16.1674 12.5312 16.1464Z" fill="#A8462F"/>
<path d="M12.5319 15.4377L13.9892 15.4384C14.0135 15.5244 13.9995 16.0308 14.0011 16.1546L12.5347 16.155L12.5312 16.1464L12.5319 15.4377Z" fill="#A8462F"/>
<path d="M19.8143 10.3434C20.05 10.3432 20.2966 10.3469 20.5313 10.342C20.5361 11.0612 20.5186 11.8157 20.5327 12.5304C20.2952 12.5305 20.0516 12.5336 19.8147 12.5305L19.8153 13.9688L17.6277 13.969C17.6119 13.5171 17.6257 12.9892 17.6264 12.5316L18.3761 12.531L18.3763 11.782L19.8123 11.7813L19.8143 10.3434Z" fill="#DBAB92"/>
<path d="M12.5317 12.531L14.0008 12.5303C14.0005 12.999 13.9906 13.5026 14.0014 13.9684C14.0005 14.4021 14.02 15.0151 13.9968 15.4365L13.9892 15.4384L12.5319 15.4377C12.5232 14.9572 12.5312 14.4518 12.531 13.9692L12.5317 12.531Z" fill="#DBAB92"/>
<path d="M12.5319 12.531L14.001 12.5303C14.0007 12.999 13.9909 13.5026 14.0016 13.9684L12.5312 13.9692L12.5319 12.531Z" fill="#B58B76"/>
<path d="M14.001 12.5303L15.4691 12.5311C15.4689 12.951 15.4488 13.5646 15.4718 13.9684C15.4606 14.4548 15.469 14.9498 15.4665 15.4371C14.9781 15.4301 14.4852 15.4435 13.997 15.4365C14.0202 15.0151 14.0007 14.4021 14.0016 13.9684C13.9908 13.5026 14.0007 12.999 14.001 12.5303Z" fill="#B58B76"/>
<path d="M14.001 12.5303L15.4691 12.5311C15.4689 12.951 15.4488 13.5646 15.4718 13.9684L14.0016 13.9684C13.9908 13.5026 14.0007 12.999 14.001 12.5303Z" fill="#DBAB92"/>
<path d="M16.1883 13.9692L17.6276 13.9689L17.6273 15.4397L16.1876 15.4381L15.4665 15.437C15.469 14.9497 15.4606 14.4547 15.4718 13.9683L16.1883 13.9692Z" fill="#DBAB92"/>
<path d="M15.4718 13.9683L16.1883 13.9692L16.1876 15.4381L15.4665 15.437C15.469 14.9497 15.4606 14.4547 15.4718 13.9683Z" fill="#B58B76"/>
<path d="M13.9969 15.4364C14.4851 15.4434 14.978 15.43 15.4664 15.4371L15.4711 16.1539C14.9811 16.1569 14.4911 16.1572 14.0012 16.1545C13.9996 16.0307 14.0136 15.5243 13.9893 15.4383L13.9969 15.4364Z" fill="#B58B76"/>
<path d="M16.1912 7.43724C16.6643 7.43747 17.1571 7.4303 17.6285 7.43856C17.6242 7.67787 17.6228 7.91723 17.6246 8.15659L18.3764 8.15551L19.8159 8.15626C19.8056 8.5809 19.7972 9.20442 19.8132 9.62701L19.814 10.3432L19.8119 11.7812L18.376 11.7819L18.3757 12.5309L17.626 12.5314C17.6253 12.9891 17.6115 13.5169 17.6273 13.9689L16.1879 13.9692L15.4715 13.9683C15.4484 13.5645 15.4686 12.9509 15.4688 12.5309L15.4685 11.7789L15.4708 10.3445C15.4653 10.1084 15.4775 9.86289 15.4632 9.62775C15.7017 9.62612 15.9487 9.62134 16.1865 9.62608L16.1866 8.87672C16.1868 8.41075 16.1758 7.89936 16.1912 7.43724Z" fill="#E9C79A"/>
<path d="M16.1913 7.43724C16.6644 7.43747 17.1572 7.4303 17.6286 7.43856C17.6243 7.67787 17.6229 7.91723 17.6247 8.15659C17.6249 8.63953 17.6174 9.14405 17.6261 9.62506L16.1866 9.62608L16.1867 8.87672C16.1869 8.41075 16.1759 7.89936 16.1913 7.43724Z" fill="#DBAB92"/>
<path d="M18.3721 10.3423L19.8143 10.3433L19.8122 11.7812L18.3763 11.7819C18.3763 11.3206 18.3883 10.7988 18.3721 10.3423Z" fill="#B58B76"/>
<path d="M16.1883 12.5298C16.6626 12.5371 17.1509 12.532 17.6261 12.5315C17.6253 12.9892 17.6116 13.517 17.6273 13.969L16.188 13.9692L16.1883 12.5298Z" fill="#B58B76"/>
<path d="M15.4634 9.62773C15.7019 9.62611 15.9489 9.62133 16.1867 9.62606L16.1881 11.7811C15.9625 11.7807 15.6903 11.7877 15.4687 11.7789L15.471 10.3445C15.4656 10.1084 15.4777 9.86287 15.4634 9.62773Z" fill="#DBAB92"/>
<path d="M17.6221 11.7791L18.3758 11.782L18.3755 12.531L17.6259 12.5315C17.6261 12.2837 17.6298 12.0259 17.6221 11.7791Z" fill="#B58B76"/>
<path d="M17.633 9.64168C17.7211 9.60987 18.2543 9.62307 18.3692 9.62469C18.381 9.85391 18.3756 10.1111 18.3718 10.3423C18.1362 10.3435 17.8569 10.3525 17.625 10.3452C17.6249 10.1106 17.6275 9.87613 17.633 9.64168Z" fill="#E9C79A"/>
<path d="M16.9173 11.0668C17.1556 11.0555 17.3928 11.0671 17.6249 11.0571C17.6244 11.2942 17.6278 11.5429 17.6224 11.7791L16.9156 11.7845C16.9113 11.6303 16.896 11.2135 16.9173 11.0668Z" fill="#E9C79A"/>
<path d="M18.3789 8.87535C18.6095 8.86918 18.858 8.87259 19.0901 8.87134C19.0949 9.07507 19.1073 9.42359 19.0865 9.62192C18.8654 9.6334 18.5914 9.62788 18.3682 9.62834C18.3796 9.38781 18.3731 9.1196 18.3789 8.87535Z" fill="#E9C79A"/>
<path d="M12.5303 9.61768C12.9248 9.6461 13.5924 9.62549 14.0001 9.6251C14.0001 9.8451 13.9917 10.1276 14.0018 10.3424L15.4709 10.3446L15.4686 11.7789L15.4688 12.5309L14.0007 12.5302L12.5316 12.5309L12.5317 11.7807L12.5308 10.3409L12.5303 9.61768Z" fill="#E9C79A"/>
<path d="M14.0021 10.3424L15.4711 10.3446L15.4689 11.779L15.4691 12.531L14.001 12.5302L14.002 11.7831L14.0021 10.3424Z" fill="#B58B76"/>
<path d="M12.5318 11.7808L14.0018 11.7831L14.0008 12.5302L12.5317 12.5309L12.5318 11.7808Z" fill="#DBAB92"/>
<path d="M12.5303 9.61768C12.9248 9.6461 13.5924 9.62549 14.0001 9.6251C14.0001 9.8451 13.9917 10.1276 14.0018 10.3424C13.5115 10.3451 13.0211 10.3446 12.5308 10.3409L12.5303 9.61768Z" fill="#DBAB92"/>
<path d="M15.4677 7.43457C15.7043 7.43967 15.9538 7.43645 16.1915 7.43728C16.1761 7.8994 16.1871 8.41079 16.1869 8.87675L16.1868 9.62611C15.949 9.62138 15.702 9.62616 15.4635 9.62779C15.4778 9.86293 15.4656 10.1084 15.4711 10.3446L14.002 10.3424C13.992 10.1276 14.0003 9.84511 14.0004 9.62511C13.9979 9.13521 13.9982 8.64529 14.0013 8.15538L15.4687 8.15571L15.4677 7.43457Z" fill="#E9C79A"/>
<path d="M15.4635 9.6278C15.4633 9.62232 15.4631 9.61685 15.4629 9.61138C15.4612 8.75516 15.3688 8.85568 16.1869 8.87677L16.1868 9.62613C15.949 9.6214 15.702 9.62618 15.4635 9.6278Z" fill="#E9C79A"/>
<path d="M19.8158 8.15625L20.531 8.15658C20.5313 8.62966 20.5193 9.15811 20.5329 9.62631L19.8132 9.627C19.7971 9.20441 19.8055 8.58089 19.8158 8.15625Z" fill="#DBAB92"/>
<path d="M17.6287 7.43864L18.3806 7.43677C18.3749 7.67633 18.3736 7.91599 18.3766 8.1556L17.6248 8.15668C17.623 7.91732 17.6244 7.67796 17.6287 7.43864Z" fill="#B58B76"/>
<path d="M9.62434 16.1455L9.6292 16.1552C9.61972 16.5416 9.60705 17.2466 9.62737 17.6254L10.375 17.6256C10.3745 17.7369 10.3599 18.2867 10.3925 18.3465C10.8504 18.3354 11.3634 18.3623 11.807 18.3441L11.8236 18.3482C11.8125 18.4481 11.8142 18.5628 11.8152 18.6639C11.8187 19.0424 11.8087 19.424 11.818 19.8022C11.3406 19.7586 10.8276 19.8159 10.3892 19.7843C10.3776 20.0065 10.373 20.3239 10.379 20.5503C10.1272 20.5299 9.87202 20.5513 9.63931 20.5341C9.62344 20.7952 9.66489 21.8441 9.60177 21.9833C9.60019 21.9869 9.59877 21.9903 9.59713 21.9939C9.59614 21.996 9.59498 21.998 9.59392 22H8.12256H7.48264C7.44454 21.863 7.46305 20.7521 7.46627 20.5361C6.97752 20.5333 6.48875 20.5331 6 20.5354V18.3397C6.06129 18.343 6.13056 18.342 6.19257 18.341C6.61414 18.3337 7.0443 18.3529 7.46489 18.3316C7.463 18.1221 7.47538 17.8261 7.4556 17.6275C7.70006 17.6195 7.94053 17.6275 8.18573 17.6098C8.17786 17.1272 8.18547 16.6312 8.183 16.147C8.34763 16.164 8.74212 16.1517 8.9208 16.1535C9.07511 16.1551 9.49295 16.1639 9.62434 16.1455Z" fill="#70552A"/>
<path d="M9.62434 16.1455L9.6292 16.1552C9.61972 16.5416 9.60705 17.2466 9.62737 17.6254L8.18759 17.6251C8.18736 17.8496 8.19411 18.1132 8.18633 18.3342L8.1792 18.3424C8.19884 18.4912 8.18716 18.9932 8.18648 19.1804C8.18492 19.6267 8.19808 20.0868 8.19112 20.5305C8.18342 20.7143 8.20734 21.901 8.16681 21.9671L8.12256 22H7.48264C7.44454 21.863 7.46305 20.7521 7.46627 20.5361C6.97752 20.5333 6.48875 20.5331 6 20.5354V18.3397C6.06129 18.343 6.13056 18.342 6.19257 18.341C6.61414 18.3337 7.0443 18.3529 7.46489 18.3316C7.463 18.1221 7.47538 17.8261 7.4556 17.6275C7.70006 17.6195 7.94053 17.6275 8.18573 17.6098C8.17786 17.1272 8.18547 16.6312 8.183 16.147C8.34763 16.164 8.74212 16.1517 8.9208 16.1535C9.07511 16.1551 9.49295 16.1639 9.62434 16.1455Z" fill="#4D3712"/>
<path d="M7.47063 18.3443L8.17945 18.3424C8.19909 18.4912 8.1874 18.9932 8.18673 19.1804C8.18517 19.6267 8.19833 20.0868 8.19137 20.5305L7.47009 20.5297C7.45653 19.8184 7.46914 19.0584 7.47063 18.3443Z" fill="#81694F"/>
<path d="M10.3925 18.3464C10.8504 18.3353 11.3634 18.3622 11.807 18.344L11.8236 18.3482C11.8125 18.448 11.8142 18.5628 11.8152 18.6638C11.8187 19.0424 11.8087 19.424 11.818 19.8022C11.3406 19.7585 10.8276 19.8159 10.3892 19.7843C10.3776 20.0065 10.373 20.3239 10.379 20.5502C10.1272 20.5298 9.87201 20.5512 9.63931 20.534C9.62343 20.7951 9.66489 21.844 9.60176 21.9833C9.60018 21.9868 9.59876 21.9903 9.59712 21.9939C9.59614 21.9959 9.59498 21.9979 9.59392 22H8.12256L8.16681 21.967C8.20734 21.9009 8.18342 20.7143 8.19112 20.5304C8.65964 20.5393 9.15446 20.5313 9.62514 20.5314L9.62584 19.7817L10.375 19.7813C10.3796 19.3051 10.3688 18.8262 10.379 18.3501L10.3925 18.3464Z" fill="#291003"/>
<path d="M8.18779 17.6251L9.62757 17.6254L9.62616 18.3383C9.21321 18.3156 8.5763 18.3767 8.18652 18.3342C8.1943 18.1132 8.18755 17.8496 8.18779 17.6251Z" fill="#81694F"/>
<path d="M9.62738 17.6254L10.375 17.6255C10.3745 17.7369 10.3599 18.2866 10.3925 18.3464L10.379 18.3501C10.2946 18.3306 9.76946 18.3491 9.62598 18.3383L9.62738 17.6254Z" fill="#4D3712"/>
<path d="M11.8066 9.62163C12.0266 9.62977 12.3053 9.61846 12.5304 9.61768L12.5309 10.3409L12.5318 11.7807L12.5317 12.5309L12.531 13.9691L11.8123 13.9685C11.338 13.968 10.8439 13.975 10.3713 13.9636C10.3734 13.482 10.3723 13.0005 10.3682 12.519C10.4922 12.5358 10.769 12.5294 10.9006 12.5294C11.204 12.5307 11.5074 12.5294 11.8108 12.5254C11.8036 11.5712 11.8306 10.5695 11.8066 9.62163Z" fill="#81694F"/>
<path d="M12.5315 12.5309L12.5309 13.9691L11.8122 13.9685C11.8093 13.4892 11.8102 13.0099 11.815 12.5306L12.5315 12.5309Z" fill="#DBAB92"/>
</g>
<rect x="0.25" y="0.25" width="27.5" height="27.5" rx="5.75" stroke="url(#paint1_linear_10296_3463)" stroke-width="0.5"/>
<defs>
<filter id="filter0_f_10296_3463" x="-1.1" y="-1.1" width="30.2" height="30.2" filterUnits="userSpaceOnUse" color-interpolation-filters="sRGB">
<feFlood flood-opacity="0" result="BackgroundImageFix"/>
<feBlend mode="normal" in="SourceGraphic" in2="BackgroundImageFix" result="shape"/>
<feGaussianBlur stdDeviation="4.55" result="effect1_foregroundBlur_10296_3463"/>
</filter>
<linearGradient id="paint0_linear_10296_3463" x1="14" y1="0" x2="14" y2="28" gradientUnits="userSpaceOnUse">
<stop stop-color="#282C3E"/>
<stop offset="1" stop-color="#181822"/>
</linearGradient>
<linearGradient id="paint1_linear_10296_3463" x1="14" y1="0" x2="14" y2="30.9167" gradientUnits="userSpaceOnUse">
<stop stop-color="#DBAB92"/>
<stop offset="1" stop-color="#DBAB92" stop-opacity="0"/>
</linearGradient>
<clipPath id="clip0_10296_3463">
<rect width="28" height="28" rx="6" fill="white"/>
</clipPath>
</defs>
</svg>
