<svg width="28" height="28" viewBox="0 0 28 28" fill="none" xmlns="http://www.w3.org/2000/svg">
<g clip-path="url(#clip0_10296_3739)">
<rect width="28" height="28" rx="6" fill="url(#paint0_linear_10296_3739)"/>
<g filter="url(#filter0_f_10296_3739)">
<circle cx="14" cy="14" r="6" fill="#04030D"/>
</g>
<path d="M6 6.01392C6.51033 6.03575 7.15691 6.01663 7.67912 6.01665L10.9477 6.0168L20.871 6.01614C20.855 6.37272 20.8863 6.82307 20.8634 7.14581C20.8616 7.51845 20.8618 7.89112 20.8639 8.26376C20.8638 8.43396 20.8527 8.7968 20.867 8.95158C20.8661 9.11897 20.863 9.29153 20.865 9.4584L20.8637 10.573C21.1714 10.6046 21.6387 10.5618 21.9938 10.5857V11.6485L21.9933 20.7973C21.9935 21.1834 21.9837 21.618 21.9965 22C21.7234 21.9544 21.1987 21.9685 20.9061 21.9713L11.1191 21.9705L7.81919 21.9697C7.3284 21.9696 6.47889 21.9455 6.01313 21.9887C6.02059 21.598 6.01508 21.1903 6.01545 20.7983L6.01384 10.8968L6.01403 7.75543C6.01398 7.23589 6.03568 6.51127 6 6.01392Z" fill="#342F27"/>
<path d="M20.8638 10.573C21.1714 10.6046 21.6388 10.5618 21.9939 10.5857V11.6485L21.9933 20.7972C21.9936 21.1833 21.9838 21.6179 21.9966 22C21.7234 21.9544 21.1988 21.9685 20.9061 21.9712L11.1192 21.9705L7.81925 21.9697C7.32846 21.9696 6.47895 21.9455 6.01318 21.9887C6.02065 21.5979 6.01514 21.1903 6.01551 20.7982C6.39204 20.7918 6.76859 20.79 7.14514 20.7927L7.14793 19.6489L7.14722 18.582L7.14671 16.2419L7.14916 15.1143C7.14311 14.7437 7.14705 14.363 7.14654 13.9915L10.5846 13.9956C10.9165 13.9953 11.3629 13.9814 11.6854 13.9986L11.6983 13.9953L12.8765 13.9938C13.2444 13.9988 13.6458 13.9848 14.0039 13.9962C14.3804 13.993 14.7569 13.9925 15.1333 13.9945L16.3101 13.9948C17.3542 14.0097 18.4022 13.9838 19.4467 13.9914C19.519 13.9919 19.6212 13.9914 19.6918 14.0003C19.7339 13.9986 19.8366 13.9973 19.873 13.9918C20.0964 13.9913 20.6696 14.0047 20.8652 13.9828C20.8773 13.7311 20.8652 13.3761 20.8653 13.1171C20.8655 12.6497 20.8696 12.1629 20.8568 11.6971C20.841 11.5527 20.8543 10.8894 20.8637 10.7407L20.8638 10.573Z" fill="#AA762A"/>
<path d="M7.14793 19.6489C7.26244 19.6995 8.13659 19.6603 8.3204 19.6654C9.03897 19.6746 9.8748 19.644 10.5773 19.6715L11.704 19.6683C11.8699 19.669 12.7836 19.6805 12.8741 19.651L12.8778 19.6658C13.1403 19.665 13.7675 19.6478 14.0078 19.671C14.0062 19.8756 13.9901 20.6385 14.0145 20.7925L16.3049 20.7932C16.9924 20.7943 17.768 20.8127 18.4484 20.7894C18.7445 20.7947 19.0408 20.7947 19.337 20.7895C19.8443 20.7957 20.3517 20.7968 20.8591 20.7929C21.2299 20.7918 21.6233 20.7896 21.9933 20.7973C21.9936 21.1834 21.9838 21.618 21.9966 22.0001C21.7234 21.9545 21.1988 21.9686 20.9061 21.9713L11.1192 21.9705L7.81925 21.9697C7.32846 21.9697 6.47895 21.9455 6.01318 21.9888C6.02065 21.598 6.01514 21.1904 6.01551 20.7983C6.39204 20.7919 6.76859 20.79 7.14514 20.7928L7.14793 19.6489Z" fill="#342F27"/>
<path d="M11.7038 19.6683C11.8696 19.669 12.7833 19.6805 12.8738 19.651L12.8775 19.6658C12.8762 19.9594 12.896 20.5342 12.8754 20.7929L10.583 20.7925C10.5628 20.4661 10.5766 20.0076 10.577 19.6714L11.7038 19.6683Z" fill="#916826"/>
<path d="M8.32034 19.6653C9.03892 19.6745 9.87474 19.644 10.5772 19.6714C10.5768 20.0076 10.563 20.466 10.5832 20.7924L8.33165 20.7932C8.30981 20.484 8.32249 19.9887 8.32034 19.6653Z" fill="#7C5C28"/>
<path d="M20.859 20.7929C21.2299 20.7918 21.6233 20.7896 21.9933 20.7973C21.9935 21.1834 21.9838 21.618 21.9966 22.0001C21.7234 21.9545 21.1988 21.9686 20.9061 21.9713C20.8382 21.8089 20.8617 21.0411 20.859 20.7929Z" fill="#342F27"/>
<path d="M7.14757 19.6489C7.26207 19.6995 8.13622 19.6603 8.32003 19.6654C8.32218 19.9888 8.3095 20.4841 8.33134 20.7933L7.14478 20.7928L7.14757 19.6489Z" fill="#916826"/>
<path d="M12.8776 19.6658C13.1401 19.665 13.7674 19.6478 14.0077 19.671C14.006 19.8756 13.99 20.6385 14.0143 20.7925L12.8755 20.7929C12.8961 20.5342 12.8763 19.9594 12.8776 19.6658Z" fill="#7C5C28"/>
<path d="M20.8636 10.573C21.1712 10.6046 21.6385 10.5618 21.9937 10.5857V11.6485L21.9931 20.7972C21.6231 20.7895 21.2297 20.7918 20.8588 20.7929C20.8755 20.4561 20.8638 20.0283 20.8639 19.6847L20.8625 18.5949C20.7569 18.5179 19.8806 18.5524 19.6799 18.5548C19.6775 17.6865 19.6811 16.8183 19.6906 15.9501L19.6875 15.115C19.6704 14.8022 19.6884 14.322 19.6916 14.0003C19.7336 13.9986 19.8364 13.9973 19.8728 13.9918C20.0961 13.9913 20.6694 14.0047 20.8649 13.9828C20.8771 13.7311 20.865 13.3761 20.8651 13.1171C20.8653 12.6497 20.8694 12.1629 20.8565 11.6971C20.8408 11.5527 20.8541 10.8894 20.8635 10.7407L20.8636 10.573Z" fill="#342F27"/>
<path d="M19.8728 13.9918C20.0961 13.9913 20.6694 14.0047 20.8649 13.9828C20.8621 14.3626 20.862 14.7425 20.8646 15.1224L20.8634 16.2423C20.8634 17.0069 20.8804 17.836 20.8625 18.5949C20.7569 18.5178 19.8806 18.5524 19.6799 18.5548C19.6775 17.6865 19.6811 16.8182 19.6906 15.95L19.6875 15.1149C19.6704 14.8021 19.6884 14.3219 19.6916 14.0003C19.7336 13.9985 19.8364 13.9972 19.8728 13.9918Z" fill="#916826"/>
<path d="M19.8728 13.9918C20.0961 13.9913 20.6694 14.0047 20.8649 13.9828C20.8621 14.3626 20.862 14.7425 20.8646 15.1224L19.6874 15.1149C19.6703 14.8021 19.6884 14.3219 19.6916 14.0003C19.7336 13.9985 19.8363 13.9972 19.8728 13.9918Z" fill="#916826"/>
<path d="M19.6877 15.115L20.8649 15.1224L20.8637 16.2424C20.4805 16.2352 20.0917 16.2459 19.7049 16.2406C19.7047 16.1386 19.6986 16.0519 19.6909 15.9501L19.6877 15.115Z" fill="#7C5C28"/>
<path d="M20.8639 10.573C21.1715 10.6046 21.6388 10.5618 21.9939 10.5857V11.6485C21.7659 11.7306 21.152 11.6967 20.8885 11.6929C20.8656 11.3868 20.8888 11.0569 20.8638 10.7407L20.8639 10.573Z" fill="#342F27"/>
<path d="M12.8758 18.543C13.5609 18.5214 14.316 18.5382 15.0075 18.5383L18.57 18.5392C18.5682 18.8681 18.5805 19.3514 18.56 19.671L19.6834 19.6587C19.6866 19.2907 19.6855 18.9227 19.6801 18.5548C19.8808 18.5524 20.757 18.5179 20.8626 18.5949L20.8641 19.6848C20.864 20.0283 20.8757 20.4561 20.859 20.7929C20.3516 20.7968 19.8442 20.7956 19.3369 20.7895C19.0407 20.7947 18.7445 20.7946 18.4483 20.7894C17.7679 20.8126 16.9923 20.7942 16.3048 20.7931L14.0144 20.7924C13.9901 20.6385 14.0061 19.8756 14.0077 19.671C13.7675 19.6478 13.1402 19.665 12.8777 19.6658L12.874 19.651C12.8831 19.2935 12.8755 18.9031 12.8758 18.543Z" fill="#916826"/>
<path d="M19.6801 18.5548C19.8808 18.5524 20.7571 18.5179 20.8627 18.5949L20.8641 19.6847C20.864 20.0283 20.8757 20.4561 20.859 20.7929C20.3517 20.7968 19.8443 20.7956 19.3369 20.7894C19.0408 20.7947 18.7445 20.7946 18.4483 20.7894C18.321 20.7699 17.8911 20.774 17.7334 20.77C17.8852 20.6811 19.5193 20.8166 19.6485 20.7059C19.6612 20.5851 19.6779 19.755 19.6362 19.6988C19.4808 19.6709 18.7332 19.6967 18.5675 19.7204L18.56 19.671L19.6834 19.6587C19.6866 19.2907 19.6855 18.9227 19.6801 18.5548Z" fill="#916826"/>
<path d="M19.6884 19.6707C20.0442 19.6634 20.5153 19.657 20.8641 19.6847C20.864 20.0283 20.8757 20.456 20.859 20.7928C20.3516 20.7967 19.8443 20.7956 19.3369 20.7894C19.4478 20.7682 19.5802 20.7779 19.6946 20.7813C19.686 20.4112 19.6839 20.0409 19.6884 19.6707Z" fill="#7C5C28"/>
<path d="M14.0077 19.671C14.4752 19.6852 14.972 19.6762 15.4418 19.6766C15.6604 19.6767 16.0991 19.6879 16.3013 19.6693C16.3036 20.0399 16.311 20.4237 16.3048 20.7931L14.0143 20.7924C13.99 20.6385 14.006 19.8756 14.0077 19.671Z" fill="#916826"/>
<path d="M16.3013 19.6693L17.4414 19.6638C17.4382 19.849 17.4075 20.6404 17.4607 20.7518C17.543 20.7886 17.6419 20.7748 17.7333 20.77C17.891 20.774 18.3209 20.7699 18.4482 20.7894C17.7678 20.8126 16.9922 20.7942 16.3047 20.7931C16.3109 20.4237 16.3036 20.0399 16.3013 19.6693Z" fill="#7C5C28"/>
<path d="M7.14654 13.9916L10.5846 13.9957C10.5725 14.3696 10.569 14.7437 10.5742 15.1178C9.46135 15.1209 8.2526 15.1443 7.14916 15.1143C7.14312 14.7438 7.14706 14.363 7.14654 13.9916Z" fill="#AA762A"/>
<path d="M7.14942 15.1143C8.25285 15.1442 9.46161 15.1208 10.5745 15.1177L10.5742 16.2421C9.4451 16.244 8.27328 16.2599 7.14697 16.2419L7.14942 15.1143Z" fill="#916826"/>
<path d="M7.14746 18.5819C7.3918 18.5261 7.8011 18.5487 8.05976 18.5494L9.64847 18.5541C9.92548 18.5547 10.3102 18.5658 10.5749 18.5415L10.5775 19.6714C9.87504 19.644 9.03921 19.6745 8.32063 19.6653C8.13683 19.6602 7.26268 19.6995 7.14817 19.6488L7.14746 18.5819Z" fill="#AA762A"/>
<path d="M12.8764 13.9938C12.8725 14.3697 12.8725 14.7457 12.8765 15.1216C12.4847 15.1248 12.0929 15.1237 11.7012 15.1185C11.7022 14.9257 11.716 14.1515 11.6853 13.9986L11.6982 13.9952L12.8764 13.9938Z" fill="#916826"/>
<path d="M11.7067 18.5439C11.8612 18.553 12.7456 18.5666 12.876 18.543C12.8757 18.9031 12.8832 19.2934 12.8742 19.6509C12.7837 19.6804 11.87 19.6689 11.7041 19.6682L11.7067 18.5439Z" fill="#AA762A"/>
<path d="M10.5747 18.5415C10.6819 18.5245 11.5947 18.5222 11.7067 18.5439L11.7041 19.6682L10.5774 19.6714L10.5747 18.5415Z" fill="#916826"/>
<path d="M14.0038 15.1211C15.132 15.1366 16.3074 15.1165 17.4393 15.1139C17.433 15.491 17.432 15.8682 17.4362 16.2453L16.3123 16.2475C16.3073 16.6384 16.308 17.0293 16.3144 17.4202L15.1189 17.4196C13.9806 17.4266 12.8422 17.4266 11.7039 17.4197C11.706 17.0281 11.7056 16.6366 11.7026 16.2451L14.004 16.2435L14.0038 15.1211Z" fill="#916826"/>
<path d="M12.8968 9.44385L14.015 9.44651C13.9927 9.79042 14.0046 10.2237 14.0059 10.5748C14.366 10.5737 14.7753 10.5631 15.1315 10.5754L15.1328 11.6912C15.4788 11.7056 15.9606 11.7079 16.3067 11.6919L16.3223 11.6975C16.2863 11.8997 16.3111 12.5832 16.3084 12.818L16.3121 12.8367C16.3074 13.2227 16.3067 13.6088 16.31 13.9948L15.1333 13.9945C14.7568 13.9925 14.3803 13.993 14.0039 13.9962C13.6457 13.9848 13.2444 13.9988 12.8765 13.9938L11.6983 13.9953C11.7096 13.6161 11.7008 13.201 11.7 12.8193C11.7029 12.633 11.7225 11.8471 11.6843 11.6978L11.6986 11.6936C11.713 11.3416 11.6751 10.9926 11.7051 10.635C11.7415 10.58 11.7716 10.5907 11.8548 10.5719L12.8766 10.5724L12.8794 10.5532C12.8764 10.3656 12.8547 9.59519 12.8968 9.44385Z" fill="#C8C7C7"/>
<path d="M14.0059 10.5749C14.366 10.5738 14.7753 10.5632 15.1315 10.5755L15.1328 11.6913C15.4788 11.7056 15.9607 11.7079 16.3067 11.6919L16.3223 11.6975C16.2863 11.8997 16.3112 12.5832 16.3084 12.818L16.3122 12.8367C16.3074 13.2228 16.3067 13.6088 16.3101 13.9949L15.1333 13.9945C14.7569 13.9925 14.3804 13.9931 14.0039 13.9962L14.0054 12.8294L14.0071 11.6951L14.0059 10.5749Z" fill="#777676"/>
<path d="M15.1324 11.6912C15.4784 11.7055 15.9603 11.7078 16.3064 11.6918L16.3219 11.6974C16.286 11.8996 16.3108 12.5831 16.308 12.8179L16.3118 12.8366C16.307 13.2227 16.3063 13.6087 16.3097 13.9948L15.133 13.9944L15.1304 12.8244L15.1324 11.6912Z" fill="#7C5C28"/>
<path d="M15.1324 11.6912C15.4784 11.7055 15.9603 11.7078 16.3064 11.6918L16.3219 11.6974C16.286 11.8996 16.3108 12.5831 16.308 12.8179L15.1304 12.8244L15.1324 11.6912Z" fill="#553F1A"/>
<path d="M14.0061 10.5749C14.3662 10.5738 14.7755 10.5632 15.1317 10.5755L15.133 11.6913C14.7578 11.6984 14.3826 11.6996 14.0073 11.6951L14.0061 10.5749Z" fill="#8D8C8C"/>
<path d="M12.8758 12.8044L12.8813 12.8234C13.1964 12.8232 13.7056 12.8071 14.0051 12.8293L14.0036 13.9961C13.6454 13.9848 13.2441 13.9987 12.8762 13.9937L11.698 13.9952C11.7093 13.616 11.7005 13.201 11.6997 12.8192C12.0791 12.8213 12.5005 12.828 12.8758 12.8044Z" fill="#7C5C28"/>
<path d="M12.8814 12.8235C13.1965 12.8232 13.7057 12.8072 14.0052 12.8294L14.0036 13.9962C13.6455 13.9849 13.2442 13.9988 12.8763 13.9938C12.8735 13.6037 12.8752 13.2135 12.8814 12.8235Z" fill="#8D8C8C"/>
<path d="M11.8548 10.5719L12.8766 10.5724L12.8789 11.6943C12.8786 12.0634 12.8807 12.4356 12.8761 12.8045C12.5008 12.8281 12.0794 12.8214 11.7 12.8193C11.7029 12.633 11.7225 11.8471 11.6843 11.6978L11.6986 11.6936C11.713 11.3416 11.6751 10.9926 11.7051 10.635C11.7415 10.58 11.7716 10.5907 11.8548 10.5719Z" fill="#342F27"/>
<path d="M12.8789 11.6942C12.8786 12.0634 12.8807 12.4356 12.8761 12.8045C12.5008 12.8281 12.0794 12.8214 11.7 12.8192C11.7029 12.633 11.7225 11.847 11.6843 11.6978L11.6986 11.6936C12.092 11.6973 12.4855 11.6976 12.8789 11.6942Z" fill="#553F1A"/>
<path d="M12.8788 11.6942C13.2502 11.695 13.6369 11.7014 14.007 11.695L14.0053 12.8293C13.7058 12.8071 13.1966 12.8232 12.8815 12.8234L12.876 12.8045C12.8807 12.4356 12.8785 12.0634 12.8788 11.6942Z" fill="#A6A5A5"/>
<path d="M12.8755 7.14837L15.1311 7.14612C15.1298 7.31729 15.1141 8.17098 15.1462 8.27204C15.5209 8.27239 15.9434 8.28273 16.314 8.2716C16.3113 8.45591 16.2902 9.33177 16.3245 9.44414L16.3104 9.44954C16.3081 9.60311 16.2889 10.4564 16.3216 10.571L16.3077 10.5765C16.3107 10.9039 16.2889 11.3814 16.3066 11.6918C15.9605 11.7078 15.4787 11.7055 15.1326 11.6912L15.1314 10.5754C14.7752 10.5631 14.3658 10.5737 14.0057 10.5748C14.0045 10.2237 13.9925 9.79037 14.0149 9.44646L12.8966 9.4438C12.8545 9.59514 12.8763 10.3656 12.8793 10.5531L12.8765 10.5724L11.8546 10.5718L11.7012 10.5695L11.704 9.44243L11.6985 9.4301C11.71 9.06228 11.7021 8.65107 11.7032 8.2798L11.7177 8.27468C11.691 8.15139 11.7036 7.30753 11.7101 7.14671L12.8755 7.14837Z" fill="#916826"/>
<path d="M12.877 8.27557C13.4804 8.26604 14.5438 8.24461 15.1321 8.27816L15.1314 9.44926C15.52 9.44701 15.9235 9.43952 16.3107 9.4496C16.3085 9.60316 16.2892 10.4564 16.3219 10.571L16.308 10.5766C16.311 10.904 16.2893 11.3815 16.3069 11.6919C15.9608 11.7079 15.479 11.7056 15.133 11.6912L15.1317 10.5755C14.7755 10.5631 14.3662 10.5737 14.0061 10.5748C14.0048 10.2237 13.9929 9.79043 14.0152 9.44652L12.897 9.44385L12.8881 9.42947C12.8645 9.28899 12.8766 8.45085 12.877 8.27557Z" fill="#553F1A"/>
<path d="M15.1316 10.5754C15.5194 10.5729 15.9216 10.5653 16.3079 10.5765C16.3109 10.904 16.2892 11.3815 16.3068 11.6918C15.9607 11.7079 15.4789 11.7055 15.1328 11.6912L15.1316 10.5754Z" fill="#342F27"/>
<path d="M14.0149 9.44653L15.1324 9.44844L15.1314 10.5755C14.7752 10.5631 14.3659 10.5737 14.0058 10.5749C14.0045 10.2238 13.9926 9.79044 14.0149 9.44653Z" fill="#A6A5A5"/>
<path d="M11.7039 9.44245C11.9229 9.42526 12.7482 9.46096 12.8877 9.42944L12.8966 9.44382C12.8545 9.59516 12.8762 10.3656 12.8792 10.5531L12.8764 10.5724L11.8546 10.5719L11.7012 10.5695L11.7039 9.44245Z" fill="#7C5C28"/>
<path d="M11.7104 7.14673L12.8758 7.14839C12.8771 7.31348 12.8912 8.17685 12.8613 8.2708L11.7179 8.27471C11.6913 8.15141 11.7039 7.30756 11.7104 7.14673Z" fill="#AA762A"/>
<path d="M7.14331 11.6967C8.62369 11.6962 10.2095 11.6662 11.6844 11.6979C11.7226 11.8471 11.703 12.633 11.7001 12.8193C11.7009 13.2011 11.7097 13.6161 11.6984 13.9953L11.6855 13.9986C11.3629 13.9815 10.9165 13.9953 10.5846 13.9957L7.14662 13.9916L7.14669 12.8088C7.14838 12.4381 7.14725 12.0674 7.14331 11.6967Z" fill="#916826"/>
<path d="M7.14331 11.6967C8.62369 11.6962 10.2095 11.6662 11.6844 11.6979C11.7226 11.8471 11.703 12.633 11.7001 12.8193C10.6202 12.7911 9.48405 12.8429 8.3995 12.821C7.98785 12.8127 7.55706 12.8319 7.14669 12.8088C7.14838 12.4381 7.14725 12.0674 7.14331 11.6967Z" fill="#7C5C28"/>
<path d="M16.3219 11.6974L20.8564 11.697C20.8692 12.1629 20.8652 12.6496 20.865 13.117C20.8648 13.376 20.8769 13.731 20.8648 13.9828C20.6692 14.0047 20.096 13.9913 19.8727 13.9918C19.8362 13.9972 19.7335 13.9985 19.6914 14.0002C19.6208 13.9913 19.5187 13.9918 19.4463 13.9913C18.4018 13.9838 17.3539 14.0096 16.3097 13.9948C16.3064 13.6087 16.3071 13.2227 16.3118 12.8366L16.3081 12.8179C16.3108 12.5831 16.286 11.8996 16.3219 11.6974Z" fill="#7C5C28"/>
<path d="M16.312 12.8367C16.4408 12.8082 17.0836 12.8236 17.265 12.8208C18.0736 12.8086 18.907 12.8374 19.7143 12.8151C19.7075 13.0467 19.7067 13.7168 19.723 13.9525C19.7713 13.9798 19.7835 13.9726 19.842 13.9642L19.8729 13.9919C19.8365 13.9973 19.7337 13.9986 19.6917 14.0003C19.6211 13.9914 19.5189 13.9919 19.4465 13.9914C18.4021 13.9839 17.3541 14.0097 16.3099 13.9949C16.3066 13.6088 16.3073 13.2227 16.312 12.8367Z" fill="#916826"/>
<path d="M20.8651 9.4584L20.8639 10.573L20.8638 10.7407C20.8543 10.8894 20.841 11.5527 20.8568 11.6971L16.3223 11.6975L16.3068 11.6919C16.2891 11.3815 16.3109 10.904 16.3079 10.5766L16.3218 10.571C16.2891 10.4565 16.3083 9.60318 16.3106 9.44962L16.3247 9.44421C16.6841 9.44421 17.0947 9.45407 17.4499 9.44179C18.5107 9.45147 19.8141 9.40088 20.8651 9.4584Z" fill="#916826"/>
<path d="M17.4431 10.573L20.8639 10.573L20.8638 10.7407C20.8543 10.8894 20.841 11.5527 20.8568 11.6971L16.3223 11.6975L16.3068 11.6919C16.2891 11.3815 16.3109 10.904 16.3079 10.5766L16.3218 10.571L17.4431 10.573Z" fill="#342F27"/>
<path d="M16.3246 9.44419C16.6839 9.44419 17.0945 9.45405 17.4497 9.44177C17.4227 9.6799 17.4246 10.3231 17.4429 10.573L16.3216 10.571C16.2889 10.4564 16.3082 9.60316 16.3104 9.4496L16.3246 9.44419Z" fill="#7C5C28"/>
<path d="M7.15014 9.43485C7.47098 9.46228 8.02257 9.44646 8.36413 9.44644L10.5856 9.44563C10.7824 9.44835 11.533 9.46695 11.6988 9.43018L11.7043 9.4425L11.7016 10.5695L11.855 10.5719C11.7718 10.5907 11.7417 10.58 11.7054 10.635C11.6753 10.9927 11.7132 11.3417 11.6988 11.6936L11.6845 11.6978C10.2096 11.6662 8.6238 11.6962 7.14343 11.6967C7.13975 11.3627 7.12535 10.8995 7.14911 10.5735C7.14098 10.1989 7.14796 9.8106 7.15014 9.43485Z" fill="#342F27"/>
<path d="M7.14964 9.43485C7.47048 9.46228 8.02208 9.44646 8.36364 9.44644L10.5851 9.44563C10.7819 9.44835 11.5325 9.46695 11.6983 9.43018L11.7038 9.4425L11.7011 10.5695C11.333 10.5758 10.9518 10.5716 10.5825 10.5725L7.14861 10.5735C7.14048 10.1989 7.14746 9.8106 7.14964 9.43485Z" fill="#7C5C28"/>
<path d="M11.6986 9.43018L11.7041 9.4425L11.7014 10.5695C11.3333 10.5758 10.9521 10.5716 10.5828 10.5725C10.5645 10.2729 10.5724 9.74895 10.5854 9.44563C10.7822 9.44835 11.5328 9.46695 11.6986 9.43018Z" fill="#916826"/>
<path d="M17.4695 7.14614L19.6918 7.14563L20.8636 7.1458C20.8618 7.51844 20.862 7.89111 20.8641 8.26376C20.864 8.43395 20.8529 8.79679 20.8671 8.95158C20.8663 9.11896 20.8632 9.29153 20.8652 9.4584C19.8142 9.40088 18.5108 9.45147 17.45 9.44179C17.0948 9.45407 16.6842 9.44421 16.3248 9.44421C16.2905 9.33185 16.3116 8.45598 16.3143 8.27168C16.5839 8.24984 17.1512 8.26791 17.4432 8.26799C17.4409 7.99646 17.4231 7.38415 17.4695 7.14614Z" fill="#AA762A"/>
<path d="M19.6918 7.14563L20.8636 7.1458C20.8618 7.51844 20.862 7.89111 20.8641 8.26376C20.4903 8.27747 20.0634 8.27002 19.6864 8.27082C19.6858 7.89573 19.6876 7.52067 19.6918 7.14563Z" fill="#AA762A"/>
<path d="M7.14893 8.25903C7.48461 8.30816 7.99729 8.24062 8.32188 8.27278C9.07422 8.27742 9.82659 8.27776 10.579 8.27383C10.9073 8.27331 11.3843 8.25913 11.7033 8.27984C11.7022 8.65112 11.7101 9.06232 11.6985 9.43015C11.5327 9.46693 10.7821 9.44832 10.5853 9.4456L8.36383 9.44641C8.02227 9.44643 7.47067 9.46226 7.14983 9.43482L7.14893 8.25903Z" fill="#AA762A"/>
<path d="M8.32995 7.14811C9.4503 7.14735 10.5916 7.13529 11.7102 7.14679C11.7036 7.30762 11.6911 8.15147 11.7177 8.27477L11.7033 8.27988C11.3843 8.25917 10.9073 8.27335 10.579 8.27386C9.82659 8.2778 9.07422 8.27746 8.32187 8.27281C8.31999 7.89789 8.32268 7.52295 8.32995 7.14811Z" fill="#916826"/>
<path d="M15.1315 7.14617L17.4696 7.14612C17.4232 7.38412 17.4409 7.99643 17.4433 8.26796C17.1513 8.26789 16.584 8.24982 16.3144 8.27165C15.9438 8.28278 15.5212 8.27244 15.1465 8.27209C15.1144 8.17103 15.1301 7.31734 15.1315 7.14617Z" fill="#AA762A"/>
<path d="M7.14617 7.14981C7.53859 7.14465 7.93706 7.14812 8.32997 7.14805C8.3227 7.52289 8.32001 7.89783 8.32189 8.27275C7.9973 8.2406 7.48462 8.30813 7.14894 8.25901C7.14605 7.88927 7.14512 7.51954 7.14617 7.14981Z" fill="#AA762A"/>
<path d="M20.8709 6.01609C21.2163 6.01741 21.6657 6.03044 22 6C21.9919 6.3823 21.99 6.7647 21.994 7.14705C21.9936 8.26821 21.9703 9.47165 21.9937 10.5857C21.6386 10.5618 21.1713 10.6046 20.8637 10.573L20.8649 9.45835C20.8629 9.29148 20.866 9.11892 20.8669 8.95153C20.8526 8.79674 20.8638 8.43391 20.8638 8.26371C20.8617 7.89107 20.8615 7.5184 20.8633 7.14576C20.8862 6.82302 20.8549 6.37267 20.8709 6.01609Z" fill="#342F27"/>
<path d="M20.8709 6.01609C21.2163 6.01741 21.6657 6.03044 22 6C21.9919 6.3823 21.99 6.7647 21.994 7.14705C21.6247 7.14715 21.2554 7.14471 20.8861 7.13969C20.8869 7.34258 20.9091 8.89155 20.8669 8.95153C20.8526 8.79674 20.8638 8.43391 20.8638 8.26371C20.8617 7.89107 20.8615 7.5184 20.8633 7.14576C20.8862 6.82302 20.8549 6.37267 20.8709 6.01609Z" fill="#342F27"/>
</g>
<rect x="0.25" y="0.25" width="27.5" height="27.5" rx="5.75" stroke="url(#paint1_linear_10296_3739)" stroke-width="0.5"/>
<defs>
<filter id="filter0_f_10296_3739" x="-1.1" y="-1.1" width="30.2" height="30.2" filterUnits="userSpaceOnUse" color-interpolation-filters="sRGB">
<feFlood flood-opacity="0" result="BackgroundImageFix"/>
<feBlend mode="normal" in="SourceGraphic" in2="BackgroundImageFix" result="shape"/>
<feGaussianBlur stdDeviation="4.55" result="effect1_foregroundBlur_10296_3739"/>
</filter>
<linearGradient id="paint0_linear_10296_3739" x1="14" y1="0" x2="14" y2="28" gradientUnits="userSpaceOnUse">
<stop stop-color="#282C3E"/>
<stop offset="1" stop-color="#181822"/>
</linearGradient>
<linearGradient id="paint1_linear_10296_3739" x1="14" y1="0" x2="14" y2="30.9167" gradientUnits="userSpaceOnUse">
<stop stop-color="#AA762A"/>
<stop offset="1" stop-color="#AA762A" stop-opacity="0"/>
</linearGradient>
<clipPath id="clip0_10296_3739">
<rect width="28" height="28" rx="6" fill="white"/>
</clipPath>
</defs>
</svg>
