<svg width="28" height="28" viewBox="0 0 28 28" fill="none" xmlns="http://www.w3.org/2000/svg">
<g clip-path="url(#clip0_10296_3765)">
<rect width="28" height="28" rx="6" fill="url(#paint0_linear_10296_3765)"/>
<g filter="url(#filter0_f_10296_3765)">
<circle cx="14" cy="14" r="6" fill="#04030D"/>
</g>
<path d="M6 6H7.46863H9.62477H11.0922H12.5309H13.9991H15.4672H16.9062H18.375H20.5316H22V7.46956V9.65745V11.0931V15.4711V16.9061V18.3754V22H18.3751H16.908H15.4684H13.9997H12.5347H11.0935H9.62566H6V19.8128V18.3774V15.4691V11.094V9.65573V7.46858V6Z" fill="#1E2D37"/>
<path d="M12.5311 6H13.9993H15.4674H16.9064H18.3752H20.5318H22.0002V7.46956V9.65745V11.0931V15.4711C21.2873 15.458 20.5369 15.4693 19.8216 15.4703C19.8391 15.2303 19.826 14.9006 19.8298 14.6546C19.832 14.5142 19.8377 14.1445 19.8199 14.0201L19.7927 14.0001C19.3467 13.9905 18.8159 13.992 18.3713 14.0016C18.1343 13.9587 16.9977 14.0515 16.9131 13.9724C16.8666 14.0187 15.6184 14.0059 15.4747 13.9963L15.4709 13.9824C15.4558 13.5349 15.4685 13.0148 15.4683 12.5616C15.0193 12.5467 14.4604 12.5632 14.0032 12.5649C13.5413 12.5598 12.9826 12.5802 12.5331 12.5616C12.2916 12.5527 11.2725 12.5332 11.0942 12.5726L11.0903 12.5641C11.1119 12.1556 11.0978 11.5146 11.0938 11.0937L11.0955 9.65533C11.2849 9.65597 12.4281 9.67588 12.5227 9.64097L12.5368 9.59831C12.5162 9.17778 12.5326 8.65081 12.5306 8.21856L12.5285 8.19122C12.5479 7.49085 12.5314 6.70662 12.5311 6Z" fill="#DDE8E8"/>
<path d="M12.5311 6H13.9993H15.4674L15.4679 7.46574C15.4679 7.65881 15.4573 8.01309 15.4698 8.18977L15.4686 9.65605C15.9429 9.65608 16.4337 9.66294 16.9065 9.6558L16.906 11.0935L18.3746 11.0936C18.3742 11.5667 18.3619 12.0956 18.3767 12.5641C18.3623 13.0311 18.3933 13.5399 18.3713 14.0016C18.1343 13.9587 16.9977 14.0515 16.9131 13.9724C16.8666 14.0187 15.6184 14.0059 15.4747 13.9963L15.4709 13.9824C15.4558 13.5349 15.4685 13.0148 15.4683 12.5616C15.0193 12.5467 14.4604 12.5632 14.0032 12.5649C13.5413 12.5598 12.9826 12.5802 12.5331 12.5616C12.2916 12.5527 11.2725 12.5332 11.0942 12.5726L11.0903 12.5641C11.1119 12.1556 11.0978 11.5146 11.0938 11.0937L11.0955 9.65533C11.2849 9.65597 12.4281 9.67588 12.5227 9.64097L12.5368 9.59831C12.5162 9.17778 12.5326 8.65081 12.5306 8.21856L12.5285 8.19122C12.5479 7.49085 12.5314 6.70662 12.5311 6Z" fill="#294554"/>
<path d="M12.5368 9.59839L12.5556 9.64958C12.6318 9.6647 12.9311 9.6585 13.0222 9.65836L13.9994 9.65659L14.0032 12.5649C13.5413 12.5598 12.9826 12.5802 12.5331 12.5617C12.2916 12.5527 11.2725 12.5333 11.0942 12.5727L11.0903 12.5642C11.1119 12.1557 11.0978 11.5146 11.0938 11.0938L11.0955 9.6554C11.2849 9.65604 12.4281 9.67595 12.5227 9.64104L12.5368 9.59839Z" fill="#3F6377"/>
<path d="M12.5309 6H13.9991C13.9997 6.72493 13.9927 7.46369 14.0011 8.18741C13.8017 8.18686 12.6568 8.16439 12.546 8.20169L12.5304 8.21856L12.5283 8.19122C12.5477 7.49085 12.5312 6.70662 12.5309 6Z" fill="#3F6377"/>
<path d="M16.9116 12.5884C16.9135 12.5858 16.9149 12.5829 16.9172 12.5806C16.9629 12.5344 18.2098 12.5656 18.3766 12.564C18.3622 13.0311 18.3932 13.5398 18.3712 14.0015C18.1342 13.9586 16.9976 14.0514 16.913 13.9723C16.9003 13.8134 16.9071 13.5901 16.9071 13.4244C16.907 13.1487 16.9039 12.863 16.9116 12.5884Z" fill="#1E2D37"/>
<path d="M15.4682 12.5616C15.7415 12.5608 16.559 12.5538 16.8836 12.5651C16.8847 12.5651 16.9093 12.5849 16.9116 12.5885C16.9039 12.8631 16.907 13.1487 16.9071 13.4244C16.9071 13.5902 16.9002 13.8135 16.913 13.9724C16.8665 14.0187 15.6184 14.0059 15.4746 13.9963L15.4708 13.9824C15.4557 13.5349 15.4684 13.0148 15.4682 12.5616Z" fill="#FEA05F"/>
<path d="M20.5345 9.65723L22 9.65738V11.0931V15.4711C21.2871 15.458 20.5367 15.4692 19.8214 15.4702C19.8389 15.2302 19.8258 14.9006 19.8296 14.6545C19.8318 14.5142 19.8375 14.1444 19.8197 14.02L19.7925 14C19.3465 13.9905 18.8157 13.9919 18.3711 14.0015C18.3931 13.5398 18.3621 13.0311 18.3765 12.564L18.3852 12.5636L19.8172 12.5624C19.7975 12.3412 19.8125 11.835 19.8127 11.5915L19.8143 9.65649L20.5345 9.65723Z" fill="#294554"/>
<path d="M20.5345 9.65723L22.0001 9.65738V11.0931L19.8288 11.0932L19.8297 12.0361C19.8299 12.1386 19.8354 12.4739 19.8173 12.5624C19.7976 12.3412 19.8125 11.835 19.8128 11.5915L19.8143 9.65649L20.5345 9.65723Z" fill="#3F6377"/>
<path d="M18.3765 12.5641L18.3852 12.5637C18.4873 12.5894 19.6389 12.5741 19.8269 12.5746C19.7988 12.7725 19.8358 13.9362 19.7925 14.0001C19.3465 13.9905 18.8157 13.992 18.3711 14.0016C18.3931 13.5399 18.3621 13.0312 18.3765 12.5641Z" fill="#1E2D37"/>
<path d="M18.375 6H20.5317H22.0001V7.46956V9.65745L20.5345 9.6573L19.8143 9.65656C19.3398 9.65569 18.8495 9.64919 18.3763 9.66009C18.3705 9.17263 18.3756 8.67517 18.3747 8.1865C18.3711 7.95083 18.3745 7.70608 18.3746 7.46965L18.375 6Z" fill="#FE6B00"/>
<path d="M20.5317 6H22.0001V7.46956V9.65745L20.5346 9.6573C20.5233 9.4237 20.5314 9.12655 20.5315 8.89005L20.5324 7.46752C20.5237 6.98697 20.5316 6.48248 20.5317 6Z" fill="#FEA05F"/>
<path d="M20.5317 6H22.0001V7.46956C21.5324 7.45379 21.0074 7.47264 20.5324 7.46752C20.5237 6.98697 20.5316 6.48248 20.5317 6Z" fill="#FBC093"/>
<path d="M18.375 6H20.5316C20.5315 6.48248 20.5236 6.98697 20.5323 7.46752L18.3745 7.46965L18.375 6Z" fill="#C94603"/>
<path d="M15.4671 6H16.9061H18.3748L18.3744 7.46965C18.3743 7.70608 18.3709 7.95083 18.3745 8.1865C17.4425 8.18561 16.5007 8.19553 15.5696 8.18545L15.4694 8.18977C15.457 8.01309 15.4676 7.65881 15.4675 7.46574L15.4671 6Z" fill="#294554"/>
<path d="M15.4671 6H16.9061L16.9067 8.16956C16.7157 8.1702 15.6822 8.16091 15.5696 8.18545L15.4694 8.18977C15.457 8.01309 15.4676 7.65881 15.4675 7.46574L15.4671 6Z" fill="#1E2D37"/>
<path d="M6 6H7.46863H9.62477H11.0922H12.5309C12.5312 6.70662 12.5477 7.49085 12.5283 8.19122L12.5304 8.21856C12.5323 8.65081 12.516 9.17778 12.5366 9.59831L12.5225 9.64097C12.4279 9.67588 11.2847 9.65597 11.0953 9.65533L11.0936 11.0937C11.0976 11.5146 11.1117 12.1556 11.0901 12.5641C10.6101 12.5527 10.1123 12.5687 9.63017 12.5649L9.62963 12.5763C9.63152 12.7065 9.63453 13.9606 9.62095 14.0031L9.62642 14.0156L9.62552 15.4686L8.18736 15.4684L6 15.4691V11.094V9.65573V7.46858V6Z" fill="#DDE8E8"/>
<path d="M7.46459 9.65717C7.56082 9.65631 8.11261 9.64606 8.17461 9.66714L8.18656 9.66569C8.18695 10.6207 8.17283 11.6104 8.18791 12.5624C8.62252 12.5622 9.20277 12.5447 9.63017 12.5649L9.62963 12.5763C9.63152 12.7065 9.63453 13.9606 9.62095 14.0031L9.62642 14.0156L9.62552 15.4686L8.18736 15.4684L6 15.4691V11.094V9.65574L7.46459 9.65717Z" fill="#294554"/>
<path d="M7.46459 9.65717C7.56082 9.65631 8.11261 9.64606 8.17461 9.66714C8.16433 10.1407 8.1773 10.6166 8.17128 11.0895C7.47925 11.1102 6.69794 11.0944 6 11.094V9.65574L7.46459 9.65717Z" fill="#1E2D37"/>
<path d="M8.19018 14.0006C8.62284 13.9984 9.1994 13.9805 9.62087 14.0031L9.62634 14.0156L9.62543 15.4686L8.18728 15.4684C8.18626 15.0292 8.16678 14.4287 8.19018 14.0006Z" fill="#DDE8E8"/>
<path d="M8.18683 12.5743C8.65844 12.5834 9.15672 12.5756 9.62981 12.5763C9.63171 12.7065 9.63472 13.9606 9.62114 14.0032C9.19967 13.9805 8.62311 13.9985 8.19046 14.0007C8.16727 13.6044 8.18714 12.9878 8.18683 12.5743Z" fill="#1E2D37"/>
<path d="M6 6H7.46863H9.62477C9.62559 6.48453 9.63259 6.9825 9.62639 7.46589C9.6265 7.69672 9.63291 7.96056 9.62489 8.18869C9.62245 8.67855 9.62247 9.16844 9.62497 9.65831C9.39455 9.65688 8.3437 9.62352 8.18656 9.66569L8.17461 9.66714C8.11261 9.64606 7.56082 9.65631 7.46459 9.65717L6 9.65573V7.46858V6Z" fill="#FE6B00"/>
<path d="M6 6H7.46863L7.46933 7.4669C7.46873 8.16348 7.48782 8.96988 7.46459 9.65717L6 9.65573V7.46858V6Z" fill="#FEA05F"/>
<path d="M6 6H7.46863L7.46933 7.4669L6 7.46858V6Z" fill="#FBC093"/>
<path d="M7.46875 6H9.62488C9.62571 6.48453 9.63271 6.9825 9.62651 7.46589C8.95499 7.48778 8.14907 7.47164 7.46945 7.4669L7.46875 6Z" fill="#C94603"/>
<path d="M9.625 6H11.0924H12.5311C12.5314 6.70662 12.548 7.49085 12.5285 8.19122L12.4467 8.18458C11.5126 8.19966 10.5619 8.18117 9.62512 8.18869C9.63314 7.96056 9.62673 7.69672 9.62663 7.46589C9.63283 6.9825 9.62583 6.48453 9.625 6Z" fill="#294554"/>
<path d="M11.0923 6H12.531C12.5313 6.70662 12.5478 7.49085 12.5284 8.19122L12.4465 8.18458C12.3204 8.1472 11.2943 8.17084 11.093 8.17066C11.1141 7.49296 11.0927 6.6877 11.0923 6Z" fill="#1E2D37"/>
<path d="M9.62745 11.0938L11.0935 11.0938C11.0974 11.5146 11.1115 12.1557 11.09 12.5642C10.6099 12.5528 10.1122 12.5687 9.63003 12.565C9.60639 12.1519 9.62681 11.5225 9.62745 11.0938Z" fill="#294554"/>
<path d="M19.7924 14.0001L19.8196 14.0201C19.8373 14.1445 19.8317 14.5143 19.8295 14.6546C19.8256 14.9007 19.8388 15.2303 19.8212 15.4704C20.5366 15.4694 21.287 15.4581 21.9998 15.4712V16.9062V18.3754V22H18.3749H16.9078H15.4683L15.4665 20.494C15.4664 20.3762 15.458 19.8942 15.4796 19.8097L15.4716 19.803C15.4535 19.4261 15.4603 18.7619 15.4717 18.3822L15.4866 18.3754L16.9062 18.3727L16.9053 16.9071C17.3884 16.9001 17.886 16.9062 18.3704 16.9062C18.3888 16.4524 18.3736 15.9296 18.3766 15.467C18.3601 15.0032 18.3736 14.4738 18.3709 14.0016C18.8155 13.992 19.3463 13.9906 19.7924 14.0001Z" fill="#3F6377"/>
<path d="M19.7923 14.0001L19.8195 14.0201C19.8372 14.1445 19.8316 14.5143 19.8294 14.6546C19.8255 14.9007 19.8387 15.2303 19.8212 15.4704C20.5365 15.4694 21.2869 15.4581 21.9998 15.4712V16.9062V18.3754L19.8128 18.3759C19.3482 18.365 18.8505 18.3744 18.3834 18.3749C18.3663 18.2843 18.375 18.0292 18.3736 17.9236C18.3692 17.589 18.3861 17.2395 18.3703 16.9062C18.3887 16.4524 18.3736 15.9296 18.3765 15.467C18.36 15.0032 18.3736 14.4738 18.3709 14.0016C18.8154 13.992 19.3463 13.9906 19.7923 14.0001Z" fill="#3F6377"/>
<path d="M19.8145 16.9038L22 16.9061V18.3754L19.813 18.3758C19.8382 17.9668 19.8093 17.3411 19.8145 16.9038Z" fill="#1E2D37"/>
<path d="M19.7923 14.0001L19.8195 14.0201C19.8084 14.1188 19.8117 14.2145 19.8108 14.3135C19.8071 14.698 19.8173 15.084 19.8114 15.4683C19.3359 15.4686 18.8512 15.4737 18.3765 15.467C18.36 15.0032 18.3736 14.4738 18.3709 14.0016C18.8154 13.992 19.3463 13.9906 19.7923 14.0001Z" fill="#DDE8E8"/>
<path d="M18.3868 16.907C18.8475 16.8957 19.3502 16.9055 19.8147 16.9038C19.8095 17.3411 19.8383 17.9668 19.8132 18.3758C19.3486 18.365 18.8509 18.3743 18.3838 18.3748C18.3973 18.2765 18.3919 17.9826 18.3919 17.8724C18.3928 17.5506 18.3911 17.2288 18.3868 16.907Z" fill="#294554"/>
<path d="M16.9053 16.907C17.3884 16.9001 17.886 16.9062 18.3704 16.9061C18.3862 17.2395 18.3693 17.589 18.3736 17.9236C18.375 18.0291 18.3664 18.2842 18.3835 18.3748C18.8505 18.3743 19.3483 18.365 19.8129 18.3758L19.813 19.8137L17.9741 19.8118C17.7062 19.8118 17.2995 19.7999 17.0439 19.8149C16.5649 19.8015 16.0031 19.81 15.5229 19.8146L15.4796 19.8096L15.4716 19.803C15.4535 19.426 15.4603 18.7618 15.4717 18.3821L15.4866 18.3753L16.9062 18.3727L16.9053 16.907Z" fill="#DDE8E8"/>
<path d="M15.5229 19.8146C16.0031 19.8099 16.5649 19.8015 17.0439 19.8148C17.4146 19.8436 17.8099 19.814 18.1827 19.824C18.2439 19.8257 18.3141 19.8247 18.375 19.8214L18.3749 21.9999H16.9078H15.4683L15.4665 20.4939C15.4664 20.3761 15.458 19.894 15.4796 19.8096L15.5229 19.8146Z" fill="#294554"/>
<path d="M15.4796 19.8096L15.5229 19.8146C15.6667 19.835 15.8983 19.8299 16.0482 19.8297C16.3339 19.8274 16.6196 19.8273 16.9052 19.8296C16.9078 20.5426 16.8934 21.2918 16.9078 21.9999H15.4683L15.4665 20.4939C15.4664 20.3761 15.458 19.894 15.4796 19.8096Z" fill="#1E2D37"/>
<path d="M6 15.4691L8.18736 15.4684L9.62552 15.4686L9.62533 16.3936C9.62552 16.5369 9.61981 16.7708 9.63184 16.906C10.0924 16.9061 10.6409 16.9214 11.0936 16.9057C11.0936 17.3917 11.0995 17.8896 11.0931 18.3745C11.4942 18.3743 12.1227 18.3948 12.5047 18.3706C12.5106 18.378 12.5177 18.3871 12.5261 18.3976C12.5373 18.8159 12.5312 19.4147 12.5304 19.8147C12.5609 20.4887 12.5307 21.3091 12.5347 22H11.0935H9.62566H6V19.8128V18.3774V15.4691Z" fill="#DDE8E8"/>
<path d="M6 15.4691L8.18736 15.4684L9.62552 15.4686L9.62533 16.3936C9.62552 16.5369 9.61981 16.7708 9.63184 16.906L9.62577 16.9376C9.62264 17.4162 9.62202 17.8949 9.62391 18.3736C9.14984 18.3739 8.6653 18.3689 8.19214 18.3754C8.16737 18.8017 8.20319 19.2824 8.18412 19.7161L8.18362 19.744L8.16959 19.8031C8.11131 19.8196 7.63031 19.8134 7.54404 19.8134L6 19.8128V18.3774V15.4691Z" fill="#3F6377"/>
<path d="M6 18.3774C6.71416 18.3719 7.47722 18.3919 8.18303 18.3723C8.16075 18.6346 8.1777 18.9525 8.17311 19.2194C8.17162 19.306 8.17117 19.6442 8.18412 19.7162L8.18362 19.744L8.16959 19.8031C8.11131 19.8197 7.63031 19.8135 7.54404 19.8134L6 19.8128V18.3774Z" fill="#294554"/>
<path d="M8.18883 16.9032C8.63186 16.9092 9.07531 16.9021 9.51836 16.9033C9.57887 16.9035 9.59189 16.9022 9.62578 16.9376C9.62266 17.4162 9.62203 17.8949 9.62392 18.3736C9.14986 18.3739 8.66531 18.3689 8.19216 18.3754C8.17252 17.9207 8.18756 17.3615 8.18883 16.9032Z" fill="#294554"/>
<path d="M8.18362 19.7439L8.19191 19.7969C8.23853 19.8298 9.45827 19.8131 9.62775 19.8137C9.61336 20.528 9.6247 21.2825 9.62566 21.9999H6V19.8127L7.54404 19.8133C7.63031 19.8134 8.11131 19.8196 8.16959 19.803L8.18362 19.7439Z" fill="#3F6377"/>
<path d="M9.62784 19.8139C10.5638 19.8132 11.528 19.8004 12.4617 19.8152L12.5305 19.8148C12.561 20.4888 12.5308 21.3091 12.5348 22.0001H11.0935H9.62575C9.6248 21.2827 9.61345 20.5281 9.62784 19.8139Z" fill="#294554"/>
<path d="M12.4616 19.8151L12.5305 19.8147C12.5609 20.4887 12.5307 21.309 12.5348 21.9999H11.0935C11.09 21.3181 11.0764 20.5043 11.0975 19.8301C11.4529 19.8224 11.8085 19.8335 12.1639 19.8299C12.2634 19.8288 12.3632 19.8318 12.4616 19.8151Z" fill="#1E2D37"/>
<path d="M12.5422 18.3795C12.9857 18.3597 13.5386 18.3745 13.9904 18.374L14.9962 18.3729C15.0798 18.3727 15.4114 18.3685 15.4718 18.3821C15.4603 18.7618 15.4535 19.426 15.4716 19.8029L15.4796 19.8096C15.4581 19.8941 15.4664 20.3761 15.4665 20.4939L15.4683 22H13.9995H12.5346C12.5305 21.309 12.5607 20.4887 12.5303 19.8147L12.5423 19.8065C12.5473 19.3309 12.5473 18.8552 12.5422 18.3795Z" fill="#1E2D37"/>
<path d="M15.4718 19.803L15.4798 19.8096C15.4582 19.8941 15.4666 20.3761 15.4667 20.494L15.4684 22H13.9997L13.999 19.8102C14.4229 19.8164 15.062 19.827 15.4718 19.803Z" fill="#294554"/>
<path d="M12.5425 18.3795C12.986 18.3597 13.5389 18.3745 13.9907 18.374C14.0231 18.761 13.9975 19.3955 14.0017 19.8031C13.5717 19.8069 12.9576 19.8299 12.5426 19.8065C12.5476 19.3309 12.5476 18.8552 12.5425 18.3795Z" fill="#1E2D37"/>
<path d="M12.533 16.906C13.4977 16.907 14.5059 16.8907 15.4653 16.9081C15.4685 17.0684 15.4537 18.3243 15.4869 18.3753L15.472 18.3821C15.4117 18.3685 15.0801 18.3727 14.9965 18.3729L13.9907 18.3741C13.5389 18.3745 12.986 18.3597 12.5425 18.3795C12.5476 18.8552 12.5476 19.3309 12.5426 19.8066L12.5306 19.8147C12.5314 19.4147 12.5374 18.8159 12.5262 18.3976C12.5179 18.3871 12.5108 18.378 12.5049 18.3706C12.5058 18.3698 12.5068 18.3691 12.5076 18.3681C12.5604 18.3011 12.5322 17.1029 12.533 16.906Z" fill="#294554"/>
<path d="M14.0028 12.5649C14.46 12.5632 15.0189 12.5467 15.4679 12.5616C15.4681 13.0149 15.4554 13.5349 15.4705 13.9824C15.4098 14.0188 14.193 13.9922 14.0013 14.0006L12.5343 13.9972L12.5322 13.9911L12.5327 12.5616C12.9821 12.5802 13.5409 12.5598 14.0028 12.5649Z" fill="#1E2D37"/>
<path d="M11.0938 15.4686C11.3958 15.4635 11.698 15.4625 12.0001 15.4656C12.156 15.4663 12.3808 15.4613 12.5314 15.4735L12.533 16.906C12.5322 17.103 12.5603 18.3012 12.5075 18.3682C12.5068 18.3691 12.5058 18.3698 12.5049 18.3706C12.1228 18.3948 11.4943 18.3743 11.0933 18.3745C11.0996 17.8896 11.0937 17.3917 11.0937 16.9057L11.0938 15.4686Z" fill="#1E2D37"/>
<path d="M15.4692 15.4652C15.915 15.4813 16.4505 15.4615 16.9058 15.465C16.9058 15.8977 16.8872 16.4899 16.9052 16.9071L16.9061 18.3728L15.4866 18.3754C15.4533 18.3244 15.4682 17.0685 15.4649 16.9082C15.4838 16.4754 15.4675 15.9063 15.4692 15.4652Z" fill="#1E2D37"/>
<path d="M15.4706 13.9824L15.4744 13.9964C15.4607 14.1555 15.4669 14.3875 15.4672 14.5513L15.4696 15.4659C15.0396 15.4671 14.4123 15.4897 13.9995 15.4688C14.0114 14.994 13.999 14.481 14.0014 14.0006C14.1931 13.9922 15.4099 14.0188 15.4706 13.9824Z" fill="#294554"/>
<path d="M12.5343 13.9972L14.0013 14.0006C13.9989 14.481 14.0113 14.994 13.9994 15.4687L12.5305 15.4678C12.5281 14.9776 12.5293 14.4874 12.5343 13.9972Z" fill="#3F6377"/>
<path d="M9.62631 14.0156C9.66218 14.1409 9.64476 15.2741 9.63654 15.4714L11.0935 15.4687L11.0935 16.9058C10.6407 16.9214 10.0923 16.9062 9.63173 16.9061C9.6197 16.7708 9.6254 16.537 9.62521 16.3937L9.6254 15.4686L9.62631 14.0156Z" fill="#294554"/>
<path d="M18.3766 15.467C18.3737 15.9295 18.3889 16.4524 18.3704 16.9062C17.8861 16.9062 17.3885 16.9001 16.9053 16.907C16.8873 16.4898 16.9059 15.8977 16.9059 15.465C17.2809 15.4892 17.9883 15.4704 18.3766 15.467Z" fill="#294554"/>
<path d="M9.63031 12.5649C10.1125 12.5687 10.6102 12.5527 11.0903 12.5641L11.0942 12.5726C11.0943 12.9499 11.1148 13.6102 11.088 13.9719C11.0812 13.9786 11.0727 13.9868 11.0627 13.9966C10.7115 14.0028 10.3463 13.9958 9.9965 13.9948C9.89977 13.9946 9.68466 13.9839 9.62109 14.0031C9.63467 13.9606 9.63166 12.7065 9.62977 12.5763L9.63031 12.5649Z" fill="#1E2D37"/>
<path d="M11.0941 12.5726C11.2723 12.5332 12.2914 12.5527 12.533 12.5616L12.5325 13.9911C12.4598 14.0051 12.2076 14.0009 12.1213 14.001L11.3418 14.0017C11.2742 14.0017 11.1306 14.0146 11.0879 13.9718C11.1147 13.6102 11.0942 12.9499 11.0941 12.5726Z" fill="#FEA05F"/>
</g>
<rect x="0.25" y="0.25" width="27.5" height="27.5" rx="5.75" stroke="url(#paint1_linear_10296_3765)" stroke-width="0.5"/>
<defs>
<filter id="filter0_f_10296_3765" x="-1.1" y="-1.1" width="30.2" height="30.2" filterUnits="userSpaceOnUse" color-interpolation-filters="sRGB">
<feFlood flood-opacity="0" result="BackgroundImageFix"/>
<feBlend mode="normal" in="SourceGraphic" in2="BackgroundImageFix" result="shape"/>
<feGaussianBlur stdDeviation="4.55" result="effect1_foregroundBlur_10296_3765"/>
</filter>
<linearGradient id="paint0_linear_10296_3765" x1="14" y1="0" x2="14" y2="28" gradientUnits="userSpaceOnUse">
<stop stop-color="#282C3E"/>
<stop offset="1" stop-color="#181822"/>
</linearGradient>
<linearGradient id="paint1_linear_10296_3765" x1="14" y1="0" x2="14" y2="30.9167" gradientUnits="userSpaceOnUse">
<stop stop-color="#3F6377"/>
<stop offset="1" stop-color="#3F6377" stop-opacity="0"/>
</linearGradient>
<clipPath id="clip0_10296_3765">
<rect width="28" height="28" rx="6" fill="white"/>
</clipPath>
</defs>
</svg>
