<svg xmlns="http://www.w3.org/2000/svg" viewBox="0 0 64 64" role="img" aria-label="Witch Hut">
  <defs>
    <linearGradient id="roof" x1="10" y1="10" x2="54" y2="34" gradientUnits="userSpaceOnUse">
      <stop stop-color="#6c4b35"/>
      <stop offset="1" stop-color="#2f241f"/>
    </linearGradient>
    <linearGradient id="wood" x1="18" y1="25" x2="48" y2="58" gradientUnits="userSpaceOnUse">
      <stop stop-color="#8f6a42"/>
      <stop offset="1" stop-color="#4d3526"/>
    </linearGradient>
  </defs>
  <path fill="#25352b" d="M10 54h44v5H10z"/>
  <path fill="url(#roof)" d="M7 31 32 9l25 22H7z"/>
  <path fill="#1b1614" d="M13 31h38v5H13z"/>
  <path fill="url(#wood)" d="M17 35h30v19H17z"/>
  <path fill="#2a2019" d="M21 39h8v15h-8z"/>
  <path fill="#151313" d="M34 39h9v8h-9z"/>
  <path fill="#98d86b" d="M36 41h5v4h-5z"/>
  <path fill="#4a3124" d="M11 35h5v21h-5zm37 0h5v21h-5z"/>
  <path fill="#6f4d32" d="M24 17h6v10h-6z"/>
  <path fill="#2f241f" d="M22 15h10v4H22z"/>
  <path fill="#5d3f2d" d="M18 35h28v4H18zm0 15h28v4H18z"/>
  <path fill="none" stroke="#1b1614" stroke-linecap="round" stroke-linejoin="round" stroke-width="3" d="M7 31 32 9l25 22M13 31h38M17 35v19h30V35M11 35v21m42-21v21"/>
</svg>
